<?xml version="1.0" encoding="UTF-8"?> <svg xmlns="http://www.w3.org/2000/svg" xmlns:v="https://vecta.io/nano" width="107" zoomAndPan="magnify" viewBox="0 0 80.25 81" height="108" preserveAspectRatio="xMidYMid meet"><defs><clipPath id="A"><path d="M1.07 1.594h77.762v77.758H1.07zm0 0" clip-rule="nonzero"></path></clipPath><clipPath id="B"><path d="M39.949 1.594C18.477 1.594 1.07 19 1.07 40.473s17.406 38.879 38.879 38.879 38.883-17.406 38.883-38.879S61.422 1.594 39.949 1.594" clip-rule="nonzero"></path></clipPath><clipPath id="C"><path d="M5.512 10.266h22.457v20.156H5.512zm0 0" clip-rule="nonzero"></path></clipPath><clipPath id="D"><path d="M.445 1H79v79H.445zm0 0" clip-rule="nonzero"></path></clipPath></defs><g clip-path="url(#A)"><g clip-path="url(#B)"><path fill="#fff" d="M1.07 1.594h77.762v77.758H1.07zm0 0"></path></g></g><g clip-path="url(#C)"><path fill="#fff" d="M5.512 10.266h22.531v20.063H5.512zm0 0"></path></g><g clip-path="url(#D)"><path fill="#ee4238" d="M37.723 79.508a2.22 2.22 0 0 0-.316-.051c-3.301-.16-6.523-.754-9.664-1.781a37.33 37.33 0 0 1-14.875-8.996C7.492 63.422 3.902 57.145 2.102 49.84c-.379-1.539-.656-3.098-.84-4.672-.148-1.246-.223-2.5-.27-3.754-.031-1.047-.008-2.09.066-3.133a43.17 43.17 0 0 1 .23-2.566c.195-1.602.488-3.18.883-4.742.734-2.902 1.789-5.684 3.164-8.344.031-.059.063-.121.098-.176.004-.016.023-.023.055-.055a1.16 1.16 0 0 1 .031.168v3.668c-.004.211-.047.414-.125.613-.789 2-1.402 4.055-1.836 6.164-.242 1.172-.422 2.352-.551 3.543-.145 1.332-.219 2.668-.219 4.012a37.87 37.87 0 0 0 1.707 11.148c1.879 5.926 5.023 11.082 9.43 15.469 2.508 2.484 5.32 4.563 8.434 6.23.152.082.316.152.508.246v-1.848c.184-.027.34-.055.492-.07.828-.102 1.559-.426 2.188-.973a6.92 6.92 0 0 0 1.66-2.082c.152-.289.285-.594.426-.887.035-.074.07-.148.121-.242l2 1.242-.18.383a5.28 5.28 0 0 0-.527 1.582c-.187 1.34.191 2.465 1.277 3.316.34.273.727.379 1.156.305.301-.043.598-.102.895-.176.262-.062.531-.07.801-.023.59.098 1.188.141 1.789.137 1.836-.035 3.316-.781 4.477-2.195l.238-.297.105.918c.086.762.191 1.523.418 2.258a10.47 10.47 0 0 0 .441 1.113c.059.148.156.266.289.348s.277.121.438.109c.16 0 .309-.047.438-.137a.75.75 0 0 0 .281-.367c.078-.187.133-.379.211-.602.066.066.117.117.164.172l.883 1.141c.094.121.199.23.316.324.215.172.422.168.609-.027a1.71 1.71 0 0 0 .328-.473c.129-.266.211-.547.316-.824.09-.242.191-.285.422-.164.121.066.23.141.348.211a1.75 1.75 0 0 0 .219.125c.227.094.379.027.449-.207.039-.152.066-.312.086-.469.012-.082.02-.164.035-.297a4.42 4.42 0 0 1 .227.219c.148.16.289.332.445.484.117.109.246.203.391.277.09.059.188.078.293.051s.184-.086.238-.18c.09-.133.152-.277.184-.434.16-.812.18-1.621-.074-2.422-.004-.035-.004-.066 0-.098l.238-.043c.125-.016.227-.07.305-.164s.117-.207.105-.332a1.75 1.75 0 0 0-.18-.781 34.03 34.03 0 0 0-.371-.797c.066-.02.117-.039.172-.051.426-.094.645-.344.625-.785-.012-.227-.055-.449-.137-.66-.121-.316-.285-.613-.426-.918-.051-.105-.09-.211-.133-.316.105-.094.191-.031.273 0 .227.086.633-.039.82-.258s.141-.437.023-.66a2.53 2.53 0 0 0-.859-.945c-.406-.273-.828-.523-1.184-.859-.027-.02-.055-.031-.086-.039-.082.086-.027.148.016.203.125.152.246.301.379.445.348.375.645.801 1.055 1.117.117.09.105.195.004.305a.38.38 0 0 1-.324.105l-.652-.059c-.082-.008-.164 0-.254 0-.043.145.039.242.094.34l1.063 1.953c.066.117.16.238.063.371s-.25.121-.398.105l-.852-.113c-.094-.004-.191-.004-.289 0 .051.105.086.199.133.285l.723 1.277c.059.105.152.211.066.348s-.242.168-.398.152-.332-.043-.5-.066c-.051.125-.039.242.027.352.281.582.379 1.203.418 1.836.008.188.043.367.066.551.016.086.023.168.023.254a.22.22 0 0 1-.113.211.22.22 0 0 1-.238 0 .78.78 0 0 1-.211-.18l-1.031-1.215-.203-.234c-.031.156-.062.266-.074.375l-.102 1.051c-.012.07-.023.141-.043.211-.172.074-.277-.008-.359-.121-.133-.184-.258-.375-.387-.562l-.289-.422a.36.36 0 0 0-.246.336l-.195 1.043-.07.422c-.004.148-.082.238-.227.27-.133.027-.203-.055-.273-.145-.527-.687-1.086-1.355-1.52-2.109-.066-.113-.148-.219-.258-.379-.047.109-.09.223-.121.34-.113.492-.211.988-.316 1.48-.047.203-.113.254-.293.23-.117-.016-.184-.082-.195-.203-.098-.406-.223-.812-.281-1.227-.125-.902-.211-1.809-.316-2.711l-.062-.578c.133-.012.238-.031.344-.031l2.578-.027c.547-.012 1.094-.062 1.633-.16a.71.71 0 0 0 .121-.035c.305-.098.352-.18.25-.477-.137-.344-.078-.652.176-.918.137-.148.285-.277.43-.414-.098-.129-.195-.09-.293-.066l-1.523.367c-.965.215-1.945.313-2.934.305-.418 0-.82.07-1.215.207l-.117.047c-.152.082-.164.211-.02.316.066.039.137.066.211.082.668.176 1.344.293 2.027.348l1.035.121c-.242.016-.484.039-.723.047l-2.984.047c-.172 0-.234-.008-.293.215-.129.539-.445.926-.941 1.168.016-.066.023-.105.035-.141l.367-1.121c.008-.027.016-.051.02-.074.012-.09.012-.176-.102-.195s-.137.051-.156.125a8.29 8.29 0 0 0-.113.418 2.77 2.77 0 0 1-1.105 1.641l-.473.34c-.41.316-.883.441-1.391.469a6.56 6.56 0 0 1-1.832-.133c-.441-.082-.887-.098-1.332-.043-.27.023-.539.035-.809.023a.96.96 0 0 1-.832-.5c-.383-.582-.504-1.211-.363-1.887.125-.633.277-1.266.383-1.906.039-.32.051-.641.039-.961 0-.145-.105-.223-.223-.281-.262-.133-.523-.273-.789-.395-.543-.254-1.055-.566-1.527-.934a1.58 1.58 0 0 0-.516-.25c-.211-.062-.246-.016-.316.203l-.488 1.43c-.195.527-.527.973-.855 1.43-.434.613-1.051.988-1.684 1.336-.387.211-.828.27-1.273.285l-.832.023a.81.81 0 0 0-.555.207c-.168.148-.316.105-.379-.113a7.7 7.7 0 0 1-.16-.793l-.379-2.293c0-.016 0-.031-.008-.047-.047-.281-.047-.281-.324-.301-.227-.016-.457-.023-.68-.051-.656-.082-1.141-.426-1.496-.973-.324-.508-.574-1.051-.754-1.625a1.48 1.48 0 0 0-.363-.594 12.35 12.35 0 0 1-.574-.633 2.42 2.42 0 0 1-.535-1.078c-.09-.406-.074-.809.043-1.207a3.12 3.12 0 0 1 .555-1.18.95.95 0 0 0 .211-.656c-.012-.414.051-.82.188-1.215.359-1.137 1.129-1.828 2.277-2.109.082-.02.164-.035.246-.055.336-.062.617-.219.852-.461a2.47 2.47 0 0 1 1.266-.707c.438-.117.855-.07 1.258.137.27.141.52.309.75.508.203.188.445.258.719.207a6.06 6.06 0 0 1 .703-.039c.422-.008.777.141 1.066.445.211.211.406.453.605.68l.176.203c.094-.043.176-.078.254-.121.824-.48 1.707-.793 2.648-.949l.496-.098c.238-.039.27-.02.383.188.277.508.457 1.047.543 1.621a13.18 13.18 0 0 1 .145 1.355c.066 1.031-.16 1.996-.68 2.891-.105.176-.199.355-.297.527-.383.688-.891 1.266-1.516 1.742a2.55 2.55 0 0 0-.273.227c-.211.211-.211.465.02.66a3.12 3.12 0 0 0 .496.344 40.2 40.2 0 0 0 1.074.563 2.18 2.18 0 0 0 .227.07.9.9 0 0 0 .012-.203c-.141-.559-.051-1.105.035-1.656.035-.227.113-.437.234-.633.16-.266.328-.527.473-.805.23-.402.434-.816.617-1.242l2.523-6.555c.227-.59.406-1.195.387-1.84-.004-.445-.141-.844-.402-1.203-.062-.078-.121-.164-.184-.238-.684-.801-.844-1.715-.566-2.703.754-2.652 2.238-4.77 4.625-6.203.668-.402 1.398-.625 2.156-.77.707-.129 1.418-.176 2.137-.137.621.031 1.184-.141 1.68-.52.281-.223.594-.383.938-.48.27-.066.316-.039.414.219l.367 1.023c.082.234.109.477.078.723-.094.02-.187.043-.281.059-.289.047-.586.07-.871.141-.691.172-1.109.605-1.203 1.328-.086.543-.09 1.09-.012 1.637.105.668.457 1.188.965 1.609.316.246.66.438 1.035.57a.89.89 0 0 0 .852-.059c.547-.316 1.098-.633 1.617-.984a5.16 5.16 0 0 1 1.852-.836c.5-.105.988-.266 1.504-.332 1-.129 2-.246 3.016-.273a8.54 8.54 0 0 0 3.266-.703 4.23 4.23 0 0 0 .969-.59c.766-.617 1.434-1.328 2-2.133.414-.598.898-1.137 1.363-1.691a8.6 8.6 0 0 1 1.594-1.465c.609-.434 1.055-1.035 1.441-1.672l.43-.711a2.88 2.88 0 0 1 1.02.496c.344.281.688.57 1.02.867l2.285 2.07a5.55 5.55 0 0 0 2.637 1.379l.836.199 3.68.777c.051.008.098.023.148.031.105.016.168-.023.172-.129a12.01 12.01 0 0 0 .012-.527c0-.125-.094-.141-.187-.164-.441-.098-.887-.184-1.328-.301l-2.777-.758c-1.266-.383-2.402-1.008-3.406-1.875-.656-.555-1.293-1.137-1.922-1.723a3.33 3.33 0 0 0-1.109-.727c-.238-.086-.461-.211-.715-.32.047-.133.082-.25.129-.363.289-.723.629-1.414 1.023-2.086a8.58 8.58 0 0 0 1.141-3.477c.074-.641.105-1.277-.012-1.914-.043-.23-.117-.453-.223-.668-.133-.277-.363-.305-.598-.105-.086.082-.16.172-.23.27a1.45 1.45 0 0 1-.211.227c0-.062.004-.125.016-.184l.445-1.582c.016-.055.035-.109.059-.164a.2.2 0 0 1 .23-.164h.25 5.816c.164 0 .328-.023.527-.039-.055-.145-.086-.246-.133-.344-1.883-4.172-4.359-7.945-7.586-11.199-4.129-4.152-8.937-7.199-14.473-9.102a35.02 35.02 0 0 0-5.844-1.453c-2.242-.371-4.5-.531-6.773-.484a39.81 39.81 0 0 0-3.852.281c-3 .367-5.91 1.098-8.73 2.18s-5.465 2.496-7.937 4.234c-.184.133-.387.199-.609.199l-2.301-.012c-.082 0-.16-.012-.301-.02.105-.09.156-.148.219-.195 2.043-1.629 4.227-3.035 6.551-4.23 3.238-1.652 6.641-2.828 10.211-3.523 1.188-.234 2.391-.406 3.598-.527 1.645-.172 3.293-.234 4.945-.184a43.5 43.5 0 0 1 3.703.285 38.9 38.9 0 0 1 6.156 1.246c4.465 1.297 8.539 3.375 12.262 6.156 4.871 3.637 8.672 8.18 11.445 13.594a39.09 39.09 0 0 1 3.543 10.125c.285 1.414.496 2.836.633 4.273.141 1.52.184 3.043.141 4.57-.016.891-.043 1.789-.113 2.676-.141 1.758-.41 3.496-.816 5.211a37.17 37.17 0 0 1-7.031 14.754 38.15 38.15 0 0 1-11.453 9.836 39.72 39.72 0 0 1-11.645 4.34c-1.266.262-2.535.457-3.816.605-1.07.129-2.148.199-3.227.211-.156 0-.316.031-.473.051zm24.391-28.676l.043-.035c.035.02.074.039.105.063 1.066.742 1.949 1.66 2.648 2.75.379.594.707 1.211.984 1.859.055.109.113.215.18.316.094-.242.023-.422-.031-.59a15.66 15.66 0 0 0-3.793-6.477c-.211-.219-.437-.418-.664-.617a.25.25 0 0 0-.316-.074c.063.117.113.23.18.336.168.27.355.531.512.809a1.76 1.76 0 0 1 .188.52c.039.184-.043.293-.227.332a1.35 1.35 0 0 1-.5.023 13.54 13.54 0 0 1-1.348-.328c-.664-.211-1.316-.465-1.973-.699-.238-.086-.477-.168-.719-.246-.031-.012-.078.016-.121.027 0 .02-.004.035-.008.055.129.07.254.148.391.211l2.234 1.063c.332.16.652.344.977.527a1.1 1.1 0 0 1 .18.148c-.082.008-.168.008-.25 0-.289-.047-.578-.098-.867-.156l-1.781-.359c-.176-.059-.328-.023-.457.105.047.016.09.035.137.055.105.066.211.137.324.195a14.88 14.88 0 0 1 2.652 1.703c1.117.875 1.965 1.957 2.547 3.25.402.906.855 1.789 1.289 2.688.063.129.141.25.223.363.066.09.156.199.266.141.086-.066.145-.152.176-.258.02-.074.027-.148.02-.223 0-.129 0-.254.016-.379.031-.473-.031-.926-.187-1.371a15.93 15.93 0 0 0-1.383-3.027l-1.488-2.437c-.059-.09-.105-.176-.156-.262zm-6.59 8.02c-.148.156-.125.316-.121.461.035.859 0 1.719-.105 2.57l-.66 4.578c-.184 1.137-.215 2.277-.098 3.426.129 1.066.375 2.102.738 3.113a1.88 1.88 0 0 0 .691.883c.066.055.145.074.23.059.191-.047.359-.137.508-.27-.105-.266-.219-.52-.309-.781a10.67 10.67 0 0 1-.469-2.422c-.105-1.102-.141-2.203.02-3.305.199-1.375.125-2.758.02-4.137l-.18-1.961-.199-1.984c-.02-.078-.039-.152-.066-.227zm-33.602 3.18l.043.063c.137-.016.277-.023.414-.051.93-.203 1.676-.719 2.328-1.387.047-.059.094-.121.137-.184a.66.66 0 0 0 .066-.758c-.5-1.172-1.832-2.02-3.102-1.969a.33.33 0 0 0-.324.145c.098.09.191.172.277.262.082.082.152.176.211.277.555 1.09.672 2.191.082 3.313-.047.094-.086.191-.133.289zm2.719-.07c-.137.059-.219.09-.297.129-.297.141-.586.297-.891.422a6.31 6.31 0 0 1-2.422.547c-.668.008-1.301-.141-1.934-.32l-.309-.086a2.87 2.87 0 0 0 .074.328c.434 1.102 1.285 1.648 2.426 1.801.152.016.297-.016.434-.09.633-.355 1.266-.715 1.875-1.098.512-.316.879-.762 1.012-1.371.008-.066.012-.137.031-.262zm12.391 3.109a.42.42 0 0 0 .434-.168c.566-.574 1.145-1.141 1.691-1.738.453-.492.707-1.09.859-1.746.242-1.039.234-2.086.176-3.137l-.129-3.004-.047-2.07c.02-.148-.027-.27-.137-.367a1.39 1.39 0 0 0-.168.258 2.3 2.3 0 0 0-.18.961l.051 1.109.113 2.297a12.36 12.36 0 0 1-.105 2.738c-.223 1.57-.918 2.871-2.133 3.898a2.1 2.1 0 0 0-.32.352c-.152.188-.187.395-.105.617zm10.805-13.805l.051-.035a1.72 1.72 0 0 1 .113.125c.164.246.336.484.488.738l1.344 2.199c.055.09.121.168.199.277.043-.211.043-.211-.031-.453a23.22 23.22 0 0 0-.973-2.574c-.148-.328-.301-.656-.434-.992-.234-.578-.348-1.176-.34-1.801 0-.105.039-.23-.094-.34a2.23 2.23 0 0 0-.137.25c-.121.34-.246.68-.348 1.027s-.164.688-.25 1.027c-.02.152-.086.277-.203.375-.066-.07-.129-.145-.184-.223-.074-.133-.133-.273-.199-.41-.039-.078-.07-.168-.203-.184-.102.305-.109.613-.02.922.031.117.109.188.23.203a.84.84 0 0 1 .527.367c.238.348.488.688.699 1.055.289.512.543 1.043.816 1.566a5.68 5.68 0 0 0 .23.391c.02.055.059.086.109.098s.105.004.148-.031c-.004-.113-.02-.223-.043-.328-.059-.195-.133-.383-.219-.562l-.945-1.898c-.125-.258-.227-.527-.336-.789zM21.363 65.551l-.43-.066c-.758-.105-1.422-.402-1.949-.973-.176-.191-.332-.402-.504-.602-.039-.043-.086-.082-.141-.137-.105.203-.145.418-.125.645.051.91.508 1.582 1.242 2.09.168.105.348.164.547.172.508.035 1.133-.414 1.32-.902.02-.074.031-.148.039-.227zm19.895.508l.066.059a1.61 1.61 0 0 0 .246-.152 5.6 5.6 0 0 0 .91-1.012c.484-.734.887-1.508 1.199-2.328a.7.7 0 0 0 .055-.246 1.16 1.16 0 0 1 .203-.668c.16-.246.316-.496.496-.73.25-.328.516-.641.777-.965.059-.074.105-.16.164-.242-.133-.102-.258-.09-.371.031-.25.199-.484.414-.703.648-.672.781-1.18 1.656-1.527 2.629a10.85 10.85 0 0 1-.777 1.641l-.602 1.051c-.051.09-.09.188-.137.285zm3.156-14.359c0-.355-.199-.566-.555-.582a1.22 1.22 0 0 0-.5.078 1.26 1.26 0 0 0-.426.273 1.29 1.29 0 0 0-.281.422 1.27 1.27 0 0 0-.09.496c.016.34.191.527.535.547a1.25 1.25 0 0 0 .492-.074c.16-.059.301-.148.426-.262s.223-.254.289-.41.105-.316.109-.488zm-26.945 11.75c.234-.414.387-.855.457-1.328.07-.465-.066-.855-.406-1.172-.199-.203-.336-.199-.539 0-.184.188-.289.41-.316.672a2.05 2.05 0 0 0 .348 1.418c.113.18.266.316.457.41zm5.246 1.461l.484.195c.289.105.578.23.875.313.195.051.387.039.57-.039s.332-.195.438-.367c.082-.098.086-.199.02-.305-.156-.223-.348-.402-.625-.437-.602-.086-1.137.066-1.602.457-.059.059-.113.121-.16.184zm23.816-2.422l.066.051a2.62 2.62 0 0 0 .191-.172 3.63 3.63 0 0 0 .777-1.512c.086-.289.098-.578.035-.871l-.391-1.383c-.023-.066-.059-.125-.098-.18l-.059.016a.95.95 0 0 0-.031.184c0 .191.02.387.023.578.012.387.047.773-.043 1.16l-.277 1.23-.199.898zm-24.867-2.152l-.051-.035c-.082.031-.156.074-.227.121l-.852.711c-.297.277-.633.496-1.004.656a2.01 2.01 0 0 0-.227.145c.234.211.508.324.824.336.246.02.461-.055.648-.223a2.5 2.5 0 0 0 .828-1.352c.023-.117.039-.238.059-.359zm7.223 1.199l.578-.066c.18-.016.301-.109.359-.281a1.67 1.67 0 0 0 .105-.387c.027-.074.016-.145-.031-.207s-.105-.098-.184-.102c-.332-.062-.664-.105-.996-.16-.113-.023-.199.012-.266.105-.141.199-.281.398-.402.609-.105.172-.055.289.145.344.25.07.508.109.691.145zm-4.098 7.25c.461-.316.73-.75.934-1.266-.422-.324-.898-.457-1.426-.395-.176.02-.234.125-.168.293a30.48 30.48 0 0 0 .473 1.109 1.74 1.74 0 0 0 .188.258zm1.324-2.426c0-.074 0-.152-.012-.227-.02-.281-.086-.551-.207-.805-.094-.176-.207-.203-.371-.094a.64.64 0 0 0-.098.082 3.56 3.56 0 0 0-.648.926c-.082.172-.059.242.098.34a1.81 1.81 0 0 0 .855.285c.297.023.371-.051.383-.355 0-.047-.004-.098-.004-.148zm-4.031 1.68a1.49 1.49 0 0 0 .949-.293c.191-.145.234-.309.109-.48a1.26 1.26 0 0 0-1.125-.562c-.184 0-.254.082-.285.258l-.086.57c-.066.43.004.512.438.508zm13.617 3.141c.316.152.477.105.621-.168a2.84 2.84 0 0 0 .145-.316 5.66 5.66 0 0 0 .391-2.02c.012-.437-.027-.875-.055-1.309-.008-.117-.012-.254-.16-.336-.105.129-.156.281-.148.449l-.105 2.039a2.28 2.28 0 0 1-.547 1.41c-.055.078-.102.164-.141.25zM19.391 57.328a.69.69 0 0 0-.621.09c-.652.371-1.137.891-1.316 1.645-.086.367-.07.719.176 1.031.039.039.082.074.129.105.023-.039.043-.059.047-.082.02-.105.039-.211.051-.324.063-.711.352-1.312.863-1.805.141-.137.301-.246.449-.371.086-.074.199-.125.223-.289zm23.262-6.055c-.559.066-1.031.66-1.07 1.289-.035.516.328 1.125.762 1.234l-.113-.52c.219.059.332.254.551.273-.004-.051-.02-.098-.039-.145-.098-.133-.195-.273-.305-.398a1.11 1.11 0 0 1-.223-.359c-.051-.133-.074-.27-.07-.414a.98.98 0 0 1 .09-.41c.055-.133.137-.25.238-.348.051-.055.098-.113.18-.203zM26.809 62.133c.223-.184.25-.273.152-.52l-.656-1.637c-.051-.098-.109-.195-.176-.285-.062.094-.098.152-.137.203-.238.336-.324.668-.039 1.039.227.301.422.633.633.941a3.51 3.51 0 0 0 .223.258zm.203-3.664c-.258.133-.258.34-.219.555a8.2 8.2 0 0 0 .508 1.684c.055.102.117.195.188.285.117-.25.223-.504.316-.766.027-.125.008-.246-.047-.359-.176-.383-.367-.758-.559-1.129-.059-.094-.117-.184-.187-.27zm-1.508 2.98a.91.91 0 0 0-.172.598c.043.539.316.984.617 1.418.059.098.133.113.223.047.129-.082.215-.199.258-.348s.027-.289-.039-.43c-.219-.379-.461-.734-.699-1.105a1.36 1.36 0 0 0-.187-.18zm3.012 1.418c.184-.055.363-.117.535-.191.16-.066.223-.184.191-.352-.035-.148-.176-.164-.301-.187-.082-.016-.164-.031-.246-.043L28 61.98c-.27-.055-.363-.023-.512.195-.125.18-.113.273.066.402.262.184.563.25.961.289zm-4.93 3.77c.09-.02.176-.047.258-.086.246-.152.238-.391-.016-.527a1.49 1.49 0 0 0-.258-.105l-1.082-.395c-.039-.016-.078-.031-.121-.039-.129-.02-.211.043-.285.195-.031.047-.039.098-.023.156a.19.19 0 0 0 .098.121c.32.25.672.441 1.055.57zm-3.055-9.59c.254-.051.48-.117.715-.141.457-.047.918-.07 1.379-.105.094-.008.184-.031.332-.051a1.09 1.09 0 0 0-.211-.191c-.242-.129-.496-.238-.758-.336a1.26 1.26 0 0 0-.73.023 1.22 1.22 0 0 0-.598.418c-.109.109-.148.238-.125.391zm4.93 1.746c.152-.125.203-.277.27-.422.109-.211.09-.41-.055-.598-.234-.355-.562-.57-.988-.637a.48.48 0 0 0-.48.141c.164.156.324.301.473.457s.293.328.426.504.234.363.359.559zm3.332.902a1.46 1.46 0 0 0 .914.16c.473-.062.578-.223.449-.68 0-.02-.004-.035-.012-.051-.023-.113-.094-.18-.207-.199a5.9 5.9 0 0 0-.527-.07c-.18-.027-.301.043-.367.211-.086.195-.16.406-.25.629zm-8.668-1.613l.219.324c.324.445.465.93.352 1.477-.043.105-.023.195.063.27a1.71 1.71 0 0 0 .543-.68c.082-.16.086-.324.012-.488-.148-.336-.367-.621-.656-.852-.164-.156-.344-.172-.535-.051zm-.137 1.535c-.133-.016-.156.07-.187.133a2.01 2.01 0 0 1-.789.797c-.105.066-.211.137-.316.211a.6.6 0 0 0-.141.141c-.094.129-.09.254.012.375.098.105.203.117.324.039.047-.016.09-.039.133-.066.332-.215.59-.496.777-.848a1.51 1.51 0 0 0 .188-.781zm8.191-.277h.082a1.27 1.27 0 0 0 .176-.289c.152-.461.059-.867-.281-1.219-.043-.059-.102-.098-.176-.113s-.145 0-.207.043c-.117.074-.148.176-.094.355.098.297.191.594.301.883.059.121.121.234.195.34zm-.023 4.113a2.26 2.26 0 0 0-1.031-.254.21.21 0 0 0-.223.133c-.078.156-.129.32-.148.492.438.277 1.211.074 1.402-.375zm12.016 5.969c-.027-.609-.082-1.152-.281-1.707-.199.285-.422 1.352-.336 1.629zM23.684 68.07c-.242.105-.316.254-.219.5s.219.492.344.73c.086.164.234.227.344.164s.141-.215.043-.398c-.004-.004-.008-.012-.012-.02l-.422-.855c-.027-.043-.055-.078-.078-.121zm-5.164-7.988c.254-.055.449-.156.551-.383.074-.168.039-.297-.098-.363s-.359-.031-.422.105c-.082.195-.156.402-.027.641zm3.23 9.426c.258-.219.438-.492.539-.816-.16-.066-.324-.066-.484 0a.27.27 0 0 0-.148.152c-.051.227-.062.449.098.664zm8.207-11.992a.65.65 0 0 0-.391.578c-.016.168.023.219.199.254s.285-.012.316-.16c.055-.242.016-.465-.121-.672zm-7.449 12.227c.184.066.359 0 .527-.062.051-.031.078-.078.082-.137-.012-.172-.051-.34-.211-.445-.25.176-.375.379-.395.637zm6.746-12.418c-.246-.066-.426-.008-.504.156-.066.145 0 .285.211.438a.73.73 0 0 0 .301-.602zm9.211 11.809l.316.066c.125-.371.043-.617-.262-.789zm0 0"></path></g><g fill="#ee4238"><path d="M44.555 38.543a3.06 3.06 0 0 0 .133.309c.25.426.234.867.07 1.313a.79.79 0 0 1-.391.449 4.37 4.37 0 0 1-1.75.531c-.168.008-.336 0-.504-.023a5.72 5.72 0 0 0-2.516.262l-1.305.488a5.49 5.49 0 0 1-1.113.316 3.08 3.08 0 0 0-.586.152 1.66 1.66 0 0 1-1.254-.043l-1.512-.645a2.41 2.41 0 0 1-1.062-.832l-.934-1.289c-.492-.723-1.164-1.187-2.012-1.391a1.37 1.37 0 0 0-.676-.008l-1.082.242c-.121.023-.234.074-.336.145.063.023.125.055.191.07l.98.246a3.51 3.51 0 0 1 1.934 1.168l1.027 1.219.777.828a4.14 4.14 0 0 0 1.688.941l.816.262c.086.027.164.074.266.121-.258.523-.555.957-1.164 1.082-.566.121-1.133.141-1.703.055-.598-.09-1.18-.199-1.734-.437-.746-.324-1.477-.707-2.078-1.238-1.078-.949-2.012-2.023-2.34-3.488l-.082-.422c-.016-.145-.012-.266-.02-.434a3.8 3.8 0 0 0-.422 0 .17.17 0 0 0-.121.125 1.13 1.13 0 0 0 .012.328c.164 1.504.871 2.723 1.965 3.742.617.555 1.289 1.027 2.023 1.414l1.055.602a1.74 1.74 0 0 1 .188.148c-.043.156-.145.238-.309.25l-1.418.242a26.26 26.26 0 0 0-3.43.734 1.09 1.09 0 0 1-1.094-.191c-.285-.211-.582-.398-.895-.566-.215-.094-.301-.258-.262-.488a9.69 9.69 0 0 1 .277-1.516l.254-1.156a1.48 1.48 0 0 0 .02-.43c-.031-.289-.211-.379-.457-.211-.211.148-.41.324-.617.484-.082.063-.176.117-.301.199l-.035-.363v-3.086-4.551-7.844-.312c.07-.02.141-.035.211-.043.094-.008.188 0 .281 0h35.195l-.051.219a9.62 9.62 0 0 0-.465 2.223l-.73 4.816-.223 1.191c-.039.203-.059.223-.262.242l-1.207.09-1.359.105c-.672.078-1.301.277-1.895.598-.23.125-.23.133-.16.375l.148.488.34-.137c.484-.211.977-.414 1.512-.473l1.531-.168.727-.078c.035 0 .066-.012.105-.016.371-.039.473.152.371.445L55.43 40c-.02.063-.051.121-.094.223l-.191-.215-.738-1a9.2 9.2 0 0 0-.687-.77c-.117-.113-.25-.195-.402-.25-.187-.074-.297.02-.285.219.016.18.043.355.086.527l.648 2.598c.051.211.086.43.121.645.008.098.008.191 0 .289-.867-.406-1.648-.914-2.453-1.402.375-.73.418-1.504.496-2.281-.176-.141-.371-.094-.559-.07-.094.012-.105.094-.113.172l-.152.844c-.059.277-.148.57-.406.805-.316-.176-.598-.395-.918-.617l.184-.203.309-.371c.055-.074.105-.18.023-.25a.28.28 0 0 0-.23-.02 4.97 4.97 0 0 0-.605.254c-.234.121-.441.117-.652-.062-.148-.121-.316-.227-.496-.355l.266-.305.395-.422c.191-.211.195-.254.047-.543a1.41 1.41 0 0 0-.277.137l-.664.586-.242.234-.461-.316a1.24 1.24 0 0 1 .105-.145c.383-.414.758-.836 1.215-1.176.109-.055.145-.141.105-.258s-.141-.113-.23-.113l-.91.008c-.168.004-.309.07-.422.195a6.24 6.24 0 0 0-.516.551.43.43 0 0 1-.582.172l-.559-.16c-.098.238-.168.48-.211.73 0 .043.016.078.047.105.035.035.078.063.125.082 1.23.668 2.395 1.441 3.582 2.184l3.992 2.48a6.79 6.79 0 0 0 .785.406.41.41 0 0 1 .305.391c.027.223.07.449.125.668.039.172.129.211.375.18.125-.016.184-.07.168-.234-.031-.41-.09-.816-.18-1.223l-.805-2.812-.246-.875a.63.63 0 0 1 .023-.461 2.17 2.17 0 0 1 .191.227l1.129 1.855.926 1.598.105.168c.121.176.223.211.406.125a3.01 3.01 0 0 0 .555-.348c1.555-1.312 2.73-2.926 3.723-4.687l.828-1.562c.598-1.156.75-2.383.547-3.66l-.098-.621.008-.184c.047.039.086.082.121.129.422.789.785 1.602.891 2.508.031.332.207.547.523.652a.71.71 0 0 0 .809-.211l1.125-1.266a9.88 9.88 0 0 0 1.723-3.184c.008-.023.023-.043.07-.062-.008.117 0 .238-.02.352a5.61 5.61 0 0 1-.676 2.004c-.359.629-.672 1.285-.93 1.961-.348.871-.707 1.734-1.227 2.516-.262.395-.566.758-.863 1.121a2.1 2.1 0 0 1-.812.59c-.492.207-.906.52-1.238.938l-1.895 2.398c-.41.551-.859 1.059-1.355 1.531a4.24 4.24 0 0 1-1.477.906l-.969.363c-.461.176-.937.273-1.43.285l-1.645.039c-1.07.055-2.117.281-3.16.527a5.5 5.5 0 0 0-2.25 1.043 11.48 11.48 0 0 1-.91.637c-.441.281-.844.227-1.246-.117-.852-.727-1.07-1.656-.871-2.715a1.29 1.29 0 0 1 .172-.391.42.42 0 0 1 .398-.223l1.664-.086a10.86 10.86 0 0 0 2.094-.324l.219-.062c.387-.105.465-.051.555.352a2.77 2.77 0 0 0 .09.391c.082.246.23.328.469.238.141-.055.273-.129.395-.219.156-.113.184-.203.078-.367-.148-.246-.316-.477-.508-.691L48.26 41.5l-2.871-2.988a.23.23 0 0 0-.309-.098c-.16.031-.32.074-.523.133zm-20.52-1.055l.438.039h2.102a9.59 9.59 0 0 0 1.707-.141c1.512-.293 2.516-1.148 2.945-2.648a8.41 8.41 0 0 0 .297-2.273c.008-.879-.059-1.75-.316-2.598-.328-1.066-.965-1.859-2.02-2.285a5.24 5.24 0 0 0-1.895-.383l-2.934-.008h-.152c-.117 0-.191.059-.191.188v.152 9.66c0 .09.012.18.02.297zm19.008.012h1.105c.316 0 .316 0 .402-.316l.348-1.32c.09-.328.223-.422.559-.441h.176 3.262c.563 0 .652.074.797.625l.336 1.273c.008.066.035.117.09.16a.21.21 0 0 0 .176.047h.91a2.72 2.72 0 0 0 .305-.043l-.082-.328-1.437-5-1.34-4.684c-.078-.262-.078-.262-.344-.262h-1.441-.707c-.129-.023-.199.035-.211.164l-.043.145-.836 2.887-1.953 6.797c-.031.07-.043.16-.07.293zm-2.34-8.848l-.117-.187a2.84 2.84 0 0 0-.719-.668c-1.109-.723-2.309-.934-3.598-.602-.727.188-1.348.527-1.793 1.148-.684.965-.672 2.395.441 3.254.398.305.828.547 1.297.727l1.93.754a2.88 2.88 0 0 1 .883.527c.758.656.723 2.074-.367 2.586-.574.27-1.187.309-1.805.227-.742-.102-1.363-.465-1.906-.969l-.258-.238-.902.602a2.57 2.57 0 0 0 .09.18 3.21 3.21 0 0 0 1.047.977c1.125.676 2.332.824 3.602.527.688-.148 1.27-.473 1.754-.98.934-.992 1.09-2.863-.437-3.809a8.34 8.34 0 0 0-1.043-.555l-1.668-.668c-.398-.145-.77-.34-1.117-.582a1.4 1.4 0 0 1-.563-1.172 1.38 1.38 0 0 1 .184-.641 1.36 1.36 0 0 1 .457-.484 2.44 2.44 0 0 1 1.324-.371c.797-.027 1.48.258 2.082.77l.32.277zm-6.152 15.012c-.145-.078-.145-.078-.402-.086-.645-.016-1.199-.246-1.621-.746-.105-.121-.199-.254-.297-.379-.441-.602-.941-1.145-1.508-1.633-.738-.625-1.59-1-2.555-1.125-.145-.016-.281-.016-.391.121.098.156.258.219.402.297l1.418.727a2.09 2.09 0 0 1 .453.355c.121.117.105.219-.047.301-.121.066-.242.117-.375.156l-.543.117c-.094.023-.203.039-.211.211l.57.051 1.242.016a.68.68 0 0 1 .422.117l-.465.254c-.145.082-.316.105-.375.309h.422c.105 0 .219-.023.324-.027a.91.91 0 0 1 .906.453 1.36 1.36 0 0 0 .754.563c.441.145.891.188 1.348.129.168-.023.363-.016.527-.18zM6.488 34.016l.316.273 2.938 2.707 1.695 1.398c.145.105.293.199.449.281.074.039.156.063.238.074.148.012.234-.074.203-.211a1.97 1.97 0 0 0-.168-.445 12.48 12.48 0 0 0-1.477-2.168 45.55 45.55 0 0 0-4.367-4.738.73.73 0 0 1-.187-.273l.703.258.543.199a1.39 1.39 0 0 0 .422.051.17.17 0 0 0 .168-.078c.039-.062.039-.121 0-.184a1.89 1.89 0 0 0-.266-.457l-.82-.961-.191-.242c.078.016.156.043.23.078a7.39 7.39 0 0 1 .758.539l1.316 1.223a3.88 3.88 0 0 0 1.203.734l.066.027c.254.086.363.023.414-.238a3.47 3.47 0 0 0 .039-1.082c-.082-.867-.301-1.707-.508-2.547a3.23 3.23 0 0 0-.16-.422l-.078-.187c-.047-.184.02-.289.211-.285a5.1 5.1 0 0 1 .703.059c.125.016.25.055.375.07.406.059.648-.129.691-.539l.117-1.312.336-.035 1.465-.02c.43-.008.559-.113.664-.543l.602-2.477.254-1.055c.016-.066.043-.129.074-.23.051.066.098.105.105.148a1.79 1.79 0 0 1 .035.352v3.035c-.008.527.164.797.785.793h2.199c.117 0 .23.012.363.023l.051.414.098 1.84.285 2.586.48 3.402.563 4.027.617 2.965.574 2.539c.078.34.016.633-.25.875a2.23 2.23 0 0 0-.281.32c-.113.145-.148.305-.105.48.039.191.164.234.309.105a2.5 2.5 0 0 0 .281-.324l1.715-2.219.191-.242a.39.39 0 0 1-.012.281l-.582 2.168a16.94 16.94 0 0 0-.445 2.422l-.039.324a.42.42 0 0 0 .07.332c.168 0 .215-.117.246-.242l.305-1.332a3.96 3.96 0 0 1 .148-.508c.055-.148.109-.168.25-.098.18.09.355.195.527.301l.824.543a1.1 1.1 0 0 0 1.008.148l2.531-.605a17.7 17.7 0 0 1 2.527-.34c.387-.027.773-.066 1.133-.234.211-.098.43-.074.648-.059l.777.086c.234.031.352.262.211.438-.523.645-.789 1.406-1.043 2.176a1.51 1.51 0 0 1-.098.23c-.082.164-.215.242-.395.227a2.92 2.92 0 0 1-.449-.078l-1.461-.387a2.42 2.42 0 0 0-.625-.074c-1.246.023-2.465.219-3.598.777-.91.453-1.867.77-2.867.953-.586.125-1.18.188-1.781.191a8.31 8.31 0 0 0-2.145.301c-1.762.445-3.426.188-4.992-.715-1.199-.691-1.887-1.75-2.148-3.094l-.164-.895a2.07 2.07 0 0 1 .059-.977l.328-.953a1.23 1.23 0 0 1 .164-.285.17.17 0 0 1 .184-.086.17.17 0 0 1 .152.137c.027.078.047.16.051.246.199 1.695 1.055 2.969 2.465 3.898a2.14 2.14 0 0 0 1.047.344 10.03 10.03 0 0 0 2.668-.137c.355-.07.652-.211.832-.547.051-.086.125-.16.18-.242.098-.148.105-.238-.012-.367-.117-.121-.25-.223-.398-.301-.262-.137-.535-.25-.805-.363-1.121-.465-2.125-1.125-3.141-1.777-1.652-1.059-3.148-2.312-4.602-3.625-1.152-1.035-2.168-2.187-3.047-3.465-.57-.828-1.098-1.672-1.414-2.641l-.125-.426zm60.793-12.95l-.211 1.012-.961 4.547a10.76 10.76 0 0 0-.223 2.184c0 .16.016.316.047.477.063.27.305.352.52.172.121-.117.234-.238.34-.371l.316-.391a.31.31 0 0 1 .012.281l-.395 1.063-.949 1.926a6.88 6.88 0 0 1-.992 1.461l-.625.695c-.121.129-.266.258-.461.188s-.219-.246-.25-.414l-.141-.742a4.73 4.73 0 0 0-.965-1.871 1.77 1.77 0 0 0-.402-.34c-.184-.113-.324-.043-.383.164a.74.74 0 0 0-.031.227l.066 1.105a6.49 6.49 0 0 1-.492 3.461 9.44 9.44 0 0 1-.832 1.586l-1.535 2.289c-.574.816-1.293 1.508-2.043 2.16-.18.156-.258.16-.391-.031s-.246-.398-.344-.613c-.105-.223-.043-.445.035-.664l1.063-3a25.03 25.03 0 0 0 1.063-3.945l.469-2.43.246-1.902c.125-1.098.285-2.187.598-3.25l.301-1.172a3.33 3.33 0 0 1 .469-1.031c.035-.047.066-.098.094-.148.328-.695.832-1.246 1.422-1.719l1.52-1.129c.547-.355.988-.809 1.328-1.363l1.051-1.605a4.03 4.03 0 0 1 .41-.48.47.47 0 0 1 .512-.137.3.3 0 0 1 .254.414c-.031.125-.086.238-.129.359l-.492 1.508a3 3 0 0 0-.082.875c.016.488.336.73.816.652l.379-.055zM16.75 24.395v-.328-7.793l-.004-.301a.57.57 0 0 0-.16-.379.56.56 0 0 0-.367-.18c-.148-.031-.289-.004-.414.078a.54.54 0 0 0-.246.34l-.305 1.227-1.687 7.051c-.023.094-.059.188-.09.289h-1.695l-.094-.312-1.918-8.008c-.027-.125-.066-.242-.117-.359-.117-.25-.309-.355-.582-.316-.125.008-.23.051-.324.133a.5.5 0 0 0-.172.301 1.72 1.72 0 0 0-.035.398v7.816.344H6.746l-.023-.406v-5.613-6.602l.016-.34.367-.027H9.43c.297 0 .305.008.375.293l2.113 8.816.074.293c.105.328.332.488.66.477a.58.58 0 0 0 .609-.5l.449-1.84 1.742-7.191c0-.016.012-.031.016-.051.074-.297.074-.297.391-.297h1.898.48c.09 0 .18.016.266.02.055.211.066 12.684.012 12.961zm0 0"></path><path d="M40.855 24.391h-1.758c-.059-.195-.082-12.512-.023-12.945.113-.012.238-.035.363-.035h1.945c.301 0 .305 0 .414.297l3.09 8.336a1.49 1.49 0 0 0 .105.258.61.61 0 0 0 .289.289.62.62 0 0 0 .41.043c.137-.027.254-.094.344-.199a.6.6 0 0 0 .148-.375c.004-.105 0-.199 0-.301v-8.324c.59-.012 1.156 0 1.754 0 .008.105.027.188.027.277l.016 1.789.016 7.813-.023 2.781v.297c-.109 0-.199.016-.289.016h-2.047c-.305 0-.309 0-.414-.285l-1.57-4.238-1.523-4.121c-.027-.086-.062-.172-.105-.254-.059-.121-.152-.211-.273-.27a.59.59 0 0 0-.383-.047c-.129.012-.242.066-.332.16s-.148.207-.16.34a2.18 2.18 0 0 0-.02.352v7.992zm-8.917 33.507l-.32-1.391-.172-.633a1.51 1.51 0 0 0-.074-.211c-.25-.594-.527-.75-1.16-.66a9.05 9.05 0 0 0-3.187 1.066l-.09.047c-.027.008-.051.012-.074.012l-.187-.246c-.246-.348-.547-.641-.902-.875-.574-.363-1.176-.453-1.805-.168-.176.102-.34.078-.484-.066-.172-.148-.359-.277-.543-.41-.121-.082-.18-.195-.172-.344l.008-3.211c0-.187 0-.199.188-.23 1.223-.211 2.371-.633 3.52-1.082a10.9 10.9 0 0 1 1.984-.578 5.2 5.2 0 0 1 2.711.215l1 .359c.238.09.289.152.277.418l-.078 1.133c-.016.059-.008.113.023.168s.074.082.137.094l.598.273c.184.086.309.227.375.418l.227.645c.125.332.055.621-.207.859-.09.09-.184.172-.281.25-.258.203-.258.203-.16.527a1.51 1.51 0 0 1 .082.367 1.03 1.03 0 0 1-.051.422l-1.129 2.785c-.008.012-.023.02-.051.047zm1.488-5.066c0-.48-.398-1.012-.855-1.141-.344-.094-.566.066-.574.422 0 .266.082.504.238.719s.359.359.609.441c.348.098.582-.078.582-.441zm-1.727-28.441h-1.84l-.105-.344-.418-1.586c-.148-.562-.285-.672-.863-.672h-4.25c-.594 0-.727.105-.879.684l-.437 1.66-.074.258h-1.844l.066-.281 3.582-12.398.043-.145c.02-.113.086-.164.203-.152h.176 2.578.125c.199.008.227.027.285.219l.332 1.164 3.238 11.289.082.305zm-5.355-4.004h1.52a1.12 1.12 0 0 0 .301-.027c.16-.027.285-.113.375-.25a.53.53 0 0 0 .066-.453l-.055-.219-.84-3.227-.586-2.195c-.125-.445-.336-.582-.797-.574s-.641.152-.758.59l-1.008 3.836-.453 1.734c-.133.512.211.781.621.789h1.617zm32.109 2.535a10.62 10.62 0 0 1 .016 1.449l-.316.027-2.125.02a1934.99 1934.99 0 0 1-4.754-.008c-.066 0-.133-.008-.215-.016l-.027-.195c-.008-.105-.008-.219-.008-.328V11.496c.336-.105 6.906-.117 7.313-.02v1.402l-.426.031h-4.25c-.699-.008-.836.316-.828.832v2.477a1.58 1.58 0 0 0 .02.277.58.58 0 0 0 .203.359c.109.094.234.141.379.145.086.008.172 0 .254 0h3.938c.066.191.082 1.18.016 1.496h-.289-3.715c-.602-.004-.816.254-.805.805v2.883c0 .504.238.746.742.746h4.551zm0 0"></path><path d="M34.203 11.457c.363-.07 1.422-.066 1.773.008v12.883c-.195.082-1.371.105-1.773.035-.066-.207-.066-12.707 0-12.926zm11.738 28.75l.461.5c.156.191.168.43.18.668a9.39 9.39 0 0 0 .105.852 1.36 1.36 0 0 0 .129.293l.57-.676c.348.297.66.629.941.988a1.19 1.19 0 0 1-.617.191l-.809.004c-.164.012-.281-.059-.344-.211l-.57-1.348c-.137-.383-.121-.793-.047-1.262zm-20.519-7.852v-3.363a2.13 2.13 0 0 1 .027-.352c.008-.098.047-.18.121-.25s.156-.098.254-.102c.723-.004 1.449-.062 2.168.082.852.176 1.438.664 1.762 1.469.207.508.313 1.035.316 1.582l-.055 2.273c-.031.504-.16.98-.391 1.43-.379.762-1.027 1.148-1.852 1.219-.613.051-1.23.047-1.844.059-.309.004-.477-.145-.496-.453l-.023-1.062V32.36zm21.859 1.969h-1.238c-.484 0-.668-.238-.551-.719l.281-1.074.852-3.219.055-.195c.105-.273.238-.34.656-.332.316 0 .461.082.543.348l.27 1 .895 3.418c.023.082.039.164.043.246a.44.44 0 0 1-.492.527h-1.312zm0 0"></path></g></svg> 