<?xml version="1.0" encoding="UTF-8"?>
<svg width="236mm" height="236mm" version="1.1" viewBox="0 0 236 236" xml:space="preserve" xmlns="http://www.w3.org/2000/svg"><defs><style>.cls-1{fill:#fff;}</style><style>.cls-1{fill:none;}.cls-2{fill:#00a14b;}.cls-3{fill:#1e272e;}.cls-4{fill:#39b54a;}.cls-5{fill:#a11e22;}.cls-6{fill:#ee4238;}.cls-7{fill:#b3322b;}.cls-8{fill:#78211d;}</style><style>.cls-1{fill:#fff;}</style></defs><g transform="translate(-2.0814 -1.8245)"><g transform="matrix(.49103 0 0 .49103 1.2053 21.588)"><g transform="translate(.094636 -.13708)" data-name="Layer 8"><g data-name="Layer 5"><path class="cls-2" d="m245.45 266a4.05 4.05 0 0 1-3.93-3.11c-0.49-1.63-0.75-3.73 1.12-6.91a44.82 44.82 0 0 1 5.26-6.9c0.48-0.54 1-1.08 1.43-1.64 1.53-1.8 3.15-3.52 4.71-5.18 1.39-1.47 2.82-3 4.16-4.54 5.59-6.46 11.58-13.42 17.47-20.55 3.43-4.15 6.83-8.51 10.11-12.73l2.9-3.71 10.82-13.83q7.1-9.1 14.21-18.19c2.37-3 4.77-6 7.17-9 1.83-2.3 3.67-4.59 5.49-6.89 2.62-3.31 5.22-6.62 7.83-9.94 4.78-6.08 9.73-12.36 14.65-18.5 2.86-3.57 6-7 8.92-10.09a12.75 12.75 0 0 1 8.32-4 4.26 4.26 0 0 1 3.17 1.18 4 4 0 0 1 0.84 3.6l10.08-10.85c3.39-3.66 6.2-5.36 8.84-5.36a5.72 5.72 0 0 1 1.84 0.3 3.84 3.84 0 0 1 2.47 2.73c0.56 2-0.08 4.84-1.54 7.14q2.43-2.32 4.8-4.54c2.26-2.12 4.88-3.38 7-3.38a4.12 4.12 0 0 1 4.26 3.43c0.49 2.67-0.72 6-2.93 8.49 1.47-1.22 4.2-3.16 6.73-3.16a4 4 0 0 1 4 3.06c0.72 2.6-0.24 5.66-2.51 8.27a8 8 0 0 1 3.53-0.93 4.59 4.59 0 0 1 4.55 3.29c0.66 2.06 0 4.16-2.06 6.23a23.37 23.37 0 0 1-2.58 2.29c-1.52 1.12-3 2.22-4.56 3.32-2.65 1.91-5.39 3.89-8.06 6-9.21 7.2-16.94 13.3-24.7 19.69-6.86 5.63-13.83 11.47-20.56 17.13q-6.32 5.3-12.63 10.57l-4.07 3.43c-6.09 5.08-12.39 10.34-18.61 15.28-4.77 3.79-9.63 7.49-14.32 11.07-3.35 2.55-6.69 5.1-10 7.7-3 2.35-6.1 4.82-9.07 7.22-2.4 1.92-4.8 3.85-7.2 5.74q-6.43 5.09-12.89 10.08c-2.43 1.9-4.87 3.79-7.3 5.7l-0.88 0.67c-1.09 0.84-2.11 1.64-3.11 2.54a47.89 47.89 0 0 1-9 6.22l-1.19 0.69a5.84 5.84 0 0 1-2.98 0.87zm156.42-150.32c-2.69 2.14-5.34 4.54-8 7l0.4-0.35q1.65-1.44 3.28-2.9c1.45-1.22 2.88-2.5 4.32-3.75z"/><path class="cls-3" d="m389 101.4a3.39 3.39 0 0 1 1.05 0.17c1.64 0.54 1.12 4.53-1.11 7.12-1.23 1.44-2.6 2.71-3.91 4-3.44 3.51-6.91 7-10.32 10.53-3 3.16-6 6.41-9 9.67q-10.47 11.5-20.9 23.06-7.8 8.64-15.58 17.31c-0.23 0.25-0.43 0.56-1.19 1.56 1.24-1.08 1.89-1.59 2.5-2.19l34.94-34.46c6.25-6.16 12.48-12.34 18.75-18.45q7-6.8 14-13.41c1.84-1.72 3.87-2.7 5.29-2.7a1.63 1.63 0 0 1 1.8 1.38c0.39 2.15-1 5.56-3.6 7.54-7.45 5.65-14.37 13.12-21.47 19.94-7.44 7.14-14.79 14.58-22.19 21.88q-9.22 9.11-18.46 18.18a8.35 8.35 0 0 0-1.53 2c1.19-0.94 2.39-1.81 3.57-2.83q14.85-13 29.71-26 12.34-10.7 24.65-21.47c3.49-3.06 7-6.22 10.47-9.17 1.79-1.5 3.82-2.65 5.22-2.65a1.54 1.54 0 0 1 1.62 1.23c0.54 2-0.45 4.65-2.95 6.94a22.25 22.25 0 0 1-2.36 1.82c-5.32 3.77-10.37 9-15.54 13.49-7.94 6.93-15.89 13.8-23.83 20.7q-10.75 9.33-21.49 18.67-5 4.35-10 8.76a14.35 14.35 0 0 0-2.38 2.55c1.81-1.45 3.62-2.85 5.42-4.36 9.52-8 19-16.14 28.56-24 6.43-5.29 12.91-10.14 19.36-15.23 4.22-3.32 8.43-6.84 12.66-10 4-3.07 8.13-6 12.18-8.72a7.14 7.14 0 0 1 3.73-1.43 2.12 2.12 0 0 1 2.17 1.56c0.35 1.11-0.09 2.31-1.47 3.71a20.14 20.14 0 0 1-2.28 2c-4.22 3.13-8.46 6-12.67 9.34-8.26 6.46-16.52 13-24.75 19.73-11.08 9.1-22.13 18.49-33.2 27.71-7.55 6.28-15.09 12.64-22.66 18.65-8.09 6.44-16.22 12.45-24.33 18.75-5.43 4.23-10.84 8.7-16.27 13-6.73 5.3-13.46 10.51-20.19 15.77-1.38 1.07-2.78 2.11-4.13 3.33a52.14 52.14 0 0 1-9.76 6.6 3.58 3.58 0 0 1-1.71 0.58 1.61 1.61 0 0 1-1.53-1.35c-0.35-1.13-0.57-2.46 0.87-4.92 1.85-3.15 4.23-5.57 6.44-8.18 2.86-3.35 6-6.37 8.86-9.7 5.88-6.8 11.76-13.64 17.51-20.6 4.45-5.38 8.72-11 13-16.49 8.36-10.68 16.67-21.39 25-32.06 4.18-5.33 8.45-10.58 12.65-15.89 7.49-9.47 14.92-19 22.47-28.42 2.78-3.47 5.79-6.75 8.79-10a10.36 10.36 0 0 1 6.5-3.17 1.39 1.39 0 0 1 1.41 2.24 28.68 28.68 0 0 1-5.33 8.32c-8.45 8.69-15.95 18.51-23.7 28-3.19 3.92-6.43 7.79-9.62 11.72a31.73 31.73 0 0 0-3.28 4.83c3.5-3.85 7-7.67 10.48-11.55 6.05-6.76 12-13.66 18.11-20.33 9.35-10.01 18.66-20.01 27.95-30.01 2.51-2.7 4.91-4.56 7-4.56m0-5c-4.39 0-8 3.29-10.68 6.16l-3.73 4-3.26 3.51a3.26 3.26 0 0 0-0.31-0.33 6.7 6.7 0 0 0-5-1.94 15.25 15.25 0 0 0-10.02 4.73c-3 3.17-6.13 6.6-9.05 10.24-4.95 6.19-9.95 12.46-14.75 18.56q-3.88 4.95-7.79 9.89-2.71 3.44-5.47 6.86c-2.37 2.95-4.81 6-7.2 9q-7.1 9-14.15 18.12-5.44 7-10.88 13.94l-2.9 3.72c-3.27 4.2-6.66 8.54-10.07 12.67-5.86 7.09-11.84 14-17.43 20.5-1.31 1.51-2.66 2.94-4.08 4.46-1.59 1.69-3.23 3.43-4.81 5.28-0.46 0.54-0.92 1.08-1.39 1.61a46.34 46.34 0 0 0-5.55 7.28c-2.37 4-2 6.88-1.35 8.91a6.53 6.53 0 0 0 6.32 4.89 8.44 8.44 0 0 0 4.23-1.26l1.18-0.69a49.55 49.55 0 0 0 9.43-6.53c0.91-0.83 1.89-1.59 2.93-2.39l0.91-0.7 7.25-5.66c4.24-3.3 8.63-6.72 12.95-10.12 2.42-1.91 4.87-3.88 7.23-5.78 3-2.38 6-4.85 9-7.18 3.32-2.59 6.71-5.17 10-7.67 4.71-3.59 9.58-7.3 14.37-11.11 6.24-5 12.54-10.22 18.64-15.3l4.11-3.43q6.33-5.26 12.65-10.59c6.73-5.64 13.68-11.48 20.52-17.1 7.75-6.36 15.46-12.46 24.66-19.65 2.63-2.06 5.34-4 8-5.92 1.5-1.08 3.06-2.21 4.6-3.35a24.7 24.7 0 0 0 2.87-2.54c3.41-3.47 3.32-6.67 2.66-8.75a7 7 0 0 0-5.72-4.93 9.83 9.83 0 0 0 0.17-5.6 6.53 6.53 0 0 0-6.43-4.89 8.42 8.42 0 0 0-1.33 0.11 10.14 10.14 0 0 0 0-3.39 6.61 6.61 0 0 0-6.72-5.48 12.77 12.77 0 0 0-7.72 3.19c0-0.19-0.08-0.39-0.13-0.58a6.36 6.36 0 0 0-4.09-4.44 8.32 8.32 0 0 0-2.67-0.37z"/><path class="cls-4" d="m233 203.11a4.71 4.71 0 0 1-3.39-1.71c-0.87-0.92-1.68-1.9-2.46-2.85-0.41-0.5-0.82-1-1.24-1.49-0.76-0.89-1.54-1.77-2.31-2.66-1.58-1.8-3.22-3.66-4.77-5.62-0.66-0.83-1.33-1.63-2-2.44a54.55 54.55 0 0 1-5.76-7.87 14.86 14.86 0 0 0-1.33-1.84c-0.39-0.48-0.79-1-1.18-1.54l-1.3-1.87c-2.66-3.84-5.41-7.8-8.08-11.78-3-4.54-6.25-9.41-10.4-15.8q-2.35-3.64-4.66-7.34l-2.82-4.45c-0.77-1.2-1.54-2.39-2.32-3.57-1.59-2.44-3.23-5-4.76-7.56-0.78-1.32-1.61-2.58-2.5-3.9a53.3 53.3 0 0 1-4.31-7.34 14.55 14.55 0 0 0-2.63-3.89 7.68 7.68 0 0 1-1.09-8.88 6.08 6.08 0 0 1 5.41-3.56 5.69 5.69 0 0 1 1.22 0.13 6.28 6.28 0 0 1 3.56 2.6c0.09 0.13 0.18 0.26 0.26 0.39q-2.14-4.27-4.14-8.54a63.7 63.7 0 0 0-3.4-6.25l-0.44-0.75c-1.07-1.81-2.17-3.6-3.27-5.4s-2.22-3.6-3.3-5.43c-0.82-1.4-1.61-2.84-2.37-4.24-0.54-1-1.09-2-1.65-3-1.34-2.37-2.76-4.8-4.21-7.23-1.14-1.9-2-4.24-0.14-7.27l0.24-0.39a6.24 6.24 0 0 1 2.93-2.89 6.42 6.42 0 0 1 2.49-0.57c2.39 0 3.74 1.71 4.66 3.21 1.1 1.8 2 3.32 2.81 4.8 0.94 1.7 1.87 3.42 2.81 5.13 1.3 2.38 2.6 4.77 3.93 7.13 0.64 1.14 1.34 2.28 2 3.39s1.55 2.54 2.29 3.88l0.81 1.46c1.6 2.88 3.24 5.84 4.78 8.88-1-2.39-1.85-4.8-2.72-7.17-1-2.66-2-5.42-3.08-8-2.17-5.22-4.39-10.66-6.61-16.19-0.91-2.28-1.75-4.58-2.49-6.83a5.85 5.85 0 0 1 1.13-6.4 7.19 7.19 0 0 1 4.24-2.88 5.78 5.78 0 0 1 1.12-0.12c2.77 0 3.7 2.49 4 3.3q1.21 3.23 2.41 6.45c1.35 3.64 2.75 7.4 4.16 11.06 0.87 2.27 1.82 4.55 2.73 6.76 0.69 1.67 1.38 3.34 2.05 5 1 2.52 2 5 3 7.59q1.08 2.8 2.19 5.61c0.4 1 0.83 2 1.26 3l2.06 4.74q1.59 3.63 3.15 7.29l0.42 1v-0.08c-2.13-6.76-4.32-13.74-7-20.26-0.56-1.34-1-2.72-1.4-4.06l-0.14-0.45c-0.95-3-0.1-5.67 2.27-7.06 0.4-0.24 0.81-0.44 1.23-0.65l0.48-0.24a5.18 5.18 0 0 1 2.39-0.63c1.48 0 3.5 0.71 4.71 4.09 0.66 1.82 1.29 3.67 1.9 5.49a5.29 5.29 0 0 1 2.13-3.29c0.14-0.1 0.26-0.2 0.39-0.31a5.15 5.15 0 0 1 3.33-1.44 4.58 4.58 0 0 1 1.75 0.37 6.67 6.67 0 0 1 3.8 4.81c0.51 1.94 1 3.86 1.58 5.79s1.1 4 1.63 6c0.59 2.21 1.14 4.43 1.68 6.65 0.25 1 1.79 7.2 1.79 7.2 0.79 3.17 1.58 6.34 2.39 9.51q1.49 5.88 3 11.77l1.1 4.27c0.36 1.39 0.72 2.79 1.09 4.18 0.8 3.06 1.62 6.22 2.37 9.36 1.12 4.62 2.16 9.34 3.17 13.91l0.15 0.71q1 4.54 2 9.11l0.93 4.35 1.06 5q1.28 5.87 2.51 11.75c0.18 0.89 0.32 1.78 0.45 2.63s0.3 1.89 0.5 2.77a8.47 8.47 0 0 1-2.77 8.75c-0.73 0.62-1.47 1.21-2.22 1.79s-1.32 1-2 1.58a5 5 0 0 1-3.24 1.34z"/><path class="cls-3" d="m172.6 39.08c0.77 0 1.2 0.44 1.67 1.68 2.2 5.84 4.33 11.72 6.57 17.53 1.54 4 3.23 7.86 4.8 11.81 1.75 4.38 3.43 8.8 5.16 13.19 0.52 1.32 1.1 2.6 1.66 3.9 1.61 3.72 3.25 7.44 4.84 11.18 2.45 5.77 4.86 11.56 7.3 17.33 2 4.83 4.1 9.63 6.1 14.47 2.82 6.81 5.59 13.64 8.4 20.45 0.32 0.77 0.76 1.46 1.27 2.44a4.51 4.51 0 0 0 0.08-1c-0.78-2.77-1.54-5.55-2.37-8.3q-1-3.19-2.07-6.34c-2.42-7-4.65-14-7.31-20.88-2.22-5.72-4-11.71-5.89-17.63-2.33-7.38-4.6-14.77-7.54-21.82-0.58-1.38-1-2.85-1.47-4.3-0.59-1.91-0.17-3.37 1.16-4.16 0.52-0.3 1-0.54 1.58-0.82a2.8 2.8 0 0 1 1.25-0.35c1 0 1.77 0.79 2.36 2.44 1.07 3 2.06 6 3.07 9 1.53 4.52 3 9 4.57 13.54 3.06 8.86 6.21 17.69 9.21 26.56 0.68 2 1.27 4 1.9 6l0.38-0.15c-0.51-2.09-1-4.18-1.53-6.26-2.18-8.71-4.34-17.44-6.58-26.14-0.85-3.33-1.9-6.6-2.84-9.9-0.47-1.69-0.89-3.41-1.33-5.11-0.49-1.85-0.28-3.25 1-4.18 0.73-0.54 1.36-1.27 2.24-1.27a1.91 1.91 0 0 1 0.76 0.17 4.2 4.2 0 0 1 2.37 3.15c1.05 3.94 2.18 7.84 3.22 11.78 0.84 3.18 1.6 6.38 2.4 9.57 1.15 4.59 2.28 9.18 3.44 13.76 1.36 5.35 2.75 10.7 4.12 16 1.15 4.5 2.37 9 3.45 13.5 1.17 4.84 2.24 9.71 3.31 14.58 1 4.47 1.92 9 2.88 13.44 1.19 5.57 2.41 11.13 3.57 16.7 0.38 1.81 0.55 3.66 1 5.45a6 6 0 0 1-1.94 6.29c-1.38 1.16-2.81 2.2-4.19 3.36a2.62 2.62 0 0 1-1.59 0.81 2.28 2.28 0 0 1-1.57-0.93c-1.26-1.32-2.41-2.84-3.62-4.25-2.34-2.73-4.76-5.36-7-8.21-2.57-3.24-5.37-6.17-7.55-10-0.75-1.32-1.78-2.34-2.63-3.57-3.13-4.52-6.27-9-9.35-13.61q-5.25-7.81-10.38-15.77c-2.52-3.89-5-7.85-7.47-11.77-2.35-3.68-4.81-7.25-7-11s-4.82-6.95-6.69-11a17 17 0 0 0-3.11-4.58 5.18 5.18 0 0 1-0.68-6 3.4 3.4 0 0 1 3.93-2.16 3.77 3.77 0 0 1 2 1.56c1 1.52 1.89 3.27 2.86 4.89q4.09 6.84 8.22 13.64 3.19 5.22 6.46 10.38c2.28 3.62 4.62 7.18 6.92 10.79 3.35 5.25 6.68 10.54 10.05 15.78 1.17 1.82 2.45 3.53 3.67 5.3l0.24-0.3c-1.57-2.89-3.06-5.83-4.71-8.64-3.38-5.78-6.79-11.54-9.76-17.73q-4.12-8.59-8.55-17c-1.86-3.52-4-6.84-5.93-10.26-3.24-5.61-6.24-11.42-9-17.48a75.36 75.36 0 0 0-4-7.24c-2.15-3.64-4.41-7.19-6.57-10.83-1.38-2.35-2.64-4.81-4-7.19s-2.81-4.87-4.25-7.27c-1.09-1.84-1.19-3-0.16-4.66 0.56-0.9 1-1.89 2-2.3a4.21 4.21 0 0 1 1.54-0.38c0.93 0 1.65 0.58 2.52 2s1.87 3.11 2.76 4.71c2.26 4.08 4.47 8.21 6.75 12.27 1.38 2.47 2.92 4.78 4.29 7.26 2.18 3.94 4.4 7.86 6.39 12 3.14 6.49 6.45 12.83 10 19a162.84 162.84 0 0 1 7.88 14.88c1.34 3 2.92 5.75 4.38 8.62 0.85 1.65 1.68 3.3 2.53 4.94a1.93 1.93 0 0 0 0.93 0.92c-0.53-1.34-1-2.7-1.59-4q-4.79-11.36-9.62-22.78c-2.9-6.86-5.61-13.86-8.76-20.52-3.06-6.44-5.15-13.42-7.89-20q-3.35-8.06-6.59-16.16-1.32-3.29-2.45-6.68c-0.65-2-0.4-2.63 0.73-4.08a4.77 4.77 0 0 1 2.76-2 3.9 3.9 0 0 1 0.63-0.07m0-5a8.67 8.67 0 0 0-1.62 0.17 9.58 9.58 0 0 0-5.72 3.76c-1.91 2.46-2.83 4.77-1.53 8.72 0.4 1.21 0.83 2.42 1.27 3.64-0.4-0.68-0.83-1.4-1.3-2.17-0.67-1.08-2.69-4.4-6.79-4.4a8.8 8.8 0 0 0-3.44 0.76 8.65 8.65 0 0 0-4.12 3.92l-0.21 0.34c-2.67 4.24-1.22 7.67 0.1 9.88 1.46 2.44 2.87 4.85 4.19 7.18 0.55 1 1.09 2 1.63 3 0.77 1.41 1.56 2.88 2.41 4.31 1.1 1.85 2.22 3.69 3.31 5.47s2.22 3.56 3.22 5.35l0.45 0.75a63.46 63.46 0 0 1 3.26 6c0.29 0.64 0.58 1.28 0.88 1.92a8.62 8.62 0 0 0-7.14 4.85 10.22 10.22 0 0 0 1.55 11.81 11.59 11.59 0 0 1 2.15 3.2 55.18 55.18 0 0 0 4.51 7.67c0.86 1.3 1.68 2.52 2.42 3.79 1.56 2.66 3.22 5.2 4.83 7.65 0.77 1.18 1.54 2.36 2.3 3.55l2.8 4.43c1.53 2.42 3.11 4.93 4.7 7.38 4.16 6.41 7.37 11.3 10.42 15.84 2.67 4 5.43 8 8.1 11.8l1.29 1.87c0.44 0.64 0.89 1.19 1.29 1.69a13.81 13.81 0 0 1 1.11 1.5 55.28 55.28 0 0 0 6 8.24c0.69 0.82 1.33 1.6 2 2.39 1.59 2 3.25 3.9 4.85 5.72 0.77 0.88 1.54 1.75 2.29 2.64 0.41 0.47 0.81 1 1.21 1.44 0.81 1 1.65 2 2.58 3a7.15 7.15 0 0 0 5.2 2.49 7.45 7.45 0 0 0 4.81-2c0.6-0.51 1.23-1 1.9-1.52s1.52-1.2 2.3-1.86a11 11 0 0 0 3.54-11.24c-0.18-0.79-0.31-1.67-0.46-2.59s-0.28-1.8-0.47-2.76c-0.82-3.92-1.68-7.9-2.51-11.74-0.36-1.66-0.71-3.33-1.07-5l-0.93-4.36c-0.63-3-1.29-6.07-2-9.11l-0.14-0.63c-1-4.6-2.06-9.36-3.18-14-0.76-3.16-1.59-6.32-2.39-9.39-0.37-1.39-0.73-2.79-1.09-4.19l-1.12-4.38q-1.5-5.82-3-11.65c-0.81-3.17-1.6-6.35-2.39-9.53l-1.05-4.21c-0.24-1-0.49-2-0.73-2.94-0.54-2.19-1.1-4.46-1.69-6.7-0.53-2-1.09-4-1.64-6s-1.01-3.82-1.53-5.82a9.07 9.07 0 0 0-5.21-6.42 6.94 6.94 0 0 0-2.73-0.58 7.62 7.62 0 0 0-4.92 2l-0.14 0.12-0.33-0.93c-1.87-5.18-5.56-5.74-7.07-5.74a7.73 7.73 0 0 0-3.54 0.91l-0.44 0.22c-0.41 0.2-0.88 0.44-1.39 0.73a8 8 0 0 0-2.68 2.57c-0.51-1.25-1-2.49-1.52-3.69-0.91-2.2-1.85-4.47-2.71-6.7-1.41-3.65-2.8-7.4-4.15-11q-1.22-3.24-2.38-6.49c-1.53-4.07-4.3-4.92-6.35-4.92z"/><path class="cls-2" d="m205.15 334.28a7.3 7.3 0 0 1-5.25-2.35l-0.23-0.28c-1.81-2.16-3.61-4.31-5.4-6.51a15.69 15.69 0 0 1-1.41-2.23l-0.73-1.38c-1.31-2.43-2.66-4.95-3.95-7.46-1.08-2.12-2.14-4.3-3.16-6.41l-1.82-3.75q-3.85-7.91-7.69-15.91l-1.92-4c-2.24-4.62-4.55-9.4-6.74-14.15s-4.43-9.86-6.54-14.69l-1.19-2.71q-2.16-4.94-4.29-9.88c-2.28-5.25-4.63-10.67-7-16-1.53-3.42-3.15-6.87-4.71-10.22-1.24-2.65-2.48-5.3-3.7-8-2.62-5.78-5.17-11.54-8.19-18.4-3.08-7-6.06-13.42-9.1-19.61-1.53-3.12-2.9-6.36-4.21-9.5-0.59-1.38-1.17-2.77-1.77-4.15-0.08-0.2-0.17-0.4-0.25-0.61s-0.16-0.42-0.26-0.62c-1-2.1-2.8-6 1.24-8.78a25 25 0 0 1 2.23-1.31c0.34-0.18 0.7-0.37 1.08-0.59l1.92-1.08c-1.19-2.86-2.4-5.69-3.59-8.48l-2.25-5.3q-3.32-7.84-6.67-15.67c-0.38-0.89-0.78-1.77-1.19-2.64s-0.75-1.62-1.1-2.43q-3.64-8.34-7.24-16.69a21.19 21.19 0 0 1-1.1-3c-0.9-3.42 0.54-5.58 2.19-6.46l0.13-0.07c0.42-0.22 0.84-0.44 1.24-0.69a4.14 4.14 0 0 1 2.24-0.7c2.43 0 3.59 2.32 4 3.08 1.17 2.37 2.34 4.87 3.57 7.64 0.57 1.28 1.1 2.57 1.64 3.86s1.06 2.57 1.62 3.83q2 4.41 4 8.8c1.13 2.49 2.25 5 3.37 7.48 0.46 1 0.88 2.07 1.31 3.11 0.27 0.69 0.55 1.38 0.84 2.06l2.37 5.55a5.55 5.55 0 0 1 0.18-3.2 5 5 0 0 1 3-2.82 18.64 18.64 0 0 1 2.34-0.71l0.31-0.08a3.74 3.74 0 0 1 1-0.13c1 0 2.75 0.37 3.95 2.9l0.2 0.41c0.17 0.35 0.36 0.74 0.53 1.15-1.29-4-2.59-8-3.84-12-0.54-1.71-1-3.43-1.42-5.1-0.28-1.08-0.56-2.16-0.87-3.24-0.79-2.82 0.58-4.3 1.2-4.8a7.37 7.37 0 0 1 4.67-1.77 7.9 7.9 0 0 1 2 0.27l1.31 0.36 2.41 7.56c1.61 5.06 3.2 10.07 4.82 15.07 0.78 2.39 1.59 4.77 2.4 7.15 0.54 1.57 1.07 3.15 1.6 4.72q0.9 2.7 1.78 5.41 0.8 2.45 1.61 4.89c0.36 1.09 0.74 2.18 1.12 3.28 0.69 2 1.4 4 2 6.06l0.78 2.62c-0.18-0.88-0.37-1.76-0.55-2.63q-0.54-2.55-1.09-5.1c-0.15-0.71-0.33-1.41-0.52-2.12l-0.39-1.58a6.43 6.43 0 0 1 0.59-5.23 3.84 3.84 0 0 1 2.72-1.62 14.9 14.9 0 0 1 1.68-0.11 9.18 9.18 0 0 1 4.44 1.12l1 0.54s0.66 3 0.86 3.93c0.44 2 0.89 4.1 1.38 6.15 1 4.3 2.07 8.6 3.12 12.89l1.68 6.91 0.9 3.77 1.08 4.51 1.41 5.69c0.83 3.37 1.67 6.74 2.47 10.12 1.59 6.73 3.15 13.58 4.66 20.21l0.51 2.24q4.77 20.94 9.5 41.88c0.47 2.1 0.89 4.23 1.28 6.28 0.26 1.31 0.51 2.63 0.78 3.94q1.44 6.94 2.92 13.91l0.72 3.39c0.78 3.71 1.59 7.54 2.44 11.3 0.51 2.29 1.06 4.58 1.61 6.86 0.65 2.67 1.31 5.44 1.91 8.17 1 4.55 2 9 2.65 13.51a12.17 12.17 0 0 1-1.72 8.62 3.77 3.77 0 0 1-3.46 1.75z"/><path class="cls-3" d="m104.78 84.21c0.61 0 1.14 0.51 1.73 1.69 1.23 2.48 2.4 5 3.53 7.55s2.13 5.15 3.26 7.69c2.42 5.44 4.91 10.85 7.34 16.28 0.75 1.69 1.41 3.43 2.13 5.13l7.36 17.25c1.79 4.2 3.64 8.37 5.35 12.6 2.17 5.38 4.79 10.47 7.33 15.62 1.15 2.32 2.33 4.63 3.4 7 1.82 4.07 3.54 8.19 5.34 12.27a55.17 55.17 0 0 0 3.5 6.84c-0.32-1-0.62-2-1-3-2-5.8-4-11.61-6.16-17.38-2.68-7.25-5.52-14.44-8.24-21.68-2.13-5.67-4.17-11.38-6.31-17.05-0.75-2-1.62-4-2.55-5.88-1.55-3.21-1.39-4.89 0.72-5.73a18.67 18.67 0 0 1 2.35-0.69 1.12 1.12 0 0 1 0.36 0c0.64 0 1.21 0.46 1.69 1.47 0.28 0.59 0.59 1.17 0.82 1.78q3.41 9 6.8 18.08c1.3 3.48 2.55 7 3.89 10.46 0.8 2.08 1.78 4.1 2.56 6.19 1.25 3.32 2.41 6.66 3.57 10 0.94 2.73 1.83 5.47 2.75 8.2 0.17 0.52 0.38 1 0.6 1.54a126.58 126.58 0 0 1 5.45 15.26c0.44 1.5 1.11 3 1.66 4.45 0.46 1.22 0.88 2.46 1.33 3.68 0.29 0.81 0.62 1.61 0.93 2.41l0.35-0.08c-0.94-3-1.84-6.11-2.84-9.15-1.31-4-2.82-7.9-4-11.89-1.41-4.6-2.53-9.26-3.89-13.88q-3.54-12-7.21-24-2.28-7.47-4.65-14.91c-2.17-6.82-4.41-13.62-6.55-20.45-0.85-2.74-1.48-5.52-2.26-8.27-0.3-1.08-0.11-1.8 0.36-2.18a4.87 4.87 0 0 1 3.1-1.21 4.75 4.75 0 0 1 1.3 0.19c2.3 7.21 4.54 14.28 6.82 21.35 1.29 4 2.68 7.92 4 11.88 1.14 3.43 2.25 6.87 3.39 10.3 1 3.09 2.18 6.16 3.11 9.27 2.9 9.69 5.67 19.4 8.59 29.09 1.45 4.8 3.14 9.55 4.66 14.34 1.75 5.48 3.43 11 5.14 16.46 0.69 2.21 1.4 4.41 2.31 6.63-0.34-1.79-0.61-3.58-1-5.36-2-9-4-18-6.16-27.06-2-8.57-4.29-17.14-6.35-25.72-1.17-4.91-2.13-9.83-3.21-14.74-0.27-1.25-0.62-2.5-0.92-3.75-0.48-2-0.1-3.64 1.17-3.79a12.64 12.64 0 0 1 1.39-0.09 6.71 6.71 0 0 1 3.26 0.82c0.66 3 1.28 6 2 9 1.57 6.61 3.2 13.21 4.8 19.81 0.67 2.76 1.31 5.53 2 8.29 1.29 5.26 2.63 10.52 3.87 15.78 1.67 7.05 3.27 14.11 4.88 21.16q4.92 21.57 9.79 43.15c0.76 3.39 1.35 6.78 2 10.17q1.44 7 2.92 13.93c1 4.91 2.06 9.81 3.17 14.72s2.42 10 3.52 15c1 4.46 1.94 8.94 2.62 13.36a9.7 9.7 0 0 1-1.35 6.89 1.46 1.46 0 0 1-1.27 0.5 4.76 4.76 0 0 1-3.33-1.46c-1.88-2.24-3.75-4.48-5.61-6.76a10.79 10.79 0 0 1-1.14-1.84c-1.57-2.92-3.15-5.83-4.66-8.79-1.35-2.64-2.63-5.32-3.93-8q-4.36-9-8.72-18c-2.9-6-5.84-12-8.64-18.09-2.65-5.74-5.17-11.55-7.71-17.35-3.77-8.62-7.46-17.28-11.29-25.87-2.72-6.12-5.64-12.12-8.41-18.21s-5.48-12.24-8.18-18.38c-2.93-6.64-6-13.21-9.15-19.71-2.16-4.39-4-9-5.92-13.53-0.19-0.43-0.35-0.87-0.54-1.29-1.46-3.14-1.39-4.45 0.38-5.67 0.93-0.63 1.92-1.1 3.13-1.78 2.07 4.41 4 8.44 5.86 12.46 1.82 3.85 3.65 7.68 5.48 11.52 1.16 2.43 2.36 4.84 3.45 7.31 3.22 7.31 6.37 14.67 9.61 22 1.5 3.41 3.16 6.73 4.72 10.1 2.14 4.65 4.24 9.32 6.37 14 2 4.3 3.54 8.76 5.66 13 2.21 4.45 3.92 9.23 5.93 13.82 2.74 6.23 5.56 12.43 8.38 18.62a7.29 7.29 0 0 0 1.75 2.34c-0.35-1.14-0.62-2.31-1-3.42-3.41-8.82-6.08-15.75-8.18-20.89-2-4.83-4.21-9.54-6.32-14.31-1.84-4.15-3.75-8.27-5.49-12.47-1.17-2.84-2-5.82-3.14-8.69-3.39-8.7-6.69-17.44-10.32-26-2.56-6.08-5.6-11.93-8.42-17.89-3.15-6.65-6.27-13.29-9-20.16-2.6-6.47-5.39-12.88-8.11-19.31q-3.31-7.85-6.67-15.68c-0.73-1.71-1.56-3.37-2.3-5.08q-3.67-8.34-7.3-16.73a19.69 19.69 0 0 1-1-2.62c-0.47-1.77-0.08-3.06 0.94-3.61 0.52-0.27 1-0.54 1.53-0.86a1.8 1.8 0 0 1 0.91-0.31m0-5a6.61 6.61 0 0 0-3.57 1.08c-0.3 0.19-0.68 0.39-1.09 0.61l-0.09 0.1c-3.13 1.66-4.48 5.32-3.42 9.3a22.9 22.9 0 0 0 1.21 3.32c2.56 5.93 4.93 11.39 7.25 16.7 0.36 0.83 0.74 1.66 1.12 2.48s0.81 1.73 1.17 2.57c1.93 4.51 4 9.34 6.66 15.66q1.11 2.66 2.25 5.29l2.72 6.43-1 0.56a28.33 28.33 0 0 0-2.46 1.44c-5.78 4-3 9.94-2.1 11.9 0.08 0.17 0.15 0.34 0.21 0.5s0.18 0.45 0.28 0.68c0.59 1.37 1.17 2.74 1.75 4.12 1.33 3.17 2.71 6.45 4.27 9.63 3 6.16 6 12.55 9.06 19.52s5.58 12.65 8.21 18.43c1.22 2.68 2.49 5.39 3.71 8 1.56 3.32 3.17 6.76 4.68 10.16 2.36 5.3 4.71 10.73 7 16 1.43 3.29 2.85 6.58 4.29 9.86l1.18 2.7c2.12 4.84 4.31 9.85 6.57 14.74s4.53 9.59 6.77 14.23c0.63 1.31 1.27 2.62 1.9 3.94q3.81 7.9 7.66 15.79l1.07 2.21 0.8 1.65c1 2.11 2.08 4.3 3.18 6.44 1.31 2.56 2.68 5.12 4 7.59l0.69 1.29a17.27 17.27 0 0 0 1.67 2.63c1.83 2.25 3.7 4.48 5.51 6.64l0.15 0.17a9.67 9.67 0 0 0 7.16 3.25 6.34 6.34 0 0 0 5.47-2.79 14.65 14.65 0 0 0 2.09-10.36c-0.73-4.61-1.73-9.11-2.73-13.67-0.6-2.75-1.27-5.53-1.92-8.22-0.54-2.24-1.1-4.56-1.61-6.82-0.84-3.74-1.65-7.57-2.43-11.26l-0.71-3.4c-0.94-4.43-2-9.19-2.92-13.9-0.27-1.3-0.52-2.6-0.77-3.91-0.4-2.07-0.82-4.21-1.3-6.35-3.12-13.84-6.32-27.9-9.42-41.5l-0.38-1.66-0.21-0.92c-1.51-6.65-3.07-13.51-4.67-20.28-0.8-3.38-1.65-6.81-2.47-10.12-0.47-1.9-0.95-3.8-1.41-5.7-0.37-1.5-0.72-3-1.08-4.51l-0.9-3.76c-0.56-2.29-1.11-4.58-1.67-6.87q-1.57-6.47-3.13-12.93c-0.48-2-0.93-4.09-1.36-6.1-0.21-0.94-0.41-1.88-0.62-2.82l-0.5-2.25-2-1.08a11.65 11.65 0 0 0-5.61-1.41 14.82 14.82 0 0 0-2 0.13 6.26 6.26 0 0 0-4 2c-0.47-1.45-0.95-2.89-1.43-4.33l-1.6-4.74c-0.8-2.33-1.62-4.74-2.39-7.11-1.61-5-3.22-10-4.78-14.94-0.68-2.12-1.35-4.24-2-6.38l-0.83-2.59-2.62-0.72a10 10 0 0 0-2.62-0.36 9.74 9.74 0 0 0-6.23 2.32 6.81 6.81 0 0 0-2 7.43c0.29 1 0.56 2.08 0.85 3.19 0.44 1.69 0.9 3.45 1.45 5.21 0.45 1.45 0.91 2.89 1.37 4.34a5.9 5.9 0 0 0-1.44 0.21l-0.32 0.08a20.54 20.54 0 0 0-2.62 0.81 8.35 8.35 0 0 0-2.46 1.47l-0.69-1.68c-0.42-1-0.85-2.11-1.34-3.19q-1.68-3.75-3.38-7.5c-1.32-2.92-2.65-5.84-3.95-8.77-0.55-1.23-1.06-2.46-1.6-3.77s-1.08-2.61-1.66-3.92c-1.24-2.8-2.43-5.33-3.63-7.74-1.83-3.7-4.38-4.47-6.2-4.47z"/><path class="cls-4" d="m232.21 239.57a14.34 14.34 0 0 1-2-0.15 62.63 62.63 0 0 1-9.21-2.22c-1.51-0.44-3.07-0.9-4.58-1.28a130.68 130.68 0 0 0-15.21-3.13 75.62 75.62 0 0 1-9.25-2c-2.31-0.6-4.6-1.3-6.81-2l-3.1-0.94c-0.77-0.23-1.55-0.44-2.32-0.66-1.58-0.44-3.22-0.9-4.85-1.45l-4.88-1.6c-6.13-2.06-12.48-4.19-18.71-6.5-6.39-2.36-12.91-4.3-19.21-6.18l-4.08-1.24c-5.4-1.62-10.87-3.47-16.17-5.25l-3-1c-1.42-0.47-2.83-1-4.2-1.55-1.12-0.44-2.25-0.87-3.38-1.27a23.09 23.09 0 0 0-3.27-0.83 9.46 9.46 0 0 1-5.75-3.92c-0.11-0.18-0.23-0.36-0.35-0.54a9.44 9.44 0 0 1-1.08-1.92 5 5 0 0 1 0.5-4.68 6.18 6.18 0 0 1 5.16-2.47 8.3 8.3 0 0 1 3 0.56c2.25 0.87 4.56 1.69 6.8 2.48l2.52 0.9c-1.06-0.41-2.11-0.82-3.17-1.25l-9.37-3.84c-3-1.22-5.93-2.45-8.89-3.65-2.17-0.88-4.34-1.64-6-2.21a9.13 9.13 0 0 1-6-5.23c-1.72-4.44 1.13-6.37 2.44-7a6.91 6.91 0 0 1 2-0.64l-2.25-1-5.54-2.47q-8.1-3.62-16.2-7.17c-3.41-1.5-6.82-3-10.23-4.44l-4.55-2-1.82-0.78c-1.43-0.61-2.86-1.22-4.28-1.87a8 8 0 0 1-5-6.4 10.1 10.1 0 0 1 0.07-2.26c0.51-3.62 3.25-3.9 4.07-3.9a7.86 7.86 0 0 1 3.12 0.78c2.87 1.24 5.73 2.52 8.59 3.79s5.86 2.61 8.8 3.88 5.86 2.5 8.79 3.73c2.65 1.11 5.31 2.23 8 3.37l1 0.45a5.54 5.54 0 0 1 0.71-2.9 4.75 4.75 0 0 1 3.57-2.53 5.3 5.3 0 0 1 0.59 0 8.56 8.56 0 0 1 3.6 0.91c4.15 2 8.29 4.12 12.43 6.2q4.05 2 8.11 4.07c4.74 2.36 9.41 4.68 14.11 7-5.34-3-10.73-5.86-16-8.69l-0.5-0.27c-5.36-2.89-11.24-5.95-18-9.36-5-2.51-9.56-4.75-14.06-6.83-3.33-1.54-5.24-3.36-5.82-5.56a6.84 6.84 0 0 1 1.43-5.82 3.45 3.45 0 0 1 2.87-1.44 5.53 5.53 0 0 1 2.27 0.55c1.62 0.73 3.23 1.53 4.79 2.3l0.56 0.27 2.14 1.09 1.89 1 6.37 3.14c4.34 2.14 8.83 4.36 13.24 6.6 6.2 3.15 12.28 6.34 18.07 9.47 2.31 1.24 4.59 2.6 6.8 3.9 1.31 0.78 2.63 1.56 3.94 2.31 1.08 0.62 2.17 1.22 3.26 1.82 1.56 0.86 3.17 1.74 4.74 2.68 2.23 1.34 4.44 2.71 6.65 4.07 2.56 1.58 5.21 3.21 7.82 4.76 3.75 2.22 7.6 4.43 11.31 6.57q3.19 1.83 6.38 3.67l4.35 2.52c5.21 3 10.6 6.14 15.87 9.27 2.87 1.7 5.74 3.48 8.51 5.2 1.84 1.14 3.68 2.28 5.53 3.4 0.69 0.42 1.4 0.81 2.11 1.19s1.71 0.94 2.57 1.47q5.7 3.56 11.39 7.14l8.17 5.13q7.55 4.71 15.1 9.38l0.5 0.3c1.39 0.82 3.49 2.06 3.68 4.53 0.36 4.55-2.29 5.9-3.9 6.3-0.39 0.09-0.77 0.17-1.16 0.22-0.58 1.62-2.1 3.92-6.14 3.92z"/><path class="cls-3" d="m65.39 127.88a3.11 3.11 0 0 1 1.24 0.33c1.77 0.8 3.52 1.67 5.27 2.54 1.35 0.66 2.69 1.37 4 2 6.53 3.24 13.08 6.42 19.58 9.73q9.06 4.59 18 9.44c3.61 1.95 7.12 4.14 10.69 6.18 2.64 1.52 5.34 2.91 7.95 4.48 4.85 2.9 9.63 6 14.49 8.84 5.87 3.47 11.8 6.82 17.7 10.24 6.75 3.91 13.5 7.8 20.21 11.78 4.71 2.79 9.33 5.74 14 8.59 1.52 0.93 3.14 1.7 4.65 2.64 6.54 4.07 13 8.19 19.57 12.27q7.55 4.72 15.11 9.39c1.32 0.81 2.89 1.55 3 2.89 0.13 1.65-0.1 3.21-2 3.68a9.71 9.71 0 0 1-1.24 0.22 1.63 1.63 0 0 0-1.59 1.32c-0.47 1.8-1.7 2.59-3.86 2.59a12.54 12.54 0 0 1-1.64-0.12c-4.51-0.62-9-2.33-13.55-3.45a131.56 131.56 0 0 0-15.51-3.2 72.31 72.31 0 0 1-9-1.94c-3.25-0.85-6.52-1.91-9.78-2.88-2.36-0.69-4.72-1.29-7.08-2.08-7.83-2.65-15.67-5.22-23.49-8.1s-15.66-5.11-23.5-7.47c-6.36-1.91-12.73-4.11-19.1-6.25-2.52-0.84-5-1.92-7.55-2.81a25.46 25.46 0 0 0-3.63-0.93 7 7 0 0 1-4.09-2.77 14.56 14.56 0 0 1-1.22-2c-0.81-2.14 1-3.77 3.32-3.77a5.61 5.61 0 0 1 2.06 0.4c3 1.15 6 2.19 9 3.27l15.42 5.48c1.06 0.37 2.12 0.74 3.18 1.05 5 1.45 9.95 2.74 14.93 4.36 5.21 1.69 10.42 3.7 15.64 5.55 3.91 1.39 7.83 2.74 11.74 4.1a8.86 8.86 0 0 0 1.11 0.25v-0.32c-1-0.5-2-1.1-3-1.51-7.8-3.14-15.63-6.15-23.41-9.4-8.26-3.44-16.47-7.14-24.72-10.64-4-1.68-8-3.11-12-4.72-6.09-2.47-12.17-5-18.26-7.49-2-0.82-4.08-1.55-6.12-2.25s-3.74-1.81-4.51-3.77-0.38-3.09 1.19-3.84a4.07 4.07 0 0 1 1.82-0.47 5.55 5.55 0 0 1 2.23 0.55c5.32 2.34 10.69 4.51 16 6.68 6.89 2.8 13.8 5.49 20.68 8.34 8.59 3.55 17.16 7.25 25.75 10.84 7 2.94 14.09 5.79 21.13 8.71 5.67 2.35 11.33 4.76 17 7.12 1.5 0.63 3 1.18 4.53 1.77l0.13-0.36c-0.62-0.36-1.23-0.78-1.86-1.07q-13.84-6.45-27.7-12.87c-8.1-3.76-16.2-7.55-24.31-11.29-4.25-2-8.53-3.81-12.8-5.71-3.29-1.47-6.57-3-9.89-4.4-4.2-1.76-8.43-3.33-12.63-5.09-4.46-1.86-8.9-3.82-13.33-5.77-4.18-1.85-8.35-3.76-12.52-5.62-5.4-2.4-10.81-4.81-16.21-7.17-4.93-2.16-9.87-4.27-14.8-6.4-2-0.87-4-1.71-6.06-2.63a5.6 5.6 0 0 1-3.57-4.33 7.43 7.43 0 0 1 0.06-1.71c0.16-1.17 0.64-1.75 1.59-1.75a5.69 5.69 0 0 1 2.13 0.57c5.8 2.52 11.58 5.16 17.39 7.68 5.57 2.41 11.17 4.69 16.75 7.09 3.31 1.43 6.59 3 9.89 4.45 2.42 1.09 4.83 2.21 7.25 3.27a6.34 6.34 0 0 0 2.52 0.57h0.17c-1.71-0.87-3.41-1.77-5.13-2.59-1.92-0.92-3.85-1.82-5.8-2.61a7.57 7.57 0 0 1-4-4.18 2.78 2.78 0 0 1 1.87-3.69h0.3a6.15 6.15 0 0 1 2.49 0.65c6.86 3.38 13.68 6.85 20.53 10.26 5.88 2.93 11.76 5.86 17.66 8.72 6.79 3.29 13.63 6.44 20.4 9.78 7.41 3.64 14.78 7.43 22.17 11.14 1.66 0.83 3.36 1.56 5.05 2.31a0.2 0.2 0 0 0 0.11 0 4 4 0 0 0 0.5-0.12c-1.54-1-3-2-4.5-2.89-4.47-2.65-9-5.24-13.45-7.89-8.18-4.86-16.3-9.86-24.54-14.59-7.76-4.45-15.63-8.68-23.49-12.9-6-3.22-12-6.33-18-9.39q-7-3.57-14.14-6.87c-5.26-2.43-5.32-5-3.41-7.66a1 1 0 0 1 0.84-0.39m104.35 64.7 0.18-0.17-1.75-0.9v0.23l1.62 0.84m-104.4-69.69a6 6 0 0 0-4.91 2.49c-1.89 2.66-2.5 5.32-1.81 7.91 0.79 3 3.14 5.32 7.19 7.19 2.4 1.11 4.83 2.26 7.32 3.48a7.7 7.7 0 0 0-2.33 2.6c-0.12 0.2-0.22 0.41-0.32 0.62l-6.21-2.63c-2.89-1.21-5.87-2.46-8.78-3.72s-5.92-2.6-8.8-3.88-5.72-2.55-8.6-3.79a10.06 10.06 0 0 0-4.11-1c-2.62 0-5.91 1.58-6.54 6.05a12.16 12.16 0 0 0-0.09 2.8c0.29 3.58 2.72 6.75 6.48 8.47 1.45 0.66 2.91 1.28 4.32 1.88l1.83 0.79 4.52 2c3.37 1.45 6.84 2.94 10.25 4.44 5.49 2.4 11 4.85 16.18 7.16l3.11 1.39c-1.94 2.11-2.42 5.13-1.18 8.32a11.69 11.69 0 0 0 7.55 6.7c1.62 0.56 3.76 1.31 5.86 2.16l4.48 1.83a7.5 7.5 0 0 0-2.38 8.69 12.26 12.26 0 0 0 1.33 2.43q0.16 0.22 0.3 0.45a12 12 0 0 0 7.4 5.06 21.32 21.32 0 0 1 2.93 0.74c1.07 0.38 2.15 0.8 3.29 1.24 1.4 0.54 2.84 1.1 4.31 1.59l3 1c5.31 1.8 10.81 3.65 16.25 5.29l4.15 1.24c6.26 1.86 12.74 3.79 19.06 6.13s12.65 4.45 18.8 6.52l4.82 1.62c1.69 0.58 3.35 1 5 1.49l2.3 0.66 3.09 0.93c2.23 0.68 4.54 1.38 6.85 2a77.75 77.75 0 0 0 9.62 2.07 125.73 125.73 0 0 1 14.91 3.08c1.46 0.36 2.93 0.79 4.48 1.25a65.2 65.2 0 0 0 9.62 2.3 17.59 17.59 0 0 0 2.31 0.17c4.57 0 6.81-2.29 7.89-4.28 1.5-0.37 6.33-2.1 5.79-8.92-0.29-3.75-3.29-5.53-4.89-6.48-0.16-0.09-0.32-0.18-0.47-0.28-5.46-3.36-10.93-6.77-15.08-9.37l-8.15-5.11c-3.8-2.39-7.61-4.79-11.42-7.16-0.92-0.57-1.82-1.06-2.69-1.54-0.72-0.39-1.39-0.75-2-1.13-1.84-1.12-3.66-2.25-5.48-3.38-2.8-1.73-5.69-3.53-8.58-5.24-5.31-3.15-10.72-6.29-16-9.32l-4.29-2.48c-2.14-1.25-4.29-2.48-6.43-3.71-3.7-2.12-7.52-4.32-11.23-6.52-2.6-1.53-5.23-3.16-7.77-4.73-2.18-1.35-4.44-2.74-6.7-4.09-1.61-1-3.25-1.87-4.83-2.74-1.06-0.58-2.15-1.18-3.2-1.78-1.31-0.75-2.61-1.52-3.91-2.29-2.23-1.33-4.54-2.69-6.89-4-5.81-3.14-11.91-6.34-18.13-9.5-4.42-2.25-8.91-4.46-13.26-6.6l-6.36-3.15c-0.63-0.31-1.25-0.63-1.87-1l-2.18-1.1-0.49-0.24c-1.6-0.79-3.25-1.61-4.93-2.37a7.92 7.92 0 0 0-3.3-0.77z"/><path class="cls-2" d="m228.09 219.1a7.84 7.84 0 0 1-4.53-1.86 242.16 242.16 0 0 0-21.76-14.48c-4.72-2.76-9.48-5.73-14.08-8.6l-5.39-3.35-5.24-3.23c-5-3.07-10.17-6.25-15.25-9.5-4.35-2.78-8.64-5.72-12.74-8.74-9.47-7-19.1-12.91-27.28-17.81l-1-0.62c-1.46-0.87-3-1.77-4.46-2.78-4.73-3.2-4.54-6.89-3.54-9.42 1.12-2.85 3-3.45 4.43-3.45a8.26 8.26 0 0 1 4.21 1.45c2.1 1.24 4.2 2.56 6.28 3.89q-3.68-2.72-7.45-5.31c-2.46-1.68-5-3.29-7.48-4.85-1.85-1.17-3.7-2.35-5.55-3.56-2.15-1.42-4.3-2.94-6.39-4.4l-2.81-2a5.15 5.15 0 0 1-0.61-0.44c-2-1.71-4-4-3.45-7.75a8.45 8.45 0 0 1 1.36-3.57 4.07 4.07 0 0 1 2.4-1.67l-2.29-2c-3.89-3.3-7.91-6.72-11.84-10.16a9.38 9.38 0 0 1-3.63-6.13c-0.41-5 2.58-6.4 3.88-6.78a4.59 4.59 0 0 1 1.12-0.16c2 0 3.8 1.42 5 2.48 0.56 0.5 1.11 1 1.66 1.54 0.93 0.87 1.81 1.69 2.72 2.47q3.61 3.09 7.25 6.15l4 3.41 4.53 3.85c2.11 1.81 4.28 3.66 6.45 5.48-0.15-3.69 2-5.47 4.23-5.9a5.07 5.07 0 0 1 1-0.1c2.57 0 4.62 1.84 5.94 3.23s2.55 2.51 4 3.84l0.51 0.47c3.73 3.39 7.59 6.89 11.41 10.27 1.78 1.57 3.57 3.12 5.37 4.67 2.33 2 4.74 4.09 7.09 6.21 4.43 4 9 8.25 13.7 12.68 3.81 3.62 7.8 7.42 11.79 11.33l-0.14-0.19c-1.46-2-2.94-3.93-4.42-5.88-1.79-2.36-3.64-4.79-5.42-7.23-2.27-3.12-4.65-6.53-7.46-10.72q-5.13-7.63-10.22-15.29-2.88-4.34-5.77-8.67c-0.47-0.71-1-1.39-1.47-2.09l-0.6-0.83a8.27 8.27 0 0 1-1-8.42 4.85 4.85 0 0 1 4.33-2.76 7.17 7.17 0 0 1 5.65 3.61c3.66 5.75 6.48 10.13 9.14 14.19l0.33 0.51c3.49 5.32 7.08 10.82 10.73 16.15 1.59 2.34 3.35 4.67 5.06 6.92l1.74 2.31q2.28 3.06 4.58 6.1c2.56 3.39 5.12 6.79 7.64 10.21 1.31 1.78 2.59 3.61 3.82 5.37q1.43 2.07 2.88 4.1 2.52 3.48 5.07 6.93l2.92 4c0.35 0.48 0.68 1 1 1.49l0.17 0.27c0.65 1 1.29 2 1.92 3 1.33 2.11 2.7 4.29 4.15 6.32 3.56 5 7.27 10 10.86 14.84l2.33 3.15c0.74 1 1.5 2 2.26 2.95 1.13 1.45 2.3 3 3.39 4.52 2.22 3.18 2.14 7-0.18 8.87a3.09 3.09 0 0 1-2.1 0.89h-0.4l-0.47-0.14a1.16 1.16 0 0 0-0.43-0.08 4.06 4.06 0 0 0-1.13 0.29 10.27 10.27 0 0 1-1.31 0.4 4.74 4.74 0 0 1-1.01 0.11z"/><path class="cls-3" d="m85 84.32c1 0 2.2 0.84 3.29 1.83 1.48 1.34 2.93 2.77 4.43 4.06 3.76 3.22 7.54 6.37 11.31 9.57 4.59 3.89 9.15 7.85 13.77 11.66 4.28 3.54 8.63 6.85 12.9 10.38 5.59 4.61 11.2 9.18 16.66 14.07 6.34 5.68 12.51 11.73 18.8 17.53 3.68 3.39 7.44 6.6 11.17 9.9 2.7 2.39 5.39 4.81 8.09 7.21l0.19-0.36c-1.64-1.63-3.27-3.28-4.93-4.87-6.14-5.9-12.26-11.83-18.45-17.65-5.72-5.38-11.47-10.72-17.29-15.91-6.42-5.73-12.92-11.32-19.43-16.86-1.91-1.63-4-2.89-5.43-5.27a5.91 5.91 0 0 1-0.9-1.82c-0.3-2.28 0.41-3.7 2.15-4a3.41 3.41 0 0 1 0.55 0c1.37 0 2.73 1 4.13 2.45s2.75 2.7 4.16 4c4 3.61 7.94 7.22 11.94 10.76s8.34 7.16 12.45 10.87q6.88 6.19 13.65 12.63c5.3 5 10.6 10.09 15.8 15.3s10.54 10.88 15.81 16.34l1.88 1.94 0.24-0.18c-0.51-0.85-1-1.75-1.53-2.55-2.26-3.13-4.59-6.21-6.86-9.32-3.33-4.56-6.61-9.15-10-13.69-3.25-4.39-6.61-8.69-9.83-13.09-2.54-3.49-5-7.06-7.41-10.64-5.35-8-10.65-16-16-24-0.68-1-1.41-2-2.12-3-2.37-3.31-1.19-7.22 1.27-7.22a4.78 4.78 0 0 1 3.5 2.45c3 4.75 6.07 9.5 9.16 14.22 3.66 5.59 7.31 11.18 11.08 16.7 2.17 3.18 4.56 6.23 6.87 9.32 4.07 5.44 8.18 10.83 12.21 16.3 2.29 3.1 4.43 6.32 6.68 9.45 2.64 3.65 5.34 7.27 8 10.91 0.39 0.53 0.74 1.09 1.1 1.64 2 3.15 3.95 6.38 6.12 9.43 4.33 6.07 8.79 12 13.22 18 1.85 2.5 3.84 4.88 5.61 7.42 1.51 2.16 1.52 4.5 0.3 5.49-0.16 0.13-0.33 0.34-0.53 0.34h-0.09a3.86 3.86 0 0 0-1.2-0.2 12.42 12.42 0 0 0-3 0.76 2.92 2.92 0 0 1-0.5 0 5.57 5.57 0 0 1-3-1.36 241.8 241.8 0 0 0-22-14.64c-6.48-3.8-12.94-7.92-19.41-11.91-6.82-4.22-13.66-8.36-20.46-12.71-4.23-2.71-8.45-5.59-12.61-8.65-9.06-6.67-18.25-12.41-27.48-17.94-1.8-1.08-3.61-2.12-5.39-3.33-2.78-1.89-3.59-3.94-2.61-6.44 0.49-1.26 1.14-1.86 2.1-1.86a6.26 6.26 0 0 1 2.93 1.09c3.37 2 6.73 4.18 10.08 6.34 5.44 3.51 10.89 7 16.3 10.64 3.56 2.39 7.07 5 10.61 7.53 1.49 1 3 2 4.51 2.94 4 2.59 8 5.19 12 7.76a16.37 16.37 0 0 0 1.58 0.77l0.06-0.46-10.05-7.47c-2.32-1.73-4.67-3.39-7-5.2-6.27-5-12.55-9.91-18.76-15-5.86-4.84-11.82-9.29-17.86-13.43-4.32-3-8.71-5.57-13.06-8.44-3.07-2-6.1-4.22-9.15-6.33-0.14-0.1-0.29-0.18-0.43-0.3-2.18-1.84-2.91-3.29-2.59-5.48a6.14 6.14 0 0 1 1-2.52 1.56 1.56 0 0 1 1.33-0.69 3.53 3.53 0 0 1 2.22 1c5.44 4.78 11.2 7.82 16.83 11.54 1.63 1.08 3.28 2.07 4.92 3.1l0.15-0.38a12.53 12.53 0 0 0-1.56-1.54c-4.46-3-8.6-6.83-12.85-10.38q-4.93-4.12-9.87-8.31c-4.45-3.79-8.9-7.56-13.32-11.42a6.93 6.93 0 0 1-2.76-4.53c-0.18-2.24 0.49-3.71 2.09-4.17a1.49 1.49 0 0 1 0.47-0.07m0-5a6.79 6.79 0 0 0-1.86 0.26c-3 0.88-6.14 3.81-5.69 9.38 0.35 4.31 3.44 7 4.46 7.9 3.88 3.38 7.84 6.75 11.67 10a5.82 5.82 0 0 0-0.36 0.47 11.07 11.07 0 0 0-1.69 4.62c-0.74 5 1.91 8 4.3 10a7.83 7.83 0 0 0 0.8 0.58l2.81 2c2.1 1.47 4.27 3 6.44 4.43 1.88 1.24 3.77 2.44 5.61 3.6l2 1.29a7.92 7.92 0 0 0-3 3.94c-0.87 2.23-2.19 7.9 4.47 12.41 1.56 1.06 3.11 2 4.61 2.87l1 0.61c8.13 4.86 17.7 10.77 27.09 17.67 4.15 3.06 8.48 6 12.88 8.84 5.09 3.26 10.27 6.44 15.28 9.52l5.24 3.23 5.39 3.35c4.62 2.87 9.39 5.85 14.12 8.63a237.24 237.24 0 0 1 21.54 14.33 10.3 10.3 0 0 0 6 2.35 7.38 7.38 0 0 0 1.62-0.18 14.52 14.52 0 0 0 1.57-0.48l0.3-0.1a5.29 5.29 0 0 0 1.31 0.17 5.52 5.52 0 0 0 3.75-1.51c3.28-2.73 3.54-7.95 0.58-12.18-1.13-1.61-2.32-3.15-3.47-4.63-0.77-1-1.51-1.94-2.22-2.9l-2.33-3.15c-3.59-4.84-7.29-9.84-10.84-14.8-1.4-2-2.69-4-4.06-6.19-0.64-1-1.28-2-1.94-3.05l-0.17-0.27c-0.31-0.49-0.67-1.05-1.09-1.62-1-1.32-1.94-2.65-2.92-4-1.66-2.26-3.39-4.6-5.05-6.91-1-1.33-1.93-2.72-2.87-4.07-1.23-1.78-2.51-3.62-3.84-5.42-2.55-3.45-5.16-6.92-7.69-10.27-1.52-2-3-4-4.55-6l-1.75-2.33c-1.76-2.33-3.43-4.53-5-6.82-3.62-5.29-7.2-10.76-10.66-16.05l-0.37-0.57c-2.67-4.08-5.48-8.45-9.12-14.17a9.68 9.68 0 0 0-7.64-4.76h-0.12a7.29 7.29 0 0 0-6.49 4.05 10.77 10.77 0 0 0 1.21 11l0.63 0.87c0.5 0.69 1 1.34 1.4 2l5.76 8.69c3.34 5 6.78 10.19 10.2 15.28l1.17 1.73q-2.77-2.55-5.46-5c-2.37-2.13-4.79-4.22-7.13-6.24-1.76-1.52-3.59-3.09-5.35-4.66-3.83-3.38-7.71-6.9-11.46-10.31l-0.44-0.4c-1.44-1.3-2.72-2.48-3.9-3.72-1.63-1.71-4.22-4-7.75-4a7.86 7.86 0 0 0-6.79 3.93l-3.3-2.81-4.51-3.8-4-3.39c-2.39-2-4.86-4.09-7.27-6.16-0.86-0.74-1.72-1.54-2.63-2.4-0.56-0.52-1.12-1.05-1.69-1.56-1.48-1.34-3.77-3.13-6.65-3.13z"/><path class="cls-4" d="m196.87 357.3a5.52 5.52 0 0 1-3.15-1.24c-1.23-0.88-2.44-1.87-3.62-2.83-0.62-0.51-1.25-1-1.88-1.52-1.15-0.9-2.29-1.78-3.44-2.66-2.34-1.8-4.75-3.67-7.13-5.66-1-0.85-2-1.67-3.05-2.49a79.63 79.63 0 0 1-9-8 23.11 23.11 0 0 0-2.24-2c-0.58-0.48-1.18-1-1.78-1.54l-2.1-2c-4.3-4-8.74-8.18-13.1-12.37-5-4.79-10.28-9.95-17.16-16.72-2.6-2.57-5.2-5.18-7.79-7.79-1.58-1.59-3.16-3.18-4.74-4.75q-1.92-1.92-3.86-3.81c-2.62-2.56-5.33-5.22-8-8-1.37-1.45-2.81-2.85-4.21-4.2a83.5 83.5 0 0 1-7.35-7.76 23.55 23.55 0 0 0-4.56-4.36 11 11 0 0 1-4.37-9.34c0.26-4.41 2.93-6 5.34-6a7.21 7.21 0 0 1 4.39 2.08c0.54 0.52 1.07 1.06 1.6 1.62q-4.91-5.62-9.51-11.4c-1.94-2.44-4.1-4.71-6.18-6.9l-0.76-0.8c-1.86-2-3.73-3.88-5.61-5.81s-3.75-3.84-5.61-5.81c-1.41-1.48-2.81-3.05-4.17-4.56-1-1.09-2-2.19-3-3.26-2.34-2.54-4.81-5.17-7.34-7.81-2-2.14-3.32-4.27-2.9-7.71l0.06-0.56a6.46 6.46 0 0 1 1.72-4.34 5 5 0 0 1 3.49-1.63c1.91 0 3.46 1.33 4.72 2.64 1.86 1.91 3.4 3.54 4.84 5.13 1.68 1.85 3.35 3.71 5 5.56 2.34 2.61 4.67 5.21 7 7.77 1.15 1.26 2.35 2.5 3.52 3.69s2.61 2.7 3.9 4.13l1.46 1.6c3 3.32 6.12 6.74 9.13 10.3-2.33-3.08-4.58-6.25-6.77-9.35s-4.37-6.17-6.61-9.14c-4.41-5.81-9-11.93-13.63-18.17-1.89-2.55-3.72-5.14-5.42-7.69-2-2.93-2.05-4.5-1.47-7.13a6.8 6.8 0 0 1 3-4.76 4.21 4.21 0 0 1 2.16-0.63c2.11 0 3.39 1.77 4.07 2.72q2.61 3.63 5.2 7.28c2.94 4.13 6 8.4 9 12.56 1.87 2.56 3.81 5.13 5.68 7.61 1.42 1.87 2.83 3.74 4.24 5.64q3.14 4.24 6.25 8.53l4.65 6.35c0.84 1.14 1.7 2.25 2.56 3.35l4.11 5.29q3.18 4.08 6.34 8.18c0.33 0.44 0.66 0.87 1 1.3l-0.46-0.7c-5.1-7.79-10.37-15.84-16-23.21-1.1-1.45-2.12-3-3.1-4.52l-0.34-0.53c-2.73-4.19-1.58-7-0.65-8.24a13.16 13.16 0 0 1 0.93-1.14l0.35-0.42a4.33 4.33 0 0 1 3.36-1.7c2.34 0 4 2 5.05 3.49 1.44 2 2.87 4.16 4.27 6.23a5.93 5.93 0 0 1 0.67-3.91l0.24-0.48c0.42-0.89 1.43-3 3.92-3a4.57 4.57 0 0 1 1 0.12 8.57 8.57 0 0 1 5.28 4.39c1.37 2.26 2.76 4.5 4.14 6.75s2.84 4.59 4.24 6.91c1.54 2.54 3.05 5.11 4.56 7.68l4.84 8.2q3.33 5.66 6.68 11.3 4 6.79 8.11 13.58l3 5.08 2.94 4.9c2.12 3.53 4.33 7.19 6.45 10.84 3.14 5.39 6.25 10.93 9.27 16.29l0.45 0.8c2 3.55 4 7.12 6 10.68l2.84 5.11 3.26 5.85q3.84 6.89 7.65 13.78c0.56 1 1.08 2.05 1.58 3.05 0.59 1.18 1.15 2.29 1.76 3.36 2.68 4.67 2 8.3 1 10.52-0.44 1-0.92 1.9-1.37 2.79s-0.83 1.61-1.22 2.45-1.25 2.87-3.62 2.87z"/><path class="cls-3" d="m66.74 171.77c0.61 0 1.19 0.5 2 1.69 4.74 6.61 9.43 13.28 14.2 19.85 3.26 4.49 6.63 8.82 9.93 13.27 3.65 4.93 7.26 9.93 10.9 14.88 1.09 1.48 2.22 2.91 3.34 4.36 3.23 4.17 6.48 8.31 9.7 12.5q7.43 9.68 14.82 19.42c4.13 5.4 8.28 10.77 12.39 16.2 5.77 7.63 11.51 15.32 17.28 23 0.65 0.86 1.38 1.59 2.32 2.67a7.53 7.53 0 0 0-0.37-1.26c-2-3.2-4-6.42-6-9.58-1.58-2.46-3.2-4.88-4.83-7.26-5.46-8-10.78-16.05-16.42-23.79-4.71-6.46-9.13-13.35-13.59-20.15-5.54-8.46-11-17-17-24.87-1.17-1.54-2.25-3.24-3.33-4.9-1.44-2.2-1.68-4.1-0.73-5.42 0.37-0.5 0.79-0.94 1.18-1.41a1.88 1.88 0 0 1 1.44-0.81c0.87 0 1.86 0.79 3 2.43 2.36 3.38 4.67 6.84 7 10.28 3.49 5.15 7 10.33 10.47 15.46 6.92 10.1 13.88 20.15 20.8 30.25 1.55 2.26 3 4.61 4.53 6.91l0.31-0.29-4.28-7.3q-9-15.23-18-30.43c-2.32-3.88-4.8-7.62-7.18-11.45-1.21-2-2.38-4-3.57-5.93-1.3-2.15-1.72-3.93-0.89-5.4 0.54-1 0.83-2.18 2-2.18a1.82 1.82 0 0 1 0.45 0.05c1.46 0.34 2.58 1.38 3.72 3.26 2.77 4.57 5.6 9.08 8.37 13.65 2.23 3.69 4.4 7.43 6.6 11.14 3.16 5.35 6.3 10.7 9.47 16q5.57 9.34 11.15 18.67c3.13 5.23 6.3 10.43 9.38 15.7 3.28 5.65 6.49 11.36 9.7 17.07 3 5.24 5.86 10.52 8.79 15.78 3.63 6.54 7.29 13.06 10.9 19.62 1.17 2.11 2.17 4.35 3.36 6.45 1.78 3.09 2 5.91 0.9 8.23-0.82 1.79-1.76 3.44-2.58 5.23-0.44 0.94-0.85 1.44-1.45 1.44a3.18 3.18 0 0 1-1.69-0.77c-1.81-1.3-3.61-2.86-5.42-4.28-3.5-2.76-7-5.36-10.5-8.27-3.95-3.32-8-6.19-11.81-10.33-1.31-1.42-2.77-2.42-4.15-3.7-5.06-4.75-10.13-9.47-15.17-14.31-5.72-5.5-11.43-11.09-17.13-16.7-4.19-4.13-8.35-8.36-12.52-12.53-3.93-3.92-7.91-7.66-11.77-11.76s-7.79-7.29-11.43-11.82a26 26 0 0 0-5.07-4.83 8.59 8.59 0 0 1-3.31-7.15c0.13-2.36 1.14-3.67 2.87-3.68a4.65 4.65 0 0 1 2.63 1.4c1.69 1.6 3.3 3.54 5 5.27q7 7.35 14.08 14.63 5.43 5.61 10.9 11.1c3.84 3.85 7.7 7.63 11.55 11.46 5.61 5.59 11.2 11.23 16.82 16.8 2 1.93 4 3.71 5.94 5.55l0.09-0.42c-2.81-3.14-5.58-6.38-8.42-9.4-5.88-6.23-11.76-12.42-17.4-19.27q-7.86-9.51-15.89-18.63c-3.38-3.85-6.9-7.39-10.35-11.08-5.65-6.06-11.16-12.42-16.52-19.16-2.25-2.83-4.69-5.34-7.09-7.87-3.72-3.92-7.49-7.69-11.22-11.62-2.39-2.52-4.72-5.22-7.09-7.8s-4.91-5.26-7.37-7.84c-1.89-2-2.51-3.4-2.23-5.68 0.15-1.25 0.15-2.6 0.93-3.35a2.6 2.6 0 0 1 1.75-0.93c0.79 0 1.67 0.58 2.93 1.88 1.61 1.65 3.21 3.33 4.78 5.07 4 4.43 8 8.94 12 13.34 2.44 2.67 5 5.12 7.41 7.81 3.88 4.27 7.79 8.52 11.55 13 6 7.18 12 14.11 18.19 20.72 4.85 5.18 9.68 10.43 14.29 16.24 2.62 3.3 5.4 6.32 8.11 9.47 1.55 1.8 3.1 3.62 4.66 5.41a2.6 2.6 0 0 0 1.31 0.9c-1.11-1.51-2.2-3.05-3.34-4.54q-9.72-12.75-19.46-25.49c-5.87-7.68-11.63-15.59-17.66-23-5.85-7.13-11-15.17-16.6-22.57q-6.84-9-13.61-18.16-2.74-3.7-5.36-7.59c-1.51-2.26-1.56-3.12-1.1-5.2a4.44 4.44 0 0 1 1.82-3.14 1.91 1.91 0 0 1 0.92-0.3m0-5a6.7 6.7 0 0 0-3.41 1 9.32 9.32 0 0 0-4.21 6.4c-0.8 3.6-0.35 5.8 1.83 9.06 1.25 1.86 2.56 3.74 3.91 5.61l-2.48-2.59c-1.53-1.57-3.66-3.39-6.52-3.39a7.48 7.48 0 0 0-5.23 2.34 8.74 8.74 0 0 0-2.39 5.89l-0.06 0.51c-0.56 4.69 1.5 7.56 3.58 9.74 2.52 2.63 5 5.24 7.31 7.78 1 1.06 2 2.14 2.93 3.23 1.37 1.52 2.78 3.1 4.22 4.61 1.87 2 3.78 3.94 5.63 5.84s3.74 3.84 5.59 5.78l0.77 0.81c2.13 2.25 4.15 4.37 6 6.73q1.59 2 3.22 4c-2.84 0.88-5.32 3.46-5.58 8a13.59 13.59 0 0 0 5.42 11.53 21 21 0 0 1 4 3.88 84.91 84.91 0 0 0 7.56 8c1.44 1.39 2.8 2.71 4.13 4.12 2.66 2.82 5.39 5.5 8 8.08 1.29 1.26 2.57 2.51 3.85 3.79l4.7 4.72c2.56 2.58 5.21 5.24 7.84 7.83 6.9 6.8 12.2 12 17.18 16.74 4.37 4.2 8.82 8.37 13.13 12.4l2.09 2c0.65 0.61 1.28 1.13 1.89 1.64a21.62 21.62 0 0 1 2 1.8 81 81 0 0 0 9.25 8.3c1 0.84 2 1.64 3 2.47 2.41 2 4.84 3.9 7.2 5.71 1.14 0.88 2.28 1.76 3.42 2.66 0.62 0.48 1.24 1 1.85 1.49 1.2 1 2.45 2 3.74 2.92a7.91 7.91 0 0 0 4.61 1.71c1.81 0 4.32-0.75 6-4.34 0.36-0.78 0.76-1.55 1.17-2.36s1-1.86 1.43-2.88c1.78-3.9 1.39-8.45-1.11-12.81-0.58-1-1.12-2.09-1.69-3.24s-1-2.08-1.63-3.14c-2.54-4.6-5.14-9.26-7.65-13.77l-3.27-5.86-2.84-5.13c-1.95-3.5-3.95-7.12-5.95-10.67l-0.42-0.74c-3-5.39-6.16-11-9.32-16.39-2.13-3.66-4.34-7.33-6.48-10.88l-2.93-4.88-3-5.09-8.05-13.59q-3.3-5.55-6.58-11.11l-2.89-4.9c-0.67-1.14-1.34-2.29-2-3.43-1.49-2.55-3-5.18-4.6-7.76-1.41-2.32-2.85-4.67-4.25-6.93s-2.77-4.48-4.13-6.72a11 11 0 0 0-6.86-5.54 7.16 7.16 0 0 0-1.58-0.18c-2.52 0-4.51 1.3-5.9 3.86l-1.15-1.65c-0.79-1.13-3.19-4.56-7.1-4.56a6.84 6.84 0 0 0-5.28 2.6c-0.1 0.13-0.21 0.25-0.32 0.37-0.3 0.36-0.69 0.8-1.06 1.32a7.94 7.94 0 0 0-1.3 2.91l-3.31-4.33c-1.87-2.48-3.81-5-5.66-7.59-3-4.14-6-8.39-9-12.51q-2.61-3.66-5.23-7.31c-0.81-1.13-2.7-3.78-6.1-3.78z"/><path class="cls-4" d="m241.35 253.58a4 4 0 0 1-3-1.56 7.23 7.23 0 0 1-1.6-5.41v-0.19c0.47-2.7 0.93-5.41 1.44-8.12a12.43 12.43 0 0 1 0.78-2.44l0.52-1.3c1-2.46 2-5 3.1-7.51 0.89-2.09 1.85-4.19 2.77-6.22l1.76-3.86q3.4-7.51 6.84-15l1.74-3.82c2-4.44 4.13-9 6.28-13.53s4.56-9.27 6.84-13.76l1.24-2.45q2.29-4.56 4.63-9.1c2.47-4.86 5-9.88 7.5-14.84 1.58-3.19 3.13-6.47 4.63-9.64 1.19-2.52 2.38-5 3.6-7.55 2.65-5.43 5.33-10.79 8.53-17.16s6.16-12.57 8.85-18.56c1.35-3 2.91-6 4.42-8.85 0.66-1.26 1.33-2.53 2-3.8 0.09-0.19 0.19-0.38 0.29-0.56s0.21-0.37 0.3-0.56c0.78-1.65 2.24-4.71 5.56-4.71a6.61 6.61 0 0 1 1.92 0.31c0.84 0.26 1.6 0.57 2.41 0.91l1.13 0.46 2 0.8c1.35-2.56 2.69-5.13 4-7.65l2.51-4.91q3.75-7.19 7.47-14.37c0.42-0.82 0.81-1.64 1.2-2.46s0.74-1.54 1.12-2.3q3.87-7.7 7.87-15.39a19.55 19.55 0 0 1 1.54-2.62 5.72 5.72 0 0 1 4.54-2.64 4.7 4.7 0 0 1 1.77 0.36l0.16 0.07c0.43 0.18 0.86 0.37 1.3 0.52a3.89 3.89 0 0 1 2.47 2.12 5 5 0 0 1-0.33 4.08c-1 2.3-2.14 4.68-3.43 7.26-0.59 1.19-1.22 2.36-1.84 3.53s-1.24 2.34-1.83 3.52q-2 4.11-4 8.23c-1.15 2.34-2.29 4.68-3.45 7-0.47 1-1 1.9-1.49 2.84-0.34 0.62-0.68 1.24-1 1.87q-1.32 2.53-2.63 5.07a5 5 0 0 1 3.9-2 5.58 5.58 0 0 1 2.71 0.76 20.77 20.77 0 0 1 2 1.33l0.26 0.19c1.31 0.94 2.28 2.87 1.07 5.49l-0.18 0.39c-0.16 0.35-0.33 0.72-0.53 1.11q3.25-5.06 6.55-10.09c0.94-1.42 1.95-2.79 2.92-4.11 0.63-0.86 1.26-1.72 1.88-2.59a4.39 4.39 0 0 1 3.64-2.12 3.81 3.81 0 0 1 0.82 0.09 7.31 7.31 0 0 1 5.31 4.08l0.61 1.27-4.2 6.43c-2.75 4.23-5.48 8.41-8.18 12.61-1.3 2-2.56 4-3.83 6.07q-1.25 2-2.5 4l-2.91 4.57q-1.32 2.06-2.63 4.13c-0.59 0.92-1.16 1.85-1.73 2.78-1 1.7-2.12 3.46-3.27 5.16l-1.49 2.11 1.62-2q1.56-1.92 3.11-3.85 0.64-0.81 1.26-1.65l0.93-1.24a6.09 6.09 0 0 1 4.61-2.73 3.88 3.88 0 0 1 2.68 1.06 9.76 9.76 0 0 1 3.17 5.22l0.27 1.17s-1.9 2.38-2.48 3.09c-1.24 1.55-2.49 3.1-3.71 4.69-2.55 3.32-5.09 6.66-7.63 10q-2.07 2.73-4.14 5.43c-0.74 1-1.48 1.94-2.22 2.91-0.91 1.17-1.81 2.34-2.71 3.53-1.13 1.48-2.25 3-3.38 4.47-2 2.63-4 5.27-6 7.87-4.07 5.27-8.25 10.59-12.29 15.73l-1.69 2.14q-12.4 15.78-24.83 31.54c-1.28 1.62-2.6 3.19-3.89 4.71-0.82 1-1.64 1.95-2.45 2.94-2.87 3.49-5.71 7-8.56 10.49l-2 2.52c-2.29 2.81-4.66 5.72-6.95 8.62-1.38 1.75-2.75 3.53-4.11 5.32-1.59 2.07-3.23 4.22-4.89 6.3-2.78 3.47-5.51 6.85-8.44 10.06a11.72 11.72 0 0 1-7.65 3.88h-0.3z"/><path class="cls-3" d="m358.07 25.72a2 2 0 0 1 0.79 0.17c0.54 0.23 1.08 0.46 1.64 0.65 1.15 0.39 1.4 1.13 0.66 2.81-1.07 2.41-2.21 4.8-3.39 7.17s-2.49 4.68-3.67 7c-2.52 5.07-5 10.17-7.49 15.25-0.78 1.57-1.66 3.1-2.47 4.67q-4.11 7.91-8.2 15.83c-2 3.86-3.94 7.74-6 11.56-2.63 4.84-4.77 9.86-7 14.84-1 2.26-2 4.53-3.06 6.74-1.88 3.86-3.88 7.59-5.78 11.41a49.19 49.19 0 0 0-2.87 6.72c0.54-0.84 1.1-1.67 1.62-2.52 3-5 6.12-10 9.07-15 3.7-6.34 7.28-12.77 10.95-19.14 2.88-5 5.85-9.94 8.73-14.93 1-1.76 1.93-3.6 2.77-5.43 1-2.25 2-3.32 3.26-3.32a3.12 3.12 0 0 1 1.5 0.45 22.59 22.59 0 0 1 2 1.36c0.65 0.47 0.78 1.26 0.25 2.4-0.26 0.56-0.5 1.14-0.81 1.68q-4.57 7.91-9.14 15.91c-1.78 3.06-3.6 6.1-5.35 9.17-1.05 1.85-1.92 3.8-3 5.63-1.69 2.92-3.45 5.79-5.21 8.66-1.44 2.34-2.93 4.64-4.39 7-0.27 0.44-0.52 0.9-0.76 1.37a115.27 115.27 0 0 1-7.93 13.17c-0.84 1.22-1.51 2.61-2.27 3.91-0.62 1.07-1.28 2.12-1.91 3.19-0.41 0.71-0.8 1.43-1.2 2.15l0.28 0.21c1.69-2.53 3.4-5 5-7.6 2.13-3.35 4.11-6.83 6.32-10.13 2.55-3.81 5.32-7.44 7.91-11.22q6.72-9.83 13.35-19.75c2.76-4.1 5.49-8.24 8.19-12.38 3.72-5.71 7.38-11.46 11.13-17.14 1.5-2.28 3.19-4.41 4.75-6.64a2 2 0 0 1 1.66-1.05h0.27a4.86 4.86 0 0 1 3.61 2.72c-3.93 6-7.8 11.94-11.63 17.87-2.15 3.34-4.21 6.75-6.34 10.11-1.83 2.91-3.7 5.79-5.54 8.7-1.65 2.62-3.22 5.32-4.95 7.87-5.4 8-10.9 15.85-16.29 23.83-2.67 3.95-5.14 8.06-7.75 12.07-3 4.58-6 9.12-9 13.69-1.21 1.84-2.41 3.68-3.49 5.69 1.13-1.32 2.29-2.59 3.37-4 5.46-6.9 10.95-13.78 16.33-20.77 5.12-6.64 10.1-13.46 15.21-20.12 2.93-3.81 6-7.47 9-11.21 0.76-0.95 1.47-2 2.21-2.92a3.78 3.78 0 0 1 2.63-1.76 1.35 1.35 0 0 1 1 0.39 7.25 7.25 0 0 1 2.44 4c-1.81 2.27-3.67 4.53-5.46 6.87-3.94 5.12-7.85 10.29-11.77 15.43-1.64 2.15-3.3 4.28-4.94 6.43-3.12 4.11-6.2 8.26-9.35 12.33-4.22 5.46-8.47 10.87-12.73 16.29q-13 16.56-26.06 33.1c-2.06 2.6-4.22 5.06-6.32 7.62q-4.29 5.22-8.56 10.5c-3 3.71-6 7.4-9 11.16s-5.95 7.79-9 11.61c-2.71 3.39-5.45 6.78-8.34 9.93a9.19 9.19 0 0 1-6 3.08h-0.07c-1.17 0-2.45-2.45-2.18-4.05 0.48-2.75 1-5.51 1.46-8.27a10.72 10.72 0 0 1 0.65-2c1.18-2.93 2.35-5.86 3.6-8.76 1.1-2.59 2.29-5.16 3.46-7.74q3.93-8.66 7.88-17.31c2.65-5.78 5.25-11.57 8-17.31 2.6-5.42 5.35-10.79 8.06-16.16 4-8 8.16-15.94 12.14-24 2.83-5.7 5.45-11.48 8.24-17.2s5.65-11.44 8.51-17.14c3.11-6.17 6.08-12.37 8.9-18.66 1.91-4.24 4.21-8.36 6.34-12.54 0.2-0.39 0.43-0.77 0.62-1.17 1.12-2.34 2-3.29 3.31-3.29a4.23 4.23 0 0 1 1.19 0.2c1.07 0.33 2.07 0.8 3.35 1.31-2 4.19-3.78 8-5.58 11.86-1.71 3.66-3.4 7.33-5.11 11-1.08 2.32-2.11 4.67-3.26 7-3.41 6.8-6.9 13.56-10.3 20.37-1.58 3.16-3 6.39-4.54 9.58-2.11 4.39-4.26 8.76-6.38 13.14-2 4-4.29 7.9-6.12 12-1.91 4.32-4.4 8.46-6.55 12.72-2.91 5.78-5.74 11.6-8.57 17.42a6.87 6.87 0 0 0-0.63 2.72c0.64-0.94 1.34-1.84 1.89-2.83 3.5-6.19 7-12.37 10.41-18.63 2.35-4.37 4.44-8.86 6.66-13.3 1.93-3.87 3.79-7.77 5.82-11.58 1.38-2.58 3.07-5 4.5-7.56 4.34-7.74 8.77-15.44 12.88-23.3 2.9-5.56 5.34-11.35 8-17 3-6.33 5.94-12.65 9.31-18.83 3.18-5.83 6.19-11.75 9.26-17.63q3.61-7.12 7.3-14.32c0.81-1.57 1.53-3.19 2.33-4.77q3.92-7.71 7.86-15.41a17.3 17.3 0 0 1 1.33-2.29 3.3 3.3 0 0 1 2.52-1.61m0-5a8.13 8.13 0 0 0-6.56 3.66 21.55 21.55 0 0 0-1.74 3c-2.8 5.47-5.37 10.51-7.87 15.43-0.39 0.77-0.77 1.56-1.14 2.34s-0.78 1.63-1.17 2.4c-2.14 4.14-4.44 8.57-7.46 14.36-0.85 1.62-1.68 3.24-2.52 4.86l-2.95 5.66-1-0.42a27.6 27.6 0 0 0-2.63-1.01 9.12 9.12 0 0 0-2.64-0.42c-4.9 0-6.94 4.3-7.82 6.14l-0.23 0.43-0.33 0.62c-0.65 1.26-1.31 2.52-2 3.78-1.52 2.9-3.1 5.9-4.48 9-2.67 6-5.55 12-8.8 18.46s-5.9 11.76-8.54 17.19c-1.24 2.53-2.45 5.1-3.62 7.58-1.5 3.16-3 6.43-4.61 9.59-2.46 4.94-5 9.95-7.48 14.8q-2.32 4.56-4.64 9.12l-1.26 2.5c-2.28 4.49-4.63 9.13-6.84 13.76s-4.28 9.14-6.32 13.6c-0.57 1.26-1.15 2.52-1.73 3.79q-3.46 7.58-6.91 15.18l-1 2.15-0.72 1.58c-0.93 2-1.89 4.14-2.79 6.25-1.08 2.53-2.12 5.09-3.12 7.56l-0.52 1.29a15 15 0 0 0-0.92 2.92c-0.51 2.72-1 5.47-1.43 8.12v0.23a9.56 9.56 0 0 0 2.14 7.44 6.5 6.5 0 0 0 5 2.45h0.52a14.14 14.14 0 0 0 9.27-4.68c3-3.27 5.75-6.69 8.55-10.19 1.68-2.11 3.34-4.27 4.94-6.36 1.33-1.74 2.71-3.54 4.07-5.27 2.27-2.87 4.61-5.75 6.89-8.54l2.08-2.57c2.73-3.36 5.65-6.95 8.55-10.48 0.8-1 1.61-1.94 2.43-2.91 1.3-1.54 2.64-3.13 3.94-4.78 8.38-10.6 16.87-21.4 25.08-31.85l1-1.26 0.56-0.71c4-5.1 8.15-10.38 12.2-15.61 2-2.63 4.05-5.31 6-7.91l3.36-4.45 2.68-3.5c0.75-1 1.51-2 2.25-2.93l4.08-5.35q3.82-5 7.68-10.07c1.2-1.56 2.47-3.13 3.69-4.65l1.72-2.15 1.5-1.88-0.53-2.34a12.21 12.21 0 0 0-3.9-6.49 6.39 6.39 0 0 0-4-1.73c0.73-1.15 1.47-2.3 2.19-3.45q1.27-2 2.53-4c1.23-2 2.51-4 3.79-6 2.68-4.16 5.45-8.41 8.13-12.51 1.15-1.78 2.31-3.55 3.48-5.34l1.53-2.35-1.21-2.54a9.83 9.83 0 0 0-7-5.44 6.3 6.3 0 0 0-1.36-0.15 6.83 6.83 0 0 0-5.68 3.18c-0.59 0.84-1.2 1.66-1.84 2.53-1 1.35-2 2.75-3 4.23-0.76 1.14-1.52 2.3-2.27 3.46a7 7 0 0 0-1.11-1l-0.27-0.19a20.81 20.81 0 0 0-2.27-1.49 8.45 8.45 0 0 0-2.7-1l0.71-1.33c0.51-0.94 1-1.91 1.54-2.93q1.74-3.51 3.45-7 2-4.11 4-8.21c0.56-1.13 1.16-2.26 1.79-3.44s1.26-2.37 1.88-3.6c1.3-2.61 2.43-5 3.48-7.37a7.51 7.51 0 0 0 0.33-6.09 6.34 6.34 0 0 0-3.95-3.48c-0.34-0.12-0.74-0.29-1.16-0.47l-0.14-0.06a7 7 0 0 0-2.74-0.56z"/><path class="cls-2" d="m193.39 367.77a10.93 10.93 0 0 1-3.42-0.63 44.79 44.79 0 0 1-7.84-3.73c-0.63-0.36-1.25-0.71-1.89-1.05-2.08-1.13-4.1-2.36-6.05-3.55-1.72-1.05-3.5-2.14-5.29-3.13-7.49-4.14-15.55-8.57-23.72-12.85-4.77-2.5-9.73-4.92-14.53-7.26l-4.24-2.07-15.86-7.75q-10.33-5.06-20.68-10.13-5.15-2.53-10.27-5.14c-2.63-1.32-5.26-2.65-7.9-4l-11.3-5.59c-6.95-3.43-14.13-7-21.16-10.53-4.1-2.08-8.06-4.42-11.72-6.65a12.85 12.85 0 0 1-5.52-7.21 4.28 4.28 0 0 1 0.49-3.42 4 4 0 0 1 3.34-1.56l-12.74-7.62c-3.31-2-7.65-5.13-7.16-9.41 0.19-1.7 1.74-3.69 5.47-3.69a11.46 11.46 0 0 1 4 0.74l-5.4-3.76c-2.59-1.78-5.2-4.78-4.87-7.69a4 4 0 0 1 2.56-3.34 7.89 7.89 0 0 1 3-0.53 12.17 12.17 0 0 1 5.94 1.63c-1.87-1.48-4.83-4.31-4.56-7.26a4 4 0 0 1 2.25-3.23 7.19 7.19 0 0 1 3.3-0.76 11.06 11.06 0 0 1 5.31 1.51 6.63 6.63 0 0 1-1.72-5 4.59 4.59 0 0 1 2.36-3.43 5 5 0 0 1 2.48-0.65 7.55 7.55 0 0 1 4 1.38 20.84 20.84 0 0 1 2.76 2.05q2.19 1.93 4.19 3.83c2.42 2.19 4.91 4.46 7.5 6.63 9 7.54 16.54 13.84 24.37 20.11 6.91 5.54 14.06 11.13 21 16.55q6.51 5.1 13 10.2l4.2 3.32c6.23 4.9 12.66 10 18.78 15 4.69 3.89 9.32 7.87 13.78 11.73 3.19 2.75 6.37 5.49 9.61 8.22 2.92 2.48 6 5 8.93 7.39 2.38 1.95 4.77 3.89 7.11 5.85 4.21 3.52 8.38 7 12.56 10.56q3.51 3 7.05 5.95l0.86 0.73c1 0.88 2 1.72 3.1 2.5a47.83 47.83 0 0 1 7.94 7.52l0.92 1a5 5 0 0 1 1.55 4.2 4.24 4.24 0 0 1-2.28 3 6.94 6.94 0 0 1-3.59 1.02zm-173.61-127.46c2.65 2.19 5.55 4.29 8.52 6.34l-0.43-0.32-3.51-2.61c-1.51-1.12-3.05-2.26-4.58-3.41z"/><path class="cls-3" d="m26 221.57a5.23 5.23 0 0 1 2.7 1 20.92 20.92 0 0 1 2.46 1.82c3.93 3.49 7.66 7 11.75 10.46 8 6.75 16.1 13.5 24.41 20.15 11.2 9 22.67 17.84 34 26.76 7.71 6.09 15.49 12.16 22.94 18.32 8 6.59 15.52 13.31 23.36 19.93 5.26 4.45 10.75 8.82 16.06 13.25 6.57 5.49 13.06 11 19.6 16.5 1.34 1.13 2.63 2.28 4.11 3.35a52.26 52.26 0 0 1 8.47 8.19c1.53 1.68 1 2.73-0.08 3.33a4.5 4.5 0 0 1-2.37 0.66 8.37 8.37 0 0 1-2.62-0.5c-3.47-1.16-6.33-3-9.33-4.61-3.88-2.1-7.48-4.53-11.33-6.66-7.87-4.36-15.77-8.69-23.77-12.89-6.18-3.24-12.53-6.27-18.83-9.35q-18.26-9-36.53-17.88c-6.08-3-12.1-6.09-18.17-9.1-10.83-5.4-21.7-10.69-32.46-16.14-4-2-7.81-4.27-11.55-6.54-3-1.81-5.24-5.75-4.3-7.16a1.64 1.64 0 0 1 1.26-0.44 2 2 0 0 1 0.49 0.05 28.71 28.71 0 0 1 9.25 3.5c10.24 6.43 21.4 11.78 32.32 17.43 4.49 2.31 9 4.68 13.44 7a31.75 31.75 0 0 0 5.41 2.21c-4.48-2.62-9-5.27-13.46-7.87-7.87-4.52-15.85-8.93-23.64-13.52-11.8-6.95-23.5-14-35.21-21-3.71-2.22-6.24-4.54-6-7 0.11-1 1.38-1.47 3-1.47a9 9 0 0 1 4.21 1.09c1.66 0.91 3.19 2 4.76 3 4.15 2.65 8.24 5.33 12.44 7.93 3.71 2.31 7.5 4.55 11.3 6.78q13.45 7.79 26.91 15.62 10.06 5.85 20.15 11.68c0.29 0.17 0.63 0.3 1.78 0.83-1.32-1-2-1.52-2.66-2l-40.94-27.07c-7.31-4.83-14.65-9.66-21.92-14.53q-8.09-5.42-16-11c-3.45-2.42-5-5.76-2.76-6.66a5.21 5.21 0 0 1 2-0.35 9.68 9.68 0 0 1 6.1 2.31c7.06 6.12 15.8 11.35 23.94 16.89 8.53 5.81 17.32 11.47 26 17.2 7.21 4.76 14.39 9.54 21.6 14.31a9 9 0 0 0 2.24 1.09c-1.16-1-2.26-2-3.5-2.91q-15.75-11.81-31.53-23.66-13-9.79-26.13-19.57c-3.71-2.79-7.53-5.53-11.13-8.36-2.88-2.25-5-5.24-2.8-6.39a4.72 4.72 0 0 1 2.14-0.48 9.26 9.26 0 0 1 5.25 1.9 22.58 22.58 0 0 1 2.27 1.9c4.78 4.42 10.92 8.29 16.41 12.42 8.41 6.34 16.77 12.7 25.16 19q11.33 8.68 22.71 17.24c3.52 2.66 7.08 5.3 10.63 7.94a14 14 0 0 0 3 1.81c-1.79-1.47-3.53-2.95-5.37-4.4-9.79-7.67-19.73-15.28-29.37-23-6.5-5.2-12.59-10.54-18.89-15.81-4.13-3.44-8.44-6.83-12.44-10.31s-7.56-6.71-11-10.12c-2.66-2.6-2.85-4.79-1.09-5.79a2.35 2.35 0 0 1 1.23-0.32m0-5a7.41 7.41 0 0 0-3.72 1 7.12 7.12 0 0 0-3.6 5.29 7.8 7.8 0 0 0-0.05 1.31c-0.35 0-0.71-0.05-1.06-0.05a9.57 9.57 0 0 0-4.45 1 6.49 6.49 0 0 0-3.58 5.22 7.25 7.25 0 0 0 0.51 3.37 10.07 10.07 0 0 0-3.32 0.71 6.53 6.53 0 0 0-4.1 5.37c-0.34 3.12 1.45 6.5 4.85 9.23a6.43 6.43 0 0 0-4 5.17c-0.73 6.38 5.87 10.34 8.35 11.83l4.71 2.83 4.11 2.46c-0.1 0.12-0.18 0.24-0.27 0.37a6.77 6.77 0 0 0-0.84 5.35 15.31 15.31 0 0 0 6.71 8.84c3.71 2.25 7.72 4.63 11.89 6.74 7 3.56 14.24 7.11 21.2 10.54l11.28 5.59c2.62 1.3 5.23 2.62 7.84 3.94 3.38 1.7 6.87 3.46 10.34 5.17q10.32 5.07 20.66 10.11 7.93 3.87 15.88 7.77l4.24 2.06c4.78 2.34 9.73 4.75 14.47 7.23 8.16 4.28 16.2 8.69 23.67 12.83 1.74 1 3.42 2 5.2 3.08 2 1.2 4 2.44 6.16 3.6l1.86 1a47.37 47.37 0 0 0 8.27 3.92 13.23 13.23 0 0 0 4.21 0.76 9.57 9.57 0 0 0 4.78-1.28 6.71 6.71 0 0 0 3.54-4.78 7.36 7.36 0 0 0-2.16-6.29l-0.92-1a50.32 50.32 0 0 0-8.34-7.87c-1-0.72-1.94-1.52-2.94-2.38l-0.87-0.74-7-5.93c-4.11-3.47-8.36-7.05-12.58-10.58-2.36-2-4.79-4-7.14-5.88-2.94-2.4-6-4.89-8.89-7.34-3.22-2.72-6.44-5.51-9.57-8.2-4.48-3.87-9.12-7.87-13.84-11.77-6.14-5.08-12.58-10.16-18.82-15.07l-4.2-3.32q-6.47-5.1-13-10.19c-6.91-5.42-14.06-11-21-16.55-7.83-6.26-15.38-12.55-24.32-20.07-2.55-2.15-5-4.4-7.43-6.58-1.37-1.24-2.79-2.53-4.23-3.8a23.26 23.26 0 0 0-3.08-2.29 10 10 0 0 0-5.49-1.72z"/><path class="cls-4" d="m272.05 325.09c-3.74 0-6.57-1.82-7-4.53a2.88 2.88 0 0 1 0.92-3.05c0.43-0.35 0.5-0.59 0.68-1.47a12.71 12.71 0 0 1 0.36-1.36c0.73-2.15 2.87-3.25 4.65-4a285.6 285.6 0 0 0 26.05-12c5.26-2.77 10.75-5.5 16.06-8.13l6.22-3.09 6-3c5.73-2.88 11.66-5.86 17.6-8.73 5.08-2.45 10.28-4.77 15.45-6.9 12-4.91 23.05-10.46 32.3-15.24l1.16-0.6c1.64-0.86 3.35-1.75 5.15-2.56a11.74 11.74 0 0 1 4.8-1.18 7.43 7.43 0 0 1 5.72 2.63 5 5 0 0 1 1.47 4.22c-0.4 2.17-2.38 3.47-4.26 4.44-2.56 1.34-5.2 2.64-7.84 3.91q5.14-2.09 10.2-4.34c3-1.34 6-2.79 8.83-4.19 2.15-1 4.31-2.1 6.5-3.13 2.55-1.19 5.2-2.34 7.77-3.45l3.45-1.5 0.09-0.05a6.11 6.11 0 0 1 0.64-0.26 13.19 13.19 0 0 1 4.22-0.83 8 8 0 0 1 4.7 1.55 8.4 8.4 0 0 1 2.66 2.93 3.88 3.88 0 0 1 0.27 3.07l3.61-1.22c5.31-1.79 10.8-3.64 16.26-5.4a13.88 13.88 0 0 1 4.3-0.78 8.55 8.55 0 0 1 3.3 0.63c5.14 2.13 4.58 5.77 4.28 6.84-0.67 2.41-3.27 3.49-5.47 4.16l-2.38 0.7c-1.3 0.37-2.65 0.76-3.91 1.18q-5 1.67-9.95 3.37l-5.5 1.87-6.2 2.09c-2.91 1-5.89 2-8.85 3a6 6 0 0 1 3.06 2.85 4.8 4.8 0 0 1 0.07 3.81c-1.1 2.87-4.34 3.93-6.68 4.48-1.93 0.45-3.84 1-6 1.66l-0.63 0.19c-5.36 1.63-10.9 3.32-16.3 5-2.5 0.8-5 1.62-7.48 2.44-3.22 1.06-6.55 2.16-9.88 3.18-6.25 1.93-12.9 3.89-19.76 5.83-5.58 1.58-11.44 3.22-17.37 4.8h0.31c2.7-0.31 5.4-0.66 8.1-1 3.25-0.42 6.61-0.85 9.93-1.23 4.25-0.47 8.83-0.89 14.41-1.32 6.76-0.52 13.52-1 20.27-1.51l11.59-0.87c0.93-0.07 1.86-0.17 2.79-0.27l1.18-0.13c0.41 0 0.8-0.06 1.19-0.06 3.32 0 6.27 1.49 7.51 3.79a4.6 4.6 0 0 1-0.17 4.79c-1.13 1.7-3.53 2.85-6.25 3-7.53 0.41-13.29 0.74-18.69 1.1l-0.8 0.05c-7 0.46-14.23 0.94-21.33 1.53-3.14 0.26-6.35 0.67-9.46 1.07l-3.19 0.4c-2.78 0.34-5.56 0.7-8.33 1.05-4.7 0.59-9.39 1.18-14.1 1.73-2.41 0.28-4.86 0.51-7.23 0.72-1.86 0.17-3.71 0.34-5.56 0.54-3.18 0.34-6.35 0.71-9.52 1.08l-5.37 0.61c-0.63 0.08-1.28 0.11-1.92 0.15h-0.39c-1.32 0.08-2.64 0.14-4 0.21-2.77 0.13-5.62 0.27-8.39 0.56-6.75 0.69-13.61 1.51-20.25 2.29l-4.33 0.52c-1.37 0.16-2.73 0.35-4.1 0.54-2 0.28-4.1 0.58-6.19 0.77-0.33 0.03-0.7 0.05-1.05 0.05z"/><path class="cls-3" d="m439.21 249.17a5.39 5.39 0 0 1 3.26 1.09 6.19 6.19 0 0 1 1.89 2.06c0.59 1.1-0.34 2.32-2.29 3-7.61 2.44-13.73 6-20.43 9.12-1.94 0.9-3.81 1.87-5.7 2.8l0.27 0.32a14.88 14.88 0 0 0 2.35-0.62c5.31-2.46 11.32-4.21 17.09-6.2q6.72-2.32 13.47-4.6c6.1-2.06 12.2-4.12 18.36-6.11a11.6 11.6 0 0 1 3.53-0.66 6 6 0 0 1 2.35 0.44c2.24 0.93 3.27 2.23 2.82 3.86-0.31 1.13-2 1.89-3.78 2.43-2.12 0.65-4.29 1.22-6.36 1.91-5.17 1.72-10.31 3.5-15.46 5.25-6.29 2.12-12.63 4.2-18.85 6.39-5.77 2-11.36 4.22-17.13 6.25-7.53 2.64-15 5.33-22.76 7.74-9 2.79-18.21 5.25-27.26 7.94-5.3 1.57-10.47 3.31-15.7 5l-11.42 3.58 0.24 0.34c2.47-0.64 5-1.27 7.4-1.94 9.07-2.51 18.17-5 27.19-7.58 8.34-2.39 16.66-4.83 24.87-7.4 9.07-2.84 18-5.81 27-8.82 2.62-0.88 5-2.07 8.07-2.19h1.15a3.57 3.57 0 0 1 1.1 0.13c2.35 0.85 3.3 2.16 2.66 3.85-0.57 1.51-2.43 2.35-4.9 2.93-2.09 0.49-4.12 1.1-6.12 1.71-5.67 1.72-11.34 3.45-17 5.23-5.81 1.84-11.51 3.81-17.35 5.61q-9.77 3-19.7 5.81c-7.77 2.2-15.57 4.38-23.46 6.4-8.08 2.07-16.3 3.94-24.45 5.9l-2.92 0.7v0.3c1.1 0 2.21 0 3.3-0.1 4.26-0.46 8.5-1 12.75-1.48 6.22-0.69 12.44-1.33 18.66-2.06 6-0.71 12-1.57 18-2.24 4.76-0.54 9.54-0.95 14.32-1.32 10.61-0.82 21.23-1.56 31.84-2.35 1.35-0.1 2.7-0.26 4-0.4a7.6 7.6 0 0 1 0.94-0.05c4 0 6.58 2.7 5.25 4.7-0.69 1.05-2.43 1.78-4.3 1.88-6.24 0.34-12.48 0.69-18.71 1.1-7.39 0.49-14.79 1-22.17 1.59-4.26 0.36-8.51 1-12.76 1.48-7.47 0.92-14.93 1.9-22.41 2.78-4.24 0.49-8.52 0.8-12.77 1.25-5 0.53-9.93 1.14-14.9 1.7-0.72 0.08-1.46 0.12-2.19 0.16-4.15 0.25-8.31 0.36-12.44 0.78-8.22 0.84-16.42 1.85-24.62 2.81-3.42 0.41-6.82 1-10.23 1.31a8.51 8.51 0 0 1-0.86 0c-2.48 0-4.33-1-4.57-2.45 0-0.23-0.16-0.53 0-0.69 1.54-1.25 1.37-2.63 1.82-4 0.37-1.08 1.63-1.82 3.23-2.47a284.54 284.54 0 0 0 26.27-12.14c7.26-3.82 14.8-7.48 22.24-11.2 7.84-3.92 15.61-7.89 23.57-11.73q7.43-3.58 15.31-6.84c11.43-4.69 22.06-9.94 32.5-15.33 2-1.05 4-2.13 6.19-3.1a9.27 9.27 0 0 1 3.77-1 4.92 4.92 0 0 1 3.85 1.8c1.66 1.86 1.05 3.15-2.07 4.78-3.8 2-7.75 3.86-11.69 5.74-6.39 3.06-12.77 6.13-19.27 9.1-4.27 2-8.77 3.74-13.13 5.63-1.83 0.79-3.55 1.67-5.32 2.52q-7.08 3.36-14.13 6.74a16.39 16.39 0 0 0-1.62 1l0.41 0.27 12.75-5.17c2.95-1.19 5.85-2.43 8.87-3.56 8.24-3.07 16.48-6.17 24.85-9.11q11.85-4.17 22.81-9.11c5.25-2.35 10.2-4.92 15.37-7.33 3.64-1.7 7.44-3.29 11.16-4.93a5 5 0 0 1 0.53-0.23 10.71 10.71 0 0 1 3.42-0.7m0-5a15.63 15.63 0 0 0-5 1c-0.4 0.14-0.71 0.29-0.9 0.37l-3.36 1.46c-2.57 1.12-5.23 2.27-7.81 3.48-2.23 1-4.43 2.11-6.55 3.15l-3.27 1.59a7.69 7.69 0 0 0-2.16-5.05 10 10 0 0 0-7.59-3.47 14.16 14.16 0 0 0-5.83 1.4c-1.87 0.85-3.6 1.75-5.28 2.62l-1.15 0.6c-9.2 4.75-20.21 10.27-32.1 15.15-5.21 2.14-10.46 4.48-15.58 7-6 2.87-11.89 5.86-17.63 8.74q-3 1.51-6 3c-2.07 1-4.14 2.06-6.22 3.09-5.32 2.64-10.82 5.37-16.11 8.16a283 283 0 0 1-25.81 11.93c-1.34 0.54-4.9 2-6.09 5.49a11.88 11.88 0 0 0-0.43 1.64l-0.06 0.27a5.37 5.37 0 0 0-1.54 5.3c0.72 3.9 4.51 6.5 9.47 6.5q0.66 0 1.32-0.06c2.15-0.2 4.26-0.5 6.31-0.78 1.39-0.2 2.71-0.38 4-0.54l4.31-0.51c6.64-0.79 13.5-1.6 20.24-2.3 2.69-0.27 5.39-0.41 8.24-0.55 1.33-0.06 2.67-0.13 4-0.21h0.35c0.67 0 1.35-0.08 2.09-0.16l5.43-0.63c3.1-0.36 6.3-0.73 9.44-1.06 1.83-0.2 3.7-0.37 5.51-0.54 2.39-0.22 4.86-0.44 7.31-0.73 4.72-0.55 9.49-1.15 14.11-1.73l8.33-1 3.2-0.41c3.09-0.39 6.27-0.8 9.36-1.06 7.09-0.59 14.33-1.07 21.33-1.53l0.75-0.05c5.41-0.35 11.16-0.69 18.66-1.1 3.56-0.19 6.62-1.73 8.2-4.11a7 7 0 0 0 0.29-7.35c-1.66-3.1-5.48-5.11-9.71-5.11a14.21 14.21 0 0 0-1.45 0.07l-1.17 0.13c-1 0.1-1.85 0.2-2.73 0.26l-11.56 0.85c-6.65 0.48-13.52 1-20.29 1.5l-2.38 0.19c2.61-0.78 5.18-1.55 7.69-2.33 3.35-1 6.69-2.13 9.93-3.2 2.44-0.8 5-1.63 7.45-2.42 5.38-1.71 10.91-3.39 16.26-5l0.64-0.2c2.07-0.63 3.93-1.18 5.8-1.62s6.75-1.57 8.44-6a7.36 7.36 0 0 0-0.12-5.74q-0.21-0.43-0.45-0.84l4.81-1.72 6.23-2.09 5.49-1.87c3.26-1.11 6.63-2.26 9.95-3.37 1.21-0.4 2.47-0.76 3.81-1.15l2.42-0.71c1.65-0.5 6-1.84 7.15-5.89 0.89-3.22-0.14-7.49-5.73-9.81a11 11 0 0 0-4.26-0.82 16.08 16.08 0 0 0-5.07 0.9c-5.49 1.77-11 3.63-16.32 5.43l-0.47 0.15a6.86 6.86 0 0 0-0.38-0.83 11 11 0 0 0-3.42-3.8 10.44 10.44 0 0 0-6.14-2z"/></g><path class="cls-3" d="m214 389.41c-0.9 0.44-1.77 0.77-1.81 2.1a7.34 7.34 0 0 1-0.77 3.13c-0.55 1.06-2.18 2.86-2.8 1.85-1-1.55-4.89 2.32-5.79 3.28-1.2 1.27-3.9 0.36-5.1-0.45-1.91-1.3-3.7-3-5.55-4.39v-0.43c0.1-0.41-0.24-8.73-0.17-10.55q0.21-5.68 0.4-11.37c0.26-7.38 0.2-22.45 0.24-22.67 0.43-2.69 0.72-5.41 1.23-8.09a27.27 27.27 0 0 1 1.73-6.52c0.93-1.9 5.05-6.71 5.64-7.46a20.57 20.57 0 0 1 4-2.62 18.44 18.44 0 0 1 4.75-1.12c3.59-12.76 4.26-16.51 7.11-29.46 2.72-12.38 5.5-24.76 8.55-37.07 1.76-7.11 3.52-14.29 5.55-21.33a7.55 7.55 0 0 0-0.11-4.24 34 34 0 0 1-0.53-4.51c-0.34-3.11-0.15-6.24-0.47-9.36a55.77 55.77 0 0 1 1.32-19c0.47-1.89 3.28-3.89 5-4.48a7.56 7.56 0 0 1 2.43-0.25c1.31 0 1.58-0.17 1.67-1.45 0.18-2.38 0.87-4.82 1.28-7.18s0.88-5 1.29-7.49c0.84-5 1.47-10 2.06-15.1s1.37-10.17 2.1-15.27 0.33-10.21 0.81-15.3c0.1-1 1.8-1.86 2.61-2.22a4.61 4.61 0 0 1 3.81 0.16 4.07 4.07 0 0 0 1.74 0.57c0.66 0 0.88-0.44 1.53-0.33 0.39 0.07 1 0.58 1.45 0.71a8 8 0 0 0 2.13 0.3c2.7 0.15 5.43 0.29 7.56 2.21a8 8 0 0 1 2.9 4.68c0.26 2-0.38 4.54-0.72 6.55a41.39 41.39 0 0 1-1.25 6c-0.78 2.48-1.61 5-2.28 7.47a84.4 84.4 0 0 1-4.5 13.81c-1 2.19-2.07 4.35-3.17 6.49a6.61 6.61 0 0 1-1.37 2.32c-0.85 0.61-1.64 0.07-1.81 1.41-1.42 11-3.24 22-5.47 32.85-1.1 5.39-1.77 10.85-2.87 16.24-1 5-1.7 14.67-1.3 14.37 2.15 4.63 5.91 9.15 6.05 14.39a40.59 40.59 0 0 1 0 5.73 35.62 35.62 0 0 1-1.4 5.92 71.21 71.21 0 0 1-4.31 10.7c-1.56 3.29-4.89 13.46-6.58 16.41a16.2 16.2 0 0 1-5.65 5.8c-1.05 0.82-4.06 15.16-5.73 21.71-1.61 6.33-2.94 12.71-4.74 19s-3.55 12.55-5.27 18.84c0.09 0.07-0.83 4.14-0.74 4.22z"/><path class="cls-3" d="m234.53 181.07c-3.38-0.32-6.62-0.41-10-0.45-3.85-0.05-10.05-4.67-12.81-7.09-4.87-4.26-9.14-12-12.57-17.44a69.18 69.18 0 0 1-7.91-18.19c-2.33-8.48 0.15-17.43-1.73-26.14-1.51-7.12-3.51-14.21-5.51-21.22-2.26-8.19-1-12.91 2.27-20.66 2.78-6.67 4.7-13.56 7.23-20.29 1.72-4.56 11.67-36.25 17.75-32.8 0.66-0.29 1.29-0.54 1.89-0.84 12.92-6.36 28.18-10.29 42.33-12.85 7.93-1.43 16.26-1.76 24.17-2.4 7-0.57 17.14-1.8 23.73 1.52 15.57 7.85 25.75 25.07 33.76 39.75 3.41 6.23 0.3 19.44 0 26.38-0.5 11.42-1 23.14-2.77 34.44-1.51 9.61-5.1 18.34-7.68 27.65-2.95 10.67-7.21 22.87-14.63 31.36-4.36 5-7.29 11.27-12.07 16.23a40.61 40.61 0 0 1-4.07 2.53c-4.13 2.3-13.27 1.17-18 1.56a168.88 168.88 0 0 1-18.14 0.22c-8.55-0.21-16.77-0.44-25.24-1.27z"/><path class="cls-5" d="m236.68 34.62c-3.68 1.64-11.21 5.26-11.43 5.38-1.3 0.55-2.61 1.07-3.91 1.61-0.56 0.23-0.84 0-1-0.54-1.61-6.25-5-13.89-4.24-20.39 0.53-4.62 24.89-9 29.11-9.87 11.85-2.46 23.38-4.81 35.5-5.61 11.65-0.81 20.93 0.41 29.44 8.7a132 132 0 0 1 12.49 14.1c2.51 3.29 9.46 11.34 8.61 16.17a2.28 2.28 0 0 1-0.12 0.6 12.36 12.36 0 0 1-1.44 2.72c-1.5 1.77-3.32 3.37-4.77 5.19-0.47 0.58-0.95 1.13-1.8 0.87-5.08-1.53-11.06-9.48-15.11-13-3.5-3-6.88-6.62-10.33-9.63-3.25-2.83-8.11-6-10.78-9.2a3.24 3.24 0 0 0-2.19-0.74c-16.24-0.2-33.34 7.09-48.03 13.64z"/><path class="cls-6" d="m227.47 79.88a2.24 2.24 0 0 1-0.71 0.08c-1.32-0.36-2.63-0.76-3.95-1.13h-0.45c-2.24-0.48-4.43-2.15-6.12-3.61-3.4-3-5.51-8.71-7.21-12.73-0.29-0.67-2.57-9.47-5.07-7a5.14 5.14 0 0 1-2.29 2c-1.55 0.56-2.06 1.84-2.32 3.29-2.28 12.54-3.84 25.22-5.59 37.89 0 0.12-0.08 0.23-0.3 0.39a121.84 121.84 0 0 1-4.46-16.55c-0.69-4.22 2.88-11.4 4.25-15.46 1.44-4.28 2.91-8.65 4.56-12.91 3.67-9.51 7.37-20.91 12.81-29.66 2 18.91 12 37.41 16.83 55.4-0.29 0.04-0.04-0.22 0.02 0z"/><path class="cls-5" d="m266.34 80.93c-3.22 0-29 2.08-30.53-1.05s-5-11.54-6-14c-2.16-5.45-4.38-10.81-6.21-16.38-0.83-2.55 3.68-3.89 5.07-4.65a1.57 1.57 0 0 1 2 0.59c4.76 6.46 12.33 11.62 17.84 17.56 4.88 5.18 9.86 10.29 14.47 15.63q1.66 1.18 3.36 2.34c-1.05-0.04-0.69-0.51 0-0.04z"/><path class="cls-7" d="m264.1 39.08c4.12 0.39 8.3 0.86 12.4 1.38 1.3 0.17 2.61 0.4 3.16 1.87 0 0.12 2 2.08 2 2.05 3.07 3.11 2.74 8.82 2.8 12.72a1.44 1.44 0 0 1-0.81 1.56 23.81 23.81 0 0 0-1.94 1.4 4.93 4.93 0 0 1-1.75 0.57c-5.19 2.26-10.58 2.46-15.81 4.57a3.5 3.5 0 0 1-3.79-0.82 8.08 8.08 0 0 1-2.51-6c0.48-4.42 2.42-14.74 5.29-18.3 0.25-0.31 0.54-0.58 1-1 0.86 0.08-0.46 0.44-0.04 0z"/><path class="cls-5" d="m319.59 59.28c-11.9 8.92-23.79 21.11-39.92 21.11-0.14-0.48 0.05-0.76 0.48-1.11 9.66-8 15.3-20.34 22.38-30.46 0.24-0.34 0.72-0.51 1-0.84a19.24 19.24 0 0 1 1.23-1.69c1.53-1.53 14.26 12.75 14.83 13-0.7 0.51-0.59-0.29 0-0.01z"/><path class="cls-8" d="m251.5 58.49a2.23 2.23 0 0 1-0.56-0.32c-1.18-1.23-17-15.92-15.54-16.67 2.55-1.28 5.65-3.07 8.34-3.75 3-0.77 5.41 0.21 8.25 0.13 0.56 0 6-0.66 5.59 0.7-1.95 6.57-5.12 13.09-6.08 19.91-0.22-0.12 0.09-0.67 0 0z"/><path class="cls-8" d="m296.91 38.31c-6.35-0.54-12.68-2.43-19.06-3.15q-10.16-1.16-20.24-2.56l-0.06-0.2c6.72-3.69 16.86-5.82 24.54-6.26a4.29 4.29 0 0 1 3.6 1.55 141.41 141.41 0 0 0 10.9 10 1.79 1.79 0 0 0 0.58 0.25l-0.26 0.4c-0.8-0.1 0.09-0.16 0-0.03z"/><path class="cls-8" d="m263.21 70.56c7.12-2.46 14-2.52 21-5.53 0.12 0 0.32 0.06 0.69 0.13-1.67 2.42-8.54 13.91-11.81 12.75-3.47-1.24-7.53-4.62-9.86-7.35 1.14-0.4 0.27 0.34-0.02 0z"/><path class="cls-8" d="m290.49 56.43a57.52 57.52 0 0 0-3.1-13.76c-0.12-0.37 9.95 0.77 10.44 0.87 0.69 0.13 0.54 0.69 0.29 1a92.1 92.1 0 0 0-6.35 10.25c-0.06 0.11 0 0.28-0.06 0.38-0.25 0.45-0.53 0.89-0.79 1.33l-0.43-0.1c-0.07-0.78 0.14 0.06 0 0.03z"/><path class="cls-6" d="m206.29 158.06c-9.34-12-10.51-26-8.88-40.54 2-18 4.69-35.8 7.46-53.67 2.42 4.6 3.92 8.84 7 13.09a14.54 14.54 0 0 0 3 2.7 18.78 18.78 0 0 0 3.53 1.85c11 5.31 26.65 3.14 38.46 3.4 5.62 0.12 11.19 0.12 16.81-0.07 2.91-0.1 9.36 1.05 12-0.27 3.37-1.67 7.34-2.06 10.79-3.57 3.23-1.42 6.06-3.59 9-5.51 7.94-5.06 14.35-9.47 20.42-16.47 0.29-0.34 5.23-5.29 5.78-5.39 1.54 9.81-1.1 21.89-1.58 31.8a153.1 153.1 0 0 1-6.74 37.23c-3.18 10.48-6.71 21-12.14 30.61-3.27 5.76-11.48 21.73-19.56 22.42-11.75 1-23.18 1.82-35 1.83-5.59 0-11.11-0.05-16.67-0.57-6-0.55-13-0.1-18.56-2.43-7.25-3-10.62-10.59-15.15-16.43z"/><path class="cls-2" d="m239.32 348.83a2.7 2.7 0 0 1-2.45-1.62c-0.87-1.61-0.38-3.27 0.34-5.72a91.81 91.81 0 0 0 3.26-15.59 71.79 71.79 0 0 1 1.31-9.22c0.13-0.7 0.27-1.4 0.39-2.11 0.37-2.06 0.65-4.25 0.92-6.37 0.1-0.8 0.2-1.61 0.31-2.41l0.5-3.7c0.47-3.51 1-7.14 1.38-10.72 0.89-7.43 1.69-14.76 2.51-22.24 0.43-3.92 0.78-7.47 1.07-10.87a184.49 184.49 0 0 0 0.77-18.67c-0.19-11.13 0.26-22.2 0.77-32.51 0.12-2.32 0.12-4.7 0.11-6.93v-4.52c0-4 0-8.23-0.18-12.29-0.21-4.35-0.63-8.79-1-13.09-0.17-1.78-0.34-3.55-0.49-5.33 0-0.5-0.11-1-0.17-1.51-0.1-0.76-0.19-1.54-0.24-2.37-0.12-2.25 0.09-4.8 2.58-6.58a4 4 0 0 1 2.33-0.77 5.75 5.75 0 0 1 3.51 1.53l0.41 0.31c1.73 1.27 1.88 3.34 2 4.86v0.2c0.15 2 0.32 4 0.49 6 0.32 3.91 0.66 7.95 0.88 12 0.07-0.72 0.15-1.45 0.22-2.17 0.29-2.74 0.55-5.5 0.82-8.26 0.15-1.59 0.3-3.18 0.46-4.76 0.13-1.33 0.28-2.83 0.47-4.3a6.64 6.64 0 0 1 0.74-2.31 4.82 4.82 0 0 1 4.22-2.33 5.7 5.7 0 0 1 5.26 3.55 9.93 9.93 0 0 1 0.47 4.28c-0.53 4.9-1.1 9.79-1.67 14.68l-1.14 9.92c-0.15 1.4-0.31 2.79-0.46 4.18 0.54-1.34 1.1-2.68 1.68-4 2.08-4.82 4.55-10.49 7.1-16a40.57 40.57 0 0 1 3.23-5.57 5 5 0 0 1 4.27-2.47 4.88 4.88 0 0 1 1.5 0.23 5.56 5.56 0 0 1 3.31 3.25 9.86 9.86 0 0 1-0.08 7.88 18.32 18.32 0 0 1-2 3.07l-0.44 0.59c-2.17 3-3.87 7.07-5.52 11l-0.2 0.48c-2.38 5.73-4.39 11-6.15 16-1 2.77-1.91 5.75-2.84 9 1.76-3.7 3.43-7.06 5.17-10.36 1.6-3 3.33-5.9 5-8.67q1-1.57 1.92-3.18l0.8-1.36c3-5 6.07-10.22 9.13-15.28a13.52 13.52 0 0 1 2.79-3.36 3.7 3.7 0 0 1 2.38-0.89c2 0 3.34 1.65 4.06 2.53 2.28 2.81 2.18 7.71-0.21 10.09a30.42 30.42 0 0 0-4.21 6.12l-0.54 0.92-3 5.06c-1.38 2.34-2.77 4.68-4.14 7-0.55 1-1.12 1.91-1.68 2.9 1.72-2.32 3.47-4.5 5.22-6.52a5 5 0 0 1 3.77-2c2.61 0 4.15 2.42 4.66 3.21 1.77 2.76 1.91 7.5-0.69 10.18a15.06 15.06 0 0 1-1.5 1.31 7.69 7.69 0 0 0-1.21 1.08c-2.13 2.61-3.69 4.7-5.07 6.77-3.19 4.79-6.3 9.51-9.28 14.49a126 126 0 0 0-10.19 20.11c-0.79 2.07-1.62 4.12-2.43 6.1-0.9 2.22-1.83 4.51-2.69 6.81-1.54 4.13-3.06 8.29-4.58 12.45-1.77 4.83-3.59 9.83-5.43 14.69-3.26 8.65-6 17.72-8 24.66a65.46 65.46 0 0 0-1.67 8 21.49 21.49 0 0 1-1.52 4.88c-0.15 0.37-0.3 0.74-0.45 1.13-0.34 0.88-2.38 4.65-4.2 7.74-4.11 7-5.23 7.72-6.8 7.72z"/><path class="cls-3" d="m253.32 156.19c0.85 0 1.64 0.78 2.44 1.36s0.9 1.93 1 3.23c0.46 6.09 1.06 12.17 1.38 18.27 0.28 5.46 0.34 10.94 0.33 16.4 0 6-0.15 12-0.31 18-0.13 4.33-0.39 8.63-0.58 12.95v2.42l0.35 0.07c0.12-0.85 0.29-1.67 0.36-2.53 0.24-2.85 0.39-5.72 0.67-8.55 0.64-6.39 1.33-12.75 2-19.12 0.79-7.34 1.6-14.67 2.37-22 0.45-4.33 0.85-8.69 1.28-13 0.13-1.41 0.27-2.82 0.46-4.21a4 4 0 0 1 0.42-1.37 2.3 2.3 0 0 1 2.06-1.1 3.16 3.16 0 0 1 2.93 2 7.48 7.48 0 0 1 0.32 3.09c-0.9 8.21-1.88 16.39-2.81 24.59-0.89 7.85-1.73 15.72-2.59 23.58-0.06 0.51 0 1.05-0.08 2a7.87 7.87 0 0 0 0.76-1.4 162.76 162.76 0 0 1 7.92-22.87c2.33-5.38 4.67-10.73 7.08-16a39.69 39.69 0 0 1 3.05-5.25 2.45 2.45 0 0 1 2.94-1.22c2.08 0.65 3 4.88 1.71 7.65a20 20 0 0 1-2.17 3.27c-2.44 3.35-4.22 7.72-6 12-2.18 5.23-4.28 10.59-6.21 16.13-1.58 4.53-3 9.3-4.26 14.14-1.65 6.23-3.12 12.62-4.61 19a38.28 38.28 0 0 0-1.35 7.54l0.29 0.27q0.94-2.83 1.88-5.67a167.57 167.57 0 0 1 7.22-18.82c2.5-5.37 5-10.7 7.73-15.79 2.16-4.12 4.56-7.86 6.87-11.75 3.29-5.55 6.59-11.12 9.92-16.61a11.1 11.1 0 0 1 2.24-2.73 1.19 1.19 0 0 1 0.79-0.32c0.76 0 1.48 0.82 2.12 1.61 1.47 1.81 1.46 5.25 0 6.74-2 2-3.53 4.81-5.13 7.54-2.37 4-4.75 8.06-7.12 12.1a221.06 221.06 0 0 0-13.22 25.45c-1.42 3.35-2.67 6.93-4 10.42a7.11 7.11 0 0 0-0.51 2.58c0.75-1.44 1.48-2.91 2.25-4.33q5-9.18 10.54-17.35c2-2.93 3.82-6.14 5.85-9 2.14-3 4.37-5.86 6.67-8.51a2.58 2.58 0 0 1 1.88-1.11c0.88 0 1.72 0.75 2.56 2.06 1.3 2 1.26 5.4-0.38 7.09-0.92 0.94-2 1.49-2.86 2.55-1.79 2.2-3.56 4.48-5.21 7-3.17 4.76-6.33 9.55-9.35 14.59a128.8 128.8 0 0 0-10.38 20.5c-1.66 4.36-3.48 8.53-5.12 12.92-3.37 9-6.62 18.16-10 27.14-3 8-5.6 16.34-8.07 24.84a67.77 67.77 0 0 0-1.74 8.26 25.81 25.81 0 0 1-1.83 5.51c-0.46 1.19-7.38 13.86-8.68 13.86-0.09 0-0.15-0.07-0.18-0.2-1.08-1.67 1.8-4.67 3.82-20a92.18 92.18 0 0 1 1.6-11.1c0.53-2.89 0.85-5.91 1.25-8.89 0.64-4.81 1.31-9.61 1.89-14.46 0.87-7.4 1.69-14.83 2.51-22.26 0.39-3.62 0.76-7.26 1.07-10.92a188.23 188.23 0 0 0 0.78-18.93c-0.19-10.85 0.23-21.61 0.77-32.35 0.12-2.33 0.12-4.7 0.11-7.06 0-5.64 0.11-11.3-0.17-16.93-0.31-6.18-1-12.34-1.53-18.51-0.11-1.26-0.33-2.52-0.4-3.79-0.13-2.36 0.31-3.54 1.53-4.41a1.47 1.47 0 0 1 0.88-0.31m0-5a6.47 6.47 0 0 0-3.78 1.24c-3.53 2.52-3.76 6.2-3.62 8.75 0.05 0.91 0.15 1.77 0.25 2.54 0.06 0.47 0.12 0.94 0.16 1.42 0.15 1.78 0.32 3.57 0.49 5.35 0.4 4.27 0.81 8.68 1 13 0.19 4 0.18 8.15 0.17 12.16v4.54c0 2.2 0 4.53-0.1 6.8-0.52 10.35-1 21.47-0.78 32.68a179.5 179.5 0 0 1-0.76 18.41c-0.29 3.39-0.64 6.92-1.07 10.81-0.78 7.16-1.62 14.77-2.5 22.22-0.42 3.56-0.91 7.18-1.38 10.69-0.17 1.23-0.34 2.46-0.5 3.69-0.11 0.81-0.21 1.62-0.31 2.43-0.28 2.18-0.54 4.24-0.9 6.24-0.12 0.7-0.25 1.39-0.38 2.09a73.14 73.14 0 0 0-1.35 9.44 88.67 88.67 0 0 1-3.17 15.12c-0.76 2.59-1.49 5.05-0.18 7.53a5.16 5.16 0 0 0 4.69 3c3.37 0 5.23-2.59 9-8.95 1.49-2.53 3.91-6.88 4.39-8.12 0.13-0.36 0.28-0.72 0.43-1.08a23.27 23.27 0 0 0 1.66-5.42 65.46 65.46 0 0 1 1.61-7.66c2-6.9 4.72-15.91 7.95-24.47 1.85-4.89 3.67-9.89 5.44-14.73 1.49-4.09 3-8.31 4.57-12.43 0.85-2.26 1.78-4.54 2.67-6.75 0.81-2 1.65-4.05 2.45-6.14a123.61 123.61 0 0 1 10-19.71c2.95-4.93 6.05-9.62 9.22-14.39a81 81 0 0 1 4.93-6.58 7 7 0 0 1 0.81-0.7 17.25 17.25 0 0 0 1.76-1.53c3.21-3.31 3.64-9.13 1-13.27-1.77-2.76-3.93-4.22-6.43-4.35l1.62-2.74 0.54-0.93a29.26 29.26 0 0 1 3.82-5.61c3.32-3.32 3.5-9.59 0.38-13.43-0.84-1-2.81-3.46-6-3.46a6.16 6.16 0 0 0-4 1.47 15.42 15.42 0 0 0-3.32 4l-0.22 0.35a12.53 12.53 0 0 0-0.18-9.25 8 8 0 0 0-4.86-4.65 7.47 7.47 0 0 0-2.24-0.34 7.57 7.57 0 0 0-6.36 3.6 44.07 44.07 0 0 0-3.41 5.89c-0.72 1.56-1.42 3.12-2.12 4.67 0.46-4 0.93-8.05 1.37-12.07a12.36 12.36 0 0 0-0.64-5.47 8.19 8.19 0 0 0-7.58-5.13 7.27 7.27 0 0 0-6.37 3.57 5.41 5.41 0 0 0-0.33 0.63 6.73 6.73 0 0 0-2.14-2.63l-0.34-0.26a8 8 0 0 0-5.05-2.06zm34.68 32.76a30.12 30.12 0 0 1 2.6-4.5l0.42-0.56c-1 1.69-2 3.39-3 5.08z"/><path class="cls-2" d="m247.92 357.7a9.8 9.8 0 0 1-5.08-1.37c-0.91-0.54-1.78-1.11-2.62-1.66s-1.52-1-2.31-1.46a4.64 4.64 0 0 1-2.47-3.11 4.81 4.81 0 0 1 1.55-3.89c1-1.13 2.12-2.24 3.19-3.3 0.58-0.57 1.15-1.14 1.71-1.72q1.53-1.57 3-3.15c2-2.13 4.13-4.33 6.35-6.48 1-0.92 1.88-1.85 2.81-2.78a79.53 79.53 0 0 1 8.95-8.08 23.44 23.44 0 0 0 2.25-2c0.54-0.52 1.1-1.07 1.73-1.6l2.15-1.87c4.46-3.85 9.07-7.84 13.69-11.74 5.29-4.45 11-9.17 18.44-15.3 2.84-2.34 5.73-4.66 8.62-7l5.16-4.17c1.41-1.14 2.8-2.28 4.19-3.43 2.83-2.34 5.75-4.76 8.8-7.08 1.6-1.21 3.14-2.5 4.63-3.75a82.82 82.82 0 0 1 8.49-6.49 23.53 23.53 0 0 0 4.85-4.07 10.87 10.87 0 0 1 8.15-3.49 10.38 10.38 0 0 1 1.6 0.12c4.36 0.72 5.67 3.54 5.44 5.95a7.13 7.13 0 0 1-2.54 4.13c-0.56 0.49-1.16 1-1.76 1.42 4.06-2.85 8.18-5.61 12.32-8.25 2.63-1.67 5.1-3.57 7.5-5.41l0.89-0.68c2.14-1.64 4.25-3.3 6.35-5s4.23-3.33 6.38-5c1.63-1.24 3.33-2.47 5-3.66 1.19-0.86 2.39-1.72 3.56-2.6 2.77-2.06 5.64-4.24 8.54-6.48a8.57 8.57 0 0 1 8-2.07l0.55 0.11a6.52 6.52 0 0 1 4.09 2.06c3.21 4.09-0.47 7-1.86 8.07-2.1 1.64-3.88 3-5.61 4.27l-6.07 4.4c-2.83 2-5.66 4.09-8.45 6.16-1.37 1-2.72 2.07-4 3.09-1.46 1.14-3 2.33-4.52 3.47l-1.7 1.24c-3.63 2.66-7.38 5.4-11.25 8 3.3-2 6.69-3.89 10-5.75s6.59-3.69 9.78-5.61c6.26-3.78 12.83-7.7 19.5-11.64 2.74-1.62 5.5-3.16 8.21-4.59a9.06 9.06 0 0 1 4.27-1.3 9.16 9.16 0 0 1 3 0.59 6.84 6.84 0 0 1 4.42 3.5c1.57 3.54-1.56 5.31-2.74 6q-3.9 2.22-7.84 4.43c-4.39 2.49-8.94 5.05-13.37 7.6-2.76 1.59-5.53 3.26-8.21 4.87q-3 1.81-6 3.6l-9.15 5.33q-3.41 2-6.8 3.94c-1.22 0.72-2.41 1.46-3.6 2.2l-5.76 3.57c-2.91 1.81-5.81 3.62-8.74 5.41l-1.39 0.85 0.8-0.41c8.26-4.24 16.81-8.63 24.7-13.4 1.56-0.94 3.22-1.79 4.82-2.61l0.56-0.28a9.83 9.83 0 0 1 4.41-1.21 5.69 5.69 0 0 1 3.87 1.43c0.37 0.33 0.7 0.69 1 1l0.37 0.4a4.23 4.23 0 0 1 1.32 3.68c-0.33 2.24-2.43 3.64-4 4.49-2.19 1.22-4.44 2.42-6.65 3.59h0.34a6 6 0 0 1 3.49 1.07 4.17 4.17 0 0 0 0.44 0.29c0.85 0.52 3.41 2.1 2.34 5.22a8.6 8.6 0 0 1-4.93 4.79c-2.39 1.13-4.78 2.28-7.16 3.42s-4.86 2.33-7.3 3.48c-2.71 1.27-5.45 2.51-8.18 3.76-1.21 0.54-8.85 4-8.85 4-3.9 1.78-7.8 3.55-11.69 5.35q-7 3.22-14 6.48l-5.7 2.64-5.19 2.52c-3.76 1.75-7.65 3.57-11.51 5.3-5.77 2.59-11.68 5.13-17.39 7.6l-0.64 0.27q-5.64 2.43-11.31 4.83l-5.35 2.25-6 2.58q-7.32 3.12-14.63 6.22c-1.07 0.45-2.15 0.85-3.2 1.25-1.24 0.46-2.4 0.9-3.53 1.39a13.68 13.68 0 0 1-5.52 1.26z"/><path class="cls-3" d="m413.21 223.48a7.24 7.24 0 0 1 1.6 0.19c1.22 0.29 2.56 0.42 3.23 1.28 1.22 1.56 1.07 2.59-1.44 4.56-1.81 1.42-3.66 2.84-5.55 4.22-4.83 3.53-9.73 7-14.53 10.57-2.91 2.15-5.61 4.41-8.54 6.55-4.66 3.41-9.3 6.85-14.2 10.11-7.76 5.17-15.28 10.45-22.51 15.91-5.67 4.28-11.39 8.53-17.65 12.51-3.56 2.26-6.86 4.7-10.27 7.07-2 1.35-21.48 13.88-23.42 15.25a2.51 2.51 0 0 0-1 1.21c1.62-1 20.81-13.06 22.41-14q13.71-8.33 27.39-16.67c8.26-5 16.73-9.93 24.69-15.16 7.71-5.06 16.24-9.33 24.2-14.13q9.69-5.85 19.49-11.63c2.64-1.56 5.34-3.08 8.1-4.53a6.62 6.62 0 0 1 3.1-1 6.93 6.93 0 0 1 2.19 0.46 4.44 4.44 0 0 1 2.93 2.14c0.49 1.12 0.18 1.74-1.69 2.8-7.07 4-14.2 8-21.23 12-4.81 2.77-9.47 5.67-14.24 8.47-5.29 3.11-10.64 6.18-15.94 9.28-1.6 0.93-3.14 1.9-4.69 2.87-4.49 2.77-8.94 5.57-13.45 8.32-6.94 4.25-13.92 8.47-20.87 12.7-5.81 3.54-11.58 7.1-17.42 10.62-8.2 4.94-16.44 9.84-24.65 14.77-0.93 0.56-8.92 4.88-10.08 5.7a7.54 7.54 0 0 0 1.28-0.24c3.4-1.64 14-6.94 17.35-8.63 2.6-1.31 5.18-2.66 7.72-4 8.48-4.59 17.09-9 25.38-13.83 6.92-4 14.24-7.67 21.47-11.39 9-4.62 18-9.21 26.53-14.34 1.65-1 3.45-1.9 5.22-2.8a7.3 7.3 0 0 1 3.27-0.94 3.21 3.21 0 0 1 2.19 0.78c0.47 0.42 0.86 0.89 1.29 1.33 1.3 1.34 0.7 2.71-2.08 4.25-3.61 2-7.3 3.93-11 5.88-5.49 2.93-11 5.83-16.48 8.79q-16.15 8.73-32.26 17.5c-2.41 1.31-36.67 18-39.12 19.3 0.32 0 4-1.49 4.31-1.49 2.57-1.16 32.82-16 35.38-17.2 10.72-4.9 21.46-9.78 32.16-14.73 4.1-1.9 8.08-4 12.13-5.93 2.08-1 4.19-2 6.28-2.94a8.39 8.39 0 0 1 3.42-0.93 3.35 3.35 0 0 1 2 0.62c1 0.71 2.38 1.15 1.86 2.64s-1.64 2.42-3.62 3.35c-4.84 2.28-9.62 4.62-14.46 6.9-3.9 1.83-7.85 3.59-11.77 5.38q-8.47 3.87-16.94 7.74c-6.58 3-13.16 6.09-19.73 9.13-5.54 2.56-11 5.17-16.61 7.67-6 2.67-12 5.26-18 7.86-5.52 2.38-11.08 4.72-16.62 7.08-6.88 2.93-13.75 5.88-20.65 8.78-2.23 0.94-4.56 1.69-6.77 2.67a11.23 11.23 0 0 1-4.48 1 7.35 7.35 0 0 1-3.8-1c-1.7-1-3.24-2.11-4.92-3.12s-1.77-1.59-0.35-3.19 3.23-3.29 4.83-4.93c3.11-3.2 6.07-6.43 9.33-9.58 3.71-3.58 7-7.29 11.51-10.66 1.55-1.15 2.7-2.5 4.12-3.73 5.25-4.54 10.48-9.08 15.82-13.59q9.12-7.67 18.41-15.28c4.54-3.73 9.19-7.42 13.78-11.13 4.31-3.5 8.45-7.06 12.93-10.47s8.06-7 12.95-10.13a25.74 25.74 0 0 0 5.34-4.53 8.48 8.48 0 0 1 6.27-2.63 7.38 7.38 0 0 1 1.19 0.09c2.33 0.38 3.53 1.51 3.36 3.24a4.6 4.6 0 0 1-1.59 2.46c-1.77 1.52-3.87 2.92-5.77 4.39q-8 6.23-16 12.47-6.14 4.81-12.17 9.68c-4.24 3.41-8.4 6.85-12.62 10.27-6.15 5-12.35 10-18.47 15-2.13 1.74-4.11 3.54-6.15 5.32l0.42 0.13c3.41-2.46 6.92-4.87 10.22-7.39 6.82-5.18 13.59-10.38 21-15.27q10.29-6.81 20.2-13.84c4.19-3 8.07-6.09 12.11-9.13 6.62-5 13.53-9.79 20.79-14.42 3-1.94 5.8-4.1 8.57-6.22 4.29-3.29 8.44-6.64 12.73-9.93 2.76-2.12 5.7-4.15 8.5-6.24s5.75-4.32 8.58-6.51a6.81 6.81 0 0 1 4.29-1.81m0-5a11.8 11.8 0 0 0-7.35 2.86c-2.88 2.22-5.74 4.39-8.5 6.45-1.16 0.86-2.35 1.72-3.53 2.57-1.66 1.2-3.37 2.44-5 3.71-2.16 1.65-4.31 3.35-6.39 5s-4.21 3.32-6.34 4.95l-0.89 0.68c-2.46 1.89-4.78 3.68-7.32 5.29-1.44 0.92-2.87 1.85-4.31 2.79-0.57-2.92-2.88-5.65-7.41-6.4a13 13 0 0 0-2-0.15 13.42 13.42 0 0 0-10 4.34 21.07 21.07 0 0 1-4.29 3.62 86.49 86.49 0 0 0-8.74 6.67c-1.53 1.29-3 2.5-4.53 3.68-3.09 2.35-6 4.78-8.88 7.14-1.38 1.14-2.77 2.29-4.17 3.42-1.72 1.4-3.46 2.79-5.19 4.18-2.83 2.28-5.76 4.64-8.61 7-7.49 6.15-13.18 10.87-18.46 15.32-4.63 3.9-9.24 7.89-13.7 11.75l-2.17 1.87c-0.68 0.59-1.27 1.16-1.83 1.71a21.15 21.15 0 0 1-2 1.81 82 82 0 0 0-9.22 8.32c-0.95 1-1.84 1.84-2.77 2.74-2.27 2.19-4.39 4.41-6.44 6.56q-1.48 1.57-3 3.13-0.82 0.84-1.68 1.68c-1.1 1.09-2.24 2.22-3.3 3.41-0.64 0.73-2.61 2.93-2.15 5.94a7 7 0 0 0 3.66 4.87c0.73 0.44 1.45 0.91 2.22 1.41s1.75 1.15 2.72 1.72a12.25 12.25 0 0 0 6.35 1.72 16.17 16.17 0 0 0 6.5-1.47c1.07-0.47 2.2-0.89 3.4-1.34s2.18-0.82 3.29-1.29c4.85-2 9.76-4.14 14.5-6.16l6.17-2.63 5.4-2.3c3.69-1.56 7.5-3.18 11.24-4.79l0.78-0.34c5.67-2.44 11.54-5 17.28-7.55 3.87-1.73 7.75-3.54 11.5-5.29l5.16-2.4 5.39-2.5 14.33-6.62 11.75-5.38 5.17-2.36 3.63-1.64c2.68-1.22 5.47-2.49 8.19-3.77 2.47-1.15 4.95-2.35 7.35-3.5s4.74-2.28 7.11-3.39c2.09-1 5-2.7 6.23-6.25 0.62-1.79 1-5.13-2.87-7.82l1.76-1c1.16-0.64 4.69-2.6 5.25-6.31a6.74 6.74 0 0 0-2-5.79l-0.34-0.36c-0.32-0.34-0.71-0.77-1.19-1.2a8 8 0 0 0-2.76-1.62c1.59-0.94 3.16-1.89 4.7-2.81 2.65-1.6 5.4-3.26 8.14-4.83 4.42-2.55 9-5.12 13.37-7.6l7.83-4.42c5.45-3.1 4.72-7.08 3.79-9.17a9.35 9.35 0 0 0-5.92-4.86 11.59 11.59 0 0 0-3.77-0.72 11.41 11.41 0 0 0-5.43 1.59c-2 1-4 2.15-6 3.3l2.84-2.2c6.11-4.8 4.05-9.31 2.28-11.57a8.8 8.8 0 0 0-5.55-3l-0.5-0.11a11.9 11.9 0 0 0-2.71-0.32z"/><path class="cls-4" d="m245.4 351.12a4.19 4.19 0 0 1-3.1-1.43 7.73 7.73 0 0 1-1.69-5.86c0-0.27 0.07-0.56 0.11-0.84a3.64 3.64 0 0 0 0.07-0.44c-0.39-5.67 1-11.23 4.42-17.45 1.73-3.16 3.41-6.48 5-9.69 1.15-2.28 2.31-4.55 3.49-6.79 1.56-3 3.18-6 4.75-8.84q1.41-2.56 2.79-5.14c0.7-1.3 1.39-2.6 2.08-3.91 0.92-1.74 1.84-3.49 2.78-5.21l2.06-3.78c2.51-4.61 5.1-9.38 7.74-14 1.55-2.71 3.18-5.38 4.75-8 1.69-2.78 3.43-5.64 5.07-8.53 2.82-5 5.55-10.23 8.18-15.32l0.12-0.24c2.07-4 4.12-8.16 6.11-12.17l1.17-2.38c0.56-1.13 1.11-2.33 1.63-3.49l0.59-1.31c0.63-1.37 2.54-5.54 6.42-5.54a6.29 6.29 0 0 1 2.92 0.79c2.91 1.54 3.13 5.23 3.2 6.44a6.68 6.68 0 0 1-1.47 4.34 20.55 20.55 0 0 0-3 4.9c-0.22 0.45-0.45 0.9-0.68 1.34l0.2-0.29c1.14-1.63 2.27-3.29 3.39-5 1.26-1.84 2.51-3.68 3.78-5.49s2.63-3.73 3.94-5.59c2.23-3.13 4.53-6.38 6.73-9.64 1.85-2.74 3.61-5.77 5.32-8.7l0.76-1.31c0.79-1.36 1.57-2.82 2.32-4.23 0.48-0.89 1-1.79 1.44-2.67a7.26 7.26 0 0 1 1.39-1.84 4.45 4.45 0 0 1 3-1.13 6.23 6.23 0 0 1 5.27 3.37c0.91 1.71 1.54 4.51-0.58 8.14-2.44 4.2-4.53 7.7-6.73 11.14-3 4.69-6.11 9.31-9 13.65-0.7 1-1.45 2-2.16 2.93-0.54 0.69-1.07 1.37-1.58 2.09-2.2 3.09-4.41 6.27-6.31 9-0.59 0.86-1.18 1.73-1.76 2.61l-1.62 2.42c-1.23 1.79-2.47 3.57-3.7 5.35-2.32 3.34-4.72 6.8-7 10.26q-1.49 2.2-2.95 4.43l0.76-0.91c1.84-2.22 3.67-4.47 5.5-6.72 2.44-3 4.95-6.09 7.48-9.06 3.32-3.91 6.73-7.78 10-11.52 1.61-1.82 3.23-3.65 4.83-5.49l3.27-3.77c2.11-2.45 4.3-5 6.5-7.41 2.6-2.87 5.28-5.67 7.86-8.37l2.51-2.63c0.56-0.59 1.13-1.16 1.7-1.72 0.92-0.92 1.79-1.78 2.6-2.73a5.55 5.55 0 0 1 4-2.28c1.73 0 2.92 1 4.17 2.16a6.77 6.77 0 0 1 1.87 3.66 6.46 6.46 0 0 1-1.57 6c-0.49 0.53-1 1.07-1.48 1.62a3.94 3.94 0 0 1 0.77-0.07c2.42 0 3.81 2.14 4.26 2.84 0.24 0.37 0.46 0.71 0.66 1.09 1.15 2.15 1.84 5.43-1.46 8.87-1.45 1.52-2.89 3.06-4.33 4.6-2 2.1-4 4.27-6 6.35-2.2 2.25-4.49 4.41-6.81 6.4a187.1 187.1 0 0 0-14.82 14.5l-6.26 6.7-7.3 7.82 1.12-0.89c2.64-2.09 5.33-4.09 7.94-6l3.55-2.65c0.84-0.63 1.7-1.25 2.56-1.86a65.33 65.33 0 0 0 5.4-4.19c3.28-2.93 6.59-6.09 9.79-9.14l4.17-4 0.69-0.64c0.41-0.38 0.83-0.76 1.23-1.17a5.54 5.54 0 0 1 3.87-2 3.87 3.87 0 0 1 2.31 0.78 8.1 8.1 0 0 1 3.7 6.13 7.25 7.25 0 0 1-1.81 5.69 24.69 24.69 0 0 1-2.39 2.22c-0.37 0.32-0.75 0.59-1.13 0.87a12 12 0 0 0-1 0.8c-1.16 1.08-2.31 2.18-3.47 3.29-2 1.87-4 3.81-6.05 5.63s-4 3.26-5.9 4.74l-1.78 1.37c-1.06 0.82-2.13 1.61-3.19 2.41l-2.38 1.78-3 2.28c-3 2.3-6.17 4.68-9.23 7.09-1.46 1.16-3 2.43-4.39 3.65-1.14 1-2.27 1.94-3.42 2.87s-2.3 1.83-3.45 2.73-2.64 2.05-3.93 3.13-2.7 2.3-4 3.44-2.75 2.4-4.14 3.56c-2.43 2-4.87 4-7.32 5.95l-4.36 3.53-2.76 2.35c-0.84 0.71-1.68 1.41-2.53 2.1s-1.83 1.49-2.74 2.22c-1.51 1.22-3.07 2.47-4.58 3.75-2.57 2.18-5.16 4.46-7.71 6.79-2.17 2-4.33 4-6.49 6s-4.49 4.18-6.75 6.24c-1.17 1.06-2.36 2.09-3.51 3.08s-2.41 2.07-3.58 3.15a16.46 16.46 0 0 0-1.29 1.44 19.38 19.38 0 0 1-1.49 1.69l-0.26 0.27a8.63 8.63 0 0 1-3.51 2.48 3.87 3.87 0 0 1-1.16 0.16zm113.29-136.12a59.79 59.79 0 0 0-5.4 5.4c-0.47 0.52-1 1-1.42 1.57 1.8-1.74 3.61-3.51 5.38-5.31a20.47 20.47 0 0 0 1.44-1.66z"/><path class="cls-3" d="m343.19 185.28a3.69 3.69 0 0 1 3.06 2c0.86 1.62 0.75 3.52-0.52 5.71-2.19 3.74-4.39 7.47-6.69 11.05-3 4.61-6 9.11-9 13.59-1.18 1.75-2.49 3.28-3.71 5q-3.18 4.48-6.32 9c-1.15 1.65-2.25 3.37-3.39 5-3.59 5.21-7.21 10.35-10.75 15.63-3.77 5.63-7.48 11.35-11.18 17.09-3.15 4.88-6.25 9.84-9.36 14.78a5.9 5.9 0 0 0-0.27 1 30 30 0 0 0 2.39-2.29q10.14-12 20.23-24.09c4.34-5.21 8.59-10.62 13-15.76 4.9-5.77 9.89-11.33 14.83-17 3.25-3.72 6.46-7.53 9.74-11.15s6.88-7.33 10.33-11c1.46-1.53 3-2.9 4.39-4.54 0.86-1 1.52-1.41 2.14-1.41 0.78 0 1.5 0.64 2.52 1.53a4.72 4.72 0 0 1 1.08 2.35 4 4 0 0 1-1 3.69c-2.09 2.23-4.12 4.8-6.35 6.46a51.89 51.89 0 0 0-6.92 6.64c-3.62 4-7.16 8.16-10.74 12.24-4 4.57-8 9.09-12 13.69-2.3 2.65-4.56 5.4-6.84 8.11-2.69 3.21-5.4 6.37-8.07 9.64a68.06 68.06 0 0 0-5.16 7.17 15.83 15.83 0 0 0 2.14-1.84c4.89-5.79 10.06-10.85 15.15-16.13 3-3.09 5.8-6.6 8.8-9.62 4.31-4.35 8.72-8.41 13.08-12.61 3.76-3.62 7.53-7.19 11.23-10.94 1.44-1.45 2.72-3.36 4.08-5.05 1-1.33 1.92-2 2.72-2s1.43 0.57 2.17 1.7c0.19 0.29 0.38 0.59 0.55 0.91 1.15 2.14 0.78 4-1.06 6-3.46 3.62-6.86 7.37-10.34 10.93-2.16 2.22-4.39 4.31-6.64 6.25a190.25 190.25 0 0 0-15 14.7c-5.21 5.58-10.43 11.14-15.63 16.75-4.72 5.07-9.4 10.24-14.14 15.27-2.69 2.87-5.45 5.55-8.17 8.33a1.53 1.53 0 0 0-0.42 1c1.75-1.32 3.53-2.56 5.25-4 3.7-3.07 7.36-6.29 11.06-9.38 4.32-3.61 8.63-7.23 13-10.68 3.78-3 7.62-5.77 11.44-8.64 2.71-2 5.49-3.84 8.12-6.18 4.72-4.21 9.35-8.75 14-13.15 0.67-0.62 1.35-1.21 2-1.88a3.34 3.34 0 0 1 2.08-1.28 1.37 1.37 0 0 1 0.84 0.3 5.65 5.65 0 0 1 2.68 4.37 4.72 4.72 0 0 1-1.16 3.73 23.72 23.72 0 0 1-2.16 2c-0.74 0.63-1.53 1.08-2.25 1.75-3.16 2.94-6.28 6.05-9.48 8.87-2.46 2.18-5 4.05-7.55 6-1.84 1.43-3.71 2.77-5.55 4.18-4.09 3.12-8.19 6.19-12.26 9.4-2.64 2.08-5.22 4.41-7.84 6.55-2.45 2-4.95 3.83-7.39 5.86-2.74 2.27-5.42 4.74-8.16 7-3.87 3.21-7.77 6.31-11.65 9.47-1.77 1.44-3.53 2.94-5.29 4.39-2.45 2-4.93 3.93-7.36 6q-3.92 3.33-7.77 6.85c-4.43 4.05-8.82 8.2-13.24 12.24-2.35 2.14-4.76 4.08-7.1 6.24-1 0.91-1.87 2.22-2.85 3.19a8 8 0 0 1-2.69 2.13 1.65 1.65 0 0 1-0.43 0.06c-1.46 0-2.51-2.17-2.3-4.57a12 12 0 0 0 0.18-1.62c-0.4-5.94 1.37-11.1 4.12-16.13 2.95-5.4 5.68-11.05 8.56-16.52 2.47-4.7 5-9.3 7.53-13.95 1.63-3 3.21-6.1 4.85-9.11 3.24-5.93 6.44-11.9 9.78-17.71 3.2-5.59 6.64-10.9 9.83-16.52 2.89-5.08 5.62-10.37 8.34-15.64 2.49-4.81 4.89-9.71 7.3-14.59 0.79-1.59 1.51-3.24 2.26-4.87 1.26-2.76 2.58-4.08 4.14-4.08a3.75 3.75 0 0 1 1.75 0.5c1.3 0.69 1.76 2.42 1.88 4.38a4.36 4.36 0 0 1-0.78 2.46c-1.88 1.93-3 4.78-4.4 7.31-2.42 4.51-4.72 9.14-7 13.79-3.22 6.57-6.65 12.89-10.34 18.93-1.57 2.57-3.05 5.26-4.56 7.92a7.65 7.65 0 0 0-0.3 1.29c0.74-0.95 1.24-1.52 1.68-2.19 6-9.14 11.89-18.33 17.88-27.42 2.39-3.62 4.93-7 7.37-10.52s4.76-7 7.17-10.44c3.56-5.1 7.2-10.07 10.7-15.27 2.16-3.21 4.15-6.7 6.16-10.14 1.31-2.25 2.52-4.64 3.79-6.95a4.69 4.69 0 0 1 0.89-1.2 1.9 1.9 0 0 1 1.31-0.48m0-5a6.9 6.9 0 0 0-4.67 1.78 9.69 9.69 0 0 0-1.91 2.48c-0.49 0.9-1 1.8-1.45 2.71-0.78 1.45-1.51 2.82-2.28 4.14l-0.77 1.31c-1.68 2.9-3.42 5.89-5.22 8.56-2.19 3.25-4.48 6.48-6.7 9.61l-2.28 3.21a7.93 7.93 0 0 0-3.84-4.69 8.59 8.59 0 0 0-4.08-1.08c-3.64 0-6.57 2.36-8.69 7-0.2 0.44-0.4 0.89-0.61 1.33-0.53 1.19-1 2.32-1.58 3.4l-1.2 2.44c-2 4-4 8.1-6.06 12.07l-0.13 0.25c-2.62 5.07-5.33 10.31-8.12 15.23-1.62 2.85-3.36 5.7-5 8.46-1.58 2.6-3.22 5.29-4.79 8-2.65 4.62-5.25 9.4-7.76 14l-2.09 4.01c-0.95 1.74-1.88 3.51-2.79 5.23-0.69 1.3-1.37 2.61-2.07 3.9q-1.39 2.58-2.8 5.16c-1.57 2.88-3.19 5.85-4.76 8.83-1.19 2.27-2.36 4.58-3.5 6.82-1.63 3.2-3.3 6.5-5 9.63-3.59 6.56-5.1 12.47-4.74 18.57v0.1a9.34 9.34 0 0 0-0.14 1.05 10.26 10.26 0 0 0 2.34 7.76 6.68 6.68 0 0 0 4.94 2.24 6.45 6.45 0 0 0 1.79-0.25 10.86 10.86 0 0 0 4.59-3.12l0.14-0.25a20.88 20.88 0 0 0 1.66-1.87 13 13 0 0 1 1.05-1.19c1.14-1.05 2.3-2.05 3.52-3.1s2.37-2 3.57-3.13c2.27-2.07 4.57-4.21 6.79-6.27s4.3-4 6.45-6c2.53-2.31 5.1-4.57 7.63-6.72 1.49-1.26 3-2.51 4.54-3.71 0.92-0.74 1.84-1.48 2.75-2.23s1.7-1.41 2.55-2.12 1.82-1.52 2.73-2.26l4.35-3.52c2.41-1.94 4.9-3.95 7.34-6 1.43-1.18 2.83-2.41 4.19-3.6s2.66-2.31 4-3.4 2.52-2 3.86-3.07c1.14-0.89 2.32-1.81 3.5-2.77s2.33-1.95 3.46-2.9c1.49-1.27 2.89-2.47 4.32-3.59 3-2.41 6.18-4.78 9.2-7.08l3-2.27 2.34-1.76c1.06-0.79 2.15-1.6 3.24-2.45l1.77-1.35c2-1.51 4-3.08 6-4.86s4.14-3.8 6.13-5.7c1.15-1.09 2.29-2.19 3.44-3.26 0.19-0.17 0.47-0.37 0.8-0.61a15.81 15.81 0 0 0 1.27-1 28.65 28.65 0 0 0 2.61-2.43 9.76 9.76 0 0 0 2.47-7.64 10.67 10.67 0 0 0-4.71-7.9 6.41 6.41 0 0 0-3.79-1.26 6.49 6.49 0 0 0-2.48 0.5c1.76-1.82 3.5-3.69 5.19-5.5 1.42-1.51 2.88-3.08 4.32-4.58 3.38-3.53 4-7.72 1.86-11.78-0.27-0.5-0.54-0.92-0.76-1.26a9.72 9.72 0 0 0-2.68-2.85 9 9 0 0 0 1-6.71 9.17 9.17 0 0 0-2.65-5c-1.41-1.25-3.16-2.79-5.83-2.79-3.22 0-5.26 2.37-5.93 3.15s-1.59 1.71-2.47 2.59c-0.57 0.56-1.16 1.14-1.75 1.77l-2.53 2.65c-2.59 2.71-5.26 5.51-7.88 8.39-2 2.17-3.92 4.42-5.82 6.62 2.49-3.69 5.07-7.55 7.58-11.47 2.22-3.48 4.32-7 6.78-11.23 2.85-4.87 1.62-8.71 0.63-10.57a8.68 8.68 0 0 0-7.48-4.7z"/><path class="cls-3" d="m216.61 365.79c5.71 1.81 21.63-26 25.89-26.23 1.65-0.08 5.68 2.82 6.87 4 2.49 2.36 4.18 3.25 4.18 6.52 0 5.91-6.33 6.62-9.91 11.73-3.34 4.77-1.36 3.3-4.87 8a113.28 113.28 0 0 1-10.21 11.54c-2.33 2-15.75 14.34-21.83 15.15"/></g></g></g></svg>
