<svg width="18" height="12" version="1.1" viewBox="0 0 18 12" xmlns="http://www.w3.org/2000/svg">
<path d="m0 0v12h18v-12z" fill="#012169"/>
<path d="m0 0v1.3418l3.9883 2.6582h-3.9883v4h3.9883l-3.9883 2.6582v1.3418h2.0137l5.4863-3.6582v3.6582h3v-3.6582l5.4863 3.6582h2.0137v-1.3418l-3.9883-2.6582h3.9883v-4h-3.9883l3.9883-2.6582v-1.3418h-2.0137l-5.4863 3.6582v-3.6582h-3v3.6582l-5.4863-3.6582h-2.0137z" fill="#fff" />
<path d="m0 0 6 4h1.3418l-6.002-4h-1.3398zm8.0996 0v4.8008h-8.0996v2.3984h8.0996v4.8008h1.8008v-4.8008h8.0996v-2.3984h-8.0996v-4.8008h-1.8008zm9.9004 0-6 4h1.3398l4.6602-3.1074v-0.89258zm-13.34 8-4.6602 3.1074v0.89258l6-4h-1.3398zm5.998 0 6.002 4h1.3398l-6-4h-1.3418z" fill="#c8102e"/>
</svg>
