<?xml version="1.0" standalone="no"?>
<!DOCTYPE svg PUBLIC "-//W3C//DTD SVG 20010904//EN"
 "http://www.w3.org/TR/2001/REC-SVG-20010904/DTD/svg10.dtd">
<svg version="1.0" xmlns="http://www.w3.org/2000/svg"
 width="1024.000000pt" height="1024.000000pt" viewBox="0 0 1024.000000 1024.000000"
 preserveAspectRatio="xMidYMid meet">
<metadata>
Created by potrace 1.14, written by Peter Selinger 2001-2017
</metadata>
<g transform="translate(0.000000,1024.000000) scale(0.100000,-0.100000)"
fill="#000000" stroke="none">
<path d="M5134 6751 c-109 -18 -237 -77 -298 -140 l-37 -38 -47 24 c-67 33
-136 39 -208 18 -199 -57 -343 -273 -344 -515 l0 -76 -50 -37 c-28 -21 -71
-65 -95 -98 -61 -83 -86 -155 -92 -265 -8 -141 12 -213 115 -416 2 -3 -32 -25
-75 -47 -137 -72 -289 -199 -392 -326 -34 -42 -61 -86 -61 -98 0 -72 203 -306
329 -379 61 -35 63 -38 40 -46 -96 -36 -376 -82 -502 -82 -47 0 -97 -4 -110
-9 -30 -12 -42 -43 -27 -71 10 -18 20 -20 103 -20 199 0 410 39 711 130 109
33 234 67 278 75 101 19 222 19 313 0 94 -20 220 -83 273 -138 l43 -44 -119
-119 c-98 -98 -125 -133 -156 -196 -45 -90 -58 -176 -45 -295 9 -89 18 -122
47 -180 72 -141 264 -152 332 -18 23 45 25 62 28 202 l4 153 60 55 c34 30 81
64 106 76 l44 22 344 -344 c190 -189 358 -365 375 -391 35 -54 47 -115 29
-147 -6 -13 -27 -29 -46 -37 -73 -30 -113 -4 -344 223 l-116 113 -34 -35 -35
-36 171 -167 c187 -183 211 -219 180 -267 -19 -28 -54 -40 -93 -30 -17 4 -87
69 -186 171 -88 90 -165 164 -171 164 -7 0 -25 -13 -41 -30 l-28 -30 139 -142
c77 -79 146 -158 153 -176 27 -65 -25 -131 -93 -118 -19 4 -41 13 -48 20 -7 7
-67 72 -132 145 -86 95 -125 131 -142 131 -25 0 -54 -24 -54 -46 0 -8 37 -55
83 -105 179 -198 193 -220 166 -267 -8 -14 -21 -29 -30 -35 -24 -15 -114 30
-178 90 l-55 50 18 44 c23 57 24 121 2 154 -19 30 -71 55 -112 55 -21 0 -25 4
-19 18 19 48 16 108 -7 152 -33 65 -79 93 -145 88 -51 -5 -53 -4 -63 27 -12
37 -64 90 -103 104 -41 16 -76 13 -123 -8 l-42 -19 -6 30 c-3 16 -21 45 -40
64 -29 29 -41 34 -83 34 -67 0 -115 -33 -229 -153 l-92 -97 -74 74 c-82 80
-190 141 -303 172 -67 18 -280 30 -349 20 -68 -11 -92 -41 -63 -81 13 -16 28
-18 148 -16 239 4 377 -45 510 -180 l77 -77 -5 -65 c-4 -51 -2 -70 12 -91 23
-34 64 -56 109 -56 34 0 34 -1 34 -43 -2 -86 57 -147 149 -155 48 -4 53 -7 53
-29 0 -58 64 -127 128 -139 34 -7 62 0 135 31 13 5 18 4 17 -6 -7 -45 3 -74
34 -105 29 -29 41 -34 82 -34 69 0 127 32 218 121 l79 78 50 -44 c90 -78 166
-111 251 -107 37 2 104 68 112 112 8 35 9 36 77 45 60 8 118 57 142 118 16 42
16 42 69 42 92 0 167 69 170 155 1 35 1 35 44 37 58 2 130 46 160 98 30 52 26
131 -9 202 l-25 50 91 7 c49 3 131 10 180 15 50 6 191 13 315 17 124 4 235 11
248 15 16 6 22 17 22 38 0 53 -10 55 -250 47 -121 -4 -266 -11 -323 -17 -217
-20 -255 -22 -323 -9 l-69 12 -327 326 -326 325 -41 -6 c-82 -11 -210 -97
-278 -185 l-33 -44 0 -142 c0 -190 -14 -226 -87 -226 -64 0 -107 64 -124 187
-24 172 13 267 165 419 102 102 351 296 435 339 106 53 279 85 465 85 179 0
308 -40 457 -140 79 -55 130 -74 249 -94 132 -23 374 -33 395 -16 21 17 19 67
-2 78 -10 5 -85 12 -168 16 -216 8 -342 37 -414 94 l-23 19 82 48 c123 72 243
169 358 289 132 139 132 140 19 250 -145 142 -346 263 -536 323 -47 15 -88 28
-90 30 -2 1 11 19 29 40 42 47 77 124 91 196 20 110 -27 255 -111 346 l-41 43
10 50 c15 69 14 125 -5 189 -45 156 -166 271 -334 320 -68 19 -84 28 -100 54
-27 44 -127 137 -180 167 -104 61 -269 89 -396 69z m202 -102 c78 -14 170 -60
223 -112 l44 -42 -96 -11 c-85 -10 -100 -15 -132 -43 -35 -31 -55 -39 -55 -22
0 22 -84 101 -125 117 -82 31 -205 2 -272 -64 l-31 -31 -12 30 c-12 28 -11 32
20 64 93 96 274 144 436 114z m-640 -134 c20 -8 49 -29 65 -46 l29 -31 -45
-44 c-25 -24 -45 -50 -45 -57 0 -8 -19 -27 -42 -42 -24 -16 -72 -56 -108 -90
-58 -55 -76 -65 -157 -92 l-93 -31 0 46 c0 110 62 244 147 322 80 74 172 98
249 65z m482 -79 c25 -13 62 -63 62 -83 0 -16 -86 -43 -139 -43 -46 0 -122 28
-135 49 -9 14 35 58 77 76 40 18 105 18 135 1z m612 -73 c76 -20 130 -54 183
-113 88 -98 110 -226 57 -334 l-23 -50 -27 85 c-14 46 -39 109 -56 139 -33 62
-129 169 -188 210 -23 15 -49 42 -59 60 l-19 31 39 -6 c21 -4 63 -13 93 -22z
m-228 -29 c72 -46 73 -129 2 -264 -69 -131 -190 -247 -304 -291 -70 -27 -183
-35 -259 -19 -33 7 -92 29 -133 49 l-73 36 -12 55 c-6 30 -12 83 -12 117 l-1
61 65 -44 c73 -48 175 -84 239 -84 88 1 168 48 253 149 62 75 115 166 134 228
11 39 14 42 38 37 14 -4 43 -17 63 -30z m-675 -35 c70 -64 123 -84 224 -84 78
0 92 3 156 35 l72 36 -17 -29 c-9 -16 -43 -59 -74 -97 -71 -84 -127 -115 -198
-108 -63 6 -161 55 -226 112 l-52 45 9 47 c9 46 32 84 52 84 5 0 30 -18 54
-41z m962 -281 c46 -95 64 -178 64 -298 0 -118 -19 -206 -59 -281 -45 -82 -79
-107 -193 -140 -120 -34 -126 -35 -224 -10 -175 45 -333 129 -444 234 -60 57
-141 162 -132 171 2 3 31 -5 64 -16 84 -29 213 -35 295 -14 132 33 247 108
343 223 53 65 132 214 143 270 l7 37 53 -57 c29 -31 66 -84 83 -119z m-1155
-172 c42 -151 100 -257 200 -363 110 -117 302 -232 457 -273 24 -7 48 -14 52
-17 4 -2 -18 -21 -50 -42 -32 -21 -89 -63 -128 -94 -59 -48 -76 -57 -111 -57
-33 0 -46 6 -75 36 -89 94 -242 171 -411 208 -22 5 -36 25 -82 118 -69 141
-96 242 -96 363 0 159 44 272 154 392 l61 67 7 -140 c3 -76 13 -166 22 -198z
m-312 94 c-24 -67 -27 -90 -27 -210 0 -155 18 -235 85 -377 l39 -83 -67 0
c-37 -1 -103 -7 -147 -15 -57 -10 -83 -11 -92 -3 -24 19 -91 166 -103 225 -7
31 -10 96 -8 144 5 113 43 194 124 268 44 41 211 137 220 128 1 -1 -10 -36
-24 -77z m1745 -173 c50 -66 66 -114 67 -192 1 -91 -28 -158 -96 -221 l-50
-47 -70 6 c-39 3 -73 8 -76 11 -3 3 2 14 10 23 50 57 98 216 98 322 0 62 2 67
37 103 20 21 40 38 43 38 3 0 20 -20 37 -43z m-165 -555 c15 -6 -10 -41 -138
-202 l-156 -195 -66 -6 c-37 -3 -67 -5 -68 -5 -2 1 181 390 189 404 9 13 207
17 239 4z m220 -43 c43 -12 78 -25 78 -29 0 -4 -46 -74 -103 -156 -118 -170
-113 -167 -268 -162 l-87 3 146 183 c80 100 148 182 151 182 2 0 40 -9 83 -21z
m-1686 -5 c17 -4 35 -41 88 -183 36 -98 66 -181 66 -184 0 -4 -42 -7 -94 -7
l-93 0 -12 58 c-6 31 -24 117 -40 190 l-29 132 47 0 c25 0 56 -3 67 -6z m1014
-175 c-44 -95 -84 -176 -88 -180 -4 -4 -49 -11 -99 -14 l-93 -8 0 74 0 74 58
46 c31 25 80 61 107 79 54 37 188 111 193 106 1 -2 -34 -81 -78 -177z m-1191
9 c19 -90 36 -173 39 -185 4 -23 3 -23 -99 -23 l-104 1 -85 112 c-47 61 -86
116 -88 123 -5 21 235 131 293 134 6 0 25 -73 44 -162z m394 121 c85 -28 183
-84 239 -137 l48 -45 0 -74 0 -74 -121 3 -121 3 -64 170 c-35 94 -64 171 -64
173 0 6 26 0 83 -19z m1708 -45 l48 -27 -40 -71 c-22 -39 -47 -85 -56 -102
-15 -31 -17 -31 -107 -37 -50 -3 -92 -4 -92 -3 -4 4 183 266 190 266 4 0 30
-12 57 -26z m225 -149 c73 -59 74 -60 47 -66 -35 -8 -213 -11 -213 -4 0 23 70
137 82 133 5 -2 43 -30 84 -63z m-2682 -45 l65 -85 -79 -3 c-44 -2 -117 -2
-162 0 l-83 3 90 88 c49 48 92 86 96 85 4 -2 37 -41 73 -88z m1166 -309 c0
-280 -2 -330 -15 -341 -13 -11 -15 26 -15 327 0 187 3 343 6 346 20 20 24 -35
24 -332z m1525 119 c-38 -39 -73 -69 -77 -68 -4 2 -27 30 -52 63 l-45 60 82 6
c45 3 100 6 122 7 l39 2 -69 -70z m-230 -32 c33 -45 63 -87 67 -94 12 -19
-151 -121 -163 -103 -5 8 -43 70 -85 138 -59 96 -73 125 -63 132 8 5 52 9 99
9 l85 -1 60 -81z m-286 -77 c50 -81 94 -156 98 -166 7 -21 8 -21 -105 20 -40
14 -108 31 -151 37 l-79 12 -65 115 -65 116 101 6 c56 3 118 6 139 7 l36 2 91
-149z m-412 14 l62 -110 -87 -11 c-48 -5 -90 -8 -94 -5 -3 3 -21 53 -39 111
-17 58 -34 111 -37 118 -3 10 11 12 64 10 l69 -3 62 -110z m-262 -10 c20 -64
38 -121 41 -128 3 -8 -19 -19 -60 -31 l-65 -18 -45 37 c-25 20 -59 57 -76 83
-25 37 -30 56 -30 103 l0 58 38 4 c20 2 65 4 99 5 l62 2 36 -115z m-1496 -1
c-40 -58 -76 -107 -80 -110 -10 -6 -140 117 -177 170 l-33 46 181 0 181 0 -72
-106z m344 78 c-10 -16 -56 -88 -103 -160 -46 -72 -92 -133 -101 -135 -24 -6
-124 39 -123 56 1 8 41 71 88 141 l87 126 86 0 85 0 -19 -28z m309 -4 c-11
-18 -43 -72 -71 -119 l-51 -87 -60 -7 c-34 -4 -86 -13 -115 -20 -38 -9 -52 -9
-48 -1 4 6 44 68 90 139 l83 127 96 0 96 0 -20 -32z m378 -29 c0 -51 -5 -67
-31 -105 -41 -59 -126 -127 -153 -121 -12 3 -48 12 -81 21 -32 9 -72 16 -87
16 -15 0 -28 5 -28 10 0 6 30 62 67 125 l67 115 123 0 123 0 0 -61z m0 -279
l0 -50 -35 22 -35 23 33 27 c17 15 33 28 35 28 1 0 2 -23 2 -50z m280 10 c0
-4 -11 -15 -25 -24 l-25 -16 0 40 0 40 25 -16 c14 -9 25 -20 25 -24z m-860
-1194 c0 -56 -176 -272 -252 -309 -62 -30 -80 4 -42 81 30 62 187 231 236 255
37 18 58 8 58 -27z m257 -78 c46 -43 34 -66 -106 -213 -53 -55 -109 -121 -125
-147 -35 -55 -71 -78 -120 -78 -27 0 -40 6 -52 25 -15 22 -15 28 0 72 41 122
278 361 360 363 11 0 30 -10 43 -22z m227 -140 c9 -12 16 -34 16 -48 0 -45
-68 -141 -178 -254 -154 -157 -216 -192 -257 -146 -43 47 12 153 160 308 146
153 221 194 259 140z m152 -253 c11 -29 -52 -141 -121 -213 -96 -103 -164
-141 -184 -103 -20 37 27 126 119 225 79 86 171 131 186 91z"/>
</g>
</svg>
