<svg width="32" height="32" version="1.0" xmlns="http://www.w3.org/2000/svg">
 <title>Planet openSUSE</title>
 <rect y="5.5511e-17" width="32" height="32" ry="16" fill="#fff" fill-rule="evenodd"/>
 <g transform="translate(0,-48)">
  <path transform="translate(0,48)" d="m16 0a16 16 0 0 0-4.8555 0.76172l-0.058593 0.0078125c-0.080843 0.02606-0.1619 0.052758-0.24219 0.080078l-0.035156 0.033203a16 16 0 0 0-3.959 2l-0.0097656-0.0019531c-0.07508 0.05252-0.15048 0.10638-0.22461 0.16016l-0.011719 0.029297a16 16 0 0 0-3.6797 3.7441c-0.030528 0.043124-0.061356 0.083-0.091797 0.12695a16 16 0 0 0-0.65039 1.0312c-0.048242 0.082843-0.095036 0.16475-0.14258 0.25a16 16 0 0 0-0.60156 1.1992c-0.028762 0.06378-0.057687 0.1265-0.085938 0.19141a16 16 0 0 0-0.5293 1.3887c-0.035495 0.10685-0.071524 0.21089-0.10547 0.32031a16 16 0 0 0-0.1875 0.64062c-0.088718 0.33026-0.17097 0.66888-0.24414 1.0215-0.013891 0.072833-0.022241 0.14753-0.035156 0.2207a16 16 0 0 0-0.03125 0.19531c-0.076442 0.46639-0.14077 0.93695-0.17578 1.416 8.6786e-4 0.001787 0.0030133 0.004039 0.0039062 0.00586a16 16 0 0 0-0.046875 1.1777 16 16 0 0 0 16 16 16 16 0 0 0 16-16 16 16 0 0 0-16-16zm1.2344 1.0605a15 15 0 0 1 6.0723 1.8457l-0.94336 0.22656-0.72266 0.47461v0.4082l-1.1387 0.74805 0.24024 1.0859 0.66016-0.47461 0.41992 0.47461 0.48047 0.27148 0.30078-0.81445-0.18164-0.47656 0.18164-0.33984 0.6582-0.61133h0.30078l-0.30078 0.67969v0.61133c0.27578-0.07506 0.55763-0.099686 0.83984-0.13477l-0.7793 0.54297-0.060547 0.33984-0.90039 0.74609-0.89844-0.20312v-0.54297l-0.42188 0.27148 0.18164 0.47461h-0.068359a10.667 10.667 0 0 1 4.123 4.0977l0.625 0.046875 0.54102 0.33984-0.24023 0.33984-0.39453 0.34766a10.667 10.667 0 0 1 0.37695 1.0312l0.078125-0.087891 0.68945 0.78125 0.81055 1.7305 0.48047 0.54492-0.24024 0.60937 0.45898 0.52148c-0.21026 0.0142-0.42247 0.025391-0.63867 0.025391-0.38221-0.80312-0.66989-1.6071-0.96094-2.4473l-0.36328-0.41211a10.667 10.667 0 0 1 0.16602 1.8672 10.667 10.667 0 0 1-4.4785 8.6738c-4.36e-4 0.043064-0.005859 0.085767-0.005859 0.12891 0.24597 0.67729 0.48845 1.355 0.7207 2.0371l0.17969 1.0879v0.54492h0.41992l0.66211-0.4082h0.7207a15 15 0 0 1-8.8848 2.9355 15 15 0 0 1-6.7754-1.6348l0.28516-0.2832 0.17969-0.47461 0.7793-0.27344 0.60156-1.4941-0.18164-0.40625 0.41992-0.61133 0.36328-0.082032a10.667 10.667 0 0 1-6.2324-8.3203l-0.13086 0.11523v0.14844c-0.32698-0.09438-0.73035-0.10616-1.0215-0.28516l-0.24023-0.67969v-0.74805l-0.71875 0.068359c0.0601-0.47575 0.11917-0.9501 0.17969-1.4258h-0.41992l-0.41992 0.54297-0.42188 0.20312-0.59961-0.33789-0.060547-0.74805 0.12109-0.81445 0.90039-0.67969h0.7207l0.11914-0.4082 0.90039 0.20312 0.66016 0.81641 0.12109-1.3594 1.1387-0.95117 0.42188-1.0195 0.63867-0.25781a10.667 10.667 0 0 1 1.6094-1.7793h-0.92969l1.0215-0.47656h0.47656a10.667 10.667 0 0 1 1.2832-0.83984l-0.25976-0.24609-0.41992-0.13672 0.11914-0.40625-0.29883-0.61133-0.7207 0.27148 0.11914-0.54492-0.83984-0.47461-0.66016 1.1543 0.060547 0.4082-0.66016 0.27148-0.41992 0.88281-0.17969-0.81445-1.1406-0.47656-0.1543-0.51367a15 15 0 0 1 0.24219-0.25391l1.2324-0.72656 0.66016-0.61133 0.017578-0.20703a15 15 0 0 1 0.53906-0.36914l-0.4375 0.37305-0.29883 0.74609h0.59961l0.30078-0.67773c0.25886-0.18304 0.51565-0.36872 0.7793-0.54492l0.60156 0.20508c0.39995 0.27172 0.79892 0.54314 1.1992 0.81445l0.60156-0.54297-0.66016-0.27148-0.30078-0.61133-1.1406-0.13672-0.0097656-0.052734a15 15 0 0 1 2.3262-0.92383l-0.095704 0.09375 1.3809 0.95117v0.54297l-0.54102 0.54297 0.7207 1.4277 0.47852-0.27148 0.60156-0.95117c0.92724-0.28667 1.7593-0.61191 2.6406-1.0195l0.7207-1.834-0.25781-0.10156zm0.31836 2.6836-0.48047 0.27148-0.24024-0.068359-0.060547 0.40625 0.41992 0.27344 0.7207-0.47656-0.35938-0.40625zm7.0312 0.066406h0.13672a15 15 0 0 1 0.81641 0.61914l-0.17383 0.19727-0.7793-0.81641zm-14.955 0.068359-0.48047 0.33984 0.60156 0.4082h0.48047v-0.47656l-0.60156-0.27148zm9.4844 1.5625v0.35938a10.667 10.667 0 0 1 0.61524 0.2207c-0.085095-0.19215-0.16171-0.38795-0.25586-0.58008h-0.35938zm-3.1113 0.9668a9.6003 9.6003 0 0 0-7.5586 3.6992c1.171 0.31285 1.9999 0.58067 2.248 0.66406 0.0038-0.1523 0.029297-1.5137 0.029297-1.5137s0.002931-0.030615 0.019531-0.046875c0.02142-0.02092 0.052735-0.015625 0.052735-0.015625 0.30799 0.04462 6.8814 1.02 9.6523 2.6348 0.3422 0.20019 0.51161 0.41312 0.72266 0.62891 0.76597 0.79219 1.778 4.0863 1.8867 4.7656 0.0042 0.02668-0.028889 0.055427-0.042969 0.066407-0.0787 0.0614-0.16415 0.12458-0.25 0.18164-0.65566 0.4399-2.1656 1.4969-4.1035 1.3242-1.7408-0.154-4.0161-1.1524-6.7578-2.959 0.26957 0.63115 0.53504 1.2657 0.80078 1.8984 0.39705 0.20622 4.2298 2.1574 6.1211 2.1191 1.5234-0.03174 3.1528-0.7737 3.8047-1.166 0 0 0.14274-0.087222 0.20508-0.039062 0.06818 0.05268 0.049343 0.13436 0.033203 0.2168-0.0401 0.18712-0.13128 0.52741-0.19336 0.68945l-0.052734 0.13281c-0.07462 0.1999-0.14511 0.38557-0.2832 0.5-0.38398 0.34915-0.99673 0.62755-1.957 1.0449-1.4844 0.64931-3.893 1.0611-6.1289 1.0469-0.80083-0.0178-1.5746-0.10619-2.2539-0.18555-1.3942-0.1574-2.529-0.28546-3.2207 0.21484a9.6003 9.6003 0 0 0 7.2266 3.2988 9.6003 9.6003 0 0 0 9.5996-9.6016 9.6003 9.6003 0 0 0-9.5996-9.5996zm2.1406 5.5703c-0.75144-0.02396-1.4682 0.24103-2.0176 0.75391-0.54909 0.51118-0.8628 1.208-0.89062 1.959-0.05192 1.5492 1.165 2.855 2.7129 2.9121 0.75485 0.02534 1.4701-0.23992 2.0195-0.75586 0.54769-0.50959 0.86142-1.2061 0.89062-1.957 0.05318-1.5478-1.1653-2.8567-2.7148-2.9121zm10.883 0.46094 0.62891 0.71289 0.69141-0.10156c0.14788 0.13425 0.29284 0.26494 0.43555 0.40039a15 15 0 0 1 0.21875 2.5488 15 15 0 0 1-5.9551 11.949l1.0684-1.2109-0.15039-0.43945 0.78125-0.68164-0.57031-0.64453 0.68945-0.57617 0.66211-0.41016 0.29883-0.33789-0.17969-0.74805v-1.9004l0.53906-1.1562 0.66016-0.74805 0.7207-1.7656v-0.47656c-0.35696 0.04496-0.70351 0.084195-1.0527 0.10938l0.72266-0.7207 0.99023-0.67969 0.54102-0.60938v-0.67969c-0.12014-0.22656-0.24038-0.45313-0.36133-0.67969l-0.48047 0.54297-0.35938-0.40625-0.53906-0.41016v-0.88086zm-10.906 0.36719c1.0829 0.03842 1.9309 0.94869 1.8945 2.0312-0.0168 0.52207-0.23657 1.0063-0.61914 1.3652-0.38313 0.35723-0.88475 0.54322-1.4102 0.52734-1.0804-0.03984-1.9271-0.95044-1.8906-2.0332 0.0158-0.52402 0.24021-1.008 0.62109-1.3652 0.38089-0.35723 0.8786-0.54433 1.4043-0.52539zm0.32226 0.98438c-0.48114 0-0.87109 0.25988-0.87109 0.58203 0 0.3191 0.38995 0.58008 0.87109 0.58008 0.48086 0 0.86914-0.26099 0.86914-0.58008 0-0.32215-0.38802-0.58203-0.86914-0.58203zm-17.439 2.166 0.82422 0.48828 1.2617 0.3418 0.53906 0.67969 0.83984 0.61133 0.48047-0.068359 0.36133 0.16211v0.10938l-0.48047 1.291-0.36133 0.54297 0.12109 0.27344-0.30078 1.0176 1.0801 1.9688 1.082 0.95312 0.47852 0.67773-0.058594 1.4277 0.35938 0.81445-0.17578 0.76758a15 15 0 0 1-6.0527-12.016 15 15 0 0 1 0.0019531-0.042969z" fill="#73ba25" stroke-width=".18477"/>
  <circle cx="76.054" cy="-45.032" r="0" fill="#fff" opacity=".3" stroke-width=".14517"/>
 </g>
</svg>
