<?xml version="1.0" encoding="UTF-8" standalone="no"?>
<!-- Created with Inkscape (http://www.inkscape.org/) -->

<svg
   version="1.1"
   id="svg2"
   width="500"
   height="500"
   viewBox="0 0 500 500"
   sodipodi:docname="Vector Logos.ai"
   xmlns:inkscape="http://www.inkscape.org/namespaces/inkscape"
   xmlns:sodipodi="http://sodipodi.sourceforge.net/DTD/sodipodi-0.dtd"
   xmlns="http://www.w3.org/2000/svg"
   xmlns:svg="http://www.w3.org/2000/svg">
  <defs
     id="defs6">
    <clipPath
       clipPathUnits="userSpaceOnUse"
       id="clipPath18">
      <path
         d="M 0,1500 H 1500 V 0 H 0 Z"
         id="path16" />
    </clipPath>
  </defs>
  <sodipodi:namedview
     id="namedview4"
     pagecolor="#ffffff"
     bordercolor="#666666"
     borderopacity="1.0"
     inkscape:showpageshadow="2"
     inkscape:pageopacity="0.0"
     inkscape:pagecheckerboard="0"
     inkscape:deskcolor="#d1d1d1"
     showgrid="false" />
  <g
     id="g10"
     inkscape:groupmode="layer"
     inkscape:label="Page 1"
     transform="matrix(1.3333333,0,0,-1.3333333,0,2000)">
    <g
       id="g12"
       transform="matrix(0.25000001,0,0,0.25000001,0,1125)">
      <g
         id="g14"
         clip-path="url(#clipPath18)">
        <g
           id="g20"
           transform="translate(1500,750)">
          <path
             d="m 0,0 c 0,-414.213 -335.787,-750 -750,-750 -414.213,0 -750,335.787 -750,750 0,414.213 335.787,750 750,750 C -335.787,750 0,414.213 0,0"
             style="fill:#ec1f27;fill-opacity:1;fill-rule:nonzero;stroke:none"
             id="path22" />
        </g>
        <g
           id="g24"
           transform="translate(1141.5688,357.0132)">
          <path
             d="m 0,0 c -12.718,-0.307 -124.926,-3.137 -148.022,-8.86 -16.393,-4.088 -46.202,3.145 -56.304,6.267 -5.162,1.627 -10.677,-1.281 -12.281,-6.466 -1.611,-5.178 1.281,-10.67 6.459,-12.281 1.35,-0.422 27.162,-8.346 50.282,-8.346 5.845,0 11.513,0.506 16.576,1.772 17.766,4.395 109.8,7.464 143.766,8.277 5.415,0.13 9.711,4.633 9.581,10.056 C 9.926,-4.158 5.37,0.077 0,0"
             style="fill:#231f20;fill-opacity:1;fill-rule:nonzero;stroke:none"
             id="path26" />
        </g>
        <g
           id="g28"
           transform="translate(1124.126,683.0664)">
          <path
             d="M 0,0 -360.472,-16.124"
             style="fill:#ed1c24;fill-opacity:1;fill-rule:nonzero;stroke:none"
             id="path30" />
        </g>
        <g
           id="g32"
           transform="translate(824.1572,672.3965)">
          <path
             d="M 0,0 50.136,107.713"
             style="fill:#ed1c24;fill-opacity:1;fill-rule:nonzero;stroke:none"
             id="path34" />
        </g>
        <g
           id="g36"
           transform="translate(874.293,671.8979)">
          <path
             d="M 0,0 84.125,105.78"
             style="fill:#ed1c24;fill-opacity:1;fill-rule:nonzero;stroke:none"
             id="path38" />
        </g>
        <g
           id="g40"
           transform="translate(958.4185,675.6641)">
          <path
             d="M 0,0 58.24,84.386"
             style="fill:#ed1c24;fill-opacity:1;fill-rule:nonzero;stroke:none"
             id="path42" />
        </g>
        <g
           id="g44"
           transform="translate(1025.9556,678.6787)">
          <path
             d="M 0,0 32.851,59.633"
             style="fill:#ed1c24;fill-opacity:1;fill-rule:nonzero;stroke:none"
             id="path46" />
        </g>
        <g
           id="g48"
           transform="translate(1025.9556,678.6787)">
          <path
             d="M 0,0 40.195,-54.025"
             style="fill:#ed1c24;fill-opacity:1;fill-rule:nonzero;stroke:none"
             id="path50" />
        </g>
        <g
           id="g52"
           transform="translate(958.4185,675.6641)">
          <path
             d="M 0,0 52.782,-86.165"
             style="fill:#ed1c24;fill-opacity:1;fill-rule:nonzero;stroke:none"
             id="path54" />
        </g>
        <g
           id="g56"
           transform="translate(874.293,671.8979)">
          <path
             d="M 0,0 38.321,-68.484"
             style="fill:#ed1c24;fill-opacity:1;fill-rule:nonzero;stroke:none"
             id="path58" />
        </g>
        <g
           id="g60"
           transform="translate(824.1572,672.3965)">
          <path
             d="M 0,0 24.555,-77.962"
             style="fill:#ed1c24;fill-opacity:1;fill-rule:nonzero;stroke:none"
             id="path62" />
        </g>
        <g
           id="g64"
           transform="translate(417.8291,666.9424)">
          <path
             d="M 0,0 H 316.522"
             style="fill:#ed1c24;fill-opacity:1;fill-rule:nonzero;stroke:none"
             id="path66" />
        </g>
        <g
           id="g68"
           transform="translate(664.0146,666.9424)">
          <path
             d="M 0,0 -38.285,102.359"
             style="fill:#ed1c24;fill-opacity:1;fill-rule:nonzero;stroke:none"
             id="path70" />
        </g>
        <g
           id="g72"
           transform="translate(598.0732,666.9424)">
          <path
             d="M 0,0 -21.984,103.693"
             style="fill:#ed1c24;fill-opacity:1;fill-rule:nonzero;stroke:none"
             id="path74" />
        </g>
        <g
           id="g76"
           transform="translate(535.0654,666.9424)">
          <path
             d="M 0,0 -50.711,65.723"
             style="fill:#ed1c24;fill-opacity:1;fill-rule:nonzero;stroke:none"
             id="path78" />
        </g>
        <g
           id="g80"
           transform="translate(535.0654,666.9424)">
          <path
             d="M 0,0 -50.711,-73.838"
             style="fill:#ed1c24;fill-opacity:1;fill-rule:nonzero;stroke:none"
             id="path82" />
        </g>
        <g
           id="g84"
           transform="translate(598.0732,666.9424)">
          <path
             d="M 0,0 -55.941,-85.606"
             style="fill:#ed1c24;fill-opacity:1;fill-rule:nonzero;stroke:none"
             id="path86" />
        </g>
        <g
           id="g88"
           transform="translate(664.0146,666.9424)">
          <path
             d="M 0,0 -43.078,-73.837"
             style="fill:#ed1c24;fill-opacity:1;fill-rule:nonzero;stroke:none"
             id="path90" />
        </g>
        <g
           id="g92"
           transform="translate(839.855,771.8477)">
          <path
             d="M 0,0 6.59,-1.534"
             style="fill:#ed1c24;fill-opacity:1;fill-rule:nonzero;stroke:none"
             id="path94" />
        </g>
        <g
           id="g96"
           transform="translate(1067.8628,638.8008)">
          <path
             d="m 0,0 -22.983,30.891 57.602,2.576 C 26.487,24.384 14.852,12.488 0,0 m -92.369,27.787 45.699,2.044 31.281,-42.045 c -11.232,-8.375 -23.847,-16.631 -37.702,-24.119 z m -202.022,32.994 v 10.302 c 10.258,9.11 44.76,38.209 82.308,53.704 l -39.309,-84.452 -42.999,-1.923 z M -318.86,85.25 c -3.038,0 -5.918,-0.625 -8.604,-1.642 -7.637,9.334 -39.247,43.022 -102.689,54.802 -32.033,51.324 -42.637,97.993 -31.456,138.729 9.17,33.409 31.423,55.912 47.14,68.254 -2.932,-30.65 -0.46,-58.627 6.992,-83.959 0.093,-0.606 0.316,-1.155 0.52,-1.735 5.973,-19.58 14.873,-37.602 27.072,-53.776 38.547,-51.104 97.609,-71.18 129.19,-78.607 -30.752,-18.084 -54.285,-39.213 -59.247,-43.805 -2.771,1.091 -5.765,1.739 -8.918,1.739 m -42.277,-142.954 c 7.132,5.152 13.009,10.478 17.807,15.594 v -28.228 c -3.527,3.078 -9.416,7.708 -17.807,12.634 m -272.522,76.027 h 82.206 l -34.618,-50.406 c -24.575,17.466 -39.631,37.482 -47.588,50.406 m 48.288,61.88 32.595,-42.243 h -76.846 c 9.756,11.311 24.932,27.218 44.251,42.243 M -343.33,60.781 V 37.96 h -53.708 l -29.853,79.819 c 50.932,-11.235 76.735,-37.688 83.561,-45.768 z m -105.905,60.678 31.232,-83.499 h -43.834 l -17.994,84.876 c 1.363,0.041 2.718,0.116 4.092,0.116 9.413,0 18.186,-0.574 26.504,-1.493 m -50.252,-0.581 17.58,-82.918 h -46.064 l -41.448,53.718 c 20.268,13.425 43.933,24.725 69.932,29.2 m -42.894,-176.011 -2.644,1.205 c -8.875,3.347 -16.941,7.224 -24.41,11.38 l 41.806,60.871 h 39.695 l -46.014,-70.417 c -0.108,-0.165 -0.113,-0.357 -0.209,-0.525 -2.716,-0.826 -5.454,-1.663 -8.224,-2.514 m 36.908,10.72 40.995,62.736 h 43.535 l -31.738,-54.398 c -17.876,-0.584 -35.08,-3.742 -52.792,-8.338 m 123.795,-3.325 c -13.089,5.173 -29.319,9.444 -48.607,11.083 l 32.075,54.978 h 54.88 V -8.409 c -2.443,-5.285 -12.576,-24.194 -38.296,-39.282 -0.021,-0.013 -0.031,-0.035 -0.052,-0.047 m -169.134,262.363 c 0,34.918 16.944,62.229 50.366,81.176 10.64,6.033 21.354,10.24 30.354,13.135 -4.105,-8.014 -7.72,-16.716 -10.38,-26.325 -11.764,-42.522 -3.114,-89.858 25.565,-140.885 -6.677,0.526 -13.574,0.863 -20.832,0.863 -16.351,0 -31.957,-2.537 -46.667,-6.833 -18.772,24.084 -28.406,50.566 -28.406,78.869 m 76.186,178.449 c 15.993,19.672 37.034,29.448 56.318,26.115 9.229,-1.591 17.103,-6.06 23.225,-12.895 0.082,-0.108 0.193,-0.19 0.279,-0.296 2.341,-2.664 4.44,-5.649 6.221,-9.004 -3.602,-2.163 -7.756,-4.932 -11.185,-7.962 -5.792,-5.166 -8.901,-12.228 -10.45,-16.867 -8.069,-4.719 -27.227,-17.352 -44.274,-38.926 -7.632,-1.527 -24.858,-5.653 -43.814,-14.56 -0.752,16.816 1.627,47.267 23.68,74.395 m 182.874,54.973 c 44.915,0 70.858,-24.449 82.347,-38.992 -23.46,0.404 -41.586,-3.285 -43.118,-3.616 -0.244,-0.052 -0.421,-0.215 -0.656,-0.284 -0.347,-0.1 -0.694,-0.143 -1.03,-0.282 -0.204,-0.086 -0.358,-0.255 -0.555,-0.355 -0.09,-0.044 -0.168,-0.116 -0.257,-0.164 -0.583,-0.312 -1.129,-0.625 -1.628,-1.041 -0.195,-0.161 -0.438,-0.218 -0.622,-0.397 -5.391,-5.186 -10.672,-9.627 -15.881,-13.605 -8.221,21.047 -23.505,32.97 -43.507,32.97 -26.966,0 -42.657,-13.678 -50.865,-24.493 -2.04,5.316 -4.539,10.238 -7.527,14.655 8.682,10.998 33.624,35.604 83.299,35.604 m 180.301,-138.361 c -0.449,-13.568 -5.535,-26.093 -14.71,-36.992 -11.028,67.323 -56.662,95.547 -66.284,100.775 -1.909,4.451 -4.538,8.538 -7.894,12.234 -1.108,1.22 -2.27,2.364 -3.474,3.44 21.295,-1.054 45.949,-6.107 63.935,-21.505 18.747,-16.051 29.11,-37.173 28.427,-57.952 m 29.686,-100.169 c 0,-24.07 -14.317,-47.13 -36.502,-59.058 -10.61,1.668 -21.679,2.837 -33.193,3.435 15.077,17.217 27.79,44.705 27.79,88.576 0,1.764 -0.179,3.357 -0.223,5.079 6.305,5.212 11.809,10.906 16.325,17.061 9.756,-9.161 25.803,-28.285 25.803,-55.093 M -5.651,85.338 C 11.99,73.558 25.51,61.913 34.57,53.126 l -59.433,-2.659 z m -42.24,23.432 c 9.126,-4.138 17.679,-8.509 25.545,-13.041 l -25.505,-46.29 -42.291,-1.892 z m -57.656,19.229 c 13.971,-3.05 26.955,-7.035 39.098,-11.558 l -48.304,-69.994 -57.701,-2.581 z m -216.519,99.721 c 20.35,0 37.502,5.331 50.826,11.805 48.949,23.787 78.801,77.34 82.137,107.882 17.563,-14.326 45.796,-46.434 45.796,-104.937 0,-42.449 -13.271,-73.178 -38.377,-88.866 -0.056,-0.034 -0.083,-0.093 -0.137,-0.129 -4.86,-0.626 -9.725,-1.638 -14.583,-2.855 -0.241,-0.073 -0.482,-0.105 -0.716,-0.197 -8.489,-2.173 -16.898,-5.125 -25.114,-8.641 l -3.549,0.827 c -0.179,0.042 -0.352,-0.016 -0.531,0.016 -0.207,0.038 -0.378,0.155 -0.589,0.179 -0.882,0.1 -89.065,10.851 -137.395,75.066 -5.493,7.298 -10.258,15.029 -14.329,23.162 20.788,-9.597 39.778,-13.312 56.561,-13.312 m -73.931,95.688 c 15.158,-12.672 39.333,-28.877 64.783,-29.808 16.55,-0.541 31.147,5.124 43.566,17.014 33.337,31.91 43.087,59.647 45.894,74.441 8.047,-1.37 19.722,-4.664 26.879,-12.55 5.093,-5.611 7.187,-12.829 6.397,-22.057 -1.887,-21.946 -27.346,-71.879 -71.346,-93.261 -33.915,-16.489 -70.773,-12.398 -109.567,12.026 -4.651,16.714 -6.871,34.79 -6.606,54.195 m 41.711,59.073 c 4.43,7.136 15.525,20.163 37.627,20.163 15.234,0 22.824,-11.991 26.655,-24.248 -13.354,-7.064 -26.028,-9.952 -37.866,-8.292 -11.026,1.553 -19.887,6.846 -26.416,12.377 m -32.441,-8.131 c 2.152,1.904 5.035,3.837 7.757,5.493 7.816,-9.837 23.829,-25.63 48.097,-29.146 3.264,-0.471 6.547,-0.709 9.861,-0.709 17.12,0 34.923,6.453 53.193,18.982 -5.71,-11.985 -15.721,-27.242 -33.406,-44.173 -8.553,-8.185 -18.176,-11.959 -29.226,-11.575 -27.233,0.972 -54.977,26.361 -63.896,35.259 0.571,5.017 1.238,10.083 2.104,15.252 0.343,1.605 2.153,7.613 5.516,10.617 m 157.448,-333.026 42.562,91.439 c 6.09,1.238 12.142,1.987 18.058,1.987 14.395,0 28.075,-1.059 41.109,-2.869 l -70.926,-89.179 z m 294.791,-0.21 c 0.386,1.134 0.585,2.303 0.545,3.483 -0.001,0.037 0.018,0.069 0.017,0.106 -0.009,0.186 -0.112,0.337 -0.13,0.52 -0.096,0.968 -0.32,1.909 -0.704,2.82 -0.168,0.398 -0.387,0.74 -0.603,1.108 -0.219,0.375 -0.347,0.787 -0.619,1.136 -2.687,3.455 -55.589,70.085 -155.918,94.894 18.489,16.445 29.773,39.932 29.773,64.336 0,37.56 -23.873,62.583 -35.517,72.568 3.524,8.559 5.509,17.616 5.815,26.952 0.882,26.771 -11.974,53.565 -35.277,73.521 -16.82,14.396 -37.687,21.368 -57.556,24.444 -0.096,0.225 -0.083,0.465 -0.198,0.685 -1.281,2.451 -32.186,59.997 -106.892,59.997 -54.581,0 -84.331,-26.077 -96.833,-40.848 -7.621,5.906 -16.492,10 -26.386,11.706 -26.361,4.572 -54.359,-7.82 -74.89,-33.08 -30.876,-37.982 -29.325,-80.764 -27.298,-97.137 -27.612,-17.659 -53.291,-46.7 -53.291,-93.7 0,-30.765 9.597,-59.563 28.545,-85.788 -68.778,-28.48 -113.766,-91.631 -116.172,-95.065 -0.324,-0.462 -0.543,-0.974 -0.78,-1.476 -0.079,-0.167 -0.184,-0.308 -0.254,-0.481 -0.43,-1.063 -0.629,-2.182 -0.67,-3.32 -0.005,-0.124 -0.071,-0.228 -0.071,-0.353 0,-0.138 0.073,-0.252 0.079,-0.389 0.044,-1.11 0.207,-2.219 0.634,-3.278 0.007,-0.017 0.042,-0.099 0.051,-0.12 0.009,-0.022 0.019,-0.044 0.028,-0.066 1.441,-3.53 24.145,-56.569 87.842,-88.115 -38.134,-11.054 -81.932,-21.107 -138.977,-21.107 -5.424,0 -9.819,-4.395 -9.819,-9.818 0,-5.424 4.395,-9.819 9.819,-9.819 73.761,0 125.677,15.947 171.479,30.023 33.238,10.21 61.942,19.031 91.789,19.031 61.88,0 92.916,-31.649 93.399,-32.148 l 20.619,-20.611 c 1.917,-1.918 4.43,-2.876 6.942,-2.876 2.512,0 5.028,0.958 6.946,2.876 3.831,3.836 3.831,10.056 -0.004,13.884 l -4.668,4.666 v 79.313 71.193 c 0,2.661 2.167,4.832 4.833,4.832 2.665,0 4.832,-2.171 4.832,-4.832 v -71.193 -72.02 c 0,-5.423 4.396,-9.819 9.819,-9.819 5.423,0 9.818,4.396 9.818,9.819 v 40.307 c 6.634,-7.072 15.288,-14.574 26.511,-21.399 4.64,-2.807 10.677,-1.35 13.492,3.291 2.816,4.633 1.343,10.67 -3.29,13.493 -24.278,14.759 -34.281,33.214 -36.713,38.361 V 18.75 l 44.442,1.989 21.435,-68.062 c 1.319,-4.188 5.193,-6.865 9.366,-6.865 0.974,0 1.971,0.145 2.953,0.452 5.17,1.626 8.039,7.142 6.413,12.319 l -19.861,63.063 30.47,1.364 35.354,-63.192 c 1.795,-3.214 5.14,-5.024 8.576,-5.024 1.626,0 3.268,0.399 4.786,1.25 4.733,2.647 6.421,8.63 3.775,13.363 l -30.539,54.584 62.442,2.794 44.01,-71.846 c -2.488,-1.125 -4.95,-2.273 -7.505,-3.336 -5.01,-2.079 -7.38,-7.824 -5.301,-12.833 1.573,-3.774 5.224,-6.052 9.075,-6.052 1.25,0 2.531,0.238 3.758,0.751 6.474,2.691 12.661,5.616 18.706,8.638 0.166,0.089 0.347,0.122 0.51,0.222 0.041,0.025 0.06,0.068 0.101,0.094 72.562,36.476 113.831,93.537 115.689,96.151 0.341,0.48 0.513,1.025 0.759,1.544 0.162,0.339 0.367,0.638 0.489,0.996"
             style="fill:#ffffff;fill-opacity:1;fill-rule:nonzero;stroke:none"
             id="path98" />
        </g>
        <g
           id="g100"
           transform="translate(517.4644,299.9736)">
          <path
             d="m 0,0 c -57.711,74.291 -157.507,55.237 -161.726,54.409 -5.32,-1.067 -8.764,-6.244 -7.698,-11.56 1.07,-5.316 6.278,-8.753 11.556,-7.694 0.925,0.169 92.034,17.581 142.362,-47.206 4.322,-5.561 9.281,-10.9 14.732,-15.871 1.882,-1.718 4.253,-2.562 6.612,-2.562 2.665,0 5.323,1.082 7.26,3.207 3.652,4.004 3.363,10.217 -0.64,13.868 C 7.828,-9.19 3.636,-4.679 0,0"
             style="fill:#ffffff;fill-opacity:1;fill-rule:nonzero;stroke:none"
             id="path102" />
        </g>
        <g
           id="g104"
           transform="translate(933.4844,359.8286)">
          <path
             d="m 0,0 -2.669,2.623 c -6.375,6.359 -75.926,75.91 -128.708,128.685 -3.835,3.835 -10.049,3.835 -13.884,0 -3.836,-3.835 -3.836,-10.049 0,-13.884 52.782,-52.79 122.348,-122.341 128.715,-128.693 l 2.816,-2.769 c 10.094,-9.879 36.918,-36.121 37.026,-55.851 0.023,-4.878 -1.657,-8.844 -5.3,-12.487 -5.286,-5.286 -11.131,-7.648 -17.229,-7.748 -13.55,0.15 -26.263,11.756 -28.988,14.404 -5.656,5.9 -11.394,10.997 -15.824,14.914 -1.949,1.725 -3.537,3.122 -4.526,4.103 l -42.443,42.443 -13.883,-13.884 42.441,-42.442 c 1.189,-1.189 3.069,-2.87 5.401,-4.933 9.143,-8.085 30.56,-27.016 30.997,-41.299 0.108,-3.544 -1.219,-6.566 -4.165,-9.519 -4.533,-4.526 -9.166,-6.674 -14.13,-6.383 -10.109,0.461 -20.335,10.218 -23.418,13.93 -0.016,0.019 -0.038,0.025 -0.053,0.043 -2.732,3.601 -5.773,7.235 -9.505,10.965 l -51.064,51.087 -13.884,-13.884 51.064,-51.095 c 8.323,-8.307 13.362,-15.886 14.981,-22.506 1.626,-6.643 -0.246,-12.189 -6.06,-18.003 -9.681,-9.674 -24.101,-2.693 -28.984,0.136 -2.364,4.012 -5.181,7.856 -8.618,11.286 -11.867,11.866 -42.289,46.124 -42.596,46.469 -3.605,4.065 -9.811,4.434 -13.861,0.821 -4.054,-3.598 -4.422,-9.803 -0.82,-13.861 1.265,-1.419 31.112,-35.04 43.393,-47.321 5.063,-5.055 8.507,-11.399 9.45,-17.405 1.013,-6.405 -0.805,-11.828 -5.538,-16.569 -1.964,-1.963 -4.196,-2.662 -7.103,-2.808 -6.589,0.047 -22.099,4.726 -51.874,35.455 -3.766,3.897 -9.983,3.981 -13.88,0.215 -3.897,-3.775 -3.992,-9.987 -0.218,-13.884 26.874,-27.738 48.406,-41.285 65.818,-41.422 h 0.261 c 8.062,0 15.273,2.953 20.88,8.56 7.499,7.499 11.419,16.911 11.485,26.99 3.269,-0.715 6.678,-1.178 10.162,-1.178 8.86,0 18.072,2.769 25.927,10.632 7.747,7.741 11.87,16.576 12.289,25.958 3.389,-1.141 6.931,-2.037 10.731,-2.225 0.591,-0.03 1.181,-0.046 1.764,-0.046 9.911,0 19.315,4.181 27.285,12.158 6.758,6.751 10.179,15.058 9.903,24.002 -0.075,2.462 -0.469,4.9 -1.046,7.316 2.568,-0.497 5.206,-0.819 7.912,-0.857 h 0.606 c 11.506,0 21.884,4.541 30.843,13.5 7.388,7.38 11.108,16.293 11.054,26.48 C 42.78,-41.852 12.802,-12.526 0,0"
             style="fill:#ffffff;fill-opacity:1;fill-rule:nonzero;stroke:none"
             id="path106" />
        </g>
        <g
           id="g108"
           transform="translate(734.3667,207.9629)">
          <path
             d="m 0,0 c -10.62,-26.464 -45.039,-60.246 -61.377,-60.239 -2.072,0 -3.03,0.614 -3.832,1.534 -7.514,8.638 5.04,32.44 30.522,57.884 11.429,11.414 22.698,18.234 30.134,18.234 2.532,0 4.491,-0.79 6.348,-2.57 C 3.245,13.462 3.298,8.223 0,0 m -123.875,-31.144 c -12.292,12.289 10.264,45.872 38.062,73.701 4.172,4.169 9.682,9.673 15.667,14.943 0.252,0.248 0.577,0.379 0.806,0.66 0.031,0.037 0.054,0.072 0.085,0.11 9.872,8.585 20.901,16.335 29.314,16.335 2.93,0 5.246,-1.02 7.513,-3.298 3.624,-3.643 5.304,-7.578 5.289,-12.388 C -27.208,39.688 -53.833,13.301 -65.205,2.033 l -2.746,-2.723 c -1.393,-1.396 -2.9,-2.946 -4.515,-4.603 -10.908,-11.192 -29.16,-29.924 -42.465,-29.924 -3.325,0.008 -6.167,1.297 -8.944,4.073 m -45.15,37.526 c -11.433,11.422 9.945,43.079 36.191,69.367 26.26,26.218 42.365,33.843 52.23,24.722 3.725,-3.442 11.347,-10.566 -3.161,-28.873 -5.383,-4.785 -10.709,-9.932 -15.936,-15.157 -11.85,-11.863 -26.446,-28.24 -36.3,-45.156 -8.229,-6.929 -22.366,-15.561 -33.024,-4.903 m -36.041,40.639 c -5.001,5.002 0.621,16.47 4.422,22.859 7.387,12.427 18.763,24.555 24.88,30.676 l 2.516,2.524 c 8.281,8.337 22.142,22.291 30.538,22.291 1.058,0 2.366,-0.215 4.05,-1.818 1.733,-1.65 2.519,-3.582 2.55,-6.26 0.15,-12.089 -14.513,-32.225 -29.114,-46.822 l -3.498,-3.567 c -7.613,-7.809 -21.781,-22.352 -31.067,-22.345 -1.308,0 -3.091,0.276 -5.277,2.462 M -4.553,37.05 c -3,0 -5.989,-0.549 -8.955,-1.317 3.631,7.567 5.979,15.371 6.006,23.117 0.035,10.087 -3.666,18.939 -11.004,26.311 -5.914,5.937 -13.324,9.082 -21.435,9.082 -5.219,0 -10.446,-1.278 -15.659,-3.448 -0.296,11.189 -6.42,19.239 -11.676,24.098 -15.646,14.462 -33.722,9.734 -49.33,0.067 0.054,0.859 0.144,1.722 0.133,2.571 -0.096,7.947 -3.087,14.95 -8.649,20.243 -4.97,4.733 -11.053,7.234 -17.588,7.234 -16.569,0 -32.041,-15.579 -44.468,-28.091 l -2.466,-2.477 c -6.77,-6.766 -19.399,-20.258 -27.883,-34.526 -14.855,-24.992 -8.971,-39.228 -1.423,-46.776 5.377,-5.378 12.005,-8.216 19.161,-8.216 3.303,0 6.55,0.75 9.752,1.802 -3.529,-12.659 -2.408,-24.699 7.124,-34.226 7.199,-7.203 15.894,-10.77 25.264,-10.762 3.593,0 7.291,0.587 11.035,1.632 -1.42,-10.495 0.782,-20.327 8.855,-28.395 6.516,-6.521 14.195,-9.819 22.824,-9.827 h 0.004 c 9.901,0 19.675,4.56 28.707,10.852 -2.104,-9.951 -0.822,-19.518 6.195,-27.589 4.714,-5.424 11.161,-8.285 18.652,-8.285 h 0.003 c 28.8,0 68.14,44.015 79.596,72.558 8.058,20.082 2.9,30.852 -2.85,36.352 C 9.888,34.28 3,37.05 -4.553,37.05"
             style="fill:#231f20;fill-opacity:1;fill-rule:nonzero;stroke:none"
             id="path110" />
        </g>
        <g
           id="g112"
           transform="translate(673.833,433.6519)">
          <path
             d="m 0,0 c 0,42.818 67.269,91.62 99.601,115.069 7.003,5.086 12.542,9.098 16.247,12.166 22.199,18.371 68.852,29.341 124.811,29.341 43.186,0 78.862,-19.922 101.177,-36.621 27.998,-20.987 116.427,-21.325 126.161,-21.348 5.423,0.016 9.811,4.419 9.795,9.842 -0.015,5.416 -4.41,9.796 -9.818,9.796 -0.399,0.007 -0.621,0 -0.936,0 -35.263,0 -96.437,4.687 -113.428,17.428 -24.707,18.494 -64.357,40.539 -112.951,40.539 -61.29,0 -111.342,-12.334 -137.33,-33.851 C 100.107,139.7 94.531,135.649 88.064,130.963 50.531,103.731 -19.253,53.112 -19.637,0.437 c -0.449,-5.546 -3.64,-53.542 18.041,-77.291 8.223,-9.005 18.771,-13.569 31.343,-13.569 11.062,0 20.002,3.498 26.579,10.402 14.137,14.842 12.861,41.153 11.833,62.294 -0.399,8.23 -0.948,19.499 0.111,21.946 11.444,14.72 36.217,36.505 53.062,36.505 5.423,0 9.819,4.395 9.819,9.818 0,5.424 -4.396,9.819 -9.819,9.819 -28.136,0 -59.034,-31.826 -68.561,-44.084 -5.577,-7.156 -5.009,-18.816 -4.227,-34.955 0.802,-16.477 1.895,-39.052 -6.436,-47.797 -1.764,-1.849 -4.962,-4.311 -12.361,-4.311 -7.011,0 -12.357,2.278 -16.826,7.157 -13.872,15.165 -14.06,50.435 -12.96,62.747 C -0.015,-0.591 0,-0.292 0,0"
             style="fill:#231f20;fill-opacity:1;fill-rule:nonzero;stroke:none"
             id="path114" />
        </g>
      </g>
    </g>
  </g>
</svg>
