<?xml version="1.0" encoding="UTF-8"?>
<svg width="256" height="256" version="1.0" xmlns="http://www.w3.org/2000/svg">
 <defs>
  <clipPath id="circleClip">
   <circle cx="128" cy="128" r="128" opacity=".5"/>
  </clipPath>
 </defs>
 <g transform="matrix(.76562 0 0 .76562 32 32)" clip-path="url(#circleClip)">
  <rect width="256" height="256" ry="0" fill="#21a4df"/>
  <path d="m118.62 248.4c-0.6464-0.0973-1.2006-0.41216-1.2403-0.68736-0.0346-0.2816-0.0806-0.70656-0.1088-0.94976-0.0691-0.59392-3.0592-3.2128-5.0214-4.4006-0.99072-0.59392-1.7843-1.5066-2.1094-2.4192-0.29312-0.80639-0.68736-1.4682-0.87552-1.4682-0.18432 0-0.33408-0.2752-0.33408-0.61312 0-0.34176-0.40576-0.89729-0.89984-1.2506-0.49024-0.34176-0.77184-0.83072-0.61568-1.0816 0.17536-0.2816 0.0282-0.35584-0.38144-0.20352-0.48384 0.19072-0.6592-0.0256-0.6592-0.77696 0-0.65024-0.73472-1.7971-1.9661-3.0912-2.0314-2.1082-2.903-4.7002-1.984-5.8688 0.23424-0.29312 0.54656-1.056 0.70272-1.696 0.1536-0.63744 0.85376-1.5872 1.5501-2.1069 1.513-1.1162 1.5565-1.5283 0.37504-3.529-0.49408-0.83712-0.78464-1.8086-0.64384-2.1747 0.13696-0.35584-0.54016-2.281-1.5091-4.2624-1.3069-2.6931-2.3654-4.169-4.1498-5.7997-2.153-1.9622-4.3123-4.9318-4.3123-5.9341 0-0.20352 0.29056-0.38144 0.64-0.38144 0.43393 0 0.64385-0.44416 0.65281-1.3811 9e-3 -0.76288 0.29312-1.7562 0.64-2.2131 1.1123-1.4746 0.45568-4.4979-0.72448-3.3254-0.29056 0.29568-0.77441 0.5312-1.0842 0.5312-0.78464 0-0.68736-1.2506 0.12544-1.5603 1.2339-0.47488-0.30336-0.98432-3.0182-0.99584-1.4067-6e-3 -2.7725-0.15616-3.0349-0.32512-0.2624-0.1792-0.98432-1.312-1.5936-2.5293-0.97536-1.9341-1.3286-2.2566-2.7251-2.519-2.144-0.40193-4.7744-0.39681-8.6285 0.0166-2.9965 0.32512-3.3344 0.27136-5.3286-0.79745-1.6499-0.88064-2.953-1.1942-5.7536-1.3773-4.1472-0.27904-4.4941-0.49792-8.2189-5.2506-1.1968-1.5219-3.0502-3.5725-4.1152-4.5619-1.2723-1.1814-1.7779-1.9098-1.4656-2.1312 0.76288-0.5312 0.18432-2.8851-1.0496-4.2726-0.62208-0.70016-1.3747-1.6307-1.6691-2.0685-0.29696-0.44672-0.928-1.3837-1.4029-2.0813-0.64-0.94976-0.7808-1.6064-0.55296-2.5562 0.17152-0.70656 0.32768-2.2336 0.33792-3.4061 0.0154-1.3594 0.2688-2.3565 0.70016-2.7686 0.89728-0.84992 1.7779-2.9811 1.2339-2.9811-0.22784 0-0.416-0.57472-0.416-1.2813 0-0.70016 0.16512-1.2749 0.36864-1.2749s0.34688 0.33535 0.32128 0.74367c-0.1152 1.6755 0.73472 1.0317 0.89088-0.67711 0.1152-1.2352 0.0218-1.76-0.27776-1.5693-0.56832 0.34688-0.57472 0.44032 0.18688-3.1808 0.5184-2.473 0.97792-3.4291 2.4538-5.1418 0.99712-1.1584 2.1466-2.2093 2.5562-2.3398 0.41216-0.13184 0.74368-0.5184 0.74368-0.86911 0-1.1315 1.2941-2.6227 2.487-2.8595 0.66304-0.13312 1.4285-0.70912 1.7562-1.3184 0.45312-0.84352 0.80256-1.0278 1.5744-0.83712 0.61568 0.16 1.0035 0.0666 1.0035-0.23808 0-0.2688 0.23808-0.45312 0.5312-0.40192 0.29312 0.0461 0.82176-0.0371 1.1725-0.18688 0.34944-0.1472 1.1405-0.448 1.7498-0.672 0.85632-0.31232 1.1725-0.7872 1.3786-2.0442 0.35968-2.2656 2.9184-4.8691 5.44-5.5373 2.391-0.63104 4.1754-2.8403 3.881-4.8154-0.128-0.88448-0.42752-1.2787-0.96896-1.2787-0.42752 0-0.89344-0.19328-1.0381-0.42496-0.1472-0.23424-0.63488-0.42752-1.0931-0.42752-0.98176 0-1.0189-0.34432-0.17152-1.472 0.40064-0.52864 0.5376-1.3069 0.38144-2.1376-0.19328-1.0406 0.0218-1.6499 1.056-2.9504 1.353-1.6998 2.1594-3.8963 2.1658-5.8816 3e-3 -0.99328 0.2496-1.2224 1.7498-1.6282 1.4502-0.38784 1.8714-0.35584 2.4806 0.19712 0.40576 0.36608 1.0214 0.6656 1.3658 0.6656 0.34688 0 0.81536 0.19328 1.047 0.4224 0.22784 0.22784 1.3722 0.70912 2.5344 1.0624 2.0314 0.61824 2.1504 0.60928 2.8506-0.23168 0.4032-0.48384 0.85888-1.5411 1.0061-2.3437 0.32128-1.7062-0.10624-4.4403-0.69376-4.4403-0.22144 0-0.40576-0.26624-0.40576-0.59648 0-0.32768-0.288-0.70272-0.64-0.84096-0.37248-0.14336-0.63744-0.7808-0.63744-1.5347 0-1.2186 0.0934-1.2902 1.6691-1.2902 0.9216 0 1.7779 0.24064 1.9162 0.53376 0.1344 0.29312 0.12544 0.0691-0.0154-0.49024-0.20352-0.8064-0.1152-0.96896 0.4032-0.76928 0.36224 0.1408 0.73728 0.0256 0.84096-0.256 0.1216-0.34944 0.45056-0.27136 1.047 0.2624 0.8256 0.73088 0.9536 0.73472 2.5126 0.0499l1.6435-0.72448-1.4938-0.37248c-0.81921-0.20352-2.9286-0.44416-4.6874-0.5376-1.76-0.087-3.5341-0.18432-3.9411-0.20608-1.1558-0.0691-0.87808-0.75904 0.4224-1.0496 0.6464-0.14336 1.5565-0.55936 2.0275-0.9216 0.6912-0.5376 0.73728-0.72832 0.256-1.0278-0.78464-0.48128-0.27776-1.728 0.70656-1.728 0.56832 0 0.77184-0.31615 0.75904-1.1686-0.0128-1.0278 0.13184-1.1558 1.1533-1.047 1.0381 0.10624 1.1661-0.0154 1.1251-1.0662-0.0282-0.72448-0.12544-0.89728-0.2432-0.44672-0.10624 0.41216-0.48768 0.74368-0.84736 0.74368-0.4032 0-0.56192-0.24064-0.416-0.63104 0.20352-0.52864 0.10624-0.54656-0.59392-0.1088-0.45952 0.29056-0.83712 0.92544-0.83712 1.4182 0 0.49024-0.33408 1.1878-0.74624 1.5462-0.86272 0.75263-4.4096 1.3619-5.6499 0.96895-1.2685-0.4032-1.1187-2.2374 0.23168-2.8557 0.64384-0.29056 0.99328-0.72832 0.85888-1.0752-0.33408-0.86912 1.0496-2.7558 1.8099-2.4691 0.34688 0.13696 0.98688-0.0691 1.4131-0.45952 0.45056-0.40576 1.2032-0.61568 1.7971-0.50304 0.6848 0.13184 1.184-0.0691 1.513-0.58752 0.30336-0.48384 0.32512-0.7808 0.0589-0.7808-0.75648 0-0.46208-0.84992 0.31872-0.89984 0.70912-0.0499 0.70912-0.0589 0-0.2432-1.0035-0.2624-0.9408-0.73088 0.25984-2.0275 1.0317-1.1162 2.4026-1.4592 2.4026-0.60672 0 0.33792 0.18432 0.32768 0.61825-0.0371 0.34048-0.2816 0.83456-0.384 1.0931-0.22144 0.256 0.16 0.84992-0.0499 1.3069-0.46592 0.6656-0.60287 0.9408-0.64639 1.3568-0.22527 0.41856 0.41855 0.23424 0.78719-0.86528 1.7779-1.1968 1.0778-1.2723 1.2506-0.53376 1.2506 1.1315 0 1.1315 1.3286 0 2.3462-0.98688 0.89344-0.87552 2.3411 0.47488 6.0787 0.92544 2.5779 1.0714 5.4682 0.27776 5.7472-0.29312 0.10624-0.40576 0.32768-0.25344 0.49408 0.47488 0.51584 2.7213-0.9088 3.9309-2.5037 1.047-1.3722 1.353-1.5155 3.241-1.5155 2.3002 0 2.3718-0.0909 2.7776-3.3626 0.31872-2.537 0.67456-3.0464 2.5907-3.703 1.2723-0.44032 1.7152-0.45056 1.9686-0.0538 0.19072 0.29952 0.33152-0.0627 0.33152-0.86912 9e-3 -1.5283-0.60032-1.769-1.9341-0.75648-0.45568 0.34432-1.4029 0.63104-2.1094 0.63744-1.8995 0.0192-2.4781-1.1904-2.112-4.4032 0.3968-3.4496 1.0662-4.64 3.1526-5.5782 0.95616-0.43136 1.7344-0.9344 1.7344-1.1162 0-0.18688 0.67456-0.58112 1.5002-0.87552 1.0099-0.36608 1.9968-1.2621 3.0157-2.7443 0.83712-1.2096 1.9814-2.4474 2.5498-2.7469 0.56576-0.30976 0.9536-0.63104 0.85632-0.73088-0.0973-0.0973-0.59392 0.0499-1.1034 0.32128-0.50944 0.27136-1.0278 0.39424-1.1533 0.2688-0.33792-0.34048 2.4307-2.7776 4.215-3.703 0.86272-0.44672 1.6845-1.0061 1.8342-1.2442 0.1472-0.24064 0.83072-0.43776 1.5219-0.43776 0.68736 0 1.2531-0.1536 1.2531-0.33792 0-0.50304 2.5434-1.2685 4.3251-1.303 1.088-0.0218 1.8918 0.28416 2.6854 1.0214 0.62464 0.57856 1.4131 1.047 1.7498 1.047 0.34048 0 0.61824 0.19328 0.61824 0.42752s0.3776 0.42496 0.84352 0.42496c1.5091 0 6.3066 2.2182 6.8006 3.1462 0.27776 0.50943 0.94592 0.92543 1.5629 0.96255 0.99328 0.0589 1.0214 6e-3 0.40832-0.672-0.3648-0.40575-0.6656-1.056-0.6656-1.4464 0-0.39424-0.19712-0.71552-0.4288-0.71552-0.23424 0-0.42752-0.30592-0.42752-0.6848 0-0.52864 0.31872-0.64384 1.3875-0.48768 0.75904 0.10368 1.719 0.33408 2.1248 0.512 0.54656 0.23808 1.1405-0.13184 2.3002-1.4157 1.0086-1.1277 2.0646-1.8342 2.9901-2.0096 2.7354-0.50944 1.1354-2.3066-1.769-1.9814-1.1405 0.128-2.2438-0.041-3.0963-0.48384-1.1226-0.57856-1.3658-0.99328-1.5808-2.7098-0.1408-1.1123-0.36608-2.5037-0.49792-3.0874-0.5184-2.3411-0.28416-3.5341 0.86016-4.3661 0.61441-0.45056 1.1251-1.1034 1.1251-1.4528 0-0.3776 0.30208-0.57472 0.74368-0.48384 0.58368 0.1152 0.70912 0.47488 0.58112 1.6307-0.0934 0.8128-0.18688 2.8838-0.20352 4.6093-0.0333 2.7622 0.0755 3.2282 0.92544 3.9155 1.2685 1.0253 4.9818 1.7216 7.1194 1.3338l1.7062-0.31232-1.175-1.0189c-0.64384-0.56576-1.1686-1.4067-1.1686-1.8752s-0.2688-1.1494-0.59392-1.5219c-0.32768-0.36865-0.73088-1.3222-0.89984-2.1158-0.29312-1.385-0.2624-1.4285 0.77824-1.1686 0.94336 0.23424 1.0995 0.1216 1.2186-0.89344l0.13312-1.1686 0.95616 1.0342c0.77824 0.83456 0.96 0.89728 0.96 0.31232 0-0.39424-0.20992-0.71936-0.47232-0.71936-0.27776 0-0.39424-0.44416-0.27136-1.0662 0.1088-0.58496 0.0525-1.0662-0.12928-1.0662-0.18432 0-0.45312-0.8128-0.60288-1.8099-0.54784-3.6058-0.71296-4.0653-1.5309-4.2816-1.1686-0.30592-1.0624-1.5693 0.13184-1.5872 0.93184-0.01536 0.93312-0.02816 0.1024-0.49408-0.46464-0.26624-0.99328-0.69376-1.1622-0.9472-0.21504-0.32128-0.31488-0.32512-0.32128-9e-3 -6e-3 0.2496-1.2352 0.70016-2.7315 0.99712-2.8723 0.57216-3.7939 0.37504-4.9792-1.0714-0.55936-0.67456-0.49024-0.71296 0.84993-0.45056 1.0099 0.20352 1.769 0.08448 2.4909-0.38784 0.61824-0.40576 1.4438-0.57856 2.0621-0.4224 0.60928 0.1536 1.0253 0.06912 1.0253-0.19968 0-0.30336 0.64-0.36608 1.856-0.18432 1.4771 0.21888 1.9085 0.1408 2.1184-0.3968 0.32128-0.84352 1.5898-0.85888 4.2253-0.05888 1.9648 0.60032 2.025 0.59008 2.025-0.27776 0-0.49024 0.33408-1.1405 0.74624-1.4566 0.6784-0.51584 0.64384-0.56832-0.40064-0.58112-1.3619-0.01536-1.6691-0.3904-1.3402-1.6474 0.19584-0.74624 0.56832-0.93184 2.0019-0.95616 0.96896-0.02176 1.5219-0.13184 1.2314-0.2496-0.29568-0.11904-0.53376-0.47872-0.53376-0.8064 0-1.5373-4.375-2.7558-5.8598-1.6346-1.5091 1.1443-4.3686 0.42496-4.3686-1.0995 0-0.45056-0.18944-0.93184-0.42496-1.0752-0.76544-0.47232-0.45056-1.4912 0.46848-1.4912 0.53504 0 0.98176 0.34048 1.1162 0.84992 0.1216 0.46592 0.42496 0.85376 0.67072 0.85376 0.24704 0 0.79744 0.31872 1.2186 0.70016 0.71936 0.6464 0.7936 0.6464 1.0406 0 0.14592-0.38144 0.53376-0.70016 0.86272-0.70016 0.70656 0 0.78336-0.68096 0.13184-1.088-0.256-0.15616-0.36864-0.64-0.256-1.0714 0.14592-0.56192-0.21248-1.0342-1.2442-1.6435-1.4566-0.85888-1.9034-1.7152-0.91648-1.7536 0.86912-0.03456-3.1654-1.9776-4.7898-2.3155-0.82304-0.16896-3.6032-1.3248-6.1811-2.569-2.5818-1.2442-5.1226-2.3872-5.6499-2.5434-1.079-0.31616-1.3005-1.0752-0.32256-1.0752 0.34944 0 0.64128-0.19328 0.64128-0.42496 0-0.23424 0.288-0.42496 0.63744-0.42496 0.352 0 0.63744 0.19072 0.63744 0.42496 0 0.23168 0.52736 0.42752 1.175 0.42752 0.64 0.0026 1.7459 0.30592 2.4499 0.6784 1.719 0.90368 5.7523 1.3338 5.7523 0.61312 0-0.33408 0.2816-0.42496 0.74752-0.2432 0.40832 0.15616 2.9504 0.75264 5.6461 1.3312 2.6931 0.57216 5.2851 1.2224 5.7536 1.44 2.0966 0.98432 4.2189 1.7152 4.9754 1.7152 0.45312 0 1.3901 0.29312 2.0774 0.65024 1.1315 0.58496 1.2557 0.58496 1.2557 0 0-0.35584 0.19712-0.65024 0.43137-0.65024 0.23168 0 0.42496 0.29056 0.42496 0.63744 0 0.34944 0.33536 0.64 0.75008 0.64 0.416 0 1.8035 0.40064 3.0912 0.89088 1.2838 0.48768 3.0182 1.0317 3.8528 1.2058 1.7062 0.34944 5.9418 2.537 5.9418 3.072 0 0.48384-4.8563-0.59392-8.7347-1.9405-0.46848-0.16512-0.13312 0.14336 0.74112 0.6848s1.5962 1.2275 1.5962 1.5219c4e-3 0.29056 0.20352 0.5312 0.4416 0.5312s1.2506 0.74112 2.2374 1.6538c0.98944 0.91264 3.8144 2.8557 6.2771 4.3162 2.4627 1.463 5.0752 3.2282 5.8125 3.9219 0.84352 0.79744 1.4438 1.0906 1.623 0.8 0.41472-0.672-0.11264-1.3184-0.84352-1.0381-0.59136 0.22528-0.6912 0.06912-0.7936-1.2378-0.023-0.29312-0.33536-0.75648-0.68096-1.0278-1.2787-0.99712-0.0282-1.0189 2.8314-0.06272 2.9773 0.99968 3.8592 1.6 3.0746 2.0813-0.25984 0.16512-0.1472 0.384 0.2752 0.5504 0.39424 0.14976 0.896 0.16 1.1187 0.02176 0.22528-0.1408 0.67072-0.03456 0.99968 0.23424 0.32768 0.2752 1.184 0.50944 1.9059 0.52864 0.95232 0.03072 1.2813 0.22528 1.2006 0.72192-0.0691 0.44416 0.20864 0.6848 0.81536 0.69376 1.1059 0.01536 5.2557 3.3907 5.2557 4.2714 0 0.86528-0.59136 0.75904-1.5309-0.27776-0.44416-0.49024-1.1904-1.0752-1.6627-1.3005-1.0086-0.48128 1.472 1.8125 5.2006 4.8026 1.527 1.225 3.1936 3.0592 3.9347 4.3379 1.3338 2.2784 6.4678 7.7811 9.0176 9.6627l1.4413 1.0662-1.6-2.1875c-1.6666-2.281-1.8534-2.7123-1.2006-2.7123 0.56192 0 7.8899 9.7562 7.5648 10.075-0.14976 0.1472-0.56192 0.0256-0.91904-0.27136-0.9088-0.75648-0.8064-0.32128 0.20352 0.84352 0.83968 0.97536 1.0957 1.7037 0.59392 1.7037-0.14336 0-1.248-1.0534-2.4563-2.3411-1.2096-1.2838-2.3744-2.3411-2.5856-2.3411-0.21248 0-0.76544-0.33408-1.2275-0.74368-0.82816-0.73472-0.82816-0.73088-0.12928 0.63744 0.46208 0.89728 0.5376 1.3811 0.22528 1.3811-0.26496 0-0.36864 0.30336-0.23168 0.66304 0.1664 0.43136 0.0845 0.55936-0.22784 0.35968-0.98176-0.60032 0.11264 0.6592 1.303 1.5027l1.2058 0.86272-0.14592-1.2685c-0.23552-2.0314 0.57472-1.4682 2.0122 1.4003 1.7126 3.4189 2.121 3.9309 2.5459 3.241 0.22912-0.36608 0.9664 0.17152 2.3846 1.737 2.313 2.5434 3.4253 4.1997 5.3312 7.9066 0.72448 1.4029 1.719 2.9722 2.2144 3.4778 1.5002 1.5283 1.9917 2.2246 2.6317 3.7619 0.8128 1.9341 0.8 2.9338-0.0371 2.6125-0.50048-0.19328-0.56192-0.0806-0.25216 0.48768 0.56192 1.0598 2.1837 8.96 2.1837 10.643 0 0.78464 0.416 2.3245 0.92544 3.4253 1.0355 2.2438 1.591 6.4691 0.84992 6.4691-0.25216 0-0.67456-0.8128-0.93184-1.8099-0.76544-2.9619-0.91264-3.3754-1.1187-3.1629-0.1088 0.1088 0.0794 1.687 0.4288 3.5162 0.57472 3.0374 0.78336 3.4662 2.4998 5.0534 2.4064 2.2221 3.1373 4.8192 3.5187 12.488 0.2432 4.9562 0.19968 5.6435-0.39168 5.6435-0.3648 0-0.66816-0.28799-0.66816-0.63743 0-0.35328-0.288-0.64-0.6336-0.64-0.34944 0-0.63744-0.288-0.63744-0.63488 0-0.95616-0.75392-0.77184-1.0816 0.25984-0.34944 1.1034 0.15616 5.4912 0.63104 5.4912 0.19328 0 0.47104 0.8192 0.6208 1.815 0.19712 1.2838 0.544 1.9469 1.1814 2.2374 1.8918 0.86912 2.8685 8.713 1.8854 15.104-0.34432 2.2182-0.83072 4.1024-1.0816 4.1894-0.2496 0.0794-0.45568 0.42496-0.45568 0.75008 0 0.33536-0.19328 0.60672-0.4288 0.60672-0.23424 0-0.42496-0.29056-0.42496-0.64384 0-0.8064-1.7587-4.631-2.2182-4.8256-0.55937-0.23424-0.38401-1.0061 0.34688-1.5398 0.60672-0.44416 0.55936-0.58496-0.4288-1.2288-1.4131-0.928-1.4336-2.3872-0.0627-3.6749 0.88449-0.83072 1.1622-0.89984 1.7165-0.44416 0.3648 0.30336 0.7808 0.43136 0.93184 0.2816 0.43136-0.43392-1.1878-5.8125-1.7498-5.8125-0.29312 0-0.82816-1.4144-1.2506-3.2998-1.2723-5.7024-1.6346-7.0656-2.5498-9.6896l-0.89984-2.5562-0.43776 2.3091c-0.4224 2.1965-1.3094 3.3152-1.6666 2.0941-0.0896-0.31232-0.38784-1.385-0.65664-2.3782-0.27136-0.99712-0.6528-1.8099-0.84608-1.8099-0.19968 0-1.0918-0.672-1.9878-1.4912-0.89344-0.8256-1.7344-1.4912-1.8624-1.4848-0.45056 0.0128-3.0067 6.0531-3.0067 7.0963 0 0.57215-0.2688 1.9379-0.59392 3.04-0.70656 2.3846-1.6166 7.5597-1.5731 8.9562 0.0166 0.54784-0.43136 1.9533-0.99328 3.1309-0.94592 1.9789-0.98176 2.2477-0.41472 3.5917 0.33152 0.80256 0.6272 2.3629 0.65024 3.4714 0.0525 2.4064 0.65664 4.6541 1.3773 5.0995 1.0662 0.65664 2.3974 3.0502 2.3974 4.3098 0 1.6192-0.76032 3.3395-1.623 3.6685-0.86912 0.33408-1.2877-0.416-1.6269-2.8915-0.30592-2.2592-0.84992-2.1811-1.6307 0.23808-0.34432 1.056-0.6912 1.3875-1.4784 1.3875-0.81536 0-1.2813-0.48384-2.24-2.3437-0.66688-1.2838-1.4003-2.4064-1.6371-2.4806-0.23808-0.0806-0.89984-1.1341-1.4746-2.3437-0.57472-1.2083-1.513-2.6931-2.0749-3.296-0.56192-0.60032-1.1533-1.513-1.3184-2.0224-0.16256-0.50816-0.49024-0.928-0.73472-0.928-0.24192 0-0.34304-0.2624-0.2176-0.58752s-0.23552-1.2723-0.80768-2.1069c-0.56704-0.83456-1.0278-1.7101-1.0278-1.9443 0-0.23808-0.6976-0.33792-1.6128-0.22912-1.0816 0.13184-2.153-0.0832-3.2806-0.66304-0.92544-0.47104-1.9315-0.85888-2.231-0.85888s-0.5504-0.27264-0.5504-0.60416c0-0.33407-0.58752-0.73343-1.3069-0.88959-0.71936-0.16-1.4093-0.56192-1.5373-0.89728-0.13184-0.33408-0.61824-0.81921-1.088-1.065-0.67072-0.35584-1.0995-0.28544-1.975 0.352-0.6144 0.44417-1.7958 1.0816-2.6125 1.4067-0.82176 0.33536-1.865 0.94335-2.3245 1.3722-0.46208 0.42112-1.0342 0.69376-1.2774 0.60672-0.24704-0.0845-1.3094 0.096-2.3603 0.41216-2.3872 0.71936-4.7834 0.74368-5.4566 0.0717-0.75008-0.74624-0.67712 0.66304 0.11264 2.185 0.71936 1.3939 1.6 1.8342 2.9606 1.4938 0.59008-0.14976 1.5718 0.1216 2.5626 0.70656 1.4963 0.87808 1.5872 1.0458 1.3338 2.4755-0.14592 0.84352-0.37504 2.2502-0.50816 3.1309-0.1472 0.96896-0.47488 1.5962-0.83712 1.5962-0.40064 0-0.59776 0.5184-0.59776 1.6038 0 1.1379-0.24064 1.7523-0.84992 2.1338-0.46848 0.29184-0.85632 0.93184-0.85632 1.4157 0 0.5376-0.34432 0.98176-0.87168 1.1187-0.52864 0.13696-0.96896 0.70016-1.1123 1.4144-0.1472 0.74112-0.58496 1.2749-1.1469 1.4221-1.4182 0.36224-4.0371 2.7277-4.1869 3.7837-0.0832 0.59136-0.94336 1.4784-2.2656 2.3437-1.1725 0.76928-2.5869 1.8163-3.1373 2.3283-1.2749 1.1776-5.225 3.7312-5.7754 3.7312-0.23168 0-0.93696 0.49664-1.5731 1.1059-0.70272 0.67712-1.696 1.1315-2.5459 1.1712-1.2506 0.0602-1.4938-0.13184-2.3603-1.8496-1.2058-2.4-1.5155-3.296-1.6627-4.8589-0.0806-0.86656-0.77184-1.8381-2.2656-3.1974-1.1814-1.0778-2.2566-2.3501-2.3936-2.8403-0.1344-0.48769-0.86912-1.1533-1.6256-1.4912-1.0726-0.47104-1.513-1.0342-1.9661-2.5216-0.98176-3.2166-1.8432-4.6938-2.912-4.96-0.55296-0.14336-1.2941-0.8064-1.6435-1.4835-0.352-0.67456-0.8-1.2288-1.0022-1.2288-0.19968 0-0.48512-0.43136-0.62848-0.95616-0.45568-1.6371-2.9683-4.2317-3.7939-3.9155-0.40064 0.15232-0.72704 0.56832-0.72704 0.92544 0 0.8192 2.2093 4.7002 3.3997 5.975 0.49664 0.52736 0.79616 1.1341 0.6656 1.3466-0.31232 0.50688 0.1792 1.737 0.6976 1.737 1.1968 0 2.7341 2.5997 3.1437 5.3248 0.22528 1.5168 0.55296 2.0787 1.5245 2.6534 0.68096 0.40191 1.6563 1.6 2.1594 2.6586 0.50688 1.056 1.129 2.0685 1.3811 2.2374 0.30592 0.21248 0.288 0.31616-0.0691 0.31872-0.28416 4e-3 -0.40576 0.29696-0.27136 0.64768 0.32512 0.83968 1.0061 0.8192 1.0061-0.0307 0-0.448 0.31232-0.62464 0.95616-0.5312 0.63104 0.087 0.95872 0.42752 0.95872 0.98944 0 0.5248 0.68736 1.3094 1.8035 2.0595 2.6995 1.7997 4.1997 3.3434 4.5248 4.6374 0.46464 1.888 1.687 2.24 4.0269 1.1814 1.1034-0.50048 2.2912-1.0918 2.6406-1.3069 0.34944-0.21888 0.928-0.51584 1.2749-0.65664 2.7712-1.1034 5.3901-2.4794 5.6717-2.9786 0.18688-0.32768 0.7168-0.59648 1.1725-0.59648 0.6208 0 0.83072 0.29312 0.83072 1.1904 0 0.65664 0.23808 1.4374 0.5312 1.7318 0.42752 0.43136 0.3904 0.61824-0.19712 0.94976-0.40064 0.22528-0.62464 0.67456-0.50048 0.99967 0.12288 0.32256-0.19584 1.4042-0.70912 2.4102-0.50944 0.99968-1.3939 3.0464-1.9533 4.5504-1.6064 4.265-3.6685 7.0835-9.2582 12.646-7.7248 7.6979-11.791 12.581-10.476 12.581 0.6656 0 0.45056 1.6307-0.23552 1.7818-0.5568 0.11904-0.56192 0.2816-0.0371 1.2877 0.6848 1.312 0.65664 2.1005-0.1088 3.0246-0.71936 0.86271-0.20992 2.7187 0.81536 2.9811 0.73088 0.19328 0.81024 0.60416 0.75008 3.9808l-0.0691 3.7683-1.7562 1.6998c-0.99584 0.96895-2.7123 2.0442-3.9565 2.487-1.2122 0.42496-2.4397 1.0624-2.7315 1.4106-0.29312 0.34944-1.2685 1.0125-2.1773 1.4746-1.8125 0.93184-2.3667 1.8022-1.6666 2.6432 0.54144 0.65664 0.1728 3.5123-0.5248 4.0653-0.2624 0.20352-1.4592 0.69376-2.656 1.0816-1.8317 0.60031-2.2963 0.97535-2.912 2.3309-0.73088 1.6256-0.87168 1.7318-6.7648 4.8435-3.6096 1.9098-5.9853 2.3693-13.285 2.5792-3.7555 0.10496-7.3523 0.1088-7.9962 3e-3zm33.428-29.053c-0.35328-0.89344-0.84352 1.5411-0.5504 2.7315 0.16512 0.65664 0.2816 0.5248 0.51456-0.60032 0.16768-0.8 0.18176-1.7587 0.0358-2.1312zm-9.0291-5.9507c0-0.20607-0.3968-0.48127-0.87808-0.60671-0.71936-0.18688-0.78464-0.11904-0.37248 0.37504 0.5632 0.67967 1.2506 0.80639 1.2506 0.23167zm6.144-9.8432c0.87296 0 2.0813-1.6064 1.7869-2.3744-0.19968-0.5248-0.56192-0.6208-1.4336-0.40576-0.64128 0.15616-1.2352 0.46592-1.3069 0.68096-0.0806 0.21888-0.39424 0.39424-0.704 0.39424-0.30208 0-0.6336 0.57216-0.73345 1.2659-0.1536 1.015-0.023 1.2774 0.69633 1.3811 0.48512 0.0691 0.94336-0.11264 1.0189-0.40576 0.0742-0.29568 0.38272-0.53632 0.67584-0.53632zm103.36-56.806c-0.40576-0.37504-0.46592-0.30592-0.2496 0.29696 0.14976 0.42752 0.29952 1.1021 0.33152 1.4899 0.0371 0.39167 0.14592 0.25599 0.2496-0.29568 0.10624-0.55424-0.0474-1.225-0.33152-1.4912zm-0.4032-1.3376c0-0.81536-0.26496-0.81536-0.57728 0-0.13696 0.35328-0.0666 0.64128 0.16512 0.64128 0.22784 0 0.41216-0.288 0.41216-0.64128zm-66.478-3.1373c6e-3 -0.60032 0.0666-0.60928 0.40576-0.0627 0.53504 0.84352 0.9408 0.39168 2.5562-2.8685 0.72448-1.4682 1.5066-2.6624 1.7318-2.6624s0.4096-0.23808 0.40064-0.5312c-9e-3 -0.29568-0.49664 0.0192-1.0931 0.69376-1.3594 1.5411-4.0691 1.9725-6.0403 0.9536-0.72832-0.37504-1.6192-0.56832-1.9789-0.43136-0.63744 0.24064-3.6621-2.4806-3.6621-3.2973 0-0.20224-0.20224-0.36864-0.45312-0.36864s-0.33152-0.18945-0.18688-0.42497c0.14336-0.23424 0.0589-0.42496-0.19072-0.42496-0.24576 0-0.45568 0.4288-0.45824 0.95617-6e-3 0.7744-0.0845 0.83712-0.41856 0.31872-0.35584-0.55041-0.416-0.54401-0.4224 0.073-3e-3 0.3904-0.2432 0.81536-0.5376 0.94336-0.3648 0.15616-0.23168 0.45312 0.4288 0.93695 0.5248 0.38784 0.95616 0.96512 0.95616 1.2813 0 0.32128 0.2688 0.46848 0.60928 0.33792 0.35968-0.1408 0.91264 0.2496 1.3786 0.97152 0.42496 0.66304 1.0586 1.4605 1.4144 1.7728 0.35328 0.30848 0.43776 0.46208 0.1856 0.33408-0.25344-0.1216-0.46592 0.023-0.46592 0.32896 0 0.29952 0.2752 0.54656 0.60416 0.54656 0.40576 0 0.54016-0.33408 0.41472-1.0022-0.16512-0.86016-0.0627-0.96256 0.7104-0.72832 1.152 0.34944 1.0778 0.2624 1.5206 1.7933 0.25984 0.91264 0.21888 1.3747-0.1216 1.5219-0.34944 0.14336-0.32256 0.32512 0.10624 0.6208 0.77312 0.52736 2.5933-0.57856 2.6061-1.5821zm-65.212-6.4461c0.18688-1.6691 0.40064-2.0096 1.7037-2.6598 1.9341-0.96256 3.6339-0.94592 4.6285 0.0499 0.43776 0.43777 1.5373 0.93441 2.4538 1.1034 0.9088 0.17152 1.8458 0.46208 2.0813 0.6464 0.23424 0.18688 1.0957 0.44416 1.9187 0.57856 0.8192 0.13184 2.4525 0.41855 3.6211 0.63999 1.8227 0.33792 2.304 0.2816 3.273-0.40832 1.1878-0.84735 3.319-1.0496 5.9123-0.57855 1.9622 0.35968 2.2246 0.0128 3.3498-4.5082 1.1085-4.4557 0.83712-6.9094-0.7936-7.1411-0.58112-0.0806-1.1558 0.128-1.3683 0.50048-0.55041 0.97792-2.8288 1.3402-3.6915 0.58752-1.1315-0.99328-2.6317-1.3286-2.6317-0.59008 0 1.225-2.2374 1.5194-3.3254 0.43392-0.65664-0.65664-0.72448-0.63744-0.93952 0.288-0.23552 1.0099-1.2749 1.7216-1.2749 0.87808 0-0.256-0.39808-0.86272-0.88448-1.3466-0.48384-0.48384-0.77184-1.1686-0.64-1.5219 0.18176-0.47232 0.0307-0.56576-0.60672-0.35968-0.60672 0.19328-0.84736 0.0717-0.84736-0.42496 0-0.3776 0.19072-0.57472 0.42496-0.43136 0.23168 0.14336 0.42496 0.0627 0.42496-0.18688 0-0.2496-0.29312-0.45312-0.6592-0.45312-0.512 0-0.63488-0.42752-0.56064-1.9098 0.0563-1.0496-0.0307-2.0403-0.19328-2.2003-0.16512-0.16512-0.29568-0.0691-0.29568 0.20352 0 0.27264-0.288 0.49408-0.63488 0.49408-0.34944 0-0.63744-0.28416-0.63744-0.63744 0-0.34688 0.19072-0.63744 0.42496-0.63744 0.23552 0 0.42496-0.31872 0.42496-0.70656 0-0.56192-0.16256-0.50944-0.83712 0.26624-0.46848 0.5312-1.44 1.0906-2.1722 1.2403l-1.3286 0.27136 1.1059 1.1904c0.62464 0.67456 1.3184 1.0598 1.5974 0.89088 0.2688-0.16896 0.3776-0.1216 0.24064 0.0973-0.13696 0.21888 0.5248 1.2378 1.4682 2.263 1.472 1.591 1.6192 1.9123 1.0253 2.2438-0.38144 0.20992-0.58112 0.56576-0.44672 0.78464 0.13696 0.21888 0.0691 0.40064-0.15616 0.40064-0.22528 0-0.5184-0.28416-0.65024-0.63104-0.13696-0.35968-0.5248-0.52224-0.89728-0.3776-0.46464 0.17792-0.65664-0.0154-0.65664-0.6592 0-1.0931-1.2122-1.6781-1.7408-0.84095-0.20352 0.32767-0.3776 1.1213-0.384 1.7651 0 0.64384-0.19712 1.1686-0.43136 1.1686-0.23168 0-0.42496-0.14976-0.42496-0.33408 0-0.18176-0.57472-0.5504-1.2749-0.8128-0.86272-0.32512-1.2813-0.7744-1.2813-1.3722 0-0.49023-0.2752-0.89087-0.61312-0.89087-0.88704 0-1.2966-0.88448-0.61312-1.3184 0.42752-0.26624 0.44416-0.37248 0.0563-0.37504-0.29312-3e-3 -0.5312-0.38144-0.5312-0.83456 0-0.45568-0.19712-0.9472-0.43392-1.0931-0.80641-0.50048-1.6717-3.2154-1.4221-4.4659 0.19968-0.98176 9e-3 -1.4566-0.9088-2.3066-0.63104-0.58752-1.8061-1.2838-2.6035-1.5501-0.79744-0.25984-1.4502-0.68095-1.4502-0.92799 0-0.2432-0.43136-0.86528-0.95616-1.385-1.5846-1.5373-2.4563-2.7558-2.4563-3.4278 0-0.96896-0.83456-0.75008-1.2506 0.32768-0.28416 0.74112-0.13696 1.2032 0.65664 2.0467 0.55936 0.60032 1.0189 1.3901 1.0189 1.7536 0 1.0278 1.6691 2.9094 2.5907 2.9094 0.45056 0 0.8192 0.25344 0.8192 0.5568 0 0.30976 0.86912 1.1661 1.9213 1.9123 1.9443 1.3722 2.2182 1.9315 1.5027 3.0656-0.33792 0.5376-0.5376 0.48384-1.2966-0.33152-0.49408-0.52864-1.0931-0.84096-1.3338-0.6912-0.29696 0.18176-0.288 0.41856 0.0256 0.73088 0.25344 0.256 0.46592 0.79104 0.46592 1.1878 0 1.0061-2.1568 3.369-3.0784 3.369-0.55936 0-0.75648 0.33408-0.75648 1.2787 0 1.4157-0.80256 1.6909-1.856 0.63743-0.35328-0.35328-0.76928-0.63743-0.92544-0.63743-0.65024 0-2.7597-1.8061-2.7597-2.3654 0-0.75648 2.0442-1.3005 2.6381-0.70656 0.53376 0.5312 3.4061 0.1536 3.8656-0.50944 0.51584-0.74112-0.0563-2.3744-1.1776-3.3779-2.3091-2.0595-3.2781-2.8403-3.5469-2.8506-0.16-6e-3 -0.84992-0.77184-1.5373-1.7037-0.68736-0.9344-1.5027-1.6934-1.8099-1.6934s-0.55936-0.19328-0.55936-0.42752 0.20352-0.42496 0.45952-0.42496c0.61824 0 0.0218-1.7869-0.8-2.3872-0.49024-0.35584-0.97536-0.31232-1.9622 0.17792-2.5126 1.2467-2.8006 1.3594-3.3754 1.3594-0.31872 0-1.1904-0.30592-1.9405-0.6784-1.6653-0.83072-2.6035-0.53376-2.6035 0.82817 0 1.2275-0.51201 1.6806-2.7686 2.4589-2.2464 0.77184-4.5619 2.8467-4.2534 3.8067 0.25344 0.8-2.1619 3.5469-2.7814 3.1654-0.19712-0.1216-0.64384 0.0691-0.99968 0.42496-0.73472 0.73472-1.8906 0.8192-3.4035 0.24064-1.4067-0.53376-2.8442-0.10368-2.8442 0.85376 0 0.9472 0.41216 1.2275 1.9878 1.3466 0.6656 0.0499 1.4464 0.32128 1.737 0.60032 0.34944 0.34432 0.91264 0.3904 1.7037 0.1472 4.6592-1.44 5.6973-1.4874 13.75-0.57472 1.2838 0.1472 3.36 0.24704 4.6003 0.22144 1.5782-0.0307 2.3245 0.13696 2.4845 0.5568 0.128 0.33408 0.50304 0.50048 0.83712 0.37248 0.4032-0.15616 0.60288 0.0653 0.60288 0.6784 0 0.50048-0.2816 1.015-0.62208 1.1443-0.48768 0.19328-0.5184 0.43392-0.1472 1.1597 1.2557 2.441 1.2723 2.5216 0.70016 2.8877-0.31616 0.19968-0.88448 0.36224-1.2685 0.36864-0.384 0-0.81536 0.30592-0.96 0.66816-0.14336 0.38144-0.0717 0.5504 0.17536 0.39424 0.23168-0.14336 1.0688 0.42496 1.856 1.2595 0.7936 0.83968 1.847 1.5194 2.3629 1.5194 1.6998 0 4.7245 1.6525 4.7245 2.5779 0 0.5376 0.43392 1.0163 1.1686 1.3005 0.6464 0.24704 2.0378 0.89343 3.0912 1.4349 2.6547 1.3734 3.136 1.2301 3.392-1.0509zm8.3917-7.9757c-0.67584-0.0998-1.1226-0.40064-1.0291-0.68096 0.19072-0.57472 0.25344-0.57856 2.9722-0.1152 3.7594 0.64896 1.9584 1.3875-1.943 0.79616zm15.045-0.14336c0-0.61568 1.1162-1.6973 1.4285-1.385 0.13696 0.13696 0.73344-0.0691 1.3312-0.45952 1.1085-0.72832 1.4746-0.40064 0.56449 0.50688-0.2816 0.2816-0.34048 0.50944-0.13184 0.50944 0.20608 0 0.0102 0.28416-0.44673 0.62848-0.9664 0.73088-2.7456 0.85888-2.7456 0.19968zm-9.9558-1.0406c0.31872-0.81536 0.58496-0.81536 0.58496 0 0 0.35328-0.18688 0.64-0.41216 0.64-0.22912 0-0.30592-0.28416-0.1728-0.64zm-22.86-1.4912c0-0.544 0.30336-0.544 0.64 0 0.14336 0.23808 0.0589 0.42496-0.19072 0.42496-0.24576 0-0.44928-0.18432-0.44928-0.42496zm-8.9997-7.9526c-0.0282-0.19712-0.0128-0.54016 0.0371-0.7744s0.0845-1.216 0.0845-2.1875c0-1.3658 0.15616-1.7434 0.70272-1.6998 0.5504 0.0435 0.672-0.27776 0.57216-1.5155-0.0973-1.225 0.0653-1.6653 0.75904-2.0378 0.76928-0.416 0.87552-0.35328 0.84992 0.50048-0.0154 0.53759-0.18176 1.3594-0.36608 1.8214-0.19072 0.46848-0.18176 1.2787 0.0128 1.7997 0.2688 0.71936-0.14336 3.1872-0.63488 3.7939-0.25216 0.30848-1.9802 0.56192-2.0173 0.29952zm-9.5245-2.6688c-0.37504-0.60672 0.10368-1.3005 0.89344-1.3005 0.36864 0 0.58752 0.29696 0.50304 0.70912-0.16256 0.85632-1.0125 1.2134-1.3965 0.59136zm2.3309-0.84992c0-0.24704 0.19328-0.45056 0.42753-0.45056 0.544 0 0.544 0.29952 0 0.63744-0.23681 0.14464-0.42753 0.0602-0.42753-0.18688zm35.421 8.3712c-0.34944-0.34688-0.47104-0.29952-0.47104 0.17792 0 0.84991 0.57088 1.4221 0.7808 0.78463 0.0909-0.26879-0.0499-0.70271-0.30976-0.96255zm47.395-5.9494c0.62464-0.45952 0.65664-0.72192 0.19968-1.9187-0.29056-0.75904-0.67456-1.3811-0.85888-1.3811-0.1856 0-0.33536-0.2432-0.33536-0.54016 0-0.29952-0.384-1.2557-0.85248-2.1286-0.46848-0.87295-0.85376-1.8534-0.85376-2.1811 0-0.32129-0.29056-0.82561-0.63744-1.1187-0.352-0.29056-0.64-0.98432-0.64-1.5411 0-0.73472-0.23808-1.0099-0.87296-1.0099-0.47489 0-1.3504-0.48128-1.9315-1.0662-0.59008-0.58752-1.2403-1.0662-1.4438-1.0662-0.20608 0-0.72704-0.44416-1.152-0.98432-1.0432-1.3184-2.0877-1.6627-2.7251-0.89088-0.38784 0.46208-0.4032 0.87168-0.0691 1.5718 0.2496 0.51584 0.56832 1.4182 0.70272 2.0058 0.13184 0.58496 0.38528 1.2621 0.56576 1.5002 0.66816 0.90368 4.9318 4.0371 5.4899 4.0371 0.32256 0 0.58497 0.288 0.58497 0.63743 0 0.34944-0.29697 0.64-0.66305 0.64-0.53504 0-0.63104 0.46592-0.5312 2.4474 0.1152 2.2502 0.21504 2.4653 1.1942 2.5933 0.58752 0.0781 1.2506 0.32128 1.4682 0.5312 0.59008 0.5696 2.5139 0.48768 3.3613-0.13696zm-41.051-1.1686c0-0.23424-0.30208-0.42752-0.66304-0.42752-0.3648 0-0.5504 0.19328-0.40192 0.42752 0.34048 0.5504 1.065 0.5504 1.065 0zm5.4438-2.7226c1.6998-1.088 5.6371-1.8406 5.6371-1.0778 0 0.2432 0.19968 0.32128 0.44416 0.16896s0.72832-0.0435 1.0662 0.24064c0.34944 0.288 1.856 0.512 3.415 0.512 2.313 0 2.9658-0.16256 3.8157-0.96256 1.2774-1.1968 0.89984-2.0966-1.3786-3.2934-0.88704-0.46593-2.665-1.4029-3.9565-2.0941-2.5126-1.3376-3.3997-1.353-5.1814-0.0909-1.3811 0.98176-2.487 1.0342-2.487 0.12544 0-0.37504-0.3968-0.78464-0.88704-0.91264-0.60672-0.16-0.82176-0.47872-0.67712-1.0253 0.14592-0.55936-0.023-0.7936-0.56832-0.7936-0.4288 0-0.87552-0.24064-0.99712-0.5312-0.28416-0.69376-1.9584 1.3069-1.9712 2.3462-0.0102 0.41216-0.39808 1.0778-0.86912 1.4784-0.46848 0.40576-0.84992 1.2557-0.84992 1.9123 0 0.65024-0.17536 1.184-0.37888 1.184-0.71936 0-0.87168 1.897-0.23808 2.8685 0.89984 1.3606 3.8874 1.3363 6.0621-0.055zm7.4752-9.7894c0.12544-0.32512 0.0256-0.7872-0.21888-1.0317-0.56832-0.57216-2.4717 0.23424-2.4717 1.047 0 0.76544 2.3974 0.75008 2.6906-0.0154zm-31.057-17.957c1.0061-0.76543 2.441-0.80895 3.1501-0.0973 0.36608 0.36608 0.62208 0.38784 0.83072 0.0755 0.16896-0.2496 0.61568-0.56831 1.0035-0.71295 0.44672-0.16512 0.77824-0.9216 0.91904-2.0966 0.1216-1.0125 0.56192-2.8403 0.98176-4.0653 0.63744-1.8598 0.97536-2.272 2.0659-2.5498 1.1443-0.29056 0.99712-0.35584-1.2557-0.54656-1.4912-0.12544-2.6278-0.0435-2.7315 0.20352-0.29952 0.71936-1.1059 1.3747-2.0621 1.6755-0.96001 0.30336-1.6282 1.641-1.1814 2.3654 0.29312 0.46592-0.49664 2.1811-1.2275 2.6662-0.256 0.17536-0.89728 0.31616-1.4246 0.32128-0.99072 6e-3 -1.2838 0.60673-0.5312 1.0714 0.64 0.3968 0.50688 1.0624-0.21504 1.0624-0.34944 0-0.63744-0.19072-0.63744-0.42496s-0.47872-0.42496-1.0662-0.42496-1.0662 0.19072-1.0662 0.42496 0.288 0.42496 0.63744 0.42496c0.35328 0 0.64384 0.29311 0.64384 0.63999-5e-3 0.83072 2.0582 0.82432 3.1667-0.0128zm2.7968-5.1558c0-0.49408 0.29056-1.1443 0.6464-1.44 1.0061-0.84352 1.1034-0.30336 0.18688 1.0906-0.736 1.1174-0.82944 1.1584-0.83328 0.34944zm-7.6992 1.1494c0.50048-0.31616 0.51584-0.57216 0.0909-1.3786-0.30976-0.59392-0.42496-0.6656-0.288-0.19328 0.14336 0.48128-0.0653 1.0253-0.51584 1.3747-0.84096 0.63232-0.24704 0.80384 0.71296 0.19712zm15.215-1.5219c0.36864-0.96-0.66304-2.0506-1.3747-1.4566-0.45056 0.36608-0.45952 0.63744-0.0589 1.2813 0.6144 0.9856 1.1021 1.0445 1.4336 0.17536zm16.774-3.1654c0-0.57856-0.75264-0.95616-1.0214-0.5184-0.256 0.41216 0.11264 0.9216 0.6656 0.9216 0.19712 0 0.35584-0.18048 0.35584-0.4032zm-12.631-1.943c0.31232-0.81536 0.0934-0.81536-0.58112 0-0.30848 0.36864-0.34688 0.63744-0.096 0.63744 0.23808 3e-3 0.54016-0.28416 0.67712-0.63744zm-8.1408-2.0787c0.35328-0.5184 0.24704-4.9472-0.11904-4.9472-0.128 0-0.81536 0.5376-1.5309 1.1904-1.687 1.5411-2.1939 3.3715-1.1405 4.1626 0.80384 0.60416 2.2438 0.39808 2.7904-0.40576zm13.101 0.3904c0-0.544-1.2032-1.5091-1.8918-1.5091-0.43392 0-0.25216 1.0995 0.27264 1.6192 0.70656 0.70912 1.6192 0.64384 1.6192-0.11008zm-10.413-6.8774c1.6154-1.2339 1.9162-2.2938 0.64-2.2938-0.83456 0-2.1619 1.0432-2.1619 1.6998 0 0.19712-0.1152 0.6656-0.256 1.0317-0.36864 0.95872 0.0973 0.84352 1.7779-0.43776zm13.184-1.0189c-0.14336-0.23168-0.58752-0.41216-0.98432-0.3968-0.59136 0.0282-0.56576 0.0973 0.13184 0.3968 1.1405 0.49408 1.1533 0.49408 0.85248 0zm2.1286-2.2976c0-0.79104-0.24704-0.89088-2.1568-0.89088-1.9315 0-2.1414 0.087-1.9942 0.84992 0.13312 0.70016 0.52096 0.86272 2.1568 0.89728 1.7574 0.0346 1.9942-0.0653 1.9942-0.85632zm83.506-7.8746c0.12928-0.20352-0.0371-0.60032-0.3648-0.87168-0.49152-0.40576-0.56192-0.33792-0.3712 0.37504 0.24832 0.96512 0.38912 1.056 0.736 0.49664zm-68.321-12.516c-0.41856-0.41856-0.47104-0.36608-0.23808 0.23808 0.16 0.4224 0.39808 0.65664 0.52864 0.5248 0.1344-0.128 0-0.47488-0.29056-0.76288zm49.812-11.974c0-0.08448-0.33408-0.4224-0.74368-0.74368-0.67456-0.52864-0.68992-0.512-0.15872 0.16256 0.55168 0.70528 0.9024 0.9344 0.9024 0.58112zm-30.688-17.498c0-0.32128-5.271-1.9098-5.5066-1.6563-0.25856 0.2816-0.11904 0.34688 2.9504 1.431 1.7037 0.60416 2.5562 0.6784 2.5562 0.22528zm-8.6566 223.06c-0.0934-0.16896-0.19584-1.088-0.22528-2.0442-0.0461-1.4182 0.1856-1.9622 1.2416-2.9747 1.1277-1.0752 1.2582-1.4374 1.0278-2.8006-0.30592-1.7894 0.69376-4.2022 1.7318-4.2022 1.1853 0 4.4813-1.8099 5.6474-3.0938 4.6963-5.2058 4.7309-5.2378 5.353-4.5683 0.83072 0.87808 1.1878 4.096 0.51584 4.6566-0.29184 0.24064-0.65664 0.31232-0.81024 0.16256-0.15616-0.15616-0.2816 0.23168-0.2816 0.85632 0 0.6272-0.19328 1.1379-0.42752 1.1379-0.23552 0-0.42496 0.18688-0.42496 0.41856 0 0.49408-2.8506 5.0995-5.3286 8.6144-1.2966 1.8432-2.1594 2.5971-3.5942 3.1437-2.1645 0.83072-4.1741 1.1443-4.425 0.69376zm22.723-10.719c0-0.2496 0.18944-0.45312 0.42496-0.45312 0.54656 0 0.54656 0.30208 0 0.63744-0.23424 0.14464-0.42496 0.0653-0.42496-0.18432zm-101.01-26.406c0-0.2496 0.19712-0.45312 0.42752-0.45312 0.5504 0 0.5504 0.30208 0 0.63744-0.23296 0.1472-0.42752 0.0653-0.42752-0.18432zm-71.471-3.7555c-4.7373-7.3958-10.621-20.746-13.481-30.582-4.5504-15.675-6.2566-33.581-4.5901-48.241 0.69376-6.0787 1.4502-6.4563 1.3338-0.6592-0.20992 10.721-0.13184 14.615 0.31232 15.149 0.25984 0.30976 0.69376 1.9034 0.96512 3.5379 0.2688 1.6371 0.6656 3.3037 0.87808 3.7094 0.20992 0.40576 0.3904 1.6563 0.39424 2.7686 6e-3 1.1187 0.27136 3.177 0.59392 4.5875 0.32512 1.4067 0.70912 3.5123 0.85888 4.6874 0.47488 3.7568 3.9744 12.25 6.2374 15.156 0.6528 0.84992 2.0749 3.3894 3.1501 5.6499 1.0816 2.2592 2.1286 4.1088 2.3347 4.1088 0.44672 0 0.77824 0.79999 1.5629 3.7504 0.86912 3.2538 0.75648 4.1997-0.69376 6.0032l-1.2966 1.6128 1.1123 3.369c1.2339 3.7504 2.3091 7.8438 2.0595 7.8438-0.0909-3e-3 -0.86912-1.1034-1.7318-2.4525zm172.05-26.938c0.84096-0.544 1.8253-0.544 1.4938 0-0.14336 0.23168-0.68352 0.42496-1.1968 0.41856-0.75904-3e-3 -0.81536-0.0819-0.29696-0.41856zm-24.718-2.807c0-0.75008 0.91904-0.61824 1.1814 0.1728 0.0934 0.27776-0.13312 0.50688-0.50688 0.50688-0.36864-1e-3 -0.67456-0.31104-0.67456-0.67968zm-129.37-15.537c-0.1536-0.2496-0.17792-0.55679-0.0538-0.68095 0.30336-0.30592 1.1341 0.23168 1.1341 0.73087 4e-3 0.54656-0.73344 0.512-1.0803-0.0499zm1.5091-1.6781c0-0.54784 0.30336-0.54784 0.64 0 0.14336 0.23168 0.0627 0.42752-0.19072 0.42752-0.24576 0-0.44928-0.19328-0.44928-0.42752zm-2.2374-2.7533c-0.85632-1.1712-0.92544-1.5066-0.32128-1.5066 0.23168 0 0.42496 0.22272 0.42496 0.49792s0.32128 0.85248 0.70912 1.2813c0.38784 0.42752 0.5312 0.76928 0.31872 0.76544-0.21248-0.0102-0.72192-0.47232-1.1315-1.0381zm209.25-12.841c-0.16896-0.16896-0.29696-0.80384-0.28544-1.4042l0.0282-1.1021 0.40832 1.0253c0.448 1.1123 0.35456 1.9878-0.15104 1.481zm-189.29-2.2374c-0.18432-0.29696-0.21504-0.6528-0.0755-0.7936 0.38144-0.38144 0.79744 0.18176 0.59008 0.79616-0.14464 0.43136-0.24576 0.43136-0.51456-3e-3zm2.9542-0.73984c0.61312-0.60672 1.2096-1.0061 1.3312-0.89088 0.33408 0.33408-1.2339 2.0019-1.8778 2.0019-0.3264-3e-3 -0.0973-0.46464 0.54656-1.111zm-4.4813-1.0227c0-0.23168 0.29952-0.42496 0.6656-0.42496s0.54656 0.19328 0.40064 0.42496c-0.34176 0.5568-1.0662 0.5568-1.0662 0zm2.9837-9.7933c0-0.544 0.30336-0.544 0.64 0 0.14336 0.23424 0.0589 0.42496-0.18688 0.42496-0.2496 0-0.45312-0.19072-0.45312-0.42496zm-6.3936-16.187c0-0.54656 0.30336-0.54656 0.64 0 0.14336 0.23168 0.0627 0.42752-0.18688 0.42752-0.25344 0-0.45312-0.19328-0.45312-0.42752zm-2.359-3.4291c-0.38784-0.63104-0.0781-0.85888 0.60288-0.43136 0.36864 0.22144 0.41216 0.44416 0.12544 0.61824-0.24064 0.15104-0.5696 0.0666-0.72832-0.18688zm-42.322-3.8157c0-0.58496 0.0973-0.8256 0.21504-0.5312 0.1152 0.29312 0.1152 0.77184 0 1.0662-0.11904 0.29312-0.21504 0.0563-0.21504-0.53504zm0.26496-3.8771c-0.31616-0.8256 0.53376-4.6374 1.0381-4.6374 0.34688 0 0.128 1.8752-0.50688 4.2432-0.20608 0.7808-0.34304 0.88064-0.5312 0.39424zm4.7821-15.288c0-0.23168 0.19072-0.42496 0.42496-0.42496s0.42496 0.19328 0.42496 0.42496c0 0.23424-0.19072 0.42752-0.42496 0.42752s-0.42496-0.19328-0.42496-0.42752zm1.2749-2.359c0-0.5312 1.3594-2.8122 1.5526-2.615 0.23168 0.22784-1.0099 2.8506-1.3504 2.8506-0.1088-4e-3 -0.20224-0.10752-0.20224-0.23552zm88.237-2.8288c-6e-3 -0.40064 0.19328-0.84992 0.44672-1.0035 0.74624-0.46592 0.85632 0.0256 0.19328 0.89984-0.54912 0.7232-0.6272 0.73216-0.64 0.10368zm-86.528-0.72192c0-0.23424 0.19328-0.544 0.42752-0.68736 0.23168-0.1472 0.42496-0.0755 0.42496 0.16 0 0.23552-0.19328 0.54656-0.42496 0.6912-0.23296 0.14336-0.42752 0.0717-0.42752-0.16384zm82.863-4.3085c0-0.46848 0.25344-0.85632 0.56192-0.85632 0.43136 0 0.45952 0.20352 0.10624 0.85632-0.57216 1.065-0.66816 1.065-0.66816 0zm-55.007-2.6624c0.0499-0.29312 0.23168-0.77184 0.416-1.0662 0.21248-0.34048 0.0909-0.53376-0.33152-0.53376-0.36608 0-0.6656-0.27776-0.6656-0.62464 0-0.4032 0.24704-0.52864 0.70272-0.34944 0.70912 0.27136 0.68736-0.2688-0.1216-2.9939-0.16256-0.5376 0.041-0.84352 0.6592-1.0035 0.49024-0.128 0.89089-0.36224 0.89089-0.52224 0-0.15616 0.34432-0.31232 0.7744-0.34048 1.2966-0.0998 4.3494-1.5782 4.1997-2.0378-0.0781-0.23424-0.58112-0.45568-1.1162-0.48128-1.1341-0.0589-1.8035-0.928-1.4912-1.9315 0.1216-0.3904 0.0218-0.83712-0.22144-0.98688-0.24704-0.1536-0.44416 0.0781-0.44416 0.52224 0 0.43776-0.2816 1.1661-0.62464 1.6218-0.97792 1.2941-0.8192-0.17152 0.19968-1.847 1.1725-1.9162 1.0752-2.4973-0.47872-2.8096-2.0941-0.41856-2.2029-0.33152-0.94976 0.74368 1.1469 0.98688 1.1533 1.0342 0.44032 2.1312-0.4032 0.61568-1.0189 1.1187-1.3619 1.1187-0.34688 0-0.63104 0.17152-0.63104 0.3776s-0.3904 0.47872-0.86912 0.60288c-0.47232 0.12544-0.83072 0.38784-0.79104 0.58496 0.18432 0.94336-0.6464 3.1245-1.1878 3.1245-0.33792 0-0.50944 0.16896-0.384 0.36864 0.12544 0.20352 0.75648 0.28416 1.4067 0.18688 1.0816-0.17152 1.1213-0.13184 0.44032 0.4224-0.4096 0.33152-0.74624 0.84736-0.74624 1.1379 0 0.66559-2.0403 0.21888-3.0182-0.6592-0.36608-0.33152-0.99968-0.60288-1.4003-0.60288-0.60928 0-0.6464-0.1472-0.2432-0.90368 0.26624-0.49664 0.84992-0.99712 1.2941-1.1162 0.44416-0.1152 0.80896-0.3904 0.80896-0.61312 0-0.21504-0.16256-0.29952-0.36224-0.17536-0.19968 0.1216-0.58112-0.2496-0.84352-0.82816-0.2624-0.58112-0.6464-1.0496-0.85888-1.0496-0.64384 0-2.6099 1.728-2.5062 2.2029 0.0538 0.2496-0.17536 0.55296-0.50304 0.672-0.416 0.1536-0.51584 3e-3 -0.33408-0.47488 0.14976-0.384 0.0806-0.69632-0.14336-0.69632-0.224 0-0.41216-0.31872-0.41216-0.70912 0-0.6528-0.0563-0.6528-0.7808 0-0.42752 0.3904-0.98432 0.70912-1.2314 0.70912-0.2496 0-1.3939 0.84352-2.5408 1.8714-1.7126 1.5373-2.3027 1.8317-3.287 1.6474-0.9536-0.18176-1.4131 0.0218-2.2464 1.0035l-1.0496 1.2314 0.75008-1.3747c0.41216-0.75008 2.3936-3.5686 4.3968-6.2566 18.92-25.371 46.513-42.834 77.416-48.993 12.05-2.4064 26.525-3.4035 33.697-2.3309 2.0685 0.30976 3.3229 0.63104 2.7814 0.72192-0.544 0.08704-1.0931 0.43136-1.2211 0.76544-0.13696 0.35584-0.8192 0.60288-1.6538 0.60288-1.559 0-2.3501 0.672-1.1558 0.98432 0.62464 0.16512 0.60416 0.20352-0.1216 0.2432-0.47872 0.03072-1.0995 0.27776-1.3786 0.5568-0.34688 0.34432-3.2026 0.54016-9.1405 0.61824-10.287 0.1408-11 0.21888-13.99 1.5411-1.2749 0.56192-3.3088 1.1405-4.5222 1.2838-1.216 0.14336-2.56 0.45056-2.9875 0.6848-0.42496 0.23168-1.344 0.544-2.0339 0.69376-0.93184 0.19712-1.0995 0.36224-0.65664 0.63488 0.32512 0.19968 0.74624 0.27776 0.93184 0.16256 0.18176-0.11264 1.0061-0.02176 1.8278 0.20352 0.89728 0.2496 1.5872 0.256 1.7344 0.0256 0.1344-0.21504 0-0.3904-0.29312-0.3904-0.33792 0-0.38784-0.1472-0.13696-0.3904 0.72832-0.70272 3.3818-0.6656 4.4096 0.05376 0.928 0.65024 0.9408 0.71552 0.19712 1.097-0.7936 0.4096-3.7312 1.1123-6.5997 1.5693-1.1622 0.19072-1.6218 0.50048-1.8035 1.2339-0.23168 0.91904-0.46208 0.98688-3.3472 0.98688-3.3216 0-7.2435 0.90624-7.0093 1.6218 0.19328 0.58496 2.3437 0.8064 2.9811 0.30592 1.737-1.3747 6.0787-1.6474 5.5808-0.34688-0.256 0.66816 0.9536 1.2787 1.3312 0.672 0.13696-0.22528 0.61824-0.4096 1.0778-0.4096 0.47232 0 0.82816-0.29312 0.82816-0.6848 0-0.45312 0.23168-0.60032 0.672-0.42752 0.37248 0.1408 0.96 0.25984 1.3094 0.25984 0.55296 0 0.55296 0.08064-0.0192 0.65024-1.0381 1.0381-0.44032 1.7536 1.3005 1.5501 1.0662-0.12544 1.4464-0.03072 1.2442 0.29952s0.31872 0.48128 1.6627 0.48128 2.0314 0.19968 2.2029 0.63488c0.1344 0.34944 0.512 0.64 0.83712 0.64 0.5312 0 0.7744 0.52224 0.48768 1.047-0.0589 0.10624 0.27136 0.46848 0.73088 0.80256 0.71936 0.5248 0.76544 0.76544 0.33408 1.7126-0.27776 0.60032-0.97536 1.216-1.5462 1.3594l-1.0419 0.26112 0.91904 0.9216c0.50944 0.50688 1.3402 0.95616 1.8496 1.0035 0.50944 0.04352 1.5219 0.384 2.2502 0.75904 1.0406 0.5376 1.2902 0.9152 1.1776 1.7651-0.0781 0.59392-0.41856 1.2557-0.75648 1.4656-0.46208 0.29696-0.47872 0.3904-0.0563 0.39424 0.30592 0.0026 0.43776 0.20352 0.29312 0.43776-0.14336 0.23168 0.0371 0.42496 0.40064 0.42496 0.36864 0 0.6656 0.288 0.6656 0.63744 0 0.34688-0.2624 0.63744-0.58752 0.63744-0.89088 0-4.5286 1.6934-4.5286 2.1094 0 0.20352-0.43136 0.28416-0.96 0.19072-0.52864-0.09728-0.71936-0.06912-0.42752 0.07168 0.3904 0.18688 0.4096 0.46848 0.0717 1.1059-0.25344 0.46848-0.57216 0.74368-0.70656 0.60928-0.1344-0.13184-0.45952 0.05376-0.72192 0.416-0.26624 0.35968-0.8256 0.70656-1.2506 0.76928-0.90368 0.13184-1.5565 1.0381-1.2723 1.7715 0.17152 0.45056-0.70912 0.87552-2.2003 1.0662-0.23168 0.03072-0.69376 0.27776-1.0125 0.54656-0.32768 0.26624-0.85632 0.49024-1.1725 0.49408-0.6592 0.0064-3.991 3.1027-3.991 3.712 0 0.21504-0.4096 0.2688-0.9088 0.11264-0.57856-0.18688-0.8064-0.128-0.62464 0.15616 0.22144 0.36224-3.1155 1.2378-4.0026 1.047-3.6877-0.77824-5.1661-0.83072-8.8474-0.32768-1.5066 0.20992-2.4307 0.1472-2.8378-0.19072-0.46848-0.38784-0.94976-0.35584-2.1338 0.13696-0.84096 0.34944-1.5309 0.8128-1.5309 1.0214 0 0.20608-0.59648 0.40064-1.3286 0.4224-0.72832 0.0218-2.6253 0.72192-4.215 1.5526-3.415 1.7971-4.0538 1.8931-3.625 0.56192 0.16896-0.52864 0.34688-1.5693 0.4032-2.3155 0.1216-1.7344 1.5437-3.5814 5.472-7.0912 3.6749-3.2909 8.8346-5.9776 8.8346-4.6029 0 0.19968 0.48384 0.2752 1.0778 0.16256 1.0035-0.19328 1.0214-0.24704 0.31872-0.7936-0.72192-0.55936-0.71552-0.61824 0.0973-1.2557 0.46848-0.36864 1.3747-0.59648 2.016-0.50304 0.85632 0.1216 1.2378-0.04992 1.4182-0.62208 0.1472-0.46848 1.719-1.472 3.8374-2.4653 4.1216-1.9187 5.7779-3.3216 5.44-4.6131-0.18432-0.68736 0.13696-1.0534 1.5091-1.7562 0.95616-0.48768 1.8842-0.85632 2.0659-0.81536 0.18432 0.04096 0.66304-0.07168 1.0662-0.2496 0.47488-0.20608 1.2838 0.0192 2.281 0.63104 1.2467 0.76928 1.6192 0.84352 1.9034 0.38144 0.78464-1.2685-2.5933-2.1338-9.7126-2.4806-1.2659-0.06528-1.2122-0.96256 0.1472-2.5754 0.82176-0.97792 0.93696-1.3069 0.45056-1.3069-0.35584 0-0.77184 0.19968-0.928 0.44672-0.18432 0.29696-0.65024 0.20352-1.3747-0.26624-0.96512-0.63104-1.44-0.6592-3.9309-0.21248-1.5565 0.27776-3.3997 0.87808-4.0845 1.3312-0.6912 0.45568-1.5974 0.8256-2.0224 0.83072-0.42496 0-0.6528 0.19328-0.50944 0.42752 0.44032 0.70912 1.9251 0.47488 3.3254-0.5184 1.4528-1.0342 6.4128-1.6346 7.1782-0.86912 0.77441 0.7744-1.6538 3.6467-4.1562 4.919-1.2838 0.6528-2.4474 1.4682-2.5779 1.8099-0.13056 0.34176-0.50688 0.62208-0.83456 0.62208-0.32512 0-0.60032 0.23808-0.60672 0.5312-0.0128 0.58112-3.4099 2.4499-4.4531 2.4499-0.35328 0-1.1725 0.61312-1.815 1.3619-2.7162 3.1526-2.9722 3.3216-4.8435 3.2499l-1.7907-0.06912 1.344-1.1968c0.73728-0.66304 1.344-1.3069 1.344-1.4374 0-0.44672-1.8432 0.75648-3.1808 2.0813-0.74112 0.73088-2.0685 1.5501-2.9504 1.8125-1.1098 0.33152-1.463 0.33792-1.1469 0.0256 0.79361-0.79104 0.49665-1.3069-0.32128-0.56832-1.303 1.1776-1.4566 0.7936-0.41856-1.056 0.54016-0.96896 1.7843-2.4154 2.7597-3.2192 0.97792-0.80256 1.975-2.025 2.2157-2.7162 0.256-0.72192 0.91264-1.4349 1.5565-1.6781 1.4374-0.54656 1.4848-0.54016 1.4848 0.22784 0 0.89088 1.2723 1.3158 1.7408 0.58112 0.2688-0.4224 0.3776-0.44032 0.384-0.05888 3e-3 0.29056 0.21504 0.5312 0.47872 0.5312 0.2688 0 0.37504-0.3776 0.24704-0.87552-0.16512-0.63104 0.0307-0.97536 0.71552-1.2339 0.51584-0.19712 1.1968-0.6656 1.513-1.0406 0.31232-0.37248 1.0214-0.6848 1.5782-0.6848 0.55936 0 1.0099-0.17152 1.0099-0.38144 0-0.21888-0.6592-0.22144-1.5974-0.0064-0.87552 0.20992-2.4 0.26624-3.3754 0.12544-1.5309-0.21248-2.0557-0.05888-3.7594 1.1162-1.0906 0.74624-2.1094 1.2314-2.2682 1.0714-0.16256-0.16 0.0563-0.54016 0.47872-0.85376 0.52224-0.38144 0.61568-0.6592 0.29312-0.85888-0.75904-0.46848 0.83712-1.9814 1.7754-1.6806 1.1494 0.36608 1.7626-0.16896 1.0317-0.89728-0.33792-0.33792-0.7936-0.61312-1.015-0.61312-0.22528 0-0.64384-0.288-0.9344-0.63744-0.66816-0.8064-2.8659-0.81536-4.2624-0.0192-0.58752 0.33408-1.719 0.90624-2.5152 1.2749-0.8 0.36608-2.2592 1.3875-3.2499 2.263-0.99328 0.87168-2.6061 2.2349-3.5904 3.0246s-1.9942 1.8816-2.24 2.4218c-0.24576 0.54016-1.0381 1.2275-1.7562 1.5283-0.71936 0.29696-1.8906 1.0496-2.6061 1.6691-0.71936 0.62208-1.8534 1.4157-2.528 1.769-0.98176 0.50304-1.0906 0.6848-0.53376 0.89344 0.38144 0.14976 0.69632 0.08064 0.69632-0.1472 0-0.22144 0.19968-0.41216 0.45056-0.41216s1.1558-0.47872 2.0224-1.0688c0.86912-0.58752 1.641-0.87168 1.719-0.63744 0.38144 1.1405 4.5184-0.20608 6.1466-2.0096 0.4096-0.45312 1.1776-0.7872 1.7037-0.74112 0.52864 0.04736 1.344-0.1216 1.8099-0.37504 0.99328-0.5376 3.6838-1.5373 4.1651-1.5462 0.18176-0.0026 0.0371 0.44416-0.32128 0.99072-0.35585 0.544-0.55041 1.0931-0.42241 1.2224 0.12544 0.12544-0.45056 0.82176-1.2749 1.5501-0.83072 0.72448-1.5091 1.5155-1.5091 1.7536 0 0.23424-0.71552 0.73088-1.591 1.0995-1.687 0.70272-3.5213 2.2029-3.5213 2.8838 0 0.22784 0.85632 0.30976 2.0122 0.17792 1.7152-0.19328 1.9034-0.1472 1.2659 0.32128-0.73472 0.5376-4.1152 3.575-7.1437 6.4256-0.84096 0.78719-1.7779 2.2003-2.0902 3.1347-0.30976 0.9408-0.70272 1.6192-0.87168 1.5155-0.17536-0.10624-0.54656 0.36224-0.82816 1.0432-0.75648 1.8317-3.1846 3.9283-3.8221 3.2934-0.384-0.3776-0.43776-0.33152-0.23808 0.19968 0.19712 0.50304-0.0909 0.8192-1.0381 1.1469-0.71936 0.2496-1.303 0.75264-1.303 1.1162 0 0.36608-0.23168 0.6592-0.512 0.6592-0.3776 0-0.38784 0.12544-0.0307 0.48128 0.60672 0.60672 0.22528 1.5846-1.097 2.8122-0.57472 0.5312-0.89088 0.96896-0.70656 0.96896s-0.18176 0.47872-0.8128 1.0662c-1.2621 1.1469-1.9341 1.3466-1.8086 0.51584zm-4.6566-17.997c0.20352-0.85377 0.16-1.1341-0.12544-0.85377-0.23168 0.23168-0.56192 0.99969-0.72448 1.6998-0.20352 0.85632-0.15616 1.1379 0.12544 0.85632 0.23424-0.23424 0.56192-0.99967 0.72448-1.7024zm-1.1366-0.87809c0.0563-0.62848-0.0845-0.97792-0.33408-0.82816-0.49408 0.30976-0.57472 1.9187-0.087 1.9187 0.18304-4e-3 0.37376-0.49153 0.42112-1.0906zm4.5709-4.0192c0.90624-0.99968 0.16256-1.1661-0.82176-0.18432-0.75264 0.75008-0.83712 1.0342-0.30976 1.0342 0.20096 0 0.70656-0.384 1.1315-0.84992zm2.56-3.8374c0.33408-0.54016-0.22785-0.54016-1.0662 0-0.55296 0.35328-0.54016 0.416 0.0806 0.4224 0.39808 0.0026 0.8384-0.1856 0.98561-0.4224zm4.1472-2.647c0.73472-0.6848 1.1187-1.3722 0.9344-1.6653-0.20608-0.33152-0.128-0.3904 0.23424-0.16512 0.36608 0.22144 0.48128 0.1408 0.34944-0.256-0.25344-0.75648-0.86528-0.63744-1.4067 0.27776-0.23168 0.3968-0.94976 1.2595-1.5974 1.9162-0.64384 0.6592-1.1725 1.4285-1.1725 1.7088 1e-3 0.55296 0.42368 0.26752 2.6586-1.8163zm37.618-9.2774c-0.1472-0.23424-0.45568-0.42496-0.69376-0.42496-0.23168 0-0.30592 0.19072-0.16256 0.42496s0.45568 0.42752 0.6912 0.42752 0.30976-0.19328 0.16512-0.42752zm17.615-5.1034c0.61312 0.0064 0.62208 0.06272 0.0691 0.41856-0.5568 0.35968-0.5504 0.416 0.0589 0.41856 0.37504 0.0064 0.9152-0.2624 1.1942-0.59648 0.39424-0.47872 0.33152-0.6528-0.31872-0.86272-1.1213-0.35584-2.2182 0.1344-2.1786 0.97792 0.0218 0.44672 0.11264 0.50304 0.24704 0.16896 0.12288-0.29696 0.5376-0.52864 0.928-0.5248zm-12.605-3.8413c0.35968 0 0.76288-0.288 0.89728-0.63744 0.33152-0.85632-0.0909-0.80256-1.7754 0.21888-0.83072 0.50688-1.2813 1.0534-1.1059 1.3402 0.20992 0.33408 0.45952 0.2688 0.8128-0.21888 0.28672-0.38656 0.81152-0.70272 1.1712-0.70272zm4.7898-3.831c0.14721-0.23424 0.0755-0.42752-0.16256-0.42752-0.23424 0-0.544 0.19328-0.6912 0.42752-0.1472 0.23168-0.0691 0.42496 0.16512 0.42496 0.23424 0 0.54528-0.19328 0.68864-0.42496zm3.625-3.4099c0-0.23424-0.288-0.42752-0.63744-0.42752s-0.63744 0.19328-0.63744 0.42752c0 0.23168 0.288 0.42496 0.63744 0.42496s0.63744-0.19328 0.63744-0.42496zm-10.225 50.035c0-0.35968-0.29056-0.76288-0.64-0.89728-0.82816-0.31872-0.82816-1.0035 0-1.0035 0.34944 0 0.64-0.29056 0.64-0.63744 0-0.35328-0.20352-0.64-0.45568-0.64-0.24704 0-0.33408-0.18176-0.19712-0.40576s0.56576-0.288 0.94976-0.1408c0.54656 0.20992 0.63104 0.0973 0.40064-0.51584-0.33408-0.86528 0.31616-1.4746 1.5872-1.4848 0.58752-6e-3 0.73472 0.21248 0.57216 0.84352-0.17152 0.65664-0.0128 0.85632 0.69632 0.85888 0.50304 0 1.6538 0.19968 2.5408 0.45056 1.4912 0.416 1.6128 0.56192 1.4938 1.8035-0.17152 1.7651-1.4963 2.4154-4.928 2.4256-2.1094-4e-3 -2.6598-0.14079-2.6598-0.65663zm58.669-3.4662c-0.58753-0.58496-0.25216-1.4182 0.56832-1.4182 0.56832 0 0.85376 0.28416 0.85376 0.85376 1e-3 0.81792-0.83456 1.1494-1.4221 0.56448zm-23.241-11.956c-0.26624-0.50048-0.48128-1.2058-0.48128-1.5744 0-0.36224-0.19328-0.6656-0.42752-0.6656-0.50048 0-0.55936-1.6845-0.0781-2.441 0.19328-0.30336 0.90624-0.45056 1.6973-0.34944 0.75008 0.09728 1.3658 0.0026 1.3658-0.19968 0-0.3968 2.8659-0.2496 3.2845 0.16896 0.41856 0.41216-0.82816 1.5974-1.4349 1.3619-0.78464-0.29952-0.72192 0.59392 0.1088 1.5066 0.7936 0.87808 0.49024 1.6307-0.62464 1.5437-0.5312-0.04096-0.72192-0.30592-0.58752-0.8256 0.34432-1.3069-0.48768-0.83456-1.4349 0.8128-0.86784 1.5091-0.91776 1.5347-1.3875 0.66176zm-57.281-5.7062c0.288-0.29056 0.62848-0.41856 0.75904-0.288s-0.0998 0.36864-0.5248 0.52864c-0.60288 0.23552-0.64896 0.1856-0.23424-0.24064zm88.329-0.59264c-0.78336-0.9408-0.33792-1.0496 0.54144-0.13184 0.40832 0.43136 0.57728 0.7808 0.3712 0.7808-0.20864 0-0.61952-0.29056-0.91264-0.64896zm-19.037-0.04736c-0.352-0.14336-0.29312-0.42752 0.21248-0.93696 0.50432-0.50944 0.86656-0.60032 1.2058-0.29312 0.2688 0.24064 0.38784 0.60672 0.2624 0.8128-0.128 0.20608 0.0371 0.28416 0.36224 0.17152 0.37504-0.128 0.544-0.6848 0.45952-1.5437-0.13184-1.3005-0.0998-1.3286 1.0278-0.89984 0.84096 0.32128 1.2506 0.30976 1.4669-0.04736 0.21504-0.35328 0.384-0.35968 0.59392-0.0192 0.16256 0.25984 0.0781 0.47232-0.1856 0.47232-0.26368 0-0.3584 0.19328-0.21248 0.42752 0.1472 0.23168 0.0128 0.42752-0.29312 0.43136-0.40576 0.0064-0.384 0.11904 0.0794 0.41856 0.52096 0.33792 0.46464 0.416-0.288 0.4224-0.50432 0.0026-1.0163-0.23424-1.1354-0.52864-0.13696-0.33152-0.22784-0.27136-0.2496 0.16896-0.0461 1.024-1.8445 1.5373-3.3062 0.94336zm-77.947-4.3622c0.128-0.20608 0.6656-0.48384 1.1968-0.61824 0.93184-0.23168 0.93696-0.21504 0.1408 0.37504-0.91904 0.68352-1.6973 0.82688-1.3376 0.2432zm10.899-4.3123c0.83713-0.54016 1.4029-0.54016 1.0662 0-0.14336 0.23168-0.58496 0.42496-0.98177 0.4224-0.62464-0.0077-0.6336-0.064-0.0845-0.4224zm2.1312-2.1286c0-0.23168 0.29056-0.42752 0.64-0.42752s0.63744 0.19712 0.63744 0.42752-0.288 0.42752-0.63744 0.42752c-0.352 0.0013-0.64-0.19584-0.64-0.42752zm38.048-7.4995c0.14336-0.1408 0.50944-0.15616 0.8192-0.03456 0.33408 0.1344 0.23808 0.23808-0.25984 0.256-0.45056 0.02176-0.70016-0.08064-0.55936-0.22144zm-2.857-0.58112c-0.45312-0.16-0.64384-0.38784-0.42496-0.50688 0.56576-0.31232 4.256-0.45312 3.9565-0.1536-0.52224 0.52224-2.7443 0.93824-3.5315 0.66048zm2.8467-1.9968c-0.9088-0.36608-0.58752-1.0624 0.42752-0.91904 0.5248 0.07552 0.9088 0.33152 0.84992 0.56192-0.12672 0.5184-0.56448 0.63744-1.2774 0.35712zm-6.071-0.28544c0-0.1344 0.43392-0.71552 0.96896-1.2838 0.70016-0.75008 1.5808-1.1123 3.1462-1.2787 1.2006-0.128 2.6816-0.35968 3.2934-0.512 0.82816-0.20992 1.1123-0.1152 1.1123 0.34688 0 0.84992-1.1187 1.7434-1.7152 1.3747-0.25984-0.16256-1.3722-0.15616-2.4653 0.01536-1.5872 0.24704-1.8214 0.3776-1.1405 0.6528 0.77184 0.31232 0.75264 0.34432-0.21248 0.3776-0.58752 0.0192-1.4963 0.14976-2.025 0.29056-0.53248 0.14208-0.96256 0.14848-0.96256 0.01664zm40.8-7.8093c0.288-0.1152 0.86656-0.1216 1.2787-0.01536 0.41472 0.1088 0.17792 0.20352-0.5248 0.21248-0.704 9e-3 -1.0445-0.07808-0.75392-0.19712z" fill="#73ba25"/>
  <path d="m0 0v42.602c29.458 6.4832 52.155 13.729 57.148 15.406 0.0519-2.034 0.39063-20.225 0.39063-20.225s0.0415-0.41773 0.26367-0.63476c0.28615-0.27943 0.69922-0.19336 0.69922-0.19336 4.113 0.59575 91.906 13.608 128.91 35.172 4.5699 2.6735 6.8261 5.5148 9.6445 8.3965 10.229 10.579 23.744 54.571 25.195 63.643 0.0571 0.35646-0.38031 0.74196-0.56836 0.88867h-6e-3c-1.0509 0.81998-2.1936 1.6735-3.3398 2.4355-8.756 5.8744-28.932 19.995-54.812 17.689-23.247-2.0565-53.614-15.391-90.229-39.516 3.5999 8.4287 7.1445 16.882 10.693 25.332 5.3024 2.754 56.481 28.834 81.74 28.324 20.345-0.42381 42.104-10.345 50.809-15.584 0 0 1.9117-1.153 2.7441-0.50977 0.91059 0.70345 0.65897 1.7822 0.44336 2.8828-0.53554 2.4988-1.7568 7.0567-2.5859 9.2207l-0.69921 1.7637c-0.99645 2.6696-1.9506 5.1495-3.7949 6.6777-5.1279 4.6628-13.312 8.3735-26.137 13.947-19.823 8.6712-51.986 14.186-81.846 13.996-10.695-0.23808-21.025-1.4246-30.098-2.4844-27.797-3.1382-47.889-5.4261-52.064 19.822-1.4695 8.7846-0.19485 18.075 2.3516 26.947h231.15v-256zm156.66 74.119c-10.035-0.31992-19.607 3.2211-26.943 10.07-7.3328 6.8267-11.531 16.134-11.902 26.162v2e-3c-0.69327 20.688 15.55 38.115 36.221 38.877 10.081 0.33837 19.629-3.2017 26.965-10.092 7.3142-6.8055 11.512-16.112 11.902-26.141 0.71024-20.67-15.55-38.139-36.242-38.879zm-0.31446 11.062c14.461 0.51306 25.78 12.66 25.293 27.117-0.22325 6.9718-3.1624 13.439-8.2715 18.232-5.1165 4.7707-11.806 7.2491-18.822 7.0371-14.428-0.53215-25.749-12.698-25.262-27.158 0.21201-6.9978 3.212-13.46 8.2988-18.23 5.0866-4.7707 11.743-7.2509 18.764-6.998zm4.2832 13.148c-6.4254 0-11.617 3.4576-11.617 7.7598 0 4.2614 5.1918 7.7383 11.617 7.7383 6.4216 0 11.631-3.4771 11.631-7.7383 0-4.3021-5.2057-7.7598-11.631-7.7598z" opacity=".5"/>
 </g>
</svg>
