<svg width="256" height="256" version="1.0" xmlns="http://www.w3.org/2000/svg">
 <title>Planet openSUSE</title>
 <defs>
  <filter id="filter1194" x="-.023176" y="-.024885" width="1.0464" height="1.0498" color-interpolation-filters="sRGB">
   <feGaussianBlur stdDeviation="1.6563947"/>
  </filter>
  <clipPath id="clipPath1213">
   <path d="m220.32 125.93c0 47.82-38.776 86.583-86.604 86.583-47.83 0-86.606-38.766-86.606-86.583 0-47.817 38.776-86.578 86.606-86.578 47.827 0 86.604 38.761 86.604 86.578z" fill="#386ab5" stroke-width="2.5758"/>
  </clipPath>
 </defs>
 <g transform="translate(0,176)">
  <path d="m236-48.003c0 59.65-48.355 108-108 108-59.646 0-108-48.356-108-108 0-59.647 48.355-108 108-108 59.643 0 108 48.35 108 108z" fill="#386ab5" stroke-width="3.2126"/>
  <path transform="matrix(1.247 0 0 1.2474 -38.743 -205.09)" d="m133.34 43.904-9.7422 1.1016-12.025 3.3066-2.2734 2.207 7.4727 5.1445v2.9414l-2.9238 2.9414 3.9004 7.7246 2.5938-1.4746 3.2559-5.1445c5.019-1.5513 9.5186-3.3098 14.289-5.5156l3.9024-9.9238zm-23.062 0.73242-4.1953 0.60156-1.9805 1.9746-3.2676 0.47266-2.9043 1.3652-1.4121 0.68164-0.86133 1.1543 4.2188 0.73242 1.627-1.4668 3.25-0.73633c2.2257-1.0821 4.4588-1.8106 6.8203-2.5742zm-19.172 8.8223-0.64648 1.4707 0.32422 3.6758-2.5996 2.207-1.625 4.043h3.25l1.625-3.6758c1.4011-0.99055 2.7956-1.9879 4.2227-2.9414l3.25 1.1035c2.1649 1.4704 4.3294 2.942 6.4961 4.4102l3.252-2.9395-3.5781-1.4707-1.625-3.3086-6.1719-0.73438-0.32422-1.8398-2.9258 0.73633-1.2969 2.5742zm-7.7969 2.9395-1.623 4.0449s-2.7175 0.53261-3.416 0.70508c-8.9211 8.2184-26.947 25.96-31.135 59.451 0.16581 0.77653 3.0371 5.2793 3.0371 5.2793l6.8203 4.0391 6.8223 1.8418 2.9277 3.6777 4.5449 3.3066 2.5996-0.36523 1.9473 0.87695v0.59375l-2.5957 6.9824-1.9512 2.9414 0.65039 1.4746-1.625 5.5059 5.8496 10.664 5.8457 5.1484 2.6016 3.6738-0.32812 7.7227 1.9512 4.4082-1.9512 8.4551s-0.15128-0.0513 0.09766 0.79492c0.25117 0.84669 10.409 6.4838 11.055 6.0039 0.64357-0.4888 1.1934-0.91602 1.1934-0.91602l-0.64844-1.834 2.5977-2.5742 0.97656-2.5742 4.2246-1.4746 3.2461-8.0898-0.97265-2.1992 2.2695-3.3066 4.875-1.1074 2.6016-5.8828-0.65039-7.3477 3.8965-5.5156 0.65039-5.5137c-5.3336-2.6442-10.622-5.3675-15.916-8.0898l-2.6016-5.1465-4.873-1.1016-2.5977-6.9824-6.4961 0.73437-5.5215-4.041-5.8516 5.1445v0.81055c-1.7698-0.51069-3.9456-0.58017-5.5215-1.5488l-1.3008-3.6738v-4.0449l-3.8965 0.36719c0.32536-2.5744 0.64701-5.1448 0.97461-7.7188h-2.2754l-2.2715 2.9414-2.2773 1.0996-3.25-1.834-0.32422-4.0449 0.65039-4.4102 4.875-3.6738h3.8965l0.64844-2.209 4.873 1.0996 3.5742 4.416 0.65039-7.3555 6.1738-5.1445 2.2734-5.5156 4.5488-1.8379 2.5977-3.6738 5.8477-1.1074 2.9258-4.4062h-8.7734l5.5234-2.5742h3.8965l5.5254-1.8418 0.6504-2.1992-1.9512-1.8418-2.2734-0.73633 0.64843-2.2051-1.623-3.3066-3.9004 1.4668 0.65039-2.9395-4.5469-2.5742-3.5723 6.2461 0.32226 2.207-3.5723 1.4746-2.2754 4.7773-0.97461-4.4102-6.1719-2.5742-0.97656-3.3086 8.123-4.7812 3.5742-3.3066 0.32617-4.043-1.9492-1.1035zm91.012 0-6.1719 1.4727-3.9004 2.5723v2.207l-6.1719 4.043 1.3008 5.8789 3.5781-2.5703 2.2695 2.5703 2.5977 1.4707 1.6289-4.4062-0.97852-2.5781 0.97852-1.8379 3.5664-3.3066h1.625l-1.625 3.6758v3.3105c1.4927-0.40614 3.0212-0.54449 4.5488-0.73438l-4.2207 2.9375-0.32618 1.8418-4.8711 4.041-4.8711-1.0996v-2.9414l-2.2774 1.4707 0.97657 2.5703h-3.5781l-1.9473 3.3105-2.4356 2.7539-4.3809 0.91992 2.5918 2.5742 0.65429 2.5703h-3.2461l-4.2246 2.207v6.6191h1.9453l1.7891 2.0215 4.0606-2.0215 1.623-4.0449 2.9238-1.8398 0.64648-1.4668 4.8789-1.0996 2.5938 2.9414 2.9277 1.4648-1.623 3.3086 2.5976-0.73438 1.2988-3.3066-3.25-3.6738h1.3047l3.248 2.5645 0.64453 3.6836 2.9238 3.3066 0.65039-4.7812 1.6289-0.73438c1.6063 1.667 2.864 3.6395 4.2168 5.5156l4.875 0.36719 2.9277 1.8359-1.3008 1.8379-2.9238 2.5742h-4.2246l-5.5254-1.8379-2.9199 0.36718-2.1133 2.3867-6.0098-6.0606-4.2246-1.1035-6.1719 0.73242-5.5254 1.4707c-3.099 3.5123-6.1625 7.0125-9.0957 10.66l-3.5684 8.459 1.623 1.8379-2.9238 4.4062 3.2461 7.7226c2.7624 3.124 5.5267 6.2488 8.2852 9.375l4.0625-3.4922 1.7852 2.0254 4.3867-2.7598 1.4609 1.6543h4.3906l2.5137 2.8516-1.5449 5.0527 3.0898 3.4902-0.16407 6.0644 2.2774 4.416-1.6289 3.6738c-0.16179 2.7049-0.32226 5.3845-0.32226 8.0898 1.3314 3.6651 2.6412 7.33 3.8984 11.021l0.96875 5.8906v2.9414h2.2774l3.5742-2.209h4.2207l6.3379-7.1719-0.8125-2.3828 4.2266-3.6816-3.0918-3.4922 3.7363-3.123 3.5801-2.209 1.623-1.832-0.97852-4.0488v-10.289l2.9258-6.2559 3.5742-4.041 3.8965-9.5586v-2.5742c-1.9315 0.24323-3.8058 0.45359-5.6953 0.58985l3.9062-3.8965 5.3594-3.6797 2.9297-3.3066v-3.6738c-0.65028-1.226-1.2964-2.4517-1.9512-3.6777l-2.6016 2.9414-1.9453-2.2051-2.9258-2.2109v-4.7734l3.4141 3.8574 3.7363-0.55078c1.7019 1.5446 3.3764 3.0246 4.8691 4.7832l2.4356-2.7578c0-2.9234-3.3423-17.318-10.461-29.531-7.1187-12.209-19.576-23.369-19.576-23.369l-0.98633 1.6152-3.2461 3.6738-4.2246-4.4102h4.2246l1.9453-2.2031-7.7949-1.4707zm-32.209 4.7812-2.6016 1.4727-1.2949-0.36914h-2e-3l-0.32617 2.2031 2.2774 1.4707 3.8945-2.5723zm-42.879 0.73437-2.6016 1.8379 3.248 2.2051h2.6016v-2.5723zm51.33 8.457v2.2051l1.2949 1.4707v3.3066l-0.6504 4.4141 3.5742-0.73633 2.5977-2.5703-2.2734-2.207c-0.7638-2.0334-1.6417-3.9325-2.5976-5.8828zm-1.3008 4.4121-2.2793 0.73633 0.65429 4.041 2.9258-1.4668zm-44.838 6.6152 0.97656 5.1445 1.9512-2.9395zm84.842 28.676 3.7363 4.2246 4.3848 9.373 2.5977 2.9394-1.3008 3.3086 2.4824 2.8145c-1.1381 0.077-2.2809 0.13476-3.4512 0.13476-2.0688-4.346-3.6277-8.6917-5.2031-13.238l-2.7578-3.125-1.4668-5.332z" clip-path="url(#clipPath1213)" fill-opacity=".39216" filter="url(#filter1194)" stroke-width="4.4686"/>
  <path d="m127.54-152.28-12.15 1.374-14.992 4.1283-2.835 2.7522 9.3151 6.4176v3.6696l-3.645 3.6654 4.8665 9.6392 3.2315-1.8412 4.0608-6.4154c6.2589-1.935 11.871-4.1292 17.82-6.8806l4.8643-12.379zm-28.757 0.91527-3.9493 0.56802c-0.54572 0.17596-1.0931 0.34937-1.635 0.53373l-2.1193 2.1135-4.0736 0.58946-3.6236 1.6998-1.7593 0.85311-1.0757 1.4404 5.2629 0.91312 2.0272-1.8327 4.0522-0.91526c2.7755-1.3499 5.5623-2.2585 8.5072-3.211zm-23.91 11.007-0.80572 1.8348 0.40286 4.5849-3.2422 2.7522-2.025 5.0436h4.0522l2.0272-4.5849c1.7473-1.2356 3.4854-2.4803 5.2651-3.6696l4.0522 1.3761c2.6997 1.8341 5.4002 3.671 8.1022 5.5023l4.0543-3.6675-4.4593-1.8348-2.0293-4.1262-7.6972-0.91955-0.40286-2.2914-3.6493 0.91742-1.6179 3.2088zm103.78 3.6654-7.6972 1.837-4.8665 3.2088v2.7565l-7.6951 5.0436 1.6222 7.3329 4.4636-3.2066 2.8308 3.2066 3.2358 1.8327 2.0314-5.498-1.2193-3.2131 1.2193-2.2935 4.4508-4.1262h2.0229l-2.0229 4.5849v4.1326c1.8615-0.5066 3.7673-0.68269 5.6722-0.91956l-5.2629 3.6675-0.40929 2.2978-6.0751 5.0372-6.0729-1.3718v-3.6654l-2.8415 1.8305 1.2193 3.2067h-4.4636l-2.4258 4.1326-3.0364 3.4339-5.4665 1.1489 3.2358 3.2109 0.8143 3.2067h-4.05l-5.2672 2.7522v8.2567h2.4258l2.2329 2.5186 5.0615-2.5186 2.0229-5.0458 3.6493-2.2978 0.80358-1.8262 6.0858-1.3718 3.2336 3.6675 3.6536 1.8284-2.0272 4.1241 3.24-0.91312 1.6222-4.1241-4.0564-4.5828h1.6264l4.0522 3.1981 0.80572 4.5956 3.645 4.1241 0.81214-5.9632 2.0272-0.91741c2.0031 2.0794 3.5715 4.5404 5.2586 6.8806l6.0793 0.45871 3.6536 2.2892-1.6222 2.2892-3.645 3.2152h-5.2694l-6.8893-2.2935-3.6407 0.45871-2.6358 2.9773-7.4936-7.5601-5.2693-1.3761-7.6951 0.91312-6.8915 1.8348c-3.8645 4.3811-7.6845 8.7441-11.342 13.294l-4.4529 10.555 2.025 2.2914-3.6472 5.4959 4.0479 9.6328c3.4449 3.8968 6.8931 7.7952 10.333 11.695l5.0658-4.3556 2.2264 2.525 5.4708-3.4424 1.8236 2.0642h5.4751l3.135 3.5582-1.9264 6.3018 3.8529 4.3534-0.20786 7.5644 2.8393 5.5088-2.0272 4.5828c-0.20187 3.374-0.405 6.717-0.405 10.092 1.6603 4.5717 3.2944 9.1421 4.8622 13.746l1.2064 7.3479v3.6696h2.8436l4.4572-2.7544h5.2629l7.9029-8.9469-1.0136-2.973 5.2693-4.5913-3.8529-4.3577 4.6586-3.8947 4.4615-2.7565 2.0272-2.285-1.2214-5.0501v-12.833l3.6472-7.8066 4.4572-5.0372 4.86-11.924v-3.2109c-2.4095 0.30351-4.7464 0.56526-7.1036 0.73521l4.8729-4.8614 6.6836-4.5871 3.6515-4.1262v-4.5828c-0.81093-1.5293-1.6157-3.0578-2.4322-4.587l-3.2443 3.6675-2.4279-2.7479-3.645-2.7587v-5.9567l4.2579 4.8121 4.6565-0.68378c2.1223 1.9267 4.2114 3.7695 6.0729 5.9632l3.0386-3.4381c0-3.6466-4.1686-21.602-13.046-36.836-8.8772-15.229-24.412-29.151-24.412-29.151l-1.23 2.017-4.05 4.5828-5.2672-5.5045h5.2672l2.4279-2.748-9.7201-1.8348zm-112.48 0.14576c-0.50677 0.3545-1.0104 0.7131-1.5107 1.076l-1.5364 3.824s-3.3867 0.6637-4.2579 0.87883c-10.176 8.8033-29.647 27.265-36.941 62.418-0.7719 4.0473-1.3221 8.1739-1.6286 12.368 0.85497 1.7601 3.5293 5.9589 3.5293 5.9589l8.5072 5.0393 8.5072 2.2978 3.6493 4.5871 5.6679 4.1241 3.24-0.45443 2.4322 1.0932v0.7395l-3.24 8.7111-2.4322 3.6675 0.81001 1.8413-2.0229 6.8677 7.2922 13.3 7.2922 6.4219 3.24 4.5828-0.405 9.6371 2.4322 5.4959-2.4322 10.546s-0.19243-0.06311 0.11786 0.99244c0.31318 1.0561 12.982 8.0858 13.787 7.4872 0.80258-0.60972 1.4893-1.1425 1.4893-1.1425l-0.80786-2.2871 3.2379-3.2109 1.2172-3.2109 5.2672-1.8391 4.05-10.092-1.215-2.7437 2.8307-4.1241 6.0815-1.3804 3.2422-7.3393-0.81215-9.1655 4.8622-6.8784 0.81001-6.8784c-6.6506-3.2979-13.247-6.6962-19.847-10.092l-3.2443-6.4219-6.0772-1.374-3.24-8.7068-8.1022 0.91312-6.8851-5.0393-7.2965 6.4176v1.0117c-2.2071-0.63703-4.9199-0.72304-6.8851-1.9313l-1.62-4.5828v-5.0458l-4.8622 0.45656c0.40572-3.2113 0.80649-6.4177 1.215-9.6285h-2.8372l-2.8329 3.6696-2.8393 1.3718-4.05-2.2871-0.40715-5.0436 0.81215-5.5045 6.0793-4.5828h4.86l0.80786-2.7522 6.0751 1.3718 4.4593 5.5045 0.81215-9.1741 7.6972-6.4176 2.8372-6.8806 5.6701-2.2892 3.24-4.5828 7.2901-1.3826 3.6515-5.498h-10.942l6.8894-3.2109h4.8558l6.8915-2.2957 0.81001-2.7436-2.4322-2.2978-2.835-0.91741 0.81001-2.748-2.0229-4.1284-4.8643 1.8305 0.81001-3.6675-5.6722-3.2109-4.455 7.7916 0.405 2.7522-4.455 1.8434-2.8393 5.9589-1.2129-5.5045-7.6994-3.2109-1.2172-4.1241 10.129-5.9675 4.4572-4.1241 0.40715-5.0436-2.4322-1.3761zm72.307 5.8196-3.2443 1.837-1.6136-0.46085h-2e-3l-0.40713 2.748 2.8393 1.8348 4.8558-3.2088zm-53.476 0.91527-3.2443 2.2935 4.05 2.7501h3.2443v-3.2088zm64.012 10.548v2.7501l1.6179 1.8327v4.1262l-0.81214 5.5066 4.4572-0.91742 3.24-3.2066-2.8372-2.7544c-0.95245-2.5364-2.0457-4.9044-3.2379-7.3372zm-1.6222 5.5023-2.8393 0.92169 0.8143 5.0393 3.6472-1.8284zm-55.912 8.2567 1.2193 6.4176 2.4322-3.6696zm105.8 35.768 4.6586 5.2708 5.4708 11.688 3.2379 3.6696-1.62 4.1241 3.0943 3.5132c-1.4192 0.09604-2.8435 0.16719-4.3029 0.16719-2.58-5.4211-4.5241-10.84-6.4886-16.511l-3.4415-3.899-1.8279-6.6512z" fill="#f6f6f5" stroke-width="1.2472"/>
  <circle cx="128" cy="-48" r="72" fill="#73ba25" fill-rule="evenodd" stroke-width="3.0911"/>
  <circle cx="533.36" cy="-783.96" r="0" fill="#fff" opacity=".3" stroke-width=".97987"/>
  <path d="m128.01-112.74a64.802 64.802 0 0 0-51.016 24.967c7.9042 2.1117 13.499 3.9266 15.174 4.4895 0.02629-1.028 0.19675-10.222 0.19675-10.222s0.02164-0.21046 0.13395-0.3202c0.14462-0.14123 0.3537-0.09861 0.3537-0.09861 2.0789 0.30112 46.452 6.8785 65.156 17.778 2.3098 1.3513 3.4499 2.788 4.8745 4.2445 5.1703 5.3473 12.002 27.582 12.736 32.167 0.0288 0.18014-0.19377 0.37581-0.28882 0.44997h-2e-3c-0.53119 0.4145-1.1096 0.8455-1.6891 1.2306-4.4257 2.9693-14.621 10.107-27.702 8.9413-11.75-1.0395-27.101-7.7795-45.608-19.974 1.8196 4.2603 3.6124 8.5337 5.4061 12.805 2.6801 1.392 28.549 14.574 41.315 14.316 10.283-0.21421 21.281-5.2299 25.681-7.878 0 0 0.96689-0.58252 1.3876-0.2574 0.46026 0.35556 0.33294 0.90036 0.22395 1.4567-0.27068 1.263-0.8869 3.5673-1.306 4.6611l-0.35371 0.89158c-0.50364 1.3494-0.98707 2.6036-1.9192 3.376-2.5919 2.3568-6.7287 4.2319-13.211 7.0491-10.02 4.3829-26.275 7.1702-41.367 7.0743-5.4056-0.12034-10.628-0.72012-15.214-1.2558-9.411-1.0625-17.069-1.9245-21.737 1.4526a64.802 64.802 0 0 0 48.776 22.26 64.802 64.802 0 0 0 64.802-64.803 64.802 64.802 0 0 0-64.802-64.803zm14.454 37.6c-5.0722-0.1617-9.9088 1.6282-13.617 5.0901-3.7064 3.4505-5.8274 8.1546-6.0152 13.224-0.35041 10.457 7.8594 19.267 18.307 19.653 5.0953 0.17103 9.9214-1.6201 13.63-5.1027 3.6969-3.4397 5.818-8.1441 6.0151-13.213 0.35899-10.448-7.8608-19.277-18.32-19.651zm-0.15907 5.5925c7.3094 0.25933 13.032 6.3996 12.786 13.707-0.1128 3.524-1.5994 6.7907-4.1817 9.2132-2.5861 2.4113-5.9661 3.6652-9.5125 3.558-7.2925-0.26897-13.016-6.4164-12.769-13.725 0.10716-3.5372 1.6233-6.8042 4.1943-9.2155 2.571-2.4113 5.9349-3.6649 9.4833-3.537zm2.1662 6.6451c-3.2477 0-5.8708 1.7478-5.8708 3.9223 0 2.1539 2.6231 3.9118 5.8708 3.9118 3.2458 0 5.8792-1.758 5.8792-3.9118 0-2.1745-2.6316-3.9223-5.8792-3.9223z" fill="#fff" stroke-width="1.0716"/>
 </g>
</svg>
