<svg width="64" height="64" version="1.0" xmlns="http://www.w3.org/2000/svg">
 <defs>
  <linearGradient id="linearGradient973" x1="310.41" x2="310.41" y1="168.84" y2="175.84" gradientTransform="translate(-293.41 -168.84)" gradientUnits="userSpaceOnUse">
   <stop stop-color="#999" offset="0"/>
   <stop stop-color="#ccc" offset=".57143"/>
   <stop stop-color="#808080" offset="1"/>
  </linearGradient>
 </defs>
 <g transform="translate(-293.41 -168.84)">
  <g fill-rule="evenodd">
   <rect x="301.41" y="212.84" width="48" height="20" ry="4" fill="#a02c2c"/>
   <rect x="301.41" y="172.84" width="48" height="59" ry="4" fill="#c83737"/>
   <rect x="303.41" y="172.84" width="44" height="57" ry="2" fill="#ccc"/>
   <rect x="303.41" y="171.84" width="44" height="54" ry="2" fill="#fff"/>
   <g fill="#333">
    <rect x="307.41" y="172.84" width="4" height="4" ry="2"/>
    <rect x="315.41" y="172.84" width="4" height="4" ry="2"/>
    <rect x="323.41" y="172.84" width="4" height="4" ry="2"/>
    <rect x="331.41" y="172.84" width="4" height="4" ry="2"/>
    <rect x="339.41" y="172.84" width="4" height="4" ry="2"/>
   </g>
   <path transform="translate(293.41 168.84)" d="m16 0c-0.554 0-1 0.446-1 1v5c0 0.554 0.446 1 1 1s1-0.446 1-1v-5c0-0.554-0.446-1-1-1zm8 0c-0.554 0-1 0.446-1 1v5c0 0.554 0.446 1 1 1s1-0.446 1-1v-5c0-0.554-0.446-1-1-1zm8 0c-0.554 0-1 0.446-1 1v5c0 0.554 0.446 1 1 1s1-0.446 1-1v-5c0-0.554-0.446-1-1-1zm8 0c-0.554 0-1 0.446-1 1v5c0 0.554 0.446 1 1 1s1-0.446 1-1v-5c0-0.554-0.446-1-1-1zm8 0c-0.554 0-1 0.446-1 1v5c0 0.554 0.446 1 1 1s1-0.446 1-1v-5c0-0.554-0.446-1-1-1z" fill="url(#linearGradient973)"/>
  </g>
  <path transform="translate(293.41,168.84)" d="m21.734 15.238c-1.3438 0-2.5859 0.24219-3.7266 0.72656-1.125 0.46875-2.2656 1.2656-3.4219 2.3906l1.4297 1.5c1.0625-0.98438 2.0156-1.6562 2.8594-2.0156 0.85938-0.35938 1.8281-0.53906 2.9062-0.53906 1.5938 0 2.8281 0.55469 3.7031 1.6641 0.89062 1.1094 1.3359 2.6406 1.3359 4.5938 0 2.2812-0.625 4.125-1.875 5.5312-1.2344 1.3906-2.8516 2.0859-4.8516 2.0859h-1.875v2.1562h1.7344c2.4219 0 4.25 0.64844 5.4844 1.9453s1.8516 3.0859 1.8516 5.3672c0 2.4062-0.53125 4.3047-1.5938 5.6953-1.0625 1.375-2.5469 2.0625-4.4531 2.0625-2.3438 0-4.5-0.57031-6.4688-1.7109v2.5312c1.6875 0.82812 3.8438 1.2422 6.4688 1.2422 2.5938 0 4.6406-0.875 6.1406-2.625 1.5156-1.7656 2.2734-4.1328 2.2734-7.1016 0-2.2656-0.53906-4.1406-1.6172-5.625-1.0625-1.5-2.5547-2.4609-4.4766-2.8828v-0.1875c1.8594-0.67188 3.25-1.75 4.1719-3.2344 0.92188-1.5 1.3828-3.3203 1.3828-5.4609 0-2.4375-0.67188-4.3984-2.0156-5.8828-1.3281-1.4844-3.1172-2.2266-5.3672-2.2266zm19.828 0c-5 0-7.5 5.8594-7.5 17.578 0 6.25 0.58594 10.758 1.7578 13.523 1.1875 2.75 3.1016 4.125 5.7422 4.125 2.5 0 4.375-1.4922 5.625-4.4766 1.2656-2.9844 1.8984-7.375 1.8984-13.172 0-5.9062-0.60938-10.312-1.8281-13.219-1.2031-2.9062-3.1016-4.3594-5.6953-4.3594zm0 2.2031c3.4219 0 5.1328 5.125 5.1328 15.375 0 10.297-1.7109 15.445-5.1328 15.445-1.7656 0-3.0625-1.2812-3.8906-3.8438-0.8125-2.5781-1.2188-6.4453-1.2188-11.602 0-5.1875 0.40625-9.0469 1.2188-11.578 0.82812-2.5312 2.125-3.7969 3.8906-3.7969z"/>
 </g>
</svg>
