<svg width="64" height="64" version="1.0" xmlns="http://www.w3.org/2000/svg">
 <defs>
  <linearGradient id="linearGradient973" x1="310.41" x2="310.41" y1="168.84" y2="175.84" gradientTransform="translate(-293.41 -168.84)" gradientUnits="userSpaceOnUse">
   <stop stop-color="#999" offset="0"/>
   <stop stop-color="#ccc" offset=".57143"/>
   <stop stop-color="#808080" offset="1"/>
  </linearGradient>
 </defs>
 <g transform="translate(-293.41 -168.84)">
  <g fill-rule="evenodd">
   <rect x="301.41" y="212.84" width="48" height="20" ry="4" fill="#a02c2c"/>
   <rect x="301.41" y="172.84" width="48" height="59" ry="4" fill="#c83737"/>
   <rect x="303.41" y="172.84" width="44" height="57" ry="2" fill="#ccc"/>
   <rect x="303.41" y="171.84" width="44" height="54" ry="2" fill="#fff"/>
   <g fill="#333">
    <rect x="307.41" y="172.84" width="4" height="4" ry="2"/>
    <rect x="315.41" y="172.84" width="4" height="4" ry="2"/>
    <rect x="323.41" y="172.84" width="4" height="4" ry="2"/>
    <rect x="331.41" y="172.84" width="4" height="4" ry="2"/>
    <rect x="339.41" y="172.84" width="4" height="4" ry="2"/>
   </g>
   <path transform="translate(293.41 168.84)" d="m16 0c-0.554 0-1 0.446-1 1v5c0 0.554 0.446 1 1 1s1-0.446 1-1v-5c0-0.554-0.446-1-1-1zm8 0c-0.554 0-1 0.446-1 1v5c0 0.554 0.446 1 1 1s1-0.446 1-1v-5c0-0.554-0.446-1-1-1zm8 0c-0.554 0-1 0.446-1 1v5c0 0.554 0.446 1 1 1s1-0.446 1-1v-5c0-0.554-0.446-1-1-1zm8 0c-0.554 0-1 0.446-1 1v5c0 0.554 0.446 1 1 1s1-0.446 1-1v-5c0-0.554-0.446-1-1-1zm8 0c-0.554 0-1 0.446-1 1v5c0 0.554 0.446 1 1 1s1-0.446 1-1v-5c0-0.554-0.446-1-1-1z" fill="url(#linearGradient973)"/>
  </g>
  <path transform="translate(293.41,168.84)" d="m41.398 15.238c-2.3438 0-4.1797 0.98438-5.5078 2.9531-1.3125 1.9531-1.9688 4.6328-1.9688 8.0391 0 3.2656 0.60938 5.8594 1.8281 7.7812s2.8984 2.8828 5.0391 2.8828c1.2031 0 2.2656-0.33594 3.1875-1.0078 0.92188-0.67188 1.6484-1.6016 2.1797-2.7891h0.1875c-0.15625 4.8594-0.89062 8.6016-2.2031 11.227s-3.1016 3.9375-5.3672 3.9375c-1.3906 0-2.5156-0.1875-3.375-0.5625v2.25c0.25 0.125 0.69531 0.24219 1.3359 0.35156 0.65625 0.10938 1.2734 0.16406 1.8516 0.16406 3.2969 0 5.7969-1.7188 7.5-5.1562 1.7188-3.4531 2.5781-8.5938 2.5781-15.422 0-4.7188-0.61719-8.3359-1.8516-10.852-1.2188-2.5312-3.0234-3.7969-5.4141-3.7969zm-18.469 0.49219-6.6094 6.0938 1.1953 1.4766 2.9297-2.6719c1.2031-1.2031 1.9688-2.0234 2.2969-2.4609-0.125 2.375-0.1875 4.5859-0.1875 6.6328v25.195h2.25v-34.266h-1.875zm18.328 1.7109c1.0312 0 1.9219 0.40625 2.6719 1.2188 0.75 0.79688 1.3281 1.9766 1.7344 3.5391 0.42188 1.5625 0.63281 3.3203 0.63281 5.2734 0 2.2031-0.47656 3.9688-1.4297 5.2969-0.9375 1.3125-2.1875 1.9688-3.75 1.9688-1.6094 0-2.8203-0.73438-3.6328-2.2031-0.8125-1.4844-1.2188-3.6172-1.2188-6.3984 0-2.9062 0.44531-5.0781 1.3359-6.5156 0.90625-1.4531 2.125-2.1797 3.6562-2.1797z"/>
 </g>
</svg>
