<svg width="16" height="16" version="1.1" viewBox="0 0 16 16" xmlns="http://www.w3.org/2000/svg">
 <title>Group</title>
 <g transform="matrix(.49953 0 0 .49953 -.019981 -.009991)">
  <path d="m20.68 27.37h6.62v-6.64l4.67-4.7-4.67-4.67v-6.64h-6.62l-4.68-4.7-4.67 4.7h-6.63v6.64l-4.66 4.68 4.67 4.7v6.63h6.63l4.66 4.68 4.68-4.68" fill="#fbbc05"/>
  <path d="m16 5.8c5.63 0 10.2 4.6 10.2 10.24 0 5.65-4.57 10.24-10.2 10.24s-10.2-4.6-10.2-10.24 4.56-10.24 10.2-10.24m0-0.57c-5.96 0-10.8 4.84-10.8 10.8 0 6 4.84 10.83 10.8 10.83s10.8-4.84 10.8-10.82c0-5.97-4.84-10.8-10.8-10.8" fill="#fff"/>
  <path d="m16.5 11.04v0.06l-2.18 9.58-0.08 0.37h1.34v-0.07l2.18-9.58 0.08-0.36zm-3.43 1.3-0.18 0.14-3.92 3.05-0.25 0.2v0.63l0.26 0.2 3.9 3.05 0.17 0.15v-1.66l-2.63-2.06 2.65-2.04zm5.85 0v1.66l2.63 2.04-2.63 2.06v1.64l0.18-0.13 3.9-3.04 0.26-0.2v-0.63l-0.25-0.2-3.9-3.05-0.18-0.14zm7.03 3.7c0 2.76-1.12 5.24-2.92 7.05-1.8 1.8-4.28 2.9-7.03 2.9s-5.23-1.1-7.03-2.9c-1.8-1.82-2.9-4.3-2.9-7.06s1.09-5.23 2.89-7.03 4.28-2.93 7.03-2.93 5.24 1.13 7.04 2.93 2.92 4.3 2.92 7.04h1.45c0-3.15-1.28-6-3.34-8.08-2.06-2.06-4.9-3.34-8.06-3.34-3.14 0-6 1.28-8.06 3.34-2.06 2.07-3.34 4.93-3.34 8.08 0 3.16 1.28 6.02 3.34 8.08 2.06 2.08 4.92 3.35 8.06 3.35 3.15 0 6-1.28 8.06-3.35 2.06-2.06 3.34-4.92 3.34-8.08h-1.46z" fill="#fff"/>
 </g>
</svg>
