<svg width="256" height="256" version="1.0" xmlns="http://www.w3.org/2000/svg" xmlns:xlink="http://www.w3.org/1999/xlink">
 <title>Planet openSUSE</title>
 <defs>
  <filter id="filter5788" x="-.081695" y="-.19014" width="1.1634" height="1.3803" color-interpolation-filters="sRGB">
   <feGaussianBlur stdDeviation="1.5316122"/>
  </filter>
  <filter id="filter6979" color-interpolation-filters="sRGB">
   <feGaussianBlur stdDeviation="0.37067433"/>
  </filter>
  <linearGradient id="linearGradient6694">
   <stop stop-color="#fff" offset="0"/>
   <stop stop-color="#fff" stop-opacity="0" offset="1"/>
  </linearGradient>
  <linearGradient id="linearGradient6868">
   <stop offset="0"/>
   <stop stop-opacity="0" offset="1"/>
  </linearGradient>
  <linearGradient id="linearGradient5911">
   <stop stop-color="#f6f6f5" offset="0"/>
   <stop stop-color="#ecece9" offset=".38095"/>
   <stop stop-color="#c5c5be" offset=".7619"/>
   <stop stop-color="#fff" offset="1"/>
  </linearGradient>
  <radialGradient id="radialGradient4531" cx="15.116" cy="63.965" r="12.289" gradientTransform="scale(1.644 .60828)" gradientUnits="userSpaceOnUse">
   <stop offset="0"/>
   <stop stop-opacity="0" offset="1"/>
  </radialGradient>
  <radialGradient id="radialGradient4533" cx="18.248" cy="15.716" r="29.993" gradientTransform="matrix(5.266 0 0 5.2645 -5.9885 -8.8939)" gradientUnits="userSpaceOnUse">
   <stop stop-color="#d3e9ff" offset="0"/>
   <stop stop-color="#d3e9ff" offset=".15517"/>
   <stop stop-color="#4074ae" offset=".63109"/>
   <stop stop-color="#3b5e8d" offset=".81554"/>
   <stop stop-color="#526ea5" offset="1"/>
  </radialGradient>
  <radialGradient id="radialGradient4535" cx="24.881" cy="23" r="19.19" gradientTransform="matrix(1 0 0 .93161 0 1.5731)" gradientUnits="userSpaceOnUse" xlink:href="#linearGradient6868"/>
  <radialGradient id="radialGradient4617" cx="24.138" cy="14.214" r="19.19" gradientTransform="matrix(1.7005 0 0 1.5842 -16.908 -7.7022)" gradientUnits="userSpaceOnUse" xlink:href="#linearGradient5911"/>
  <radialGradient id="radialGradient4699" cx="23.605" cy="17.963" r="19.278" gradientTransform="matrix(1.0188 0 0 .9597 -.21847 2.4284)" gradientUnits="userSpaceOnUse" xlink:href="#linearGradient6694"/>
  <radialGradient id="radialGradient4781" cx="123" cy="95.127" r="108" gradientTransform="matrix(1.0939 0 0 1.0939 -11.549 -8.8319)" gradientUnits="userSpaceOnUse">
   <stop stop-opacity="0" offset="0"/>
   <stop stop-opacity="0" offset=".80952"/>
   <stop offset="1"/>
  </radialGradient>
  <radialGradient id="radialGradient4783" cx="123" cy="99.534" r="108" gradientTransform="matrix(1.0939 0 0 1.0939 -11.549 -8.8319)" gradientUnits="userSpaceOnUse">
   <stop stop-color="#fff" stop-opacity="0" offset="0"/>
   <stop stop-color="#fff" stop-opacity="0" offset=".90476"/>
   <stop stop-color="#fff" offset="1"/>
  </radialGradient>
  <radialGradient id="radialGradient12070" cx="23.605" cy="17.963" r="19.278" gradientTransform="matrix(1.7677 0 0 1.6647 191.39 2.2938)" gradientUnits="userSpaceOnUse" xlink:href="#linearGradient6694"/>
  <radialGradient id="radialGradient12288" cx="24.138" cy="14.214" r="19.19" gradientTransform="matrix(2.9505 0 0 2.7479 162.43 -15.279)" gradientUnits="userSpaceOnUse" xlink:href="#linearGradient5911"/>
  <radialGradient id="radialGradient6282" cx="235.25" cy="73.463" r="33.623" gradientTransform="matrix(1 0 0 .17102 0 60.9)" gradientUnits="userSpaceOnUse">
   <stop offset="0"/>
   <stop stop-opacity="0" offset="1"/>
  </radialGradient>
 </defs>
 <g transform="translate(0,176)">
  <g transform="matrix(1.0867 0 0 1.0867 278.84 441.17)">
   <g>
    <path transform="matrix(4.6599 0 0 5.4114 10.934 -5.6676)" d="m45.053 38.909c0 4.1284-9.0452 7.4751-20.203 7.4751-11.158 0-20.203-3.3467-20.203-7.4751 0-4.1284 9.0452-7.4751 20.203-7.4751 11.158 0 20.203 3.3467 20.203 7.4751z" fill="url(#radialGradient4531)" filter="url(#filter5788)"/>
    <g>
     <path d="m236.65 118.11c0 61.021-49.483 110.49-110.51 110.49-61.036 0-110.52-49.468-110.52-110.49 0-61.018 49.48-110.48 110.52-110.48 61.03 0 110.51 49.462 110.51 110.48z" fill="url(#radialGradient4533)"/>
     <g transform="matrix(5.7031 0 0 5.7014 -16.799 -15.771)" fill="url(#radialGradient4535)" filter="url(#filter6979)">
      <g fill="url(#radialGradient4535)">
       <path d="m44.071 20.714v0l-0.5449 0.6172c-0.334-0.3936-0.709-0.7246-1.0898-1.0703l-0.8359 0.123-0.7637-0.8633v1.0684l0.6543 0.4951 0.4355 0.4932 0.582-0.6582c0.1465 0.2744 0.291 0.5488 0.4365 0.8232v0.8223l-0.6553 0.7402-1.1992 0.8232-0.9082 0.9063-0.582-0.6602 0.291-0.7402-0.5811-0.6582-0.9814-2.0977-0.8359-0.9453-0.2188 0.2461 0.3281 1.1934 0.6172 0.6992c0.3525 1.0176 0.7012 1.9902 1.1641 2.9629 0.7178 0 1.3945-0.0762 2.1074-0.166v0.5762l-0.8721 2.1392-0.7998 0.9043-0.6543 1.4004v2.3027l0.2188 0.9063-0.3633 0.4102-0.8008 0.4941-0.8359 0.6992 0.6914 0.7813-0.9453 0.8242 0.1816 0.5332-1.418 1.6055h-0.9443l-0.7998 0.4941h-0.5098v-0.6582l-0.2168-1.3184c-0.2813-0.8262-0.5742-1.6465-0.8721-2.4668 0-0.6055 0.0361-1.2051 0.0723-1.8105l0.3643-0.8223-0.5098-0.9883 0.0371-1.3574-0.6914-0.7813 0.3457-1.1309-0.5625-0.6382h-0.9824l-0.3271-0.3701-0.9814 0.6177-0.3994-0.4536-0.9092 0.7817c-0.6172-0.6997-1.2354-1.3989-1.8535-2.0981l-0.7266-1.7285 0.6543-0.9863-0.3633-0.4111 0.7988-1.8936c0.6563-0.8164 1.3418-1.5996 2.0352-2.3857l1.2363-0.3291 1.3809-0.1641 0.9453 0.2471 1.3447 1.3564 0.4727-0.5342 0.6533-0.082 1.2363 0.4111h0.9453l0.6543-0.5762 0.291-0.4111-0.6553-0.4111-1.0908-0.082c-0.3027-0.4199-0.584-0.8613-0.9434-1.2344l-0.3643 0.1641-0.1455 1.0703-0.6543-0.7402-0.1445-0.8242-0.7266-0.5742h-0.292l0.7275 0.8223-0.291 0.7402-0.5811 0.1641 0.3633-0.7402-0.6553-0.3281-0.5801-0.6582-1.0918 0.2461-0.1445 0.3281-0.6543 0.4121-0.3633 0.9053-0.9082 0.4521-0.4004-0.4521h-0.4355v-1.4814l0.9453-0.4941h0.7266l-0.1465-0.5752-0.5801-0.5762 0.9805-0.2061 0.5449-0.6162 0.4355-0.7412h0.8008l-0.2188-0.5752 0.5098-0.3291v0.6582l1.0898 0.2461 1.0898-0.9043 0.0732-0.4121 0.9443-0.6577c-0.3418 0.0425-0.6836 0.0737-1.0176 0.1646v-0.7411l0.3633-0.8228h-0.3633l-0.7984 0.7402-0.2188 0.4116 0.2188 0.5767-0.3643 0.9863-0.5811-0.3291-0.5078-0.5752-0.8008 0.5752-0.291-1.3159 1.3809-0.9048v-0.4941l0.873-0.5757 1.3809-0.3296 0.9453 0.3296 1.7441 0.3291-0.4355 0.4932h-0.9453l0.9453 0.9873 0.7266-0.8223 0.2207-0.3618s2.7871 2.498 4.3799 5.2305c1.5928 2.7334 2.3408 5.9551 2.3408 6.6094z" fill="url(#radialGradient4535)"/>
      </g>
      <g fill="url(#radialGradient4535)">
       <path d="m26.07 9.2363-0.0732 0.4932 0.5098 0.3291 0.8711-0.5757-0.4355-0.4937-0.582 0.3296-0.29-0.0825" fill="url(#radialGradient4535)"/>
      </g>
      <g fill="url(#radialGradient4535)">
       <path d="m26.87 5.8633-1.8906-0.7407-2.1797 0.2466-2.6904 0.7402-0.5088 0.4941 1.6719 1.1514v0.6582l-0.6543 0.6582 0.873 1.729 0.5801-0.3301 0.7285-1.1514c1.123-0.3472 2.1299-0.7407 3.1973-1.2344l0.873-2.2212" fill="url(#radialGradient4535)"/>
      </g>
      <g fill="url(#radialGradient4535)">
       <path d="m28.833 12.775-0.291-0.7412-0.5098 0.165 0.1465 0.9043 0.6543-0.3281" fill="url(#radialGradient4535)"/>
      </g>
      <g fill="url(#radialGradient4535)">
       <path d="m29.123 12.609-0.1455 0.9883 0.7998-0.165 0.5811-0.5752-0.5088-0.4941c-0.1709-0.4551-0.3672-0.8799-0.5811-1.3164h-0.4355v0.4932l0.29 0.3291v0.7402" fill="url(#radialGradient4535)"/>
      </g>
      <g fill="url(#radialGradient4535)">
       <path d="m18.365 28.242-0.582-1.1523-1.0903-0.2466-0.5815-1.5625-1.4536 0.1641-1.2354-0.9043-1.3091 1.1514v0.1816c-0.396-0.1143-0.8828-0.1299-1.2354-0.3467l-0.291-0.8223v-0.9053l-0.8721 0.082c0.0728-0.5762 0.145-1.1514 0.2183-1.7275h-0.5093l-0.5083 0.6582-0.5093 0.2461-0.7271-0.4102-0.0728-0.9053 0.1455-0.9873 1.0908-0.8223h0.8721l0.145-0.4941 1.0903 0.2461 0.7998 0.9883 0.1455-1.6465 1.3813-1.1514 0.5088-1.2344 1.0176-0.4111 0.5815-0.8223 1.3081-0.248 0.6548-0.9863h-1.9629l1.2358-0.5762h0.8716l1.2363-0.4121 0.1455-0.4922-0.4365-0.4121-0.5088-0.165 0.1455-0.4932-0.3633-0.7402-0.8726 0.3281 0.1455-0.6577-1.0176-0.5762-0.7993 1.3979 0.0723 0.4941-0.7993 0.3301-0.5093 1.0693-0.2178-0.9873-1.3813-0.5762-0.2183-0.7402 1.8174-1.0703 0.7998-0.7402 0.0728-0.9048-0.436-0.2471-0.5815-0.0825-0.3633 0.9053s-0.6079 0.1191-0.7642 0.1577c-1.9961 1.8394-6.0293 5.8101-6.9663 13.306 0.0371 0.1738 0.6792 1.1816 0.6792 1.1816l1.5264 0.9043 1.5264 0.4121 0.6548 0.8232 1.0171 0.7402 0.5815-0.082 0.436 0.1963v0.1328l-0.5811 1.563-0.4365 0.6582 0.1455 0.3301-0.3633 1.2324 1.3086 2.3867 1.3081 1.1523 0.582 0.8223-0.0732 1.7285 0.4365 0.9863-0.4365 1.8926s-0.0342-0.0117 0.0215 0.1777c0.0562 0.1895 2.3291 1.4512 2.4736 1.3438 0.144-0.1094 0.2671-0.2051 0.2671-0.2051l-0.145-0.4102 0.5811-0.5762 0.2183-0.5762 0.9453-0.3301 0.7266-1.8105-0.2178-0.4922 0.5078-0.7402 1.0908-0.248 0.582-1.3164-0.1455-1.6445 0.8721-1.2344 0.1455-1.2344c-1.1934-0.5918-2.377-1.2012-3.5615-1.8105" fill="url(#radialGradient4535)"/>
      </g>
      <g fill="url(#radialGradient4535)">
       <path d="m16.766 9.5649 0.7266 0.4937h0.582v-0.5757l-0.7266-0.3291-0.582 0.4111" fill="url(#radialGradient4535)"/>
      </g>
      <g fill="url(#radialGradient4535)">
       <path d="m14.876 8.9072-0.3638 0.9048h0.7271l0.3638-0.8228c0.3135-0.2217 0.6255-0.4448 0.9448-0.6582l0.7271 0.2471c0.4844 0.3291 0.9688 0.6582 1.4536 0.9868l0.7275-0.6577-0.8003-0.3291-0.3638-0.7407-1.3809-0.1646-0.0728-0.4116-0.6543 0.165-0.2904 0.5758-0.3638-0.7407-0.145 0.3291 0.0728 0.8228-0.5816 0.494" fill="url(#radialGradient4535)"/>
      </g>
      <g opacity=".75"></g>
      <g opacity=".75"></g>
      <g fill="url(#radialGradient4535)">
       <path d="m17.492 6.8496 0.3638-0.3286 0.7271-0.1646c0.498-0.2422 0.998-0.4053 1.5264-0.5762l-0.29-0.4937-0.9385 0.1348-0.4434 0.4419-0.731 0.106-0.6499 0.3052-0.3159 0.1528-0.1929 0.2583 0.9443 0.1641" fill="url(#radialGradient4535)"/>
      </g>
      <g fill="url(#radialGradient4535)">
       <path d="m18.728 14.666 0.4365-0.6582-0.6548-0.4932 0.2183 1.1514" fill="url(#radialGradient4535)"/>
      </g>
     </g>
     <g transform="matrix(5.7031 0 0 5.7014 -16.799 -17.771)" fill="url(#radialGradient4617)">
      <g fill="url(#radialGradient4617)">
       <path d="m44.071 20.714v0l-0.5449 0.6172c-0.334-0.3936-0.709-0.7246-1.0898-1.0703l-0.8359 0.123-0.7637-0.8633v1.0684l0.6543 0.4951 0.4355 0.4932 0.582-0.6582c0.1465 0.2744 0.291 0.5488 0.4365 0.8232v0.8223l-0.6553 0.7402-1.1992 0.8232-0.9082 0.9063-0.582-0.6602 0.291-0.7402-0.5811-0.6582-0.9814-2.0977-0.8359-0.9453-0.2188 0.2461 0.3281 1.1934 0.6172 0.6992c0.3525 1.0176 0.7012 1.9902 1.1641 2.9629 0.7178 0 1.3945-0.0762 2.1074-0.166v0.5762l-0.8721 2.1392-0.7998 0.9043-0.6543 1.4004v2.3027l0.2188 0.9063-0.3633 0.4102-0.8008 0.4941-0.8359 0.6992 0.6914 0.7813-0.9453 0.8242 0.1816 0.5332-1.418 1.6055h-0.9443l-0.7998 0.4941h-0.5098v-0.6582l-0.2168-1.3184c-0.2813-0.8262-0.5742-1.6465-0.8721-2.4668 0-0.6055 0.0361-1.2051 0.0723-1.8105l0.3643-0.8223-0.5098-0.9883 0.0371-1.3574-0.6914-0.7813 0.3457-1.1309-0.5625-0.6382h-0.9824l-0.3271-0.3701-0.9814 0.6177-0.3994-0.4536-0.9092 0.7817c-0.6172-0.6997-1.2354-1.3989-1.8535-2.0981l-0.7266-1.7285 0.6543-0.9863-0.3633-0.4111 0.7988-1.8936c0.6563-0.8164 1.3418-1.5996 2.0352-2.3857l1.2363-0.3291 1.3809-0.1641 0.9453 0.2471 1.3447 1.3564 0.4727-0.5342 0.6533-0.082 1.2363 0.4111h0.9453l0.6543-0.5762 0.291-0.4111-0.6553-0.4111-1.0908-0.082c-0.3027-0.4199-0.584-0.8613-0.9434-1.2344l-0.3643 0.1641-0.1455 1.0703-0.6543-0.7402-0.1445-0.8242-0.7266-0.5742h-0.292l0.7275 0.8223-0.291 0.7402-0.5811 0.1641 0.3633-0.7402-0.6553-0.3281-0.5801-0.6582-1.0918 0.2461-0.1445 0.3281-0.6543 0.4121-0.3633 0.9053-0.9082 0.4521-0.4004-0.4521h-0.4355v-1.4814l0.9453-0.4941h0.7266l-0.1465-0.5752-0.5801-0.5762 0.9805-0.2061 0.5449-0.6162 0.4355-0.7412h0.8008l-0.2188-0.5752 0.5098-0.3291v0.6582l1.0898 0.2461 1.0898-0.9043 0.0732-0.4121 0.9443-0.6577c-0.3418 0.0425-0.6836 0.0737-1.0176 0.1646v-0.7411l0.3633-0.8228h-0.3633l-0.7984 0.7402-0.2188 0.4116 0.2188 0.5767-0.3643 0.9863-0.5811-0.3291-0.5078-0.5752-0.8008 0.5752-0.291-1.3159 1.3809-0.9048v-0.4941l0.873-0.5757 1.3809-0.3296 0.9453 0.3296 1.7441 0.3291-0.4355 0.4932h-0.9453l0.9453 0.9873 0.7266-0.8223 0.2207-0.3618s2.7871 2.498 4.3799 5.2305c1.5928 2.7334 2.3408 5.9551 2.3408 6.6094z" fill="url(#radialGradient4617)"/>
      </g>
      <g fill="url(#radialGradient4617)">
       <path d="m26.07 9.2363-0.0732 0.4932 0.5098 0.3291 0.8711-0.5757-0.4355-0.4937-0.582 0.3296-0.29-0.0825" fill="url(#radialGradient4617)"/>
      </g>
      <g fill="url(#radialGradient4617)">
       <path d="m26.87 5.8633-1.8906-0.7407-2.1797 0.2466-2.6904 0.7402-0.5088 0.4941 1.6719 1.1514v0.6582l-0.6543 0.6582 0.873 1.729 0.5801-0.3301 0.7285-1.1514c1.123-0.3472 2.1299-0.7407 3.1973-1.2344l0.873-2.2212" fill="url(#radialGradient4617)"/>
      </g>
      <g fill="url(#radialGradient4617)">
       <path d="m28.833 12.775-0.291-0.7412-0.5098 0.165 0.1465 0.9043 0.6543-0.3281" fill="url(#radialGradient4617)"/>
      </g>
      <g fill="url(#radialGradient4617)">
       <path d="m29.123 12.609-0.1455 0.9883 0.7998-0.165 0.5811-0.5752-0.5088-0.4941c-0.1709-0.4551-0.3672-0.8799-0.5811-1.3164h-0.4355v0.4932l0.29 0.3291v0.7402" fill="url(#radialGradient4617)"/>
      </g>
      <g fill="url(#radialGradient4617)">
       <path d="m18.365 28.242-0.582-1.1523-1.0903-0.2466-0.5815-1.5625-1.4536 0.1641-1.2354-0.9043-1.3091 1.1514v0.1816c-0.396-0.1143-0.8828-0.1299-1.2354-0.3467l-0.291-0.8223v-0.9053l-0.8721 0.082c0.0728-0.5762 0.145-1.1514 0.2183-1.7275h-0.5093l-0.5083 0.6582-0.5093 0.2461-0.7271-0.4102-0.0728-0.9053 0.1455-0.9873 1.0908-0.8223h0.8721l0.145-0.4941 1.0903 0.2461 0.7998 0.9883 0.1455-1.6465 1.3813-1.1514 0.5088-1.2344 1.0176-0.4111 0.5815-0.8223 1.3081-0.248 0.6548-0.9863h-1.9629l1.2358-0.5762h0.8716l1.2363-0.4121 0.1455-0.4922-0.4365-0.4121-0.5088-0.165 0.1455-0.4932-0.3633-0.7402-0.8726 0.3281 0.1455-0.6577-1.0176-0.5762-0.7993 1.3979 0.0723 0.4941-0.7993 0.3301-0.5093 1.0693-0.2178-0.9873-1.3813-0.5762-0.2183-0.7402 1.8174-1.0703 0.7998-0.7402 0.0728-0.9048-0.436-0.2471-0.5815-0.0825-0.3633 0.9053s-0.6079 0.1191-0.7642 0.1577c-1.9961 1.8394-6.0293 5.8101-6.9663 13.306 0.0371 0.1738 0.6792 1.1816 0.6792 1.1816l1.5264 0.9043 1.5264 0.4121 0.6548 0.8232 1.0171 0.7402 0.5815-0.082 0.436 0.1963v0.1328l-0.5811 1.563-0.4365 0.6582 0.1455 0.3301-0.3633 1.2324 1.3086 2.3867 1.3081 1.1523 0.582 0.8223-0.0732 1.7285 0.4365 0.9863-0.4365 1.8926s-0.0342-0.0117 0.0215 0.1777c0.0562 0.1895 2.3291 1.4512 2.4736 1.3438 0.144-0.1094 0.2671-0.2051 0.2671-0.2051l-0.145-0.4102 0.5811-0.5762 0.2183-0.5762 0.9453-0.3301 0.7266-1.8105-0.2178-0.4922 0.5078-0.7402 1.0908-0.248 0.582-1.3164-0.1455-1.6445 0.8721-1.2344 0.1455-1.2344c-1.1934-0.5918-2.377-1.2012-3.5615-1.8105" fill="url(#radialGradient4617)"/>
      </g>
      <g fill="url(#radialGradient4617)">
       <path d="m16.766 9.5649 0.7266 0.4937h0.582v-0.5757l-0.7266-0.3291-0.582 0.4111" fill="url(#radialGradient4617)"/>
      </g>
      <g fill="url(#radialGradient4617)">
       <path d="m14.876 8.9072-0.3638 0.9048h0.7271l0.3638-0.8228c0.3135-0.2217 0.6255-0.4448 0.9448-0.6582l0.7271 0.2471c0.4844 0.3291 0.9688 0.6582 1.4536 0.9868l0.7275-0.6577-0.8003-0.3291-0.3638-0.7407-1.3809-0.1646-0.0728-0.4116-0.6543 0.165-0.2904 0.5758-0.3638-0.7407-0.145 0.3291 0.0728 0.8228-0.5816 0.494" fill="url(#radialGradient4617)"/>
      </g>
      <g opacity=".75"></g>
      <g opacity=".75"></g>
      <g fill="url(#radialGradient4617)">
       <path d="m17.492 6.8496 0.3638-0.3286 0.7271-0.1646c0.498-0.2422 0.998-0.4053 1.5264-0.5762l-0.29-0.4937-0.9385 0.1348-0.4434 0.4419-0.731 0.106-0.6499 0.3052-0.3159 0.1528-0.1929 0.2583 0.9443 0.1641" fill="url(#radialGradient4617)"/>
      </g>
      <g fill="url(#radialGradient4617)">
       <path d="m18.728 14.666 0.4365-0.6582-0.6548-0.4932 0.2183 1.1514" fill="url(#radialGradient4617)"/>
      </g>
     </g>
    </g>
   </g>
   <g transform="matrix(5.7031 0 0 5.7014 -16.799 -17.771)" fill="none" stroke="url(#radialGradient4699)" stroke-width=".17537">
    <g fill="none" stroke="url(#radialGradient4699)" stroke-width=".17537">
     <path d="m44.071 20.714v0l-0.5449 0.6172c-0.334-0.3936-0.709-0.7246-1.0898-1.0703l-0.8359 0.123-0.7637-0.8633v1.0684l0.6543 0.4951 0.4355 0.4932 0.582-0.6582c0.1465 0.2744 0.291 0.5488 0.4365 0.8232v0.8223l-0.6553 0.7402-1.1992 0.8232-0.9082 0.9063-0.582-0.6602 0.291-0.7402-0.5811-0.6582-0.9814-2.0977-0.8359-0.9453-0.2188 0.2461 0.3281 1.1934 0.6172 0.6992c0.3525 1.0176 0.7012 1.9902 1.1641 2.9629 0.7178 0 1.3945-0.0762 2.1074-0.166v0.5762l-0.8721 2.1392-0.7998 0.9043-0.6543 1.4004v2.3027l0.2188 0.9063-0.3633 0.4102-0.8008 0.4941-0.8359 0.6992 0.6914 0.7813-0.9453 0.8242 0.1816 0.5332-1.418 1.6055h-0.9443l-0.7998 0.4941h-0.5098v-0.6582l-0.2168-1.3184c-0.2813-0.8262-0.5742-1.6465-0.8721-2.4668 0-0.6055 0.0361-1.2051 0.0723-1.8105l0.3643-0.8223-0.5098-0.9883 0.0371-1.3574-0.6914-0.7813 0.3457-1.1309-0.5625-0.6382h-0.9824l-0.3271-0.3701-0.9814 0.6177-0.3994-0.4536-0.9092 0.7817c-0.6172-0.6997-1.2354-1.3989-1.8535-2.0981l-0.7266-1.7285 0.6543-0.9863-0.3633-0.4111 0.7988-1.8936c0.6563-0.8164 1.3418-1.5996 2.0352-2.3857l1.2363-0.3291 1.3809-0.1641 0.9453 0.2471 1.3447 1.3564 0.4727-0.5342 0.6533-0.082 1.2363 0.4111h0.9453l0.6543-0.5762 0.291-0.4111-0.6553-0.4111-1.0908-0.082c-0.3027-0.4199-0.584-0.8613-0.9434-1.2344l-0.3643 0.1641-0.1455 1.0703-0.6543-0.7402-0.1445-0.8242-0.7266-0.5742h-0.292l0.7275 0.8223-0.291 0.7402-0.5811 0.1641 0.3633-0.7402-0.6553-0.3281-0.5801-0.6582-1.0918 0.2461-0.1445 0.3281-0.6543 0.4121-0.3633 0.9053-0.9082 0.4521-0.4004-0.4521h-0.4355v-1.4814l0.9453-0.4941h0.7266l-0.1465-0.5752-0.5801-0.5762 0.9805-0.2061 0.5449-0.6162 0.4355-0.7412h0.8008l-0.2188-0.5752 0.5098-0.3291v0.6582l1.0898 0.2461 1.0898-0.9043 0.0732-0.4121 0.9443-0.6577c-0.3418 0.0425-0.6836 0.0737-1.0176 0.1646v-0.7411l0.3633-0.8228h-0.3633l-0.7984 0.7402-0.2188 0.4116 0.2188 0.5767-0.3643 0.9863-0.5811-0.3291-0.5078-0.5752-0.8008 0.5752-0.291-1.3159 1.3809-0.9048v-0.4941l0.873-0.5757 1.3809-0.3296 0.9453 0.3296 1.7441 0.3291-0.4355 0.4932h-0.9453l0.9453 0.9873 0.7266-0.8223 0.2207-0.3618s2.7871 2.498 4.3799 5.2305c1.5928 2.7334 2.3408 5.9551 2.3408 6.6094z" fill="none" stroke="url(#radialGradient4699)" stroke-width=".17537"/>
    </g>
    <g fill="none" stroke="url(#radialGradient4699)" stroke-width=".17537">
     <path d="m26.07 9.2363-0.0732 0.4932 0.5098 0.3291 0.8711-0.5757-0.4355-0.4937-0.582 0.3296-0.29-0.0825" fill="none" stroke="url(#radialGradient4699)" stroke-width=".17537"/>
    </g>
    <g fill="none" stroke="url(#radialGradient4699)" stroke-width=".17537">
     <path d="m26.87 5.8633-1.8906-0.7407-2.1797 0.2466-2.6904 0.7402-0.5088 0.4941 1.6719 1.1514v0.6582l-0.6543 0.6582 0.873 1.729 0.5801-0.3301 0.7285-1.1514c1.123-0.3472 2.1299-0.7407 3.1973-1.2344l0.873-2.2212" fill="none" stroke="url(#radialGradient4699)" stroke-width=".17537"/>
    </g>
    <g fill="none" stroke="url(#radialGradient4699)" stroke-width=".17537">
     <path d="m28.833 12.775-0.291-0.7412-0.5098 0.165 0.1465 0.9043 0.6543-0.3281" fill="none" stroke="url(#radialGradient4699)" stroke-width=".17537"/>
    </g>
    <g fill="none" stroke="url(#radialGradient4699)" stroke-width=".17537">
     <path d="m29.123 12.609-0.1455 0.9883 0.7998-0.165 0.5811-0.5752-0.5088-0.4941c-0.1709-0.4551-0.3672-0.8799-0.5811-1.3164h-0.4355v0.4932l0.29 0.3291v0.7402" fill="none" stroke="url(#radialGradient4699)" stroke-width=".17537"/>
    </g>
    <g fill="none" stroke="url(#radialGradient4699)" stroke-width=".17537">
     <path d="m18.365 28.242-0.582-1.1523-1.0903-0.2466-0.5815-1.5625-1.4536 0.1641-1.2354-0.9043-1.3091 1.1514v0.1816c-0.396-0.1143-0.8828-0.1299-1.2354-0.3467l-0.291-0.8223v-0.9053l-0.8721 0.082c0.0728-0.5762 0.145-1.1514 0.2183-1.7275h-0.5093l-0.5083 0.6582-0.5093 0.2461-0.7271-0.4102-0.0728-0.9053 0.1455-0.9873 1.0908-0.8223h0.8721l0.145-0.4941 1.0903 0.2461 0.7998 0.9883 0.1455-1.6465 1.3813-1.1514 0.5088-1.2344 1.0176-0.4111 0.5815-0.8223 1.3081-0.248 0.6548-0.9863h-1.9629l1.2358-0.5762h0.8716l1.2363-0.4121 0.1455-0.4922-0.4365-0.4121-0.5088-0.165 0.1455-0.4932-0.3633-0.7402-0.8726 0.3281 0.1455-0.6577-1.0176-0.5762-0.7993 1.3979 0.0723 0.4941-0.7993 0.3301-0.5093 1.0693-0.2178-0.9873-1.3813-0.5762-0.2183-0.7402 1.8174-1.0703 0.7998-0.7402 0.0728-0.9048-0.436-0.2471-0.5815-0.0825-0.3633 0.9053s-0.6079 0.1191-0.7642 0.1577c-1.9961 1.8394-6.0293 5.8101-6.9663 13.306 0.0371 0.1738 0.6792 1.1816 0.6792 1.1816l1.5264 0.9043 1.5264 0.4121 0.6548 0.8232 1.0171 0.7402 0.5815-0.082 0.436 0.1963v0.1328l-0.5811 1.563-0.4365 0.6582 0.1455 0.3301-0.3633 1.2324 1.3086 2.3867 1.3081 1.1523 0.582 0.8223-0.0732 1.7285 0.4365 0.9863-0.4365 1.8926s-0.0342-0.0117 0.0215 0.1777c0.0562 0.1895 2.3291 1.4512 2.4736 1.3438 0.144-0.1094 0.2671-0.2051 0.2671-0.2051l-0.145-0.4102 0.5811-0.5762 0.2183-0.5762 0.9453-0.3301 0.7266-1.8105-0.2178-0.4922 0.5078-0.7402 1.0908-0.248 0.582-1.3164-0.1455-1.6445 0.8721-1.2344 0.1455-1.2344c-1.1934-0.5918-2.377-1.2012-3.5615-1.8105" fill="none" stroke="url(#radialGradient4699)" stroke-width=".17537"/>
    </g>
    <g fill="none" stroke="url(#radialGradient4699)" stroke-width=".17537">
     <path d="m16.766 9.5649 0.7266 0.4937h0.582v-0.5757l-0.7266-0.3291-0.582 0.4111" fill="#eeeeec" stroke="url(#radialGradient4699)" stroke-width=".17537"/>
    </g>
    <g fill="none" stroke="url(#radialGradient4699)" stroke-width=".17537">
     <path d="m14.876 8.9072-0.3638 0.9048h0.7271l0.3638-0.8228c0.3135-0.2217 0.6255-0.4448 0.9448-0.6582l0.7271 0.2471c0.4844 0.3291 0.9688 0.6582 1.4536 0.9868l0.7275-0.6577-0.8003-0.3291-0.3638-0.7407-1.3809-0.1646-0.0728-0.4116-0.6543 0.165-0.2904 0.5758-0.3638-0.7407-0.145 0.3291 0.0728 0.8228-0.5816 0.494" fill="#eeeeec" stroke="url(#radialGradient4699)" stroke-width=".17537"/>
    </g>
    <g opacity=".75"></g>
    <g opacity=".75"></g>
    <g fill="none" stroke="url(#radialGradient4699)" stroke-width=".17537">
     <path d="m17.492 6.8496 0.3638-0.3286 0.7271-0.1646c0.498-0.2422 0.998-0.4053 1.5264-0.5762l-0.29-0.4937-0.9385 0.1348-0.4434 0.4419-0.731 0.106-0.6499 0.3052-0.3159 0.1528-0.1929 0.2583 0.9443 0.1641" fill="#eeeeec" stroke="url(#radialGradient4699)" stroke-width=".17537"/>
    </g>
    <g fill="none" stroke="url(#radialGradient4699)" stroke-width=".17537">
     <path d="m18.728 14.666 0.4365-0.6582-0.6548-0.4932 0.2183 1.1514" fill="none" stroke="url(#radialGradient4699)" stroke-width=".17537"/>
    </g>
   </g>
   <g fill-rule="evenodd">
    <path transform="matrix(1.0278 0 0 1.0278 -.41667 3.9444)" d="m231 110c0 59.647-48.353 108-108 108-59.647 0-108-48.353-108-108 0-59.647 48.353-108 108-108 59.647 0 108 48.353 108 108z" color="#000000" fill="url(#radialGradient4781)" opacity=".34286"/>
    <path transform="matrix(1.0297 0 0 1.0297 -.65254 3.7335)" d="m231 110c0 59.647-48.353 108-108 108-59.647 0-108-48.353-108-108 0-59.647 48.353-108 108-108 59.647 0 108 48.353 108 108z" color="#000000" fill="url(#radialGradient4783)" opacity=".46857"/>
   </g>
  </g>
  <g transform="matrix(2.5758 0 0 2.5758 -472.24 -151.61)">
   <path d="m268.87 73.463c0 3.1757-15.054 5.7502-33.622 5.7502-18.569 0-33.623-2.5745-33.623-5.7502 0-3.1756 15.054-5.7498 33.623-5.7498 18.568 0 33.622 2.5742 33.622 5.7498z" fill="url(#radialGradient6282)" opacity=".3"/>
   <g fill-opacity=".39216" stroke="url(#radialGradient12070)" stroke-width=".30424">
    <path d="m268.23 34.012v0l-0.94546 1.0706c-0.57953-0.68273-1.2302-1.2569-1.8909-1.8565l-1.4504 0.21335-1.3251-1.4975v1.8532l1.1353 0.85879 0.75564 0.8555 1.0098-1.1417c0.25419 0.47597 0.50491 0.95194 0.75737 1.4279v1.4263l-1.137 1.2839-2.0807 1.4279-1.5758 1.5721-1.0098-1.1452 0.50492-1.2839-1.0083-1.1417-1.7028-3.6386-1.4504-1.6397-0.37964 0.42688 0.56928 2.0701 1.0709 1.2128c0.61162 1.7651 1.2166 3.4522 2.0198 5.1394 1.2455 0 2.4196-0.13218 3.6566-0.28794v0.99947l-1.5132 3.7106-1.3877 1.5686-1.1353 2.4291v3.9942l0.37964 1.5721-0.63036 0.71153-1.3895 0.85706-1.4504 1.2128 1.1996 1.3552-1.6402 1.4296 0.3151 0.92488-2.4604 2.7849h-1.6385l-1.3877 0.85706h-0.88456v-1.1417l-0.37617-2.2869c-0.48808-1.4331-0.99629-2.856-1.5132-4.2789 0-1.0503 0.0626-2.0903 0.12545-3.1405l0.6321-1.4264-0.88456-1.7143 0.0644-2.3545-1.1996-1.3552 0.59983-1.9616-0.976-1.107h-1.7046l-0.56755-0.64197-1.7028 1.0715-0.693-0.78681-1.5776 1.3559c-1.0709-1.2137-2.1436-2.4265-3.216-3.6393l-1.2607-2.9982 1.1353-1.7108-0.63036-0.71309 1.386-3.2846c1.1387-1.4161 2.3282-2.7746 3.5313-4.1382l2.1451-0.57085 2.396-0.28465 1.6402 0.42862 2.3332 2.3528 0.82019-0.92662 1.1335-0.14224 2.1451 0.71309h1.6402l1.1353-0.99947 0.50491-0.71309-1.137-0.71309-1.8926-0.14224c-0.52522-0.72835-1.0133-1.494-1.6369-2.1412l-0.63209 0.28465-0.25246 1.8565-1.1353-1.2839-0.25072-1.4296-1.2607-0.996h-0.50665l1.2623 1.4264-0.50491 1.2839-1.0083 0.28464 0.63036-1.2839-1.137-0.56912-1.0065-1.1417-1.8944 0.42688-0.25072 0.56912-1.1353 0.71482-0.63036 1.5703-1.5758 0.78421-0.69474-0.78421h-0.75564v-2.5696l1.6402-0.85706h1.2607l-0.25419-0.99773-1.0065-0.99947 1.7013-0.3575 0.94546-1.0689 0.75564-1.2857h1.3895l-0.37964-0.99773 0.88455-0.57085v1.1417l1.8909 0.42688 1.8909-1.5686 0.12701-0.71482 1.6385-1.1408c-0.59306 0.07372-1.1861 0.12784-1.7656 0.28551v-1.2855l0.63036-1.4272h-0.63036l-1.3853 1.2839-0.37964 0.71396 0.37964 1.0003-0.63209 1.7108-1.0083-0.57085-0.88109-0.99773-1.3895 0.99773-0.50491-2.2825 2.396-1.5695v-0.85706l1.5148-0.9986 2.396-0.57172 1.6402 0.57172 3.0262 0.57085-0.75564 0.8555h-1.6402l1.6402 1.7126 1.2607-1.4264 0.38294-0.62757s4.8359 4.333 7.5996 9.0727c2.7637 4.7413 4.0615 10.33 4.0615 11.465z"/>
    <path d="m237 14.103-0.12701 0.8555 0.88456 0.57085 1.5114-0.9986-0.75563-0.85636-1.0098 0.57172-0.50318-0.1431"/>
    <path d="m238.39 8.252-3.2804-1.2848-3.782 0.42775-4.6681 1.2839-0.88282 0.85706 2.9009 1.9972v1.1417l-1.1353 1.1417 1.5147 2.9991 1.0065-0.57259 1.264-1.9972c1.9485-0.60225 3.6956-1.2848 5.5476-2.1412l1.5148-3.8529"/>
    <path d="m241.79 20.241-0.50492-1.2857-0.88455 0.28621 0.25419 1.5686 1.1353-0.56912"/>
    <path d="m242.3 19.953-0.25246 1.7143 1.3877-0.28621 1.0083-0.99773-0.88282-0.85706c-0.29652-0.78941-0.63713-1.5263-1.0083-2.2834h-0.75564v0.8555l0.50318 0.57085v1.2839"/>
    <path d="m223.63 47.07-1.0098-1.9988-1.8918-0.42775-1.009-2.7103-2.5222 0.28465-2.1436-1.5686-2.2714 1.9972v0.315c-0.6871-0.19826-1.5318-0.22532-2.1436-0.60138l-0.50491-1.4264v-1.5703l-1.5132 0.14224c0.12631-0.99947 0.25159-1.9972 0.37877-2.9965h-0.88369l-0.88195 1.1417-0.88369 0.42688-1.2616-0.71153-0.12632-1.5703 0.25246-1.7126 1.8926-1.4263h1.5132l0.25159-0.85706 1.8918 0.42688 1.3877 1.7143 0.25246-2.856 2.3967-1.9972 0.88282-2.1412 1.7656-0.71309 1.009-1.4263 2.2697-0.43018 1.1361-1.7108h-3.4058l2.1442-0.99947h1.5123l2.1451-0.71482 0.25246-0.85376-0.75737-0.71482-0.88282-0.28621 0.25245-0.8555-0.63036-1.2839-1.514 0.56912 0.25246-1.1408-1.7656-0.99947-1.3869 2.4248 0.12545 0.85706-1.3869 0.57259-0.88369 1.8548-0.3779-1.7126-2.3967-0.99947-0.37877-1.2839 3.1534-1.8565 1.3877-1.2839 0.12631-1.5695-0.7565-0.42862-1.009-0.1431-0.63037 1.5703s-1.0548 0.20659-1.326 0.27354c-3.4634 3.1906-10.461 10.078-12.087 23.081 0.0644 0.30147 1.1785 2.0496 1.1785 2.0496l2.6485 1.5686 2.6485 0.71482 1.1362 1.4279 1.7648 1.2839 1.009-0.14224 0.7565 0.3405v0.23035l-1.0083 2.7112-0.75737 1.1417 0.25246 0.57259-0.63037 2.1377 2.2706 4.1399 2.2697 1.9988 1.0098 1.4264-0.12701 2.9982 0.75737 1.7108-0.75737 3.2829s-0.0593-0.0203 0.0373 0.30824c0.0975 0.3287 4.0412 2.5172 4.292 2.3309 0.24986-0.18976 0.46345-0.35576 0.46345-0.35576l-0.25159-0.71153 1.0083-0.99947 0.37877-0.99947 1.6402-0.57259 1.2607-3.1405-0.37791-0.85376 0.88109-1.2839 1.8926-0.43018 1.0098-2.2834-0.25246-2.8525 1.5132-2.1412 0.25246-2.1412c-2.0707-1.0265-4.1243-2.0836-6.1796-3.1405"/>
    <path d="m220.85 14.673 1.2607 0.85636h1.0098v-0.9986l-1.2607-0.57085-1.0098 0.71309"/>
    <path d="m217.58 13.532-0.63123 1.5695h1.2616l0.63123-1.4272c0.54396-0.38456 1.0853-0.77154 1.6393-1.1417l1.2616 0.42862c0.84048 0.57085 1.681 1.1417 2.5222 1.7117l1.2623-1.1408-1.3886-0.57085-0.63123-1.2848-2.396-0.28551-0.12632-0.71396-1.1353 0.28621-0.50387 0.99877-0.63123-1.2848-0.25159 0.57085 0.12632 1.4272-1.0091 0.85688"/>
   </g>
   <g fill="none" stroke="url(#radialGradient12070)" stroke-width=".30424"></g>
   <path d="m222.12 9.9628 0.63123-0.56998 1.2616-0.28551c0.86408-0.42012 1.7316-0.70303 2.6485-0.99947l-0.50318-0.85636-1.6284 0.23382-0.76935 0.76651-1.2684 0.18387-1.1276 0.5294-0.54812 0.26504-0.3347 0.44804 1.6385 0.28465" fill-opacity=".39216" stroke="url(#radialGradient12070)" stroke-width=".30424"/>
   <path d="m224.26 23.522 0.75738-1.1417-1.1362-0.8555 0.37877 1.9972" fill-opacity=".39216" stroke="url(#radialGradient12070)" stroke-width=".30424"/>
   <path d="m268.87 39.422c0 18.565-15.054 33.614-33.622 33.614-18.569 0-33.623-15.05-33.623-33.614 0-18.564 15.054-33.612 33.623-33.612 18.568 0 33.622 15.048 33.622 33.612z" fill="#386ab5"/>
   <g fill-opacity=".39216">
    <path transform="matrix(1.7351 0 0 1.7346 191.76 -1.3099)" d="m44.071 20.714v0l-0.5449 0.6172c-0.334-0.3936-0.709-0.7246-1.0898-1.0703l-0.8359 0.123-0.7637-0.8633v1.0684l0.6543 0.4951 0.4355 0.4932 0.582-0.6582c0.1465 0.2744 0.291 0.5488 0.4365 0.8232v0.8223l-0.6553 0.7402-1.1992 0.8232-0.9082 0.9063-0.582-0.6602 0.291-0.7402-0.5811-0.6582-0.9814-2.0977-0.8359-0.9453-0.2188 0.2461 0.3281 1.1934 0.6172 0.6992c0.3525 1.0176 0.7012 1.9902 1.1641 2.9629 0.7178 0 1.3945-0.0762 2.1074-0.166v0.5762l-0.8721 2.1392-0.7998 0.9043-0.6543 1.4004v2.3027l0.2188 0.9063-0.3633 0.4102-0.8008 0.4941-0.8359 0.6992 0.6914 0.7813-0.9453 0.8242 0.1816 0.5332-1.418 1.6055h-0.9443l-0.7998 0.4941h-0.5098v-0.6582l-0.2168-1.3184c-0.2813-0.8262-0.5742-1.6465-0.8721-2.4668 0-0.6055 0.0361-1.2051 0.0723-1.8105l0.3643-0.8223-0.5098-0.9883 0.0371-1.3574-0.6914-0.7813 0.3457-1.1309-0.5625-0.6382h-0.9824l-0.3271-0.3701-0.9814 0.6177-0.3994-0.4536-0.9092 0.7817c-0.6172-0.6997-1.2354-1.3989-1.8535-2.0981l-0.7266-1.7285 0.6543-0.9863-0.3633-0.4111 0.7988-1.8936c0.6563-0.8164 1.3418-1.5996 2.0352-2.3857l1.2363-0.3291 1.3809-0.1641 0.9453 0.2471 1.3447 1.3564 0.4727-0.5342 0.6533-0.082 1.2363 0.4111h0.9453l0.6543-0.5762 0.291-0.4111-0.6553-0.4111-1.0908-0.082c-0.3027-0.4199-0.584-0.8613-0.9434-1.2344l-0.3643 0.1641-0.1455 1.0703-0.6543-0.7402-0.1445-0.8242-0.7266-0.5742h-0.292l0.7275 0.8223-0.291 0.7402-0.5811 0.1641 0.3633-0.7402-0.6553-0.3281-0.5801-0.6582-1.0918 0.2461-0.1445 0.3281-0.6543 0.4121-0.3633 0.9053-0.9082 0.4521-0.4004-0.4521h-0.4355v-1.4814l0.9453-0.4941h0.7266l-0.1465-0.5752-0.5801-0.5762 0.9805-0.2061 0.5449-0.6162 0.4355-0.7412h0.8008l-0.2188-0.5752 0.5098-0.3291v0.6582l1.0898 0.2461 1.0898-0.9043 0.0732-0.4121 0.9443-0.6577c-0.3418 0.0425-0.6836 0.0737-1.0176 0.1646v-0.7411l0.3633-0.8228h-0.3633l-0.7984 0.7402-0.2188 0.4116 0.2188 0.5767-0.3643 0.9863-0.5811-0.3291-0.5078-0.5752-0.8008 0.5752-0.291-1.3159 1.3809-0.9048v-0.4941l0.873-0.5757 1.3809-0.3296 0.9453 0.3296 1.7441 0.3291-0.4355 0.4932h-0.9453l0.9453 0.9873 0.7266-0.8223 0.2207-0.3618s2.7871 2.498 4.3799 5.2305c1.5928 2.7334 2.3408 5.9551 2.3408 6.6094z" filter="url(#filter6979)"/>
    <path transform="matrix(1.7351 0 0 1.7346 191.76 -1.3099)" d="m26.07 9.2363-0.0732 0.4932 0.5098 0.3291 0.8711-0.5757-0.4355-0.4937-0.582 0.3296-0.29-0.0825" filter="url(#filter6979)"/>
    <path transform="matrix(1.7351 0 0 1.7346 191.76 -1.3099)" d="m26.87 5.8633-1.8906-0.7407-2.1797 0.2466-2.6904 0.7402-0.5088 0.4941 1.6719 1.1514v0.6582l-0.6543 0.6582 0.873 1.729 0.5801-0.3301 0.7285-1.1514c1.123-0.3472 2.1299-0.7407 3.1973-1.2344l0.873-2.2212" filter="url(#filter6979)"/>
    <path transform="matrix(1.7351 0 0 1.7346 191.76 -1.3099)" d="m28.833 12.775-0.291-0.7412-0.5098 0.165 0.1465 0.9043 0.6543-0.3281" filter="url(#filter6979)"/>
    <path transform="matrix(1.7351 0 0 1.7346 191.76 -1.3099)" d="m29.123 12.609-0.1455 0.9883 0.7998-0.165 0.5811-0.5752-0.5088-0.4941c-0.1709-0.4551-0.3672-0.8799-0.5811-1.3164h-0.4355v0.4932l0.29 0.3291v0.7402" filter="url(#filter6979)"/>
    <path transform="matrix(1.7351 0 0 1.7346 191.76 -1.3099)" d="m18.365 28.242-0.582-1.1523-1.0903-0.2466-0.5815-1.5625-1.4536 0.1641-1.2354-0.9043-1.3091 1.1514v0.1816c-0.396-0.1143-0.8828-0.1299-1.2354-0.3467l-0.291-0.8223v-0.9053l-0.8721 0.082c0.0728-0.5762 0.145-1.1514 0.2183-1.7275h-0.5093l-0.5083 0.6582-0.5093 0.2461-0.7271-0.4102-0.0728-0.9053 0.1455-0.9873 1.0908-0.8223h0.8721l0.145-0.4941 1.0903 0.2461 0.7998 0.9883 0.1455-1.6465 1.3813-1.1514 0.5088-1.2344 1.0176-0.4111 0.5815-0.8223 1.3081-0.248 0.6548-0.9863h-1.9629l1.2358-0.5762h0.8716l1.2363-0.4121 0.1455-0.4922-0.4365-0.4121-0.5088-0.165 0.1455-0.4932-0.3633-0.7402-0.8726 0.3281 0.1455-0.6577-1.0176-0.5762-0.7993 1.3979 0.0723 0.4941-0.7993 0.3301-0.5093 1.0693-0.2178-0.9873-1.3813-0.5762-0.2183-0.7402 1.8174-1.0703 0.7998-0.7402 0.0728-0.9048-0.436-0.2471-0.5815-0.0825-0.3633 0.9053s-0.6079 0.1191-0.7642 0.1577c-1.9961 1.8394-6.0293 5.8101-6.9663 13.306 0.0371 0.1738 0.6792 1.1816 0.6792 1.1816l1.5264 0.9043 1.5264 0.4121 0.6548 0.8232 1.0171 0.7402 0.5815-0.082 0.436 0.1963v0.1328l-0.5811 1.563-0.4365 0.6582 0.1455 0.3301-0.3633 1.2324 1.3086 2.3867 1.3081 1.1523 0.582 0.8223-0.0732 1.7285 0.4365 0.9863-0.4365 1.8926s-0.0342-0.0117 0.0215 0.1777c0.0562 0.1895 2.3291 1.4512 2.4736 1.3438 0.144-0.1094 0.2671-0.2051 0.2671-0.2051l-0.145-0.4102 0.5811-0.5762 0.2183-0.5762 0.9453-0.3301 0.7266-1.8105-0.2178-0.4922 0.5078-0.7402 1.0908-0.248 0.582-1.3164-0.1455-1.6445 0.8721-1.2344 0.1455-1.2344c-1.1934-0.5918-2.377-1.2012-3.5615-1.8105" filter="url(#filter6979)"/>
    <path transform="matrix(1.7351 0 0 1.7346 191.76 -1.3099)" d="m16.766 9.5649 0.7266 0.4937h0.582v-0.5757l-0.7266-0.3291-0.582 0.4111" filter="url(#filter6979)"/>
    <path transform="matrix(1.7351 0 0 1.7346 191.76 -1.3099)" d="m14.876 8.9072-0.3638 0.9048h0.7271l0.3638-0.8228c0.3135-0.2217 0.6255-0.4448 0.9448-0.6582l0.7271 0.2471c0.4844 0.3291 0.9688 0.6582 1.4536 0.9868l0.7275-0.6577-0.8003-0.3291-0.3638-0.7407-1.3809-0.1646-0.0728-0.4116-0.6543 0.165-0.2904 0.5758-0.3638-0.7407-0.145 0.3291 0.0728 0.8228-0.5816 0.494" filter="url(#filter6979)"/>
   </g>
   <g fill="url(#radialGradient4535)"></g>
   <g>
    <path transform="matrix(1.7351 0 0 1.7346 191.76 -1.3099)" d="m17.492 6.8496 0.3638-0.3286 0.7271-0.1646c0.498-0.2422 0.998-0.4053 1.5264-0.5762l-0.29-0.4937-0.9385 0.1348-0.4434 0.4419-0.731 0.106-0.6499 0.3052-0.3159 0.1528-0.1929 0.2583 0.9443 0.1641" fill-opacity=".39216" filter="url(#filter6979)"/>
    <path transform="matrix(1.7351 0 0 1.7346 191.76 -1.3099)" d="m18.728 14.666 0.4365-0.6582-0.6548-0.4932 0.2183 1.1514" fill-opacity=".39216" filter="url(#filter6979)"/>
    <path transform="matrix(.38822 0 0 .38822 183.33 -9.4674)" d="m133.36 42.332-9.7422 1.1016-12.023 3.3086-2.2734 2.207 7.4707 5.1445v2.9414l-2.9238 2.9395 3.9023 7.7266 2.5918-1.4746 3.2559-5.1445c5.0191-1.5513 9.5204-3.3098 14.291-5.5156l3.9004-9.9238zm-23.061 0.73242-4.1953 0.60352-1.9824 1.9746-3.2656 0.47266-2.9062 1.3633-1.4102 0.68359-0.86328 1.1543 4.2207 0.73242 1.625-1.4688 3.25-0.73438c2.2257-1.0822 4.4607-1.8106 6.8223-2.5742zm-19.174 8.8242-0.64648 1.4707 0.32422 3.6758-2.5996 2.207-1.625 4.043h3.25l1.625-3.6758c1.4012-0.99056 2.7956-1.9879 4.2227-2.9414l3.25 1.1035c2.1649 1.4704 4.3293 2.942 6.4961 4.4102l3.252-2.9395-3.5762-1.4707-1.627-3.3086-6.1719-0.73633-0.32422-1.8379-2.9258 0.73633-1.2969 2.5723zm-7.7949 2.9395-1.625 4.0449s-2.7155 0.53261-3.4141 0.70508c-9.0246 7.8052-27.168 25.076-31.135 59.451 0.16588 0.77654 3.0352 5.2812 3.0352 5.2812l6.8223 4.0391 6.8223 1.8418 2.9258 3.6777 4.5449 3.3066 2.5996-0.36523 1.9492 0.87695v0.59375l-2.5977 6.9824-1.9512 2.9414 0.65039 1.4746-1.623 5.5059 5.8477 10.664 5.8477 5.1484 2.5996 3.6738-0.32617 7.7246 1.9512 4.4062-1.9512 8.4551s-0.15312-0.0513 0.0957 0.79492c0.25114 0.84669 10.409 6.4838 11.055 6.0039 0.6436-0.4888 1.1953-0.91602 1.1953-0.91602l-0.64844-1.834 2.5977-2.5742 0.97461-2.5742 4.2246-1.4746 3.248-8.0898-0.97461-2.1992 2.2695-3.3066 4.877-1.1074 2.5996-5.8828-0.65039-7.3477 3.8984-5.5156 0.65039-5.5137c-5.3332-2.6439-10.623-5.3678-15.916-8.0898l-2.6016-5.1484-4.873-1.1016-2.5996-6.9805-6.4961 0.73242-5.5215-4.041-5.8516 5.1445v0.8125c-1.7699-0.5107-3.9456-0.58017-5.5215-1.5488l-1.2988-3.6738v-4.0449l-3.8984 0.36523c0.32535-2.5745 0.64701-5.1447 0.97461-7.7188h-2.2754l-2.2715 2.9414-2.2773 1.0996-3.248-1.832-0.32617-4.0449 0.65039-4.4121 4.875-3.6738h3.8984l0.64648-2.207 4.873 1.0996 3.5762 4.4141 0.65039-7.3555 6.1719-5.1445 2.2754-5.5156 4.5469-1.8359 2.5996-3.6738 5.8457-1.1094 2.9277-4.4062h-8.7734l5.5234-2.5742h3.8945l5.5254-1.8418 0.65039-2.1992-1.9512-1.8418-2.2734-0.73633 0.65039-2.2031-1.623-3.3086-3.9004 1.4668 0.65039-2.9395-4.5488-2.5742-3.5723 6.2461 0.32422 2.207-3.5723 1.4766-2.2773 4.7773-0.97266-4.4121-6.1738-2.5742-0.97656-3.3066 8.123-4.7832 3.5742-3.3066 0.32617-4.043-1.9492-1.1035zm91.014 0-6.1719 1.4727-3.9024 2.5723v2.209l-6.1719 4.043 1.3008 5.8789 3.5801-2.5703 2.2695 2.5703 2.5957 1.4707 1.6289-4.4082-0.97852-2.5762 0.97852-1.8379 3.5684-3.3086h1.623l-1.623 3.6758v3.3125c1.4928-0.40614 3.0212-0.54644 4.5488-0.73633l-4.2207 2.9395-0.32812 1.8418-4.8711 4.0391-4.8692-1.0996v-2.9395l-2.2793 1.4688 0.97851 2.5703h-3.5801l-1.9453 3.3125-2.4355 2.7539-4.3828 0.91992 2.5938 2.5742 0.6543 2.5703h-3.248l-4.2246 2.207v6.6191h1.9453l1.791 2.0195 4.0586-2.0195 1.623-4.0449 2.9258-1.8418 0.64454-1.4648 4.8808-1.0996 2.5918 2.9414 2.9297 1.4648-1.625 3.3066 2.5977-0.73242 1.3008-3.3066-3.252-3.6738h1.3047l3.248 2.5645 0.64648 3.6836 2.9238 3.3066 0.65039-4.7812 1.627-0.73437c1.6063 1.667 2.8639 3.6395 4.2168 5.5156l4.875 0.36719 2.9297 1.8359-1.3008 1.8359-2.9238 2.5762h-4.2246l-5.5254-1.8379-2.9199 0.36718-2.1133 2.3867-6.0098-6.0605-4.2246-1.1035-6.1719 0.73242-5.5254 1.4707c-3.099 3.5123-6.1625 7.0105-9.0957 10.658l-3.5703 8.4609 1.623 1.8379-2.9238 4.4062 3.2461 7.7226c2.7625 3.124 5.5267 6.2487 8.2852 9.375l4.0625-3.4922 1.7852 2.0254 4.3867-2.7598 1.4629 1.6543h4.3906l2.5137 2.8516-1.5449 5.0527 3.0898 3.4902-0.16601 6.0644 2.2773 4.416-1.627 3.6738c-0.16189 2.7049-0.32422 5.3845-0.32422 8.0898 1.3314 3.6651 2.6412 7.33 3.8984 11.021l0.96875 5.8906v2.9414h2.2793l3.5742-2.207h4.2207l6.3379-7.1738-0.8125-2.3828 4.2246-3.6816-3.0898-3.4922 3.7363-3.123 3.5781-2.209 1.625-1.832-0.97851-4.0488v-10.289l2.9238-6.2578 3.5742-4.0391 3.8984-9.5586v-2.5742c-1.9322 0.24332-3.807 0.4536-5.6973 0.58985l3.9082-3.8984 5.3594-3.6777 2.9277-3.3066v-3.6738c-0.6503-1.226-1.2945-2.4517-1.9492-3.6777l-2.6016 2.9395-1.9473-2.2031-2.9238-2.2109v-4.7754l3.4141 3.8574 3.7344-0.54882c1.7019 1.5446 3.3783 3.0226 4.8711 4.7812l2.4355-2.7559c0-2.9234-3.3422-17.318-10.461-29.531-7.1188-12.209-19.576-23.371-19.576-23.371l-0.98632 1.6172-3.248 3.6738-4.2246-4.4121h4.2246l1.9473-2.2031-7.7949-1.4707zm-32.211 4.7812-2.6016 1.4727-1.2949-0.36914h-2e-3l-0.32617 2.2031 2.2773 1.4707 3.8945-2.5723zm-42.883 0.73438-2.6016 1.8379 3.248 2.2051h2.6016v-2.5723zm51.332 8.457v2.2031l1.2969 1.4707v3.3066l-0.65039 4.416 3.5742-0.73633 2.5976-2.5703-2.2754-2.209c-0.76378-2.0334-1.6397-3.9306-2.5957-5.8809zm-1.3008 4.4102-2.2773 0.73828 0.6543 4.041 2.9238-1.4668zm-44.836 6.6191 0.97656 5.1445 1.9512-2.9414zm84.842 28.676 3.7363 4.2246 4.3867 9.3711 2.5977 2.9414-1.3008 3.3066 2.4824 2.8164c-1.1381 0.077-2.2809 0.13476-3.4512 0.13476-2.0689-4.346-3.6277-8.6916-5.2031-13.238l-2.7598-3.125-1.4648-5.332z" fill="#f6f6f5"/>
   </g>
   <g fill="url(#radialGradient12288)"></g>
   <circle cx="235.74" cy="39.449" r="23.293" fill="#73ba25" fill-rule="evenodd"/>
   <g transform="matrix(1.3103 0 0 1.3103 214.78 -1410.4)" fill="#fff">
    <g transform="matrix(.26458 0 0 .26458 -10.591 -38.473)" fill="#fff">
     <circle cx="507.46" cy="3582.8" r="0" opacity=".3"/>
     <path d="m100.5 4267.1a60.472 60.472 0 0 0-47.607 23.299c7.376 1.9706 12.597 3.6642 14.16 4.1895 0.0245-0.9593 0.18359-9.5391 0.18359-9.5391s0.0202-0.1964 0.125-0.2988c0.13497-0.1318 0.33008-0.092 0.33008-0.092 1.94 0.281 43.348 6.4189 60.802 16.59 2.1555 1.261 3.2194 2.6017 4.5488 3.9609 4.8248 4.99 11.2 25.739 11.885 30.018 0.0269 0.1681-0.18083 0.3507-0.26953 0.4199h-2e-3c-0.4957 0.3868-1.0355 0.789-1.5762 1.1484-4.13 2.7709-13.644 9.4312-25.851 8.3438-10.965-0.97-25.29-7.2597-42.56-18.639 1.698 3.9756 3.371 7.9635 5.0449 11.949 2.501 1.299 26.641 13.6 38.554 13.359 9.5959-0.1999 19.859-4.8804 23.965-7.3516 0 0 0.90227-0.5436 1.2949-0.2402 0.4295 0.3318 0.31068 0.8402 0.20898 1.3594-0.25259 1.1786-0.82764 3.3289-1.2187 4.3496l-0.33008 0.832c-0.46999 1.2592-0.92111 2.4296-1.791 3.1504-2.4187 2.1993-6.2791 3.9491-12.328 6.5781-9.35 4.09-24.519 6.6911-38.603 6.6016-5.0444-0.1123-9.9178-0.672-14.197-1.1719-8.7822-0.9915-15.928-1.7959-20.285 1.3555a60.472 60.472 0 0 0 45.517 20.773 60.472 60.472 0 0 0 60.472-60.473 60.472 60.472 0 0 0-60.472-60.473zm13.488 35.088c-4.7333-0.1509-9.2467 1.5194-12.707 4.75-3.4587 3.2199-5.438 7.6097-5.6133 12.34-0.327 9.7581 7.3342 17.98 17.084 18.34 4.7548 0.1596 9.2584-1.5118 12.719-4.7617 3.4499-3.2099 5.4292-7.5999 5.6132-12.33 0.335-9.7494-7.3355-17.989-17.096-18.338zm-0.14844 5.2188c6.821 0.242 12.161 5.972 11.932 12.791-0.1053 3.2885-1.4925 6.3369-3.9023 8.5976-2.4133 2.2502-5.5674 3.4203-8.8769 3.3203-6.8052-0.251-12.146-5.9877-11.916-12.808 0.1-3.3008 1.5148-6.3495 3.914-8.5997s5.5383-3.42 8.8496-3.3007zm2.0215 6.2011c-3.0307 0-5.4785 1.631-5.4785 3.6602 0 2.01 2.4478 3.6504 5.4785 3.6504 3.0289 0 5.4863-1.6405 5.4863-3.6504 0-2.0292-2.4557-3.6602-5.4863-3.6602z"/>
    </g>
   </g>
  </g>
 </g>
</svg>
