<svg width="64" height="64" version="1.0" xmlns="http://www.w3.org/2000/svg">
 <defs>
  <linearGradient id="linearGradient973" x1="310.41" x2="310.41" y1="168.84" y2="175.84" gradientTransform="translate(-293.41 -168.84)" gradientUnits="userSpaceOnUse">
   <stop stop-color="#999" offset="0"/>
   <stop stop-color="#ccc" offset=".57143"/>
   <stop stop-color="#808080" offset="1"/>
  </linearGradient>
 </defs>
 <g transform="translate(-293.41 -168.84)">
  <g fill-rule="evenodd">
   <rect x="301.41" y="212.84" width="48" height="20" ry="4" fill="#a02c2c"/>
   <rect x="301.41" y="172.84" width="48" height="59" ry="4" fill="#c83737"/>
   <rect x="303.41" y="172.84" width="44" height="57" ry="2" fill="#ccc"/>
   <rect x="303.41" y="171.84" width="44" height="54" ry="2" fill="#fff"/>
   <g fill="#333">
    <rect x="307.41" y="172.84" width="4" height="4" ry="2"/>
    <rect x="315.41" y="172.84" width="4" height="4" ry="2"/>
    <rect x="323.41" y="172.84" width="4" height="4" ry="2"/>
    <rect x="331.41" y="172.84" width="4" height="4" ry="2"/>
    <rect x="339.41" y="172.84" width="4" height="4" ry="2"/>
   </g>
   <path transform="translate(293.41 168.84)" d="m16 0c-0.554 0-1 0.446-1 1v5c0 0.554 0.446 1 1 1s1-0.446 1-1v-5c0-0.554-0.446-1-1-1zm8 0c-0.554 0-1 0.446-1 1v5c0 0.554 0.446 1 1 1s1-0.446 1-1v-5c0-0.554-0.446-1-1-1zm8 0c-0.554 0-1 0.446-1 1v5c0 0.554 0.446 1 1 1s1-0.446 1-1v-5c0-0.554-0.446-1-1-1zm8 0c-0.554 0-1 0.446-1 1v5c0 0.554 0.446 1 1 1s1-0.446 1-1v-5c0-0.554-0.446-1-1-1zm8 0c-0.554 0-1 0.446-1 1v5c0 0.554 0.446 1 1 1s1-0.446 1-1v-5c0-0.554-0.446-1-1-1z" fill="url(#linearGradient973)"/>
  </g>
  <path transform="translate(293.41,168.84)" d="m41.656 15.238c-2.1094 0-3.8359 0.74219-5.1797 2.2266-1.3281 1.4688-1.9922 3.3828-1.9922 5.7422 0 3.4219 1.6484 6.3984 4.9453 8.9297-2.125 1.3906-3.6172 2.8594-4.4766 4.4062-0.84375 1.5312-1.2656 3.2812-1.2656 5.25 0 2.5781 0.76562 4.6719 2.2969 6.2812 1.5312 1.5938 3.5 2.3906 5.9062 2.3906 2.2344 0 4.0703-0.83594 5.5078-2.5078 1.4531-1.6875 2.1797-3.8359 2.1797-6.4453 0-1.2969-0.22656-2.4609-0.67969-3.4922-0.45313-1.0469-1.0938-2.0078-1.9219-2.8828-0.82812-0.875-2.0781-1.875-3.75-3 3.75-2.2344 5.625-5.2422 5.625-9.0234 0-2.4531-0.66406-4.375-1.9922-5.7656-1.3125-1.4062-3.0469-2.1094-5.2031-2.1094zm-18.727 0.49219-6.6094 6.0938 1.1953 1.4766 2.9297-2.6719c1.2031-1.2031 1.9688-2.0234 2.2969-2.4609-0.125 2.375-0.1875 4.5859-0.1875 6.6328v25.195h2.25v-34.266h-1.875zm18.68 1.6172c1.5469 0 2.7422 0.52344 3.5859 1.5703 0.85938 1.0469 1.2891 2.5078 1.2891 4.3828 0 1.6094-0.39062 3.0547-1.1719 4.3359-0.76562 1.2812-2 2.4297-3.7031 3.4453-1.7656-1.1719-3-2.3594-3.7031-3.5625s-1.0547-2.6094-1.0547-4.2188c0-1.875 0.42188-3.3359 1.2656-4.3828 0.85937-1.0469 2.0234-1.5703 3.4922-1.5703zm-0.44531 15.75 1.1484 0.77344c3.2344 2.2344 4.8516 4.7422 4.8516 7.5234 0 2.1562-0.5 3.8594-1.5 5.1094-0.98437 1.2344-2.3047 1.8516-3.9609 1.8516-1.6875 0-3.0469-0.59375-4.0781-1.7812s-1.5469-2.7656-1.5469-4.7344c0-2 0.375-3.6484 1.125-4.9453 0.75-1.3125 2.0703-2.5781 3.9609-3.7969z"/>
 </g>
</svg>
