<svg width="64" height="64" version="1.0" xmlns="http://www.w3.org/2000/svg">
 <defs>
  <linearGradient id="linearGradient973" x1="310.41" x2="310.41" y1="168.84" y2="175.84" gradientTransform="translate(-293.41 -168.84)" gradientUnits="userSpaceOnUse">
   <stop stop-color="#999" offset="0"/>
   <stop stop-color="#ccc" offset=".57143"/>
   <stop stop-color="#808080" offset="1"/>
  </linearGradient>
 </defs>
 <g transform="translate(-293.41 -168.84)">
  <g fill-rule="evenodd">
   <rect x="301.41" y="212.84" width="48" height="20" ry="4" fill="#a02c2c"/>
   <rect x="301.41" y="172.84" width="48" height="59" ry="4" fill="#c83737"/>
   <rect x="303.41" y="172.84" width="44" height="57" ry="2" fill="#ccc"/>
   <rect x="303.41" y="171.84" width="44" height="54" ry="2" fill="#fff"/>
   <g fill="#333">
    <rect x="307.41" y="172.84" width="4" height="4" ry="2"/>
    <rect x="315.41" y="172.84" width="4" height="4" ry="2"/>
    <rect x="323.41" y="172.84" width="4" height="4" ry="2"/>
    <rect x="331.41" y="172.84" width="4" height="4" ry="2"/>
    <rect x="339.41" y="172.84" width="4" height="4" ry="2"/>
   </g>
   <path transform="translate(293.41 168.84)" d="m16 0c-0.554 0-1 0.446-1 1v5c0 0.554 0.446 1 1 1s1-0.446 1-1v-5c0-0.554-0.446-1-1-1zm8 0c-0.554 0-1 0.446-1 1v5c0 0.554 0.446 1 1 1s1-0.446 1-1v-5c0-0.554-0.446-1-1-1zm8 0c-0.554 0-1 0.446-1 1v5c0 0.554 0.446 1 1 1s1-0.446 1-1v-5c0-0.554-0.446-1-1-1zm8 0c-0.554 0-1 0.446-1 1v5c0 0.554 0.446 1 1 1s1-0.446 1-1v-5c0-0.554-0.446-1-1-1zm8 0c-0.554 0-1 0.446-1 1v5c0 0.554 0.446 1 1 1s1-0.446 1-1v-5c0-0.554-0.446-1-1-1z" fill="url(#linearGradient973)"/>
  </g>
  <path transform="translate(293.41,168.84)" d="m21.641 15.238c-1.3125 0-2.4766 0.17188-3.4922 0.51562-1 0.34375-2.0469 0.92969-3.1406 1.7578l1.2422 1.7578c0.8125-0.64062 1.6172-1.1172 2.4141-1.4297 0.8125-0.32812 1.7578-0.49219 2.8359-0.49219 1.6406 0 2.9375 0.54688 3.8906 1.6406s1.4297 2.5625 1.4297 4.4062c0 2.4062-0.36719 4.5859-1.1016 6.5391-0.71875 1.9531-2.1406 4.5469-4.2656 7.7812l-6.9141 10.453v1.8281h15.352v-2.1094h-12.727v-0.1875l6.3047-9.3281c1.6094-2.3281 2.7578-4.2188 3.4453-5.6719 0.70313-1.4531 1.2422-2.9375 1.6172-4.4531 0.39062-1.5156 0.58594-3.1328 0.58594-4.8516 0-2.5-0.65625-4.4844-1.9688-5.9531s-3.1484-2.2031-5.5078-2.2031zm22.641 0c-3.2812 0-5.7578 1.6484-7.4297 4.9453-1.6719 3.2812-2.5078 8.3516-2.5078 15.211 0 4.8906 0.64062 8.625 1.9219 11.203 1.2969 2.5781 3.1719 3.8672 5.625 3.8672 2.2031 0 3.9531-0.97656 5.25-2.9297s1.9453-4.6406 1.9453-8.0625c0-3.3125-0.61719-5.9141-1.8516-7.8047-1.2188-1.8906-2.8906-2.8359-5.0156-2.8359-1.2031 0-2.2656 0.33594-3.1875 1.0078s-1.6484 1.6016-2.1797 2.7891h-0.1875c0.15625-4.9531 0.86719-8.7188 2.1328-11.297 1.2812-2.5938 3.0469-3.8906 5.2969-3.8906 1.2031 0 2.2578 0.19531 3.1641 0.58594v-2.25c-0.78125-0.35938-1.7734-0.53906-2.9766-0.53906zm-2.3906 15.75c1.6094 0 2.8203 0.74219 3.6328 2.2266 0.8125 1.4688 1.2188 3.5938 1.2188 6.375 0 2.9062-0.41406 5.0781-1.2422 6.5156s-2.0156 2.1562-3.5625 2.1562c-1.0469 0-1.9609-0.42969-2.7422-1.2891-0.76562-0.85938-1.375-2.125-1.8281-3.7969-0.4375-1.6875-0.65625-3.5078-0.65625-5.4609s0.46875-3.5625 1.4062-4.8281c0.95312-1.2656 2.2109-1.8984 3.7734-1.8984z"/>
 </g>
</svg>
